%TF.GenerationSoftware,KiCad,Pcbnew,(6.0.1)*%
%TF.CreationDate,2022-02-14T23:43:43+08:00*%
%TF.ProjectId,SDisk2_Simple,53446973-6b32-45f5-9369-6d706c652e6b,rev?*%
%TF.SameCoordinates,Original*%
%TF.FileFunction,Legend,Bot*%
%TF.FilePolarity,Positive*%
%FSLAX46Y46*%
G04 Gerber Fmt 4.6, Leading zero omitted, Abs format (unit mm)*
G04 Created by KiCad (PCBNEW (6.0.1)) date 2022-02-14 23:43:43*
%MOMM*%
%LPD*%
G01*
G04 APERTURE LIST*
%ADD10C,0.150000*%
%ADD11C,0.300000*%
%ADD12C,0.200000*%
%ADD13C,0.120000*%
G04 APERTURE END LIST*
D10*
X2680373Y-23842107D02*
X2680373Y-22842107D01*
X2299421Y-22842107D01*
X2204182Y-22889727D01*
X2156563Y-22937346D01*
X2108944Y-23032584D01*
X2108944Y-23175441D01*
X2156563Y-23270679D01*
X2204182Y-23318298D01*
X2299421Y-23365917D01*
X2680373Y-23365917D01*
X1108944Y-23746869D02*
X1156563Y-23794488D01*
X1299421Y-23842107D01*
X1394659Y-23842107D01*
X1537516Y-23794488D01*
X1632754Y-23699250D01*
X1680373Y-23604012D01*
X1727992Y-23413536D01*
X1727992Y-23270679D01*
X1680373Y-23080203D01*
X1632754Y-22984965D01*
X1537516Y-22889727D01*
X1394659Y-22842107D01*
X1299421Y-22842107D01*
X1156563Y-22889727D01*
X1108944Y-22937346D01*
X347040Y-23318298D02*
X204182Y-23365917D01*
X156563Y-23413536D01*
X108944Y-23508774D01*
X108944Y-23651631D01*
X156563Y-23746869D01*
X204182Y-23794488D01*
X299421Y-23842107D01*
X680373Y-23842107D01*
X680373Y-22842107D01*
X347040Y-22842107D01*
X251802Y-22889727D01*
X204182Y-22937346D01*
X156563Y-23032584D01*
X156563Y-23127822D01*
X204182Y-23223060D01*
X251802Y-23270679D01*
X347040Y-23318298D01*
X680373Y-23318298D01*
X-1224388Y-23842107D02*
X-1129150Y-23794488D01*
X-1081531Y-23699250D01*
X-1081531Y-22842107D01*
X-2033912Y-23842107D02*
X-2033912Y-23318298D01*
X-1986293Y-23223060D01*
X-1891055Y-23175441D01*
X-1700578Y-23175441D01*
X-1605340Y-23223060D01*
X-2033912Y-23794488D02*
X-1938674Y-23842107D01*
X-1700578Y-23842107D01*
X-1605340Y-23794488D01*
X-1557721Y-23699250D01*
X-1557721Y-23604012D01*
X-1605340Y-23508774D01*
X-1700578Y-23461155D01*
X-1938674Y-23461155D01*
X-2033912Y-23413536D01*
X-2414864Y-23175441D02*
X-2652959Y-23842107D01*
X-2891055Y-23175441D02*
X-2652959Y-23842107D01*
X-2557721Y-24080203D01*
X-2510102Y-24127822D01*
X-2414864Y-24175441D01*
X-3414864Y-23842107D02*
X-3319626Y-23794488D01*
X-3272007Y-23746869D01*
X-3224388Y-23651631D01*
X-3224388Y-23365917D01*
X-3272007Y-23270679D01*
X-3319626Y-23223060D01*
X-3414864Y-23175441D01*
X-3557721Y-23175441D01*
X-3652959Y-23223060D01*
X-3700578Y-23270679D01*
X-3748198Y-23365917D01*
X-3748198Y-23651631D01*
X-3700578Y-23746869D01*
X-3652959Y-23794488D01*
X-3557721Y-23842107D01*
X-3414864Y-23842107D01*
X-4605340Y-23175441D02*
X-4605340Y-23842107D01*
X-4176769Y-23175441D02*
X-4176769Y-23699250D01*
X-4224388Y-23794488D01*
X-4319626Y-23842107D01*
X-4462483Y-23842107D01*
X-4557721Y-23794488D01*
X-4605340Y-23746869D01*
X-4938674Y-23175441D02*
X-5319626Y-23175441D01*
X-5081531Y-22842107D02*
X-5081531Y-23699250D01*
X-5129150Y-23794488D01*
X-5224388Y-23842107D01*
X-5319626Y-23842107D01*
X6561325Y-25833060D02*
X6608944Y-25785441D01*
X6704182Y-25642584D01*
X6751802Y-25547346D01*
X6799421Y-25404488D01*
X6847040Y-25166393D01*
X6847040Y-24975917D01*
X6799421Y-24737822D01*
X6751802Y-24594965D01*
X6704182Y-24499727D01*
X6608944Y-24356869D01*
X6561325Y-24309250D01*
X5751802Y-25404488D02*
X5847040Y-25452107D01*
X6037516Y-25452107D01*
X6132754Y-25404488D01*
X6180373Y-25356869D01*
X6227992Y-25261631D01*
X6227992Y-24975917D01*
X6180373Y-24880679D01*
X6132754Y-24833060D01*
X6037516Y-24785441D01*
X5847040Y-24785441D01*
X5751802Y-24833060D01*
X5418468Y-25833060D02*
X5370849Y-25785441D01*
X5275611Y-25642584D01*
X5227992Y-25547346D01*
X5180373Y-25404488D01*
X5132754Y-25166393D01*
X5132754Y-24975917D01*
X5180373Y-24737822D01*
X5227992Y-24594965D01*
X5275611Y-24499727D01*
X5370849Y-24356869D01*
X5418468Y-24309250D01*
X3942278Y-24547346D02*
X3894659Y-24499727D01*
X3799421Y-24452107D01*
X3561325Y-24452107D01*
X3466087Y-24499727D01*
X3418468Y-24547346D01*
X3370849Y-24642584D01*
X3370849Y-24737822D01*
X3418468Y-24880679D01*
X3989897Y-25452107D01*
X3370849Y-25452107D01*
X2751802Y-24452107D02*
X2656563Y-24452107D01*
X2561325Y-24499727D01*
X2513706Y-24547346D01*
X2466087Y-24642584D01*
X2418468Y-24833060D01*
X2418468Y-25071155D01*
X2466087Y-25261631D01*
X2513706Y-25356869D01*
X2561325Y-25404488D01*
X2656563Y-25452107D01*
X2751802Y-25452107D01*
X2847040Y-25404488D01*
X2894659Y-25356869D01*
X2942278Y-25261631D01*
X2989897Y-25071155D01*
X2989897Y-24833060D01*
X2942278Y-24642584D01*
X2894659Y-24547346D01*
X2847040Y-24499727D01*
X2751802Y-24452107D01*
X2037516Y-24547346D02*
X1989897Y-24499727D01*
X1894659Y-24452107D01*
X1656563Y-24452107D01*
X1561325Y-24499727D01*
X1513706Y-24547346D01*
X1466087Y-24642584D01*
X1466087Y-24737822D01*
X1513706Y-24880679D01*
X2085135Y-25452107D01*
X1466087Y-25452107D01*
X1085135Y-24547346D02*
X1037516Y-24499727D01*
X942278Y-24452107D01*
X704182Y-24452107D01*
X608944Y-24499727D01*
X561325Y-24547346D01*
X513706Y-24642584D01*
X513706Y-24737822D01*
X561325Y-24880679D01*
X1132754Y-25452107D01*
X513706Y-25452107D01*
X-533912Y-24452107D02*
X-1105340Y-24452107D01*
X-819626Y-25452107D02*
X-819626Y-24452107D01*
X-1819626Y-25404488D02*
X-1724388Y-25452107D01*
X-1533912Y-25452107D01*
X-1438674Y-25404488D01*
X-1391055Y-25309250D01*
X-1391055Y-24928298D01*
X-1438674Y-24833060D01*
X-1533912Y-24785441D01*
X-1724388Y-24785441D01*
X-1819626Y-24833060D01*
X-1867245Y-24928298D01*
X-1867245Y-25023536D01*
X-1391055Y-25118774D01*
X-2295817Y-25452107D02*
X-2295817Y-24785441D01*
X-2295817Y-24975917D02*
X-2343436Y-24880679D01*
X-2391055Y-24833060D01*
X-2486293Y-24785441D01*
X-2581531Y-24785441D01*
X-3295817Y-25404488D02*
X-3200578Y-25452107D01*
X-3010102Y-25452107D01*
X-2914864Y-25404488D01*
X-2867245Y-25309250D01*
X-2867245Y-24928298D01*
X-2914864Y-24833060D01*
X-3010102Y-24785441D01*
X-3200578Y-24785441D01*
X-3295817Y-24833060D01*
X-3343436Y-24928298D01*
X-3343436Y-25023536D01*
X-2867245Y-25118774D01*
X-3772007Y-24785441D02*
X-3772007Y-25452107D01*
X-3772007Y-24880679D02*
X-3819626Y-24833060D01*
X-3914864Y-24785441D01*
X-4057721Y-24785441D01*
X-4152959Y-24833060D01*
X-4200578Y-24928298D01*
X-4200578Y-25452107D01*
X-5105340Y-25404488D02*
X-5010102Y-25452107D01*
X-4819626Y-25452107D01*
X-4724388Y-25404488D01*
X-4676769Y-25356869D01*
X-4629150Y-25261631D01*
X-4629150Y-24975917D01*
X-4676769Y-24880679D01*
X-4724388Y-24833060D01*
X-4819626Y-24785441D01*
X-5010102Y-24785441D01*
X-5105340Y-24833060D01*
X-5914864Y-25404488D02*
X-5819626Y-25452107D01*
X-5629150Y-25452107D01*
X-5533912Y-25404488D01*
X-5486293Y-25309250D01*
X-5486293Y-24928298D01*
X-5533912Y-24833060D01*
X-5629150Y-24785441D01*
X-5819626Y-24785441D01*
X-5914864Y-24833060D01*
X-5962483Y-24928298D01*
X-5962483Y-25023536D01*
X-5486293Y-25118774D01*
X-7105340Y-25166393D02*
X-7581531Y-25166393D01*
X-7010102Y-25452107D02*
X-7343436Y-24452107D01*
X-7676769Y-25452107D01*
X-8010102Y-24785441D02*
X-8010102Y-25452107D01*
X-8010102Y-24880679D02*
X-8057721Y-24833060D01*
X-8152959Y-24785441D01*
X-8295817Y-24785441D01*
X-8391055Y-24833060D01*
X-8438674Y-24928298D01*
X-8438674Y-25452107D01*
X-9343436Y-24785441D02*
X-9343436Y-25594965D01*
X-9295817Y-25690203D01*
X-9248197Y-25737822D01*
X-9152959Y-25785441D01*
X-9010102Y-25785441D01*
X-8914864Y-25737822D01*
X-9343436Y-25404488D02*
X-9248197Y-25452107D01*
X-9057721Y-25452107D01*
X-8962483Y-25404488D01*
X-8914864Y-25356869D01*
X-8867245Y-25261631D01*
X-8867245Y-24975917D01*
X-8914864Y-24880679D01*
X-8962483Y-24833060D01*
X-9057721Y-24785441D01*
X-9248197Y-24785441D01*
X-9343436Y-24833060D01*
X4180373Y-27062107D02*
X4180373Y-26395441D01*
X4180373Y-26490679D02*
X4132754Y-26443060D01*
X4037516Y-26395441D01*
X3894659Y-26395441D01*
X3799421Y-26443060D01*
X3751802Y-26538298D01*
X3751802Y-27062107D01*
X3751802Y-26538298D02*
X3704182Y-26443060D01*
X3608944Y-26395441D01*
X3466087Y-26395441D01*
X3370849Y-26443060D01*
X3323230Y-26538298D01*
X3323230Y-27062107D01*
X2704182Y-27062107D02*
X2799421Y-27014488D01*
X2847040Y-26966869D01*
X2894659Y-26871631D01*
X2894659Y-26585917D01*
X2847040Y-26490679D01*
X2799421Y-26443060D01*
X2704182Y-26395441D01*
X2561325Y-26395441D01*
X2466087Y-26443060D01*
X2418468Y-26490679D01*
X2370849Y-26585917D01*
X2370849Y-26871631D01*
X2418468Y-26966869D01*
X2466087Y-27014488D01*
X2561325Y-27062107D01*
X2704182Y-27062107D01*
X2085135Y-26395441D02*
X1704182Y-26395441D01*
X1942278Y-26062107D02*
X1942278Y-26919250D01*
X1894659Y-27014488D01*
X1799421Y-27062107D01*
X1704182Y-27062107D01*
X1370849Y-27062107D02*
X1370849Y-26395441D01*
X1370849Y-26062107D02*
X1418468Y-26109727D01*
X1370849Y-26157346D01*
X1323230Y-26109727D01*
X1370849Y-26062107D01*
X1370849Y-26157346D01*
X751802Y-27062107D02*
X847040Y-27014488D01*
X894659Y-26966869D01*
X942278Y-26871631D01*
X942278Y-26585917D01*
X894659Y-26490679D01*
X847040Y-26443060D01*
X751802Y-26395441D01*
X608944Y-26395441D01*
X513706Y-26443060D01*
X466087Y-26490679D01*
X418468Y-26585917D01*
X418468Y-26871631D01*
X466087Y-26966869D01*
X513706Y-27014488D01*
X608944Y-27062107D01*
X751802Y-27062107D01*
X-10102Y-26395441D02*
X-10102Y-27062107D01*
X-10102Y-26490679D02*
X-57721Y-26443060D01*
X-152959Y-26395441D01*
X-295817Y-26395441D01*
X-391055Y-26443060D01*
X-438674Y-26538298D01*
X-438674Y-27062107D01*
X-772007Y-26395441D02*
X-1152959Y-26395441D01*
X-914864Y-27062107D02*
X-914864Y-26204965D01*
X-962483Y-26109727D01*
X-1057721Y-26062107D01*
X-1152959Y-26062107D01*
X-1391055Y-27062107D02*
X-1914864Y-26395441D01*
X-1391055Y-26395441D02*
X-1914864Y-27062107D01*
X-2724388Y-27062107D02*
X-2724388Y-26062107D01*
X-2724388Y-27014488D02*
X-2629150Y-27062107D01*
X-2438674Y-27062107D01*
X-2343436Y-27014488D01*
X-2295817Y-26966869D01*
X-2248197Y-26871631D01*
X-2248197Y-26585917D01*
X-2295817Y-26490679D01*
X-2343436Y-26443060D01*
X-2438674Y-26395441D01*
X-2629150Y-26395441D01*
X-2724388Y-26443060D01*
X-3581531Y-27014488D02*
X-3486293Y-27062107D01*
X-3295817Y-27062107D01*
X-3200578Y-27014488D01*
X-3152959Y-26919250D01*
X-3152959Y-26538298D01*
X-3200578Y-26443060D01*
X-3295817Y-26395441D01*
X-3486293Y-26395441D01*
X-3581531Y-26443060D01*
X-3629150Y-26538298D01*
X-3629150Y-26633536D01*
X-3152959Y-26728774D01*
X-4010102Y-27014488D02*
X-4105340Y-27062107D01*
X-4295817Y-27062107D01*
X-4391055Y-27014488D01*
X-4438674Y-26919250D01*
X-4438674Y-26871631D01*
X-4391055Y-26776393D01*
X-4295817Y-26728774D01*
X-4152959Y-26728774D01*
X-4057721Y-26681155D01*
X-4010102Y-26585917D01*
X-4010102Y-26538298D01*
X-4057721Y-26443060D01*
X-4152959Y-26395441D01*
X-4295817Y-26395441D01*
X-4391055Y-26443060D01*
X-4867245Y-27062107D02*
X-4867245Y-26395441D01*
X-4867245Y-26062107D02*
X-4819626Y-26109727D01*
X-4867245Y-26157346D01*
X-4914864Y-26109727D01*
X-4867245Y-26062107D01*
X-4867245Y-26157346D01*
X-5772007Y-26395441D02*
X-5772007Y-27204965D01*
X-5724388Y-27300203D01*
X-5676769Y-27347822D01*
X-5581531Y-27395441D01*
X-5438674Y-27395441D01*
X-5343436Y-27347822D01*
X-5772007Y-27014488D02*
X-5676769Y-27062107D01*
X-5486293Y-27062107D01*
X-5391055Y-27014488D01*
X-5343436Y-26966869D01*
X-5295817Y-26871631D01*
X-5295817Y-26585917D01*
X-5343436Y-26490679D01*
X-5391055Y-26443060D01*
X-5486293Y-26395441D01*
X-5676769Y-26395441D01*
X-5772007Y-26443060D01*
X-6248198Y-26395441D02*
X-6248198Y-27062107D01*
X-6248198Y-26490679D02*
X-6295817Y-26443060D01*
X-6391055Y-26395441D01*
X-6533912Y-26395441D01*
X-6629150Y-26443060D01*
X-6676769Y-26538298D01*
X-6676769Y-27062107D01*
D11*
X30841598Y-54018571D02*
X30841598Y-52518571D01*
X30484455Y-52518571D01*
X30270170Y-52590000D01*
X30127312Y-52732857D01*
X30055884Y-52875714D01*
X29984455Y-53161428D01*
X29984455Y-53375714D01*
X30055884Y-53661428D01*
X30127312Y-53804285D01*
X30270170Y-53947142D01*
X30484455Y-54018571D01*
X30841598Y-54018571D01*
X29055884Y-52518571D02*
X28770170Y-52518571D01*
X28627312Y-52590000D01*
X28484455Y-52732857D01*
X28413027Y-53018571D01*
X28413027Y-53518571D01*
X28484455Y-53804285D01*
X28627312Y-53947142D01*
X28770170Y-54018571D01*
X29055884Y-54018571D01*
X29198741Y-53947142D01*
X29341598Y-53804285D01*
X29413027Y-53518571D01*
X29413027Y-53018571D01*
X29341598Y-52732857D01*
X29198741Y-52590000D01*
X29055884Y-52518571D01*
X27913027Y-52518571D02*
X27555884Y-54018571D01*
X27270170Y-52947142D01*
X26984455Y-54018571D01*
X26627312Y-52518571D01*
X26055884Y-54018571D02*
X26055884Y-52518571D01*
X25198741Y-54018571D01*
X25198741Y-52518571D01*
D12*
X2731451Y8896272D02*
X2445737Y8801034D01*
X1969546Y8801034D01*
X1779070Y8896272D01*
X1683832Y8991510D01*
X1588594Y9181986D01*
X1588594Y9372462D01*
X1683832Y9562938D01*
X1779070Y9658176D01*
X1969546Y9753415D01*
X2350499Y9848653D01*
X2540975Y9943891D01*
X2636213Y10039129D01*
X2731451Y10229605D01*
X2731451Y10420081D01*
X2636213Y10610557D01*
X2540975Y10705796D01*
X2350499Y10801034D01*
X1874308Y10801034D01*
X1588594Y10705796D01*
X731451Y8801034D02*
X731451Y10801034D01*
X255261Y10801034D01*
X-30453Y10705796D01*
X-220929Y10515319D01*
X-316167Y10324843D01*
X-411405Y9943891D01*
X-411405Y9658176D01*
X-316167Y9277224D01*
X-220929Y9086748D01*
X-30453Y8896272D01*
X255261Y8801034D01*
X731451Y8801034D01*
X-1268548Y8801034D02*
X-1268548Y10134367D01*
X-1268548Y10801034D02*
X-1173310Y10705796D01*
X-1268548Y10610557D01*
X-1363786Y10705796D01*
X-1268548Y10801034D01*
X-1268548Y10610557D01*
X-2125691Y8896272D02*
X-2316167Y8801034D01*
X-2697119Y8801034D01*
X-2887596Y8896272D01*
X-2982834Y9086748D01*
X-2982834Y9181986D01*
X-2887596Y9372462D01*
X-2697119Y9467700D01*
X-2411405Y9467700D01*
X-2220929Y9562938D01*
X-2125691Y9753415D01*
X-2125691Y9848653D01*
X-2220929Y10039129D01*
X-2411405Y10134367D01*
X-2697119Y10134367D01*
X-2887596Y10039129D01*
X-3839976Y8801034D02*
X-3839976Y10801034D01*
X-4030453Y9562938D02*
X-4601881Y8801034D01*
X-4601881Y10134367D02*
X-3839976Y9372462D01*
X-5363786Y10610557D02*
X-5459024Y10705796D01*
X-5649500Y10801034D01*
X-6125691Y10801034D01*
X-6316167Y10705796D01*
X-6411405Y10610557D01*
X-6506643Y10420081D01*
X-6506643Y10229605D01*
X-6411405Y9943891D01*
X-5268548Y8801034D01*
X-6506643Y8801034D01*
D11*
X15160964Y-53232857D02*
X14660964Y-53232857D01*
X14446679Y-54018571D02*
X15160964Y-54018571D01*
X15160964Y-52518571D01*
X14446679Y-52518571D01*
X13803822Y-54018571D02*
X13803822Y-52518571D01*
X12946679Y-54018571D01*
X12946679Y-52518571D01*
X12446679Y-52518571D02*
X11589536Y-52518571D01*
X12018107Y-54018571D02*
X12018107Y-52518571D01*
X11089536Y-53232857D02*
X10589536Y-53232857D01*
X10375250Y-54018571D02*
X11089536Y-54018571D01*
X11089536Y-52518571D01*
X10375250Y-52518571D01*
X8875250Y-54018571D02*
X9375250Y-53304285D01*
X9732393Y-54018571D02*
X9732393Y-52518571D01*
X9160964Y-52518571D01*
X9018107Y-52590000D01*
X8946679Y-52661428D01*
X8875250Y-52804285D01*
X8875250Y-53018571D01*
X8946679Y-53161428D01*
X9018107Y-53232857D01*
X9160964Y-53304285D01*
X9732393Y-53304285D01*
X45652856Y-52518571D02*
X45652856Y-53732857D01*
X45581427Y-53875714D01*
X45509999Y-53947142D01*
X45367142Y-54018571D01*
X45081427Y-54018571D01*
X44938570Y-53947142D01*
X44867142Y-53875714D01*
X44795713Y-53732857D01*
X44795713Y-52518571D01*
X44081427Y-54018571D02*
X44081427Y-52518571D01*
X43509999Y-52518571D01*
X43367142Y-52590000D01*
X43295713Y-52661428D01*
X43224285Y-52804285D01*
X43224285Y-53018571D01*
X43295713Y-53161428D01*
X43367142Y-53232857D01*
X43509999Y-53304285D01*
X44081427Y-53304285D01*
D12*
X49477695Y-32901948D02*
X49477695Y-31701948D01*
X49077695Y-32559091D01*
X48677695Y-31701948D01*
X48677695Y-32901948D01*
X47591981Y-32901948D02*
X47591981Y-32273376D01*
X47649124Y-32159091D01*
X47763409Y-32101948D01*
X47991981Y-32101948D01*
X48106267Y-32159091D01*
X47591981Y-32844805D02*
X47706267Y-32901948D01*
X47991981Y-32901948D01*
X48106267Y-32844805D01*
X48163409Y-32730519D01*
X48163409Y-32616233D01*
X48106267Y-32501948D01*
X47991981Y-32444805D01*
X47706267Y-32444805D01*
X47591981Y-32387662D01*
X46506267Y-32101948D02*
X46506267Y-33073376D01*
X46563409Y-33187662D01*
X46620552Y-33244805D01*
X46734838Y-33301948D01*
X46906267Y-33301948D01*
X47020552Y-33244805D01*
X46506267Y-32844805D02*
X46620552Y-32901948D01*
X46849124Y-32901948D01*
X46963409Y-32844805D01*
X47020552Y-32787662D01*
X47077695Y-32673376D01*
X47077695Y-32330519D01*
X47020552Y-32216233D01*
X46963409Y-32159091D01*
X46849124Y-32101948D01*
X46620552Y-32101948D01*
X46506267Y-32159091D01*
X45934838Y-32101948D02*
X45934838Y-32901948D01*
X45934838Y-32216233D02*
X45877695Y-32159091D01*
X45763409Y-32101948D01*
X45591981Y-32101948D01*
X45477695Y-32159091D01*
X45420552Y-32273376D01*
X45420552Y-32901948D01*
X44849124Y-32901948D02*
X44849124Y-32101948D01*
X44849124Y-31701948D02*
X44906267Y-31759091D01*
X44849124Y-31816233D01*
X44791981Y-31759091D01*
X44849124Y-31701948D01*
X44849124Y-31816233D01*
X44449124Y-32101948D02*
X43991981Y-32101948D01*
X44277695Y-32901948D02*
X44277695Y-31873376D01*
X44220552Y-31759091D01*
X44106267Y-31701948D01*
X43991981Y-31701948D01*
X43706267Y-32101948D02*
X43420552Y-32901948D01*
X43134838Y-32101948D02*
X43420552Y-32901948D01*
X43534838Y-33187662D01*
X43591981Y-33244805D01*
X43706267Y-33301948D01*
X42677695Y-32901948D02*
X42677695Y-32101948D01*
X42677695Y-31701948D02*
X42734838Y-31759091D01*
X42677695Y-31816233D01*
X42620552Y-31759091D01*
X42677695Y-31701948D01*
X42677695Y-31816233D01*
X42106267Y-32101948D02*
X42106267Y-32901948D01*
X42106267Y-32216233D02*
X42049124Y-32159091D01*
X41934838Y-32101948D01*
X41763409Y-32101948D01*
X41649124Y-32159091D01*
X41591981Y-32273376D01*
X41591981Y-32901948D01*
X40506267Y-32101948D02*
X40506267Y-33073376D01*
X40563409Y-33187662D01*
X40620552Y-33244805D01*
X40734838Y-33301948D01*
X40906267Y-33301948D01*
X41020552Y-33244805D01*
X40506267Y-32844805D02*
X40620552Y-32901948D01*
X40849124Y-32901948D01*
X40963409Y-32844805D01*
X41020552Y-32787662D01*
X41077695Y-32673376D01*
X41077695Y-32330519D01*
X41020552Y-32216233D01*
X40963409Y-32159091D01*
X40849124Y-32101948D01*
X40620552Y-32101948D01*
X40506267Y-32159091D01*
X38391981Y-31759091D02*
X38506267Y-31701948D01*
X38677695Y-31701948D01*
X38849124Y-31759091D01*
X38963409Y-31873376D01*
X39020552Y-31987662D01*
X39077695Y-32216233D01*
X39077695Y-32387662D01*
X39020552Y-32616233D01*
X38963409Y-32730519D01*
X38849124Y-32844805D01*
X38677695Y-32901948D01*
X38563409Y-32901948D01*
X38391981Y-32844805D01*
X38334838Y-32787662D01*
X38334838Y-32387662D01*
X38563409Y-32387662D01*
X37649124Y-32901948D02*
X37763409Y-32844805D01*
X37820552Y-32730519D01*
X37820552Y-31701948D01*
X36677695Y-32901948D02*
X36677695Y-32273376D01*
X36734838Y-32159091D01*
X36849124Y-32101948D01*
X37077695Y-32101948D01*
X37191981Y-32159091D01*
X36677695Y-32844805D02*
X36791981Y-32901948D01*
X37077695Y-32901948D01*
X37191981Y-32844805D01*
X37249124Y-32730519D01*
X37249124Y-32616233D01*
X37191981Y-32501948D01*
X37077695Y-32444805D01*
X36791981Y-32444805D01*
X36677695Y-32387662D01*
X36163409Y-32844805D02*
X36049124Y-32901948D01*
X35820552Y-32901948D01*
X35706267Y-32844805D01*
X35649124Y-32730519D01*
X35649124Y-32673376D01*
X35706267Y-32559091D01*
X35820552Y-32501948D01*
X35991981Y-32501948D01*
X36106267Y-32444805D01*
X36163409Y-32330519D01*
X36163409Y-32273376D01*
X36106267Y-32159091D01*
X35991981Y-32101948D01*
X35820552Y-32101948D01*
X35706267Y-32159091D01*
X35191981Y-32844805D02*
X35077695Y-32901948D01*
X34849124Y-32901948D01*
X34734838Y-32844805D01*
X34677695Y-32730519D01*
X34677695Y-32673376D01*
X34734838Y-32559091D01*
X34849124Y-32501948D01*
X35020552Y-32501948D01*
X35134838Y-32444805D01*
X35191981Y-32330519D01*
X35191981Y-32273376D01*
X35134838Y-32159091D01*
X35020552Y-32101948D01*
X34849124Y-32101948D01*
X34734838Y-32159091D01*
X47791981Y-34033948D02*
X47791981Y-34833948D01*
X47791981Y-34148233D02*
X47734838Y-34091091D01*
X47620552Y-34033948D01*
X47449124Y-34033948D01*
X47334838Y-34091091D01*
X47277695Y-34205376D01*
X47277695Y-34833948D01*
X46534838Y-34833948D02*
X46649124Y-34776805D01*
X46706267Y-34719662D01*
X46763409Y-34605376D01*
X46763409Y-34262519D01*
X46706267Y-34148233D01*
X46649124Y-34091091D01*
X46534838Y-34033948D01*
X46363409Y-34033948D01*
X46249124Y-34091091D01*
X46191981Y-34148233D01*
X46134838Y-34262519D01*
X46134838Y-34605376D01*
X46191981Y-34719662D01*
X46249124Y-34776805D01*
X46363409Y-34833948D01*
X46534838Y-34833948D01*
X45791981Y-34033948D02*
X45334838Y-34033948D01*
X45620552Y-33633948D02*
X45620552Y-34662519D01*
X45563409Y-34776805D01*
X45449124Y-34833948D01*
X45334838Y-34833948D01*
X44020552Y-34833948D02*
X44020552Y-34033948D01*
X44020552Y-33633948D02*
X44077695Y-33691091D01*
X44020552Y-33748233D01*
X43963409Y-33691091D01*
X44020552Y-33633948D01*
X44020552Y-33748233D01*
X43449124Y-34033948D02*
X43449124Y-34833948D01*
X43449124Y-34148233D02*
X43391981Y-34091091D01*
X43277695Y-34033948D01*
X43106267Y-34033948D01*
X42991981Y-34091091D01*
X42934838Y-34205376D01*
X42934838Y-34833948D01*
X41849124Y-34776805D02*
X41963409Y-34833948D01*
X42191981Y-34833948D01*
X42306267Y-34776805D01*
X42363409Y-34719662D01*
X42420552Y-34605376D01*
X42420552Y-34262519D01*
X42363409Y-34148233D01*
X42306267Y-34091091D01*
X42191981Y-34033948D01*
X41963409Y-34033948D01*
X41849124Y-34091091D01*
X41163409Y-34833948D02*
X41277695Y-34776805D01*
X41334838Y-34662519D01*
X41334838Y-33633948D01*
X40191981Y-34033948D02*
X40191981Y-34833948D01*
X40706267Y-34033948D02*
X40706267Y-34662519D01*
X40649124Y-34776805D01*
X40534838Y-34833948D01*
X40363409Y-34833948D01*
X40249124Y-34776805D01*
X40191981Y-34719662D01*
X39106267Y-34833948D02*
X39106267Y-33633948D01*
X39106267Y-34776805D02*
X39220552Y-34833948D01*
X39449124Y-34833948D01*
X39563409Y-34776805D01*
X39620552Y-34719662D01*
X39677695Y-34605376D01*
X39677695Y-34262519D01*
X39620552Y-34148233D01*
X39563409Y-34091091D01*
X39449124Y-34033948D01*
X39220552Y-34033948D01*
X39106267Y-34091091D01*
X38077695Y-34776805D02*
X38191981Y-34833948D01*
X38420552Y-34833948D01*
X38534838Y-34776805D01*
X38591981Y-34662519D01*
X38591981Y-34205376D01*
X38534838Y-34091091D01*
X38420552Y-34033948D01*
X38191981Y-34033948D01*
X38077695Y-34091091D01*
X38020552Y-34205376D01*
X38020552Y-34319662D01*
X38591981Y-34433948D01*
X36991981Y-34833948D02*
X36991981Y-33633948D01*
X36991981Y-34776805D02*
X37106267Y-34833948D01*
X37334838Y-34833948D01*
X37449124Y-34776805D01*
X37506267Y-34719662D01*
X37563409Y-34605376D01*
X37563409Y-34262519D01*
X37506267Y-34148233D01*
X37449124Y-34091091D01*
X37334838Y-34033948D01*
X37106267Y-34033948D01*
X36991981Y-34091091D01*
X36420552Y-34719662D02*
X36363409Y-34776805D01*
X36420552Y-34833948D01*
X36477695Y-34776805D01*
X36420552Y-34719662D01*
X36420552Y-34833948D01*
X2657437Y3532628D02*
X1990770Y3532628D01*
X2790770Y3132628D02*
X2324103Y4532628D01*
X1857437Y3132628D01*
X1390770Y4065962D02*
X1390770Y2665962D01*
X1390770Y3999295D02*
X1257437Y4065962D01*
X990770Y4065962D01*
X857437Y3999295D01*
X790770Y3932628D01*
X724103Y3799295D01*
X724103Y3399295D01*
X790770Y3265962D01*
X857437Y3199295D01*
X990770Y3132628D01*
X1257437Y3132628D01*
X1390770Y3199295D01*
X124103Y4065962D02*
X124103Y2665962D01*
X124103Y3999295D02*
X-9229Y4065962D01*
X-275896Y4065962D01*
X-409229Y3999295D01*
X-475896Y3932628D01*
X-542562Y3799295D01*
X-542562Y3399295D01*
X-475896Y3265962D01*
X-409229Y3199295D01*
X-275896Y3132628D01*
X-9229Y3132628D01*
X124103Y3199295D01*
X-1342562Y3132628D02*
X-1209229Y3199295D01*
X-1142562Y3332628D01*
X-1142562Y4532628D01*
X-2409229Y3199295D02*
X-2275896Y3132628D01*
X-2009229Y3132628D01*
X-1875896Y3199295D01*
X-1809229Y3332628D01*
X-1809229Y3865962D01*
X-1875896Y3999295D01*
X-2009229Y4065962D01*
X-2275896Y4065962D01*
X-2409229Y3999295D01*
X-2475896Y3865962D01*
X-2475896Y3732628D01*
X-1809229Y3599295D01*
X-4142562Y3132628D02*
X-4142562Y4532628D01*
X-4809229Y3132628D02*
X-4809229Y4532628D01*
X8857437Y1611962D02*
X9324103Y1611962D01*
X9324103Y878628D02*
X9324103Y2278628D01*
X8657437Y2278628D01*
X7924103Y878628D02*
X8057437Y945295D01*
X8124103Y1078628D01*
X8124103Y2278628D01*
X7190770Y878628D02*
X7324103Y945295D01*
X7390770Y1011962D01*
X7457437Y1145295D01*
X7457437Y1545295D01*
X7390770Y1678628D01*
X7324103Y1745295D01*
X7190770Y1811962D01*
X6990770Y1811962D01*
X6857437Y1745295D01*
X6790770Y1678628D01*
X6724103Y1545295D01*
X6724103Y1145295D01*
X6790770Y1011962D01*
X6857437Y945295D01*
X6990770Y878628D01*
X7190770Y878628D01*
X6124103Y1811962D02*
X6124103Y411962D01*
X6124103Y1745295D02*
X5990770Y1811962D01*
X5724103Y1811962D01*
X5590770Y1745295D01*
X5524103Y1678628D01*
X5457437Y1545295D01*
X5457437Y1145295D01*
X5524103Y1011962D01*
X5590770Y945295D01*
X5724103Y878628D01*
X5990770Y878628D01*
X6124103Y945295D01*
X4857437Y1811962D02*
X4857437Y411962D01*
X4857437Y1745295D02*
X4724103Y1811962D01*
X4457437Y1811962D01*
X4324103Y1745295D01*
X4257437Y1678628D01*
X4190770Y1545295D01*
X4190770Y1145295D01*
X4257437Y1011962D01*
X4324103Y945295D01*
X4457437Y878628D01*
X4724103Y878628D01*
X4857437Y945295D01*
X3724103Y1811962D02*
X3390770Y878628D01*
X3057436Y1811962D02*
X3390770Y878628D01*
X3524103Y545295D01*
X3590770Y478628D01*
X3724103Y411962D01*
X1457436Y878628D02*
X1457436Y2278628D01*
X1124103Y2278628D01*
X924103Y2211962D01*
X790770Y2078628D01*
X724103Y1945295D01*
X657436Y1678628D01*
X657436Y1478628D01*
X724103Y1211962D01*
X790770Y1078628D01*
X924103Y945295D01*
X1124103Y878628D01*
X1457436Y878628D01*
X57436Y878628D02*
X57436Y1811962D01*
X57436Y2278628D02*
X124103Y2211962D01*
X57436Y2145295D01*
X-9229Y2211962D01*
X57436Y2278628D01*
X57436Y2145295D01*
X-542563Y945295D02*
X-675896Y878628D01*
X-942563Y878628D01*
X-1075896Y945295D01*
X-1142563Y1078628D01*
X-1142563Y1145295D01*
X-1075896Y1278628D01*
X-942563Y1345295D01*
X-742563Y1345295D01*
X-609229Y1411962D01*
X-542563Y1545295D01*
X-542563Y1611962D01*
X-609229Y1745295D01*
X-742563Y1811962D01*
X-942563Y1811962D01*
X-1075896Y1745295D01*
X-1742563Y878628D02*
X-1742563Y2278628D01*
X-1875896Y1411962D02*
X-2275896Y878628D01*
X-2275896Y1811962D02*
X-1742563Y1278628D01*
X-3942563Y1611962D02*
X-4409229Y1611962D01*
X-4609229Y878628D02*
X-3942563Y878628D01*
X-3942563Y2278628D01*
X-4609229Y2278628D01*
X-5209229Y878628D02*
X-5209229Y1811962D01*
X-5209229Y1678628D02*
X-5275896Y1745295D01*
X-5409229Y1811962D01*
X-5609229Y1811962D01*
X-5742563Y1745295D01*
X-5809229Y1611962D01*
X-5809229Y878628D01*
X-5809229Y1611962D02*
X-5875896Y1745295D01*
X-6009229Y1811962D01*
X-6209229Y1811962D01*
X-6342563Y1745295D01*
X-6409229Y1611962D01*
X-6409229Y878628D01*
X-7675896Y1811962D02*
X-7675896Y878628D01*
X-7075896Y1811962D02*
X-7075896Y1078628D01*
X-7142563Y945295D01*
X-7275896Y878628D01*
X-7475896Y878628D01*
X-7609229Y945295D01*
X-7675896Y1011962D01*
X-8542563Y878628D02*
X-8409229Y945295D01*
X-8342562Y1078628D01*
X-8342562Y2278628D01*
X-9675896Y878628D02*
X-9675896Y1611962D01*
X-9609229Y1745295D01*
X-9475896Y1811962D01*
X-9209229Y1811962D01*
X-9075896Y1745295D01*
X-9675896Y945295D02*
X-9542563Y878628D01*
X-9209229Y878628D01*
X-9075896Y945295D01*
X-9009229Y1078628D01*
X-9009229Y1211962D01*
X-9075896Y1345295D01*
X-9209229Y1411962D01*
X-9542563Y1411962D01*
X-9675896Y1478628D01*
X-10142563Y1811962D02*
X-10675896Y1811962D01*
X-10342563Y2278628D02*
X-10342563Y1078628D01*
X-10409229Y945295D01*
X-10542563Y878628D01*
X-10675896Y878628D01*
X-11342562Y878628D02*
X-11209229Y945295D01*
X-11142562Y1011962D01*
X-11075896Y1145295D01*
X-11075896Y1545295D01*
X-11142562Y1678628D01*
X-11209229Y1745295D01*
X-11342562Y1811962D01*
X-11542562Y1811962D01*
X-11675896Y1745295D01*
X-11742562Y1678628D01*
X-11809229Y1545295D01*
X-11809229Y1145295D01*
X-11742562Y1011962D01*
X-11675896Y945295D01*
X-11542562Y878628D01*
X-11342562Y878628D01*
X-12409229Y878628D02*
X-12409229Y1811962D01*
X-12409229Y1545295D02*
X-12475896Y1678628D01*
X-12542562Y1745295D01*
X-12675896Y1811962D01*
X-12809229Y1811962D01*
D10*
%TO.C,C2*%
X28345926Y-14076221D02*
X28393545Y-14028602D01*
X28441164Y-13885745D01*
X28441164Y-13790507D01*
X28393545Y-13647649D01*
X28298307Y-13552411D01*
X28203069Y-13504792D01*
X28012593Y-13457173D01*
X27869736Y-13457173D01*
X27679260Y-13504792D01*
X27584022Y-13552411D01*
X27488784Y-13647649D01*
X27441164Y-13790507D01*
X27441164Y-13885745D01*
X27488784Y-14028602D01*
X27536403Y-14076221D01*
X27536403Y-14457173D02*
X27488784Y-14504792D01*
X27441164Y-14600030D01*
X27441164Y-14838126D01*
X27488784Y-14933364D01*
X27536403Y-14980983D01*
X27631641Y-15028602D01*
X27726879Y-15028602D01*
X27869736Y-14980983D01*
X28441164Y-14409554D01*
X28441164Y-15028602D01*
%TO.C,R4*%
X35272249Y-26884191D02*
X34796059Y-26550858D01*
X35272249Y-26312762D02*
X34272249Y-26312762D01*
X34272249Y-26693715D01*
X34319869Y-26788953D01*
X34367488Y-26836572D01*
X34462726Y-26884191D01*
X34605583Y-26884191D01*
X34700821Y-26836572D01*
X34748440Y-26788953D01*
X34796059Y-26693715D01*
X34796059Y-26312762D01*
X34605583Y-27741334D02*
X35272249Y-27741334D01*
X34224630Y-27503238D02*
X34938916Y-27265143D01*
X34938916Y-27884191D01*
%TO.C,U7*%
X41030221Y11530267D02*
X41030221Y10720743D01*
X40982602Y10625505D01*
X40934983Y10577886D01*
X40839745Y10530267D01*
X40649269Y10530267D01*
X40554031Y10577886D01*
X40506412Y10625505D01*
X40458793Y10720743D01*
X40458793Y11530267D01*
X40077840Y11530267D02*
X39411174Y11530267D01*
X39839745Y10530267D01*
X24807429Y3532357D02*
X24759810Y3675214D01*
X24759810Y3913309D01*
X24807429Y4008547D01*
X24855048Y4056166D01*
X24950286Y4103785D01*
X25045524Y4103785D01*
X25140762Y4056166D01*
X25188381Y4008547D01*
X25236000Y3913309D01*
X25283619Y3722833D01*
X25331238Y3627595D01*
X25378857Y3579976D01*
X25474095Y3532357D01*
X25569333Y3532357D01*
X25664571Y3579976D01*
X25712191Y3627595D01*
X25759810Y3722833D01*
X25759810Y3960928D01*
X25712191Y4103785D01*
X24759810Y4532357D02*
X25759810Y4532357D01*
X25759810Y4770452D01*
X25712191Y4913309D01*
X25616952Y5008547D01*
X25521714Y5056166D01*
X25331238Y5103785D01*
X25188381Y5103785D01*
X24997905Y5056166D01*
X24902667Y5008547D01*
X24807429Y4913309D01*
X24759810Y4770452D01*
X24759810Y4532357D01*
X25045524Y5484738D02*
X25045524Y5960928D01*
X24759810Y5389500D02*
X25759810Y5722833D01*
X24759810Y6056166D01*
X27307980Y3579975D02*
X27260361Y3722832D01*
X27260361Y3960928D01*
X27307980Y4056166D01*
X27355599Y4103785D01*
X27450837Y4151404D01*
X27546075Y4151404D01*
X27641313Y4103785D01*
X27688932Y4056166D01*
X27736551Y3960928D01*
X27784170Y3770452D01*
X27831789Y3675213D01*
X27879408Y3627594D01*
X27974646Y3579975D01*
X28069884Y3579975D01*
X28165122Y3627594D01*
X28212742Y3675213D01*
X28260361Y3770452D01*
X28260361Y4008547D01*
X28212742Y4151404D01*
X27355599Y5151404D02*
X27307980Y5103785D01*
X27260361Y4960928D01*
X27260361Y4865690D01*
X27307980Y4722832D01*
X27403218Y4627594D01*
X27498456Y4579975D01*
X27688932Y4532356D01*
X27831789Y4532356D01*
X28022265Y4579975D01*
X28117503Y4627594D01*
X28212742Y4722832D01*
X28260361Y4865690D01*
X28260361Y4960928D01*
X28212742Y5103785D01*
X28165122Y5151404D01*
X27260361Y6056166D02*
X27260361Y5579975D01*
X28260361Y5579975D01*
X33261463Y3389499D02*
X32261463Y3722833D01*
X33261463Y4056166D01*
X32356701Y4960928D02*
X32309082Y4913309D01*
X32261463Y4770452D01*
X32261463Y4675213D01*
X32309082Y4532356D01*
X32404320Y4437118D01*
X32499558Y4389499D01*
X32690034Y4341880D01*
X32832891Y4341880D01*
X33023367Y4389499D01*
X33118605Y4437118D01*
X33213844Y4532356D01*
X33261463Y4675213D01*
X33261463Y4770452D01*
X33213844Y4913309D01*
X33166224Y4960928D01*
X32356701Y5960928D02*
X32309082Y5913309D01*
X32261463Y5770452D01*
X32261463Y5675213D01*
X32309082Y5532356D01*
X32404320Y5437118D01*
X32499558Y5389499D01*
X32690034Y5341880D01*
X32832891Y5341880D01*
X33023367Y5389499D01*
X33118605Y5437118D01*
X33213844Y5532356D01*
X33261463Y5675213D01*
X33261463Y5770452D01*
X33213844Y5913309D01*
X33166224Y5960928D01*
X29856150Y3913309D02*
X29808531Y3865690D01*
X29760912Y3722833D01*
X29760912Y3627595D01*
X29808531Y3484737D01*
X29903769Y3389499D01*
X29999007Y3341880D01*
X30189483Y3294261D01*
X30332340Y3294261D01*
X30522816Y3341880D01*
X30618054Y3389499D01*
X30713293Y3484737D01*
X30760912Y3627595D01*
X30760912Y3722833D01*
X30713293Y3865690D01*
X30665673Y3913309D01*
X29760912Y4341880D02*
X30760912Y4341880D01*
X29760912Y4913309D01*
X30760912Y4913309D01*
X29760912Y5389499D02*
X30760912Y5389499D01*
X30760912Y5627595D01*
X30713293Y5770452D01*
X30618054Y5865690D01*
X30522816Y5913309D01*
X30332340Y5960928D01*
X30189483Y5960928D01*
X29999007Y5913309D01*
X29903769Y5865690D01*
X29808531Y5770452D01*
X29760912Y5627595D01*
X29760912Y5389499D01*
%TO.C,G\u002A\u002A\u002A*%
G36*
X44001382Y-23606707D02*
G01*
X44053507Y-23623138D01*
X44238353Y-23684981D01*
X44349224Y-23734979D01*
X44399658Y-23784985D01*
X44403192Y-23846853D01*
X44373362Y-23932438D01*
X44368087Y-23944932D01*
X44320296Y-24039432D01*
X44285908Y-24078163D01*
X44273257Y-24074240D01*
X44199740Y-24033321D01*
X44091346Y-23962275D01*
X43990816Y-23905337D01*
X43812777Y-23829631D01*
X43624007Y-23769684D01*
X43591461Y-23761739D01*
X43230759Y-23724116D01*
X42864921Y-23778445D01*
X42491886Y-23925265D01*
X42109593Y-24165113D01*
X41978343Y-24261541D01*
X41880544Y-24329958D01*
X41841807Y-24348625D01*
X41853226Y-24321337D01*
X41905894Y-24251889D01*
X42106457Y-24035968D01*
X42432606Y-23795649D01*
X42800852Y-23627736D01*
X43195516Y-23537057D01*
X43600919Y-23528438D01*
X44001382Y-23606707D01*
G37*
G36*
X46042156Y-26007768D02*
G01*
X46024674Y-26077533D01*
X45856697Y-26533332D01*
X45610358Y-26948879D01*
X45295548Y-27314282D01*
X44922158Y-27619651D01*
X44500077Y-27855096D01*
X44039197Y-28010726D01*
X43687672Y-28068516D01*
X43202541Y-28072431D01*
X42724241Y-27993576D01*
X42270447Y-27835272D01*
X41858832Y-27600843D01*
X41725883Y-27507038D01*
X41587868Y-27639265D01*
X41562340Y-27665237D01*
X41482162Y-27772033D01*
X41449852Y-27859264D01*
X41431731Y-27953063D01*
X41382292Y-28074288D01*
X41339986Y-28128656D01*
X41237813Y-28241965D01*
X41086213Y-28402722D01*
X40894637Y-28601472D01*
X40672535Y-28828760D01*
X40429359Y-29075130D01*
X40174558Y-29331129D01*
X39917583Y-29587300D01*
X39667885Y-29834189D01*
X39434914Y-30062341D01*
X39228120Y-30262300D01*
X39056955Y-30424612D01*
X38930869Y-30539822D01*
X38859311Y-30598474D01*
X38753734Y-30648708D01*
X38573059Y-30664289D01*
X38397794Y-30609121D01*
X38247895Y-30495312D01*
X38143320Y-30334971D01*
X38104027Y-30140208D01*
X38112752Y-30082453D01*
X38146336Y-30003720D01*
X38210357Y-29903882D01*
X38310288Y-29776747D01*
X38451604Y-29616117D01*
X38639777Y-29415800D01*
X38880281Y-29169599D01*
X39178589Y-28871320D01*
X39540175Y-28514768D01*
X39733124Y-28326285D01*
X40057756Y-28014744D01*
X40325414Y-27766820D01*
X40540661Y-27578796D01*
X40708061Y-27446956D01*
X40832179Y-27367583D01*
X40917579Y-27336960D01*
X40968823Y-27351371D01*
X40984329Y-27352563D01*
X41052895Y-27312808D01*
X41149552Y-27229669D01*
X41303129Y-27080816D01*
X41189870Y-26932325D01*
X41059904Y-26728497D01*
X40916707Y-26417781D01*
X40801750Y-26071129D01*
X40725269Y-25720447D01*
X40699066Y-25415850D01*
X41380264Y-25415850D01*
X41382276Y-25640796D01*
X41392805Y-25803157D01*
X41417305Y-25932554D01*
X41461229Y-26058607D01*
X41530032Y-26210940D01*
X41570485Y-26290083D01*
X41727307Y-26536326D01*
X41921242Y-26779311D01*
X42128325Y-26990927D01*
X42324592Y-27143060D01*
X42393627Y-27181344D01*
X42557151Y-27257175D01*
X42731845Y-27324949D01*
X42943487Y-27382782D01*
X43211406Y-27428280D01*
X43473258Y-27448910D01*
X43688257Y-27439774D01*
X43779736Y-27424593D01*
X44202830Y-27298166D01*
X44587558Y-27086879D01*
X44926427Y-26794637D01*
X45184212Y-26462835D01*
X45367852Y-26093027D01*
X45471128Y-25705774D01*
X45496631Y-25312376D01*
X45446950Y-24924134D01*
X45324674Y-24552351D01*
X45132393Y-24208326D01*
X44872695Y-23903362D01*
X44548171Y-23648760D01*
X44161410Y-23455821D01*
X43928461Y-23390572D01*
X43606288Y-23348696D01*
X43267130Y-23345479D01*
X42945294Y-23380939D01*
X42675084Y-23455093D01*
X42659999Y-23461225D01*
X42288795Y-23662614D01*
X41958241Y-23937962D01*
X41685065Y-24270549D01*
X41485994Y-24643655D01*
X41483603Y-24649608D01*
X41432780Y-24797819D01*
X41401351Y-24952434D01*
X41385221Y-25142645D01*
X41380300Y-25397644D01*
X41380264Y-25415850D01*
X40699066Y-25415850D01*
X40697500Y-25397644D01*
X40705633Y-25259508D01*
X40730684Y-25058777D01*
X40766757Y-24855714D01*
X40852550Y-24541681D01*
X41045497Y-24105959D01*
X41306014Y-23721314D01*
X41624465Y-23392266D01*
X41991215Y-23123337D01*
X42396629Y-22919050D01*
X42831071Y-22783927D01*
X43284908Y-22722490D01*
X43748503Y-22739260D01*
X44212222Y-22838759D01*
X44666429Y-23025510D01*
X44829932Y-23118070D01*
X45216310Y-23407442D01*
X45540394Y-23756983D01*
X45796921Y-24155279D01*
X45980626Y-24590919D01*
X46086243Y-25052489D01*
X46098397Y-25312376D01*
X46108508Y-25528576D01*
X46042156Y-26007768D01*
G37*
D13*
%TO.C,C2*%
X29098822Y-14384088D02*
X29098822Y-13861584D01*
X30568822Y-14384088D02*
X30568822Y-13861584D01*
%TO.C,U4*%
X47193822Y-38958820D02*
X48523822Y-38958820D01*
X45923822Y-38958820D02*
X40783822Y-38958820D01*
X45923822Y-38958820D02*
X45923822Y-36298820D01*
X40783822Y-38958820D02*
X40783822Y-36298820D01*
X48523822Y-38958820D02*
X48523822Y-37628820D01*
X45923822Y-36298820D02*
X40783822Y-36298820D01*
X50153822Y-36177836D02*
X39153822Y-36177836D01*
X39153822Y-36177836D02*
X39153822Y-50677836D01*
X39153822Y-50677836D02*
X50153822Y-50677836D01*
X50153822Y-50677836D02*
X50153822Y-36177836D01*
X49653822Y-45177836D02*
G75*
G03*
X49653822Y-45177836I-5000000J0D01*
G01*
%TO.C,U5*%
X29413822Y-38958820D02*
X29413822Y-36298820D01*
X29413822Y-38958820D02*
X24273822Y-38958820D01*
X30683822Y-38958820D02*
X32013822Y-38958820D01*
X32013822Y-38958820D02*
X32013822Y-37628820D01*
X29413822Y-36298820D02*
X24273822Y-36298820D01*
X24273822Y-38958820D02*
X24273822Y-36298820D01*
X33643822Y-36177836D02*
X22643822Y-36177836D01*
X22643822Y-36177836D02*
X22643822Y-50677836D01*
X22643822Y-50677836D02*
X33643822Y-50677836D01*
X33643822Y-50677836D02*
X33643822Y-36177836D01*
X33143822Y-45177836D02*
G75*
G03*
X33143822Y-45177836I-5000000J0D01*
G01*
%TO.C,U6*%
X13228822Y-38958820D02*
X8088822Y-38958820D01*
X14498822Y-38958820D02*
X15828822Y-38958820D01*
X15828822Y-38958820D02*
X15828822Y-37628820D01*
X13228822Y-36298820D02*
X8088822Y-36298820D01*
X13228822Y-38958820D02*
X13228822Y-36298820D01*
X8088822Y-38958820D02*
X8088822Y-36298820D01*
X17458822Y-36177836D02*
X6458822Y-36177836D01*
X6458822Y-36177836D02*
X6458822Y-50677836D01*
X6458822Y-50677836D02*
X17458822Y-50677836D01*
X17458822Y-50677836D02*
X17458822Y-36177836D01*
X16958822Y-45177836D02*
G75*
G03*
X16958822Y-45177836I-5000000J0D01*
G01*
%TO.C,G\u002A\u002A\u002A*%
G36*
X-16739343Y-21974758D02*
G01*
X-16739343Y-13880099D01*
X-3090795Y-13880099D01*
X-3089638Y-16280644D01*
X-3089337Y-16675889D01*
X-3088358Y-17180239D01*
X-3086416Y-17595611D01*
X-3083145Y-17931811D01*
X-3078181Y-18198643D01*
X-3071159Y-18405911D01*
X-3061713Y-18563422D01*
X-3049479Y-18680979D01*
X-3034090Y-18768388D01*
X-3015183Y-18835452D01*
X-2992392Y-18891978D01*
X-2897436Y-19070641D01*
X-2658281Y-19364391D01*
X-2353396Y-19576857D01*
X-2287366Y-19608347D01*
X-1929170Y-19716226D01*
X-1571237Y-19727576D01*
X-1229471Y-19647930D01*
X-919774Y-19482818D01*
X-658051Y-19237773D01*
X-460204Y-18918326D01*
X-455577Y-18908027D01*
X-431003Y-18848132D01*
X-410683Y-18782275D01*
X-394206Y-18700513D01*
X-381165Y-18592902D01*
X-371150Y-18449500D01*
X-363752Y-18260363D01*
X-358562Y-18015548D01*
X-355172Y-17705112D01*
X-353171Y-17319111D01*
X-352151Y-16847603D01*
X-351704Y-16280644D01*
X-350546Y-13880099D01*
X-486386Y-13607503D01*
X-666691Y-13330927D01*
X-921533Y-13095859D01*
X-1217620Y-12937831D01*
X-1538785Y-12856843D01*
X-1868863Y-12852895D01*
X-2191685Y-12925987D01*
X-2491086Y-13076119D01*
X-2750898Y-13303291D01*
X-2954955Y-13607503D01*
X-3090795Y-13880099D01*
X-16739343Y-13880099D01*
X-16739343Y-7830530D01*
X-8656075Y-7830530D01*
X-8597574Y-8084854D01*
X-8471734Y-8311583D01*
X-8284674Y-8482314D01*
X-8157745Y-8541060D01*
X-7909307Y-8587601D01*
X-7652638Y-8570736D01*
X-7433631Y-8490048D01*
X-7350694Y-8434517D01*
X-7143450Y-8227239D01*
X-7030883Y-7985641D01*
X-7016565Y-7721051D01*
X-7104068Y-7444800D01*
X-7204920Y-7270995D01*
X-7310094Y-7159509D01*
X-5880288Y-7159509D01*
X-5811706Y-7721051D01*
X-5806505Y-7763638D01*
X-5642905Y-8354129D01*
X-5389380Y-8920782D01*
X-5045826Y-9453395D01*
X-4612135Y-9941766D01*
X-4284448Y-10230480D01*
X-3754057Y-10590415D01*
X-3178823Y-10857277D01*
X-2549555Y-11035942D01*
X-2064156Y-11106049D01*
X-1426818Y-11109239D01*
X-802171Y-11015064D01*
X-200916Y-10827987D01*
X366246Y-10552473D01*
X888611Y-10192986D01*
X1355478Y-9753990D01*
X1756145Y-9239948D01*
X2030736Y-8758950D01*
X2264556Y-8165144D01*
X2402206Y-7552215D01*
X2444692Y-6930756D01*
X2393019Y-6311361D01*
X2248193Y-5704622D01*
X2011221Y-5121134D01*
X1683108Y-4571489D01*
X1264860Y-4066280D01*
X1130297Y-3932957D01*
X628862Y-3525921D01*
X84616Y-3208239D01*
X-491932Y-2980185D01*
X-1090270Y-2842028D01*
X-1699890Y-2794040D01*
X-2310281Y-2836493D01*
X-2910932Y-2969657D01*
X-3491334Y-3193806D01*
X-4040977Y-3509209D01*
X-4549351Y-3916139D01*
X-4905657Y-4291385D01*
X-5279368Y-4810668D01*
X-5563793Y-5367324D01*
X-5758825Y-5951150D01*
X-5864359Y-6551946D01*
X-5880288Y-7159509D01*
X-7310094Y-7159509D01*
X-7365781Y-7100480D01*
X-7567270Y-7009395D01*
X-7833534Y-6982434D01*
X-7890810Y-6983378D01*
X-8146034Y-7023306D01*
X-8348768Y-7134199D01*
X-8532374Y-7332784D01*
X-8546579Y-7352702D01*
X-8641116Y-7577012D01*
X-8656075Y-7830530D01*
X-16739343Y-7830530D01*
X-16739343Y-2529530D01*
X-15632704Y-2529530D01*
X-15632704Y-895920D01*
X-16739343Y-895920D01*
X-16739343Y2883404D01*
X-14525983Y2883404D01*
X-14525808Y2393822D01*
X-14524573Y1880724D01*
X-14521373Y1456160D01*
X-14515313Y1110839D01*
X-14505497Y835467D01*
X-14491031Y620752D01*
X-14471018Y457401D01*
X-14444564Y336122D01*
X-14410772Y247621D01*
X-14368748Y182606D01*
X-14317596Y131785D01*
X-14256421Y85864D01*
X-14252087Y83132D01*
X-14229468Y73953D01*
X-14192413Y65469D01*
X-14136967Y57654D01*
X-14059177Y50480D01*
X-13955088Y43920D01*
X-13820743Y37948D01*
X-13652190Y32535D01*
X-13445474Y27656D01*
X-13196638Y23282D01*
X-12901730Y19386D01*
X-12556793Y15943D01*
X-12157874Y12923D01*
X-11701017Y10302D01*
X-11182268Y8050D01*
X-10597672Y6141D01*
X-9943275Y4549D01*
X-9215121Y3245D01*
X-8409256Y2203D01*
X-7521726Y1396D01*
X-6548575Y796D01*
X-5485849Y377D01*
X-4329592Y111D01*
X-3075851Y-29D01*
X-1720671Y-69D01*
X-1326027Y-66D01*
X0Y0D01*
X1225708Y172D01*
X2355053Y479D01*
X3391988Y947D01*
X4340469Y1602D01*
X5204451Y2473D01*
X5987888Y3587D01*
X6694734Y4970D01*
X7328945Y6649D01*
X7894476Y8652D01*
X8395280Y11006D01*
X8835314Y13738D01*
X9218531Y16875D01*
X9548886Y20443D01*
X9830334Y24472D01*
X10066829Y28986D01*
X10262327Y34014D01*
X10420783Y39583D01*
X10546150Y45719D01*
X10642384Y52450D01*
X10713439Y59803D01*
X10763270Y67804D01*
X10795832Y76482D01*
X10815079Y85864D01*
X10865672Y123159D01*
X10918619Y172367D01*
X10962272Y234042D01*
X10997525Y317476D01*
X11025275Y431961D01*
X11046417Y586792D01*
X11061846Y791260D01*
X11072458Y1054658D01*
X11079148Y1386278D01*
X11082812Y1795415D01*
X11084345Y2291359D01*
X11084642Y2883404D01*
X11084588Y3131339D01*
X11083974Y3655967D01*
X11082392Y4089019D01*
X11079487Y4440247D01*
X11074906Y4719403D01*
X11068295Y4936241D01*
X11059301Y5100513D01*
X11047571Y5221972D01*
X11032750Y5310371D01*
X11014484Y5375462D01*
X10992422Y5426999D01*
X10981134Y5448239D01*
X10880137Y5585405D01*
X10768541Y5676533D01*
X10760546Y5678612D01*
X10665815Y5686064D01*
X10472869Y5693099D01*
X10187366Y5699717D01*
X9814959Y5705918D01*
X9361305Y5711701D01*
X8832061Y5717068D01*
X8232880Y5722017D01*
X7569421Y5726550D01*
X6847337Y5730665D01*
X6072285Y5734363D01*
X5249921Y5737644D01*
X4385901Y5740507D01*
X3485879Y5742954D01*
X2555513Y5744983D01*
X1600457Y5746596D01*
X626368Y5747791D01*
X-361099Y5748569D01*
X-1356288Y5748930D01*
X-2353543Y5748874D01*
X-3347209Y5748401D01*
X-4331629Y5747510D01*
X-5301148Y5746203D01*
X-6250111Y5744478D01*
X-7172860Y5742336D01*
X-8063741Y5739777D01*
X-8917099Y5736801D01*
X-9727276Y5733408D01*
X-10488617Y5729597D01*
X-11195467Y5725370D01*
X-11842170Y5720725D01*
X-12423070Y5715663D01*
X-12932511Y5710185D01*
X-13364837Y5704288D01*
X-13714393Y5697975D01*
X-13975523Y5691245D01*
X-14142572Y5684098D01*
X-14209882Y5676533D01*
X-14225403Y5667893D01*
X-14338425Y5566516D01*
X-14433763Y5426999D01*
X-14443440Y5406547D01*
X-14463877Y5350549D01*
X-14480664Y5276931D01*
X-14494155Y5175943D01*
X-14504702Y5037831D01*
X-14512660Y4852843D01*
X-14518382Y4611225D01*
X-14522222Y4303225D01*
X-14524533Y3919090D01*
X-14525669Y3449067D01*
X-14525983Y2883404D01*
X-16739343Y2883404D01*
X-16739343Y8062586D01*
X13298001Y8062586D01*
X13298001Y-21974758D01*
X-16739343Y-21974758D01*
G37*
%TO.C,D1*%
X26878822Y-20162836D02*
X26878822Y-18242836D01*
X29563822Y-20162836D02*
X26878822Y-20162836D01*
X26878822Y-18242836D02*
X29563822Y-18242836D01*
%TO.C,R4*%
X35648822Y-24055772D02*
X35648822Y-24509900D01*
X34178822Y-24055772D02*
X34178822Y-24509900D01*
%TO.C,U7*%
X34081322Y6423186D02*
X34081322Y7753186D01*
X31481322Y9083186D02*
X23801322Y9083186D01*
X23801322Y6423186D02*
X23801322Y9083186D01*
X32751322Y6423186D02*
X34081322Y6423186D01*
X31481322Y6423186D02*
X31481322Y9083186D01*
X31481322Y6423186D02*
X23801322Y6423186D01*
X42691322Y10007164D02*
X15191322Y10007164D01*
X15191322Y10007164D02*
X15191322Y-17492836D01*
X15191322Y-17492836D02*
X42691322Y-17492836D01*
X42691322Y-17492836D02*
X42691322Y10007164D01*
X42103615Y2335020D02*
X15807715Y2335020D01*
X15807715Y2335020D02*
X15807715Y-11256204D01*
X15807715Y-11256204D02*
X42103615Y-11256204D01*
X42103615Y-11256204D02*
X42103615Y2335020D01*
X17541322Y-15992836D02*
G75*
G03*
X17541322Y-15992836I-850000J0D01*
G01*
X42041322Y-15992836D02*
G75*
G03*
X42041322Y-15992836I-850000J0D01*
G01*
X17541322Y8507164D02*
G75*
G03*
X17541322Y8507164I-850000J0D01*
G01*
X42041322Y8507164D02*
G75*
G03*
X42041322Y8507164I-850000J0D01*
G01*
%TD*%
M02*
