%TF.GenerationSoftware,KiCad,Pcbnew,(6.0.1)*%
%TF.CreationDate,2022-02-14T23:43:43+08:00*%
%TF.ProjectId,SDisk2_Simple,53446973-6b32-45f5-9369-6d706c652e6b,rev?*%
%TF.SameCoordinates,Original*%
%TF.FileFunction,Copper,L2,Bot*%
%TF.FilePolarity,Positive*%
%FSLAX46Y46*%
G04 Gerber Fmt 4.6, Leading zero omitted, Abs format (unit mm)*
G04 Created by KiCad (PCBNEW (6.0.1)) date 2022-02-14 23:43:43*
%MOMM*%
%LPD*%
G01*
G04 APERTURE LIST*
G04 Aperture macros list*
%AMRoundRect*
0 Rectangle with rounded corners*
0 $1 Rounding radius*
0 $2 $3 $4 $5 $6 $7 $8 $9 X,Y pos of 4 corners*
0 Add a 4 corners polygon primitive as box body*
4,1,4,$2,$3,$4,$5,$6,$7,$8,$9,$2,$3,0*
0 Add four circle primitives for the rounded corners*
1,1,$1+$1,$2,$3*
1,1,$1+$1,$4,$5*
1,1,$1+$1,$6,$7*
1,1,$1+$1,$8,$9*
0 Add four rect primitives between the rounded corners*
20,1,$1+$1,$2,$3,$4,$5,0*
20,1,$1+$1,$4,$5,$6,$7,0*
20,1,$1+$1,$6,$7,$8,$9,0*
20,1,$1+$1,$8,$9,$2,$3,0*%
G04 Aperture macros list end*
%TA.AperFunction,ComponentPad*%
%ADD10R,1.700000X1.700000*%
%TD*%
%TA.AperFunction,ComponentPad*%
%ADD11O,1.700000X1.700000*%
%TD*%
%TA.AperFunction,ComponentPad*%
%ADD12R,1.600000X1.600000*%
%TD*%
%TA.AperFunction,ComponentPad*%
%ADD13O,1.600000X1.600000*%
%TD*%
%TA.AperFunction,ComponentPad*%
%ADD14C,1.500000*%
%TD*%
%TA.AperFunction,ComponentPad*%
%ADD15RoundRect,0.250000X0.600000X-0.600000X0.600000X0.600000X-0.600000X0.600000X-0.600000X-0.600000X0*%
%TD*%
%TA.AperFunction,ComponentPad*%
%ADD16C,1.700000*%
%TD*%
%TA.AperFunction,SMDPad,CuDef*%
%ADD17RoundRect,0.250000X0.475000X-0.250000X0.475000X0.250000X-0.475000X0.250000X-0.475000X-0.250000X0*%
%TD*%
%TA.AperFunction,SMDPad,CuDef*%
%ADD18RoundRect,0.243750X-0.243750X-0.456250X0.243750X-0.456250X0.243750X0.456250X-0.243750X0.456250X0*%
%TD*%
%TA.AperFunction,SMDPad,CuDef*%
%ADD19RoundRect,0.250000X-0.450000X0.262500X-0.450000X-0.262500X0.450000X-0.262500X0.450000X0.262500X0*%
%TD*%
%TA.AperFunction,ViaPad*%
%ADD20C,0.800000*%
%TD*%
%TA.AperFunction,ViaPad*%
%ADD21C,5.000000*%
%TD*%
%TA.AperFunction,Conductor*%
%ADD22C,0.250000*%
%TD*%
G04 APERTURE END LIST*
D10*
%TO.P,U3,1,GND*%
%TO.N,GND*%
X-9796178Y-33212836D03*
D11*
X-9796178Y-30672836D03*
%TO.P,U3,2,3.3v*%
%TO.N,VCC*%
X-7256178Y-30672836D03*
X-7256178Y-33212836D03*
%TO.P,U3,3,+5V*%
%TO.N,+5V*%
X-4716178Y-30672836D03*
X-4716178Y-33212836D03*
%TO.P,U3,4,~{CS}*%
%TO.N,/SD_CS{slash}CS*%
X-2176178Y-33212836D03*
X-2176178Y-30672836D03*
%TO.P,U3,5,MOSI*%
%TO.N,/SD_DI{slash}MOSI*%
X363822Y-33212836D03*
X363822Y-30672836D03*
%TO.P,U3,6,SCK*%
%TO.N,/SD_CLK{slash}CLK*%
X2903822Y-33212836D03*
X2903822Y-30672836D03*
%TO.P,U3,7,MISO*%
%TO.N,/SD_DO{slash}MISO*%
X5443822Y-33212836D03*
X5443822Y-30672836D03*
%TO.P,U3,8,GND*%
%TO.N,GND*%
X7983822Y-33212836D03*
X7983822Y-30672836D03*
%TD*%
D12*
%TO.P,U1,1*%
%TO.N,/DRIVE_EN*%
X38733822Y-3957836D03*
D13*
%TO.P,U1,2*%
%TO.N,Net-(U1-Pad2)*%
X38733822Y-6497836D03*
%TO.P,U1,3*%
%TO.N,/RD_PLUSE*%
X38733822Y-9037836D03*
%TO.P,U1,4*%
%TO.N,/DRIVE_EN*%
X38733822Y-11577836D03*
%TO.P,U1,5*%
%TO.N,Net-(U1-Pad5)*%
X38733822Y-14117836D03*
%TO.P,U1,6*%
%TO.N,/W_PROTECT*%
X38733822Y-16657836D03*
%TO.P,U1,7,GND*%
%TO.N,GND*%
X38733822Y-19197836D03*
%TO.P,U1,8*%
%TO.N,unconnected-(U1-Pad8)*%
X46353822Y-19197836D03*
%TO.P,U1,9*%
%TO.N,VCC*%
X46353822Y-16657836D03*
%TO.P,U1,10*%
X46353822Y-14117836D03*
%TO.P,U1,11*%
%TO.N,unconnected-(U1-Pad11)*%
X46353822Y-11577836D03*
%TO.P,U1,12*%
%TO.N,VCC*%
X46353822Y-9037836D03*
%TO.P,U1,13*%
X46353822Y-6497836D03*
%TO.P,U1,14,VCC*%
X46353822Y-3957836D03*
%TD*%
D14*
%TO.P,Y1,1,1*%
%TO.N,Net-(C6-Pad1)*%
X19673822Y-18022836D03*
%TO.P,Y1,2,2*%
%TO.N,Net-(C7-Pad1)*%
X19673822Y-22902836D03*
%TD*%
D12*
%TO.P,U2,1,~{RESET}/PC6*%
%TO.N,Net-(R1-Pad1)*%
X24763822Y1107164D03*
D13*
%TO.P,U2,2,PD0*%
%TO.N,/SD_DO{slash}MISO*%
X24763822Y-1432836D03*
%TO.P,U2,3,PD1*%
%TO.N,/SD_Eject*%
X24763822Y-3972836D03*
%TO.P,U2,4,PD2*%
%TO.N,/W_REQUEST*%
X24763822Y-6512836D03*
%TO.P,U2,5,PD3*%
%TO.N,/SD_DI{slash}MOSI*%
X24763822Y-9052836D03*
%TO.P,U2,6,PD4*%
%TO.N,/SD_CS{slash}CS*%
X24763822Y-11592836D03*
%TO.P,U2,7,VCC*%
%TO.N,VCC*%
X24763822Y-14132836D03*
%TO.P,U2,8,GND*%
%TO.N,GND*%
X24763822Y-16672836D03*
%TO.P,U2,9,XTAL1/PB6*%
%TO.N,Net-(C6-Pad1)*%
X24763822Y-19212836D03*
%TO.P,U2,10,XTAL2/PB7*%
%TO.N,Net-(C7-Pad1)*%
X24763822Y-21752836D03*
%TO.P,U2,11,PD5*%
%TO.N,/SD_CLK{slash}CLK*%
X24763822Y-24292836D03*
%TO.P,U2,12,PD6*%
%TO.N,/BT_ENTER*%
X24763822Y-26832836D03*
%TO.P,U2,13,PD7*%
%TO.N,/BT_DOWN*%
X24763822Y-29372836D03*
%TO.P,U2,14,PB0*%
%TO.N,/STEP 0*%
X24763822Y-31912836D03*
%TO.P,U2,15,PB1*%
%TO.N,/STEP 1*%
X32383822Y-31912836D03*
%TO.P,U2,16,PB2*%
%TO.N,/STEP 2*%
X32383822Y-29372836D03*
%TO.P,U2,17,PB3*%
%TO.N,/STEP 3*%
X32383822Y-26832836D03*
%TO.P,U2,18,PB4*%
%TO.N,Net-(R4-Pad1)*%
X32383822Y-24292836D03*
%TO.P,U2,19,PB5*%
%TO.N,/BT_UP*%
X32383822Y-21752836D03*
%TO.P,U2,20,AVCC*%
%TO.N,VCC*%
X32383822Y-19212836D03*
%TO.P,U2,21,AREF*%
%TO.N,GND*%
X32383822Y-16672836D03*
%TO.P,U2,22,GND*%
X32383822Y-14132836D03*
%TO.P,U2,23,PC0*%
%TO.N,/DRIVE_EN*%
X32383822Y-11592836D03*
%TO.P,U2,24,PC1*%
%TO.N,Net-(U1-Pad2)*%
X32383822Y-9052836D03*
%TO.P,U2,25,PC2*%
%TO.N,/WRITE*%
X32383822Y-6512836D03*
%TO.P,U2,26,PC3*%
%TO.N,Net-(U1-Pad5)*%
X32383822Y-3972836D03*
%TO.P,U2,27,PC4*%
%TO.N,/SCL*%
X32383822Y-1432836D03*
%TO.P,U2,28,PC5*%
%TO.N,/SDA*%
X32383822Y1107164D03*
%TD*%
D15*
%TO.P,J2,1,Pin_1*%
%TO.N,GND*%
X18432838Y-46667415D03*
D16*
%TO.P,J2,2,Pin_2*%
%TO.N,/STEP 0*%
X18432838Y-44127415D03*
%TO.P,J2,3,Pin_3*%
%TO.N,unconnected-(J2-Pad3)*%
X20972838Y-46667415D03*
%TO.P,J2,4,Pin_4*%
%TO.N,/STEP 1*%
X20972838Y-44127415D03*
%TO.P,J2,5,Pin_5*%
%TO.N,unconnected-(J2-Pad5)*%
X23512838Y-46667415D03*
%TO.P,J2,6,Pin_6*%
%TO.N,/STEP 2*%
X23512838Y-44127415D03*
%TO.P,J2,7,Pin_7*%
%TO.N,unconnected-(J2-Pad7)*%
X26052838Y-46667415D03*
%TO.P,J2,8,Pin_8*%
%TO.N,/STEP 3*%
X26052838Y-44127415D03*
%TO.P,J2,9,Pin_9*%
%TO.N,unconnected-(J2-Pad9)*%
X28592838Y-46667415D03*
%TO.P,J2,10,Pin_10*%
%TO.N,/W_REQUEST*%
X28592838Y-44127415D03*
%TO.P,J2,11,Pin_11*%
%TO.N,unconnected-(J2-Pad11)*%
X31132838Y-46667415D03*
%TO.P,J2,12,Pin_12*%
%TO.N,+5V*%
X31132838Y-44127415D03*
%TO.P,J2,13,Pin_13*%
%TO.N,unconnected-(J2-Pad13)*%
X33672838Y-46667415D03*
%TO.P,J2,14,Pin_14*%
%TO.N,/DRIVE_EN*%
X33672838Y-44127415D03*
%TO.P,J2,15,Pin_15*%
%TO.N,unconnected-(J2-Pad15)*%
X36212838Y-46667415D03*
%TO.P,J2,16,Pin_16*%
%TO.N,/RD_PLUSE*%
X36212838Y-44127415D03*
%TO.P,J2,17,Pin_17*%
%TO.N,unconnected-(J2-Pad17)*%
X38752838Y-46667415D03*
%TO.P,J2,18,Pin_18*%
%TO.N,/WRITE*%
X38752838Y-44127415D03*
%TO.P,J2,19,Pin_19*%
%TO.N,unconnected-(J2-Pad19)*%
X41292838Y-46667415D03*
%TO.P,J2,20,Pin_20*%
%TO.N,/W_PROTECT*%
X41292838Y-44127415D03*
%TD*%
D17*
%TO.P,C2,1*%
%TO.N,VCC*%
X29833822Y-15072836D03*
%TO.P,C2,2*%
%TO.N,GND*%
X29833822Y-13172836D03*
%TD*%
D10*
%TO.P,U4,1,GND*%
%TO.N,GND*%
X47193822Y-37628820D03*
D11*
%TO.P,U4,2,I/O*%
%TO.N,/BT_UP*%
X44653822Y-37628820D03*
%TO.P,U4,3,VCC*%
%TO.N,VCC*%
X42113822Y-37628820D03*
%TD*%
D10*
%TO.P,U5,1,GND*%
%TO.N,GND*%
X30683822Y-37628820D03*
D11*
%TO.P,U5,2,I/O*%
%TO.N,/BT_DOWN*%
X28143822Y-37628820D03*
%TO.P,U5,3,VCC*%
%TO.N,VCC*%
X25603822Y-37628820D03*
%TD*%
D10*
%TO.P,U6,1,GND*%
%TO.N,GND*%
X14498822Y-37628820D03*
D11*
%TO.P,U6,2,I/O*%
%TO.N,/BT_ENTER*%
X11958822Y-37628820D03*
%TO.P,U6,3,VCC*%
%TO.N,VCC*%
X9418822Y-37628820D03*
%TD*%
D18*
%TO.P,D1,1,K*%
%TO.N,GND*%
X27626322Y-19202836D03*
%TO.P,D1,2,A*%
%TO.N,Net-(D1-Pad2)*%
X29501322Y-19202836D03*
%TD*%
D19*
%TO.P,R4,1*%
%TO.N,Net-(R4-Pad1)*%
X34913822Y-23370336D03*
%TO.P,R4,2*%
%TO.N,Net-(D1-Pad2)*%
X34913822Y-25195336D03*
%TD*%
D10*
%TO.P,U7,1,VCC*%
%TO.N,VCC*%
X32751322Y7753186D03*
D11*
%TO.P,U7,2,GND*%
%TO.N,GND*%
X30211322Y7753186D03*
%TO.P,U7,3,SCL*%
%TO.N,/SCL*%
X27671322Y7753186D03*
%TO.P,U7,4,SDA*%
%TO.N,/SDA*%
X25131322Y7753186D03*
%TD*%
D20*
%TO.N,VCC*%
X33020000Y-54610000D03*
X26824399Y-31553433D03*
X17133822Y-152836D03*
D21*
%TO.N,GND*%
X50183822Y8237164D03*
X-20316178Y8237164D03*
X-20316178Y-53762836D03*
D20*
X28058063Y-12106864D03*
X39993822Y-40792836D03*
X43803822Y-40792836D03*
D21*
X50183822Y-53762836D03*
D20*
%TO.N,+5V*%
X8890000Y-49530000D03*
%TO.N,/WRITE*%
X39993822Y-23012836D03*
%TO.N,/W_PROTECT*%
X45992675Y-43168494D03*
%TO.N,/SD_CLK{slash}CLK*%
X17613306Y-35233352D03*
X20943822Y-31902836D03*
%TD*%
D22*
%TO.N,GND*%
X30683822Y-37628820D02*
X30683822Y-40372836D01*
X47193822Y-39942836D02*
X47193822Y-37628820D01*
X28058063Y-12106864D02*
X28767850Y-12106864D01*
X46343822Y-40792836D02*
X47193822Y-39942836D01*
X27626322Y-19202836D02*
X27626322Y-18265336D01*
X31103822Y-40792836D02*
X39993822Y-40792836D01*
X26033822Y-16672836D02*
X24763822Y-16672836D01*
X28767850Y-12106864D02*
X29833822Y-13172836D01*
X43803822Y-40792836D02*
X46343822Y-40792836D01*
X27626322Y-18265336D02*
X26033822Y-16672836D01*
X30683822Y-40372836D02*
X31103822Y-40792836D01*
%TO.N,+5V*%
X8890000Y-49530000D02*
X29210000Y-49530000D01*
X29210000Y-49530000D02*
X29879937Y-48860063D01*
X29879937Y-45380316D02*
X31132838Y-44127415D01*
X-4716178Y-33212836D02*
X-4716178Y-30672836D01*
X29879937Y-48860063D02*
X29879937Y-45380316D01*
%TO.N,Net-(D1-Pad2)*%
X29501322Y-23950336D02*
X29501322Y-19202836D01*
X30968333Y-25417347D02*
X29501322Y-23950336D01*
X34691811Y-25417347D02*
X30968333Y-25417347D01*
%TO.N,/STEP 0*%
X18432838Y-35683820D02*
X18432838Y-44127415D01*
X24763822Y-31912836D02*
X22203822Y-31912836D01*
X22203822Y-31912836D02*
X18432838Y-35683820D01*
%TO.N,/STEP 3*%
X32383822Y-26832836D02*
X29509311Y-29707347D01*
X26052838Y-43303820D02*
X26052838Y-44127415D01*
X29509311Y-39847347D02*
X26052838Y-43303820D01*
X29509311Y-29707347D02*
X29509311Y-39847347D01*
%TO.N,/W_REQUEST*%
X10630986Y-19355672D02*
X23473822Y-6512836D01*
X23473822Y-6512836D02*
X24763822Y-6512836D01*
X27313202Y-45407051D02*
X12858037Y-45407051D01*
X28592838Y-44127415D02*
X27313202Y-45407051D01*
X10630986Y-43180000D02*
X10630986Y-19355672D01*
X12858037Y-45407051D02*
X10630986Y-43180000D01*
%TO.N,/WRITE*%
X33311655Y-6512836D02*
X32383822Y-6512836D01*
X39993822Y-23012836D02*
X34149645Y-17168659D01*
X34149645Y-7350826D02*
X33311655Y-6512836D01*
X34149645Y-17168659D02*
X34149645Y-7350826D01*
%TO.N,/W_PROTECT*%
X45033754Y-44127415D02*
X41292838Y-44127415D01*
X45992675Y-43168494D02*
X45033754Y-44127415D01*
%TO.N,/BT_UP*%
X44653822Y-37628820D02*
X44653822Y-28942836D01*
X44653822Y-28942836D02*
X37463822Y-21752836D01*
X37463822Y-21752836D02*
X32383822Y-21752836D01*
%TO.N,/BT_DOWN*%
X28143822Y-30212836D02*
X27293822Y-29362836D01*
X27293822Y-29362836D02*
X27283822Y-29372836D01*
X27283822Y-29372836D02*
X24763822Y-29372836D01*
X28143822Y-37628820D02*
X28143822Y-30212836D01*
%TO.N,/BT_ENTER*%
X11958822Y-33267836D02*
X18393822Y-26832836D01*
X11958822Y-37628820D02*
X11958822Y-33267836D01*
X18393822Y-26832836D02*
X24763822Y-26832836D01*
%TO.N,Net-(R4-Pad1)*%
X32383822Y-24292836D02*
X33306322Y-23370336D01*
X33306322Y-23370336D02*
X34913822Y-23370336D01*
%TO.N,Net-(U1-Pad5)*%
X33653822Y-3972836D02*
X34913822Y-5232836D01*
X32383822Y-3972836D02*
X33653822Y-3972836D01*
X34913822Y-5232836D02*
X34913822Y-10297836D01*
X34913822Y-10297836D02*
X38733822Y-14117836D01*
%TO.N,/SD_DO{slash}MISO*%
X19663822Y-1432836D02*
X5443822Y-15652836D01*
X24763822Y-1432836D02*
X19663822Y-1432836D01*
X5443822Y-15652836D02*
X5443822Y-30672836D01*
%TO.N,/SD_CLK{slash}CLK*%
X17613306Y-35233352D02*
X20943822Y-31902836D01*
%TO.N,/SDA*%
X32383822Y1107164D02*
X28573822Y1107164D01*
X28573822Y1107164D02*
X25131322Y4549664D01*
X25131322Y4549664D02*
X25131322Y7753186D01*
%TD*%
%TA.AperFunction,Conductor*%
%TO.N,VCC*%
G36*
X53617943Y11709162D02*
G01*
X53664436Y11655506D01*
X53675822Y11603164D01*
X53675822Y-57128836D01*
X53655820Y-57196957D01*
X53602164Y-57243450D01*
X53549822Y-57254836D01*
X-23182178Y-57254836D01*
X-23250299Y-57234834D01*
X-23296792Y-57181178D01*
X-23308178Y-57128836D01*
X-23308178Y-55041220D01*
X-23288176Y-54973099D01*
X-23234520Y-54926606D01*
X-23164246Y-54916502D01*
X-23099666Y-54945996D01*
X-23064785Y-54995451D01*
X-23056251Y-55017339D01*
X-23054554Y-55020544D01*
X-22921065Y-55272661D01*
X-22893903Y-55323962D01*
X-22891853Y-55326945D01*
X-22891851Y-55326948D01*
X-22699445Y-55606900D01*
X-22699439Y-55606907D01*
X-22697388Y-55609892D01*
X-22469312Y-55871341D01*
X-22466627Y-55873784D01*
X-22256910Y-56064611D01*
X-22212697Y-56104842D01*
X-21930945Y-56307302D01*
X-21627790Y-56476036D01*
X-21307250Y-56608808D01*
X-21303756Y-56609803D01*
X-21303754Y-56609804D01*
X-20977075Y-56702861D01*
X-20977070Y-56702862D01*
X-20973574Y-56703858D01*
X-20776874Y-56736069D01*
X-20634766Y-56759340D01*
X-20634759Y-56759341D01*
X-20631185Y-56759926D01*
X-20457903Y-56768098D01*
X-20288247Y-56776099D01*
X-20288246Y-56776099D01*
X-20284620Y-56776270D01*
X-20275763Y-56775666D01*
X-19942105Y-56752920D01*
X-19942097Y-56752919D01*
X-19938474Y-56752672D01*
X-19934899Y-56752009D01*
X-19934896Y-56752009D01*
X-19600899Y-56690106D01*
X-19600895Y-56690105D01*
X-19597334Y-56689445D01*
X-19265722Y-56587428D01*
X-18948033Y-56447972D01*
X-18703667Y-56305177D01*
X-18651618Y-56274762D01*
X-18651616Y-56274761D01*
X-18648478Y-56272927D01*
X-18645569Y-56270743D01*
X-18373934Y-56066794D01*
X-18373930Y-56066791D01*
X-18371027Y-56064611D01*
X-18119359Y-55825786D01*
X-17896808Y-55559619D01*
X-17706325Y-55269635D01*
X-17557183Y-54973099D01*
X-17552061Y-54962916D01*
X-17552058Y-54962908D01*
X-17550434Y-54959680D01*
X-17431201Y-54633862D01*
X-17430356Y-54630340D01*
X-17430353Y-54630332D01*
X-17351054Y-54300027D01*
X-17351053Y-54300023D01*
X-17350207Y-54296498D01*
X-17349770Y-54292888D01*
X-17308862Y-53954840D01*
X-17308862Y-53954833D01*
X-17308526Y-53952061D01*
X-17302579Y-53762836D01*
X-17302740Y-53760040D01*
X-17308037Y-53668177D01*
X47171710Y-53668177D01*
X47171805Y-53671807D01*
X47171805Y-53671808D01*
X47174189Y-53762836D01*
X47180792Y-54015007D01*
X47229678Y-54358496D01*
X47317719Y-54694089D01*
X47443749Y-55017339D01*
X47445446Y-55020544D01*
X47578935Y-55272661D01*
X47606097Y-55323962D01*
X47608147Y-55326945D01*
X47608149Y-55326948D01*
X47800555Y-55606900D01*
X47800561Y-55606907D01*
X47802612Y-55609892D01*
X48030688Y-55871341D01*
X48033373Y-55873784D01*
X48243090Y-56064611D01*
X48287303Y-56104842D01*
X48569055Y-56307302D01*
X48872210Y-56476036D01*
X49192750Y-56608808D01*
X49196244Y-56609803D01*
X49196246Y-56609804D01*
X49522925Y-56702861D01*
X49522930Y-56702862D01*
X49526426Y-56703858D01*
X49723126Y-56736069D01*
X49865234Y-56759340D01*
X49865241Y-56759341D01*
X49868815Y-56759926D01*
X50042097Y-56768098D01*
X50211753Y-56776099D01*
X50211754Y-56776099D01*
X50215380Y-56776270D01*
X50224237Y-56775666D01*
X50557895Y-56752920D01*
X50557903Y-56752919D01*
X50561526Y-56752672D01*
X50565101Y-56752009D01*
X50565104Y-56752009D01*
X50899101Y-56690106D01*
X50899105Y-56690105D01*
X50902666Y-56689445D01*
X51234278Y-56587428D01*
X51551967Y-56447972D01*
X51796333Y-56305177D01*
X51848382Y-56274762D01*
X51848384Y-56274761D01*
X51851522Y-56272927D01*
X51854431Y-56270743D01*
X52126066Y-56066794D01*
X52126070Y-56066791D01*
X52128973Y-56064611D01*
X52380641Y-55825786D01*
X52603192Y-55559619D01*
X52793675Y-55269635D01*
X52942817Y-54973099D01*
X52947939Y-54962916D01*
X52947942Y-54962908D01*
X52949566Y-54959680D01*
X53068799Y-54633862D01*
X53069644Y-54630340D01*
X53069647Y-54630332D01*
X53148946Y-54300027D01*
X53148947Y-54300023D01*
X53149793Y-54296498D01*
X53150230Y-54292888D01*
X53191138Y-53954840D01*
X53191138Y-53954833D01*
X53191474Y-53952061D01*
X53197421Y-53762836D01*
X53197260Y-53760040D01*
X53177658Y-53420082D01*
X53177657Y-53420077D01*
X53177449Y-53416462D01*
X53117798Y-53074678D01*
X53019259Y-52742016D01*
X52958064Y-52598545D01*
X52884562Y-52426222D01*
X52884560Y-52426219D01*
X52883138Y-52422884D01*
X52833391Y-52335667D01*
X52713030Y-52124652D01*
X52711239Y-52121512D01*
X52505840Y-51841896D01*
X52269664Y-51587740D01*
X52005841Y-51362414D01*
X51717869Y-51168905D01*
X51409563Y-51009776D01*
X51085011Y-50887138D01*
X51081490Y-50886254D01*
X51081485Y-50886252D01*
X50920200Y-50845740D01*
X50748514Y-50802616D01*
X50726298Y-50799691D01*
X50408137Y-50757804D01*
X50408129Y-50757803D01*
X50404533Y-50757330D01*
X50259867Y-50755057D01*
X50061268Y-50751937D01*
X50061264Y-50751937D01*
X50057626Y-50751880D01*
X50054012Y-50752241D01*
X50054006Y-50752241D01*
X49810665Y-50776530D01*
X49712391Y-50786339D01*
X49373405Y-50860250D01*
X49369978Y-50861423D01*
X49369972Y-50861425D01*
X49291118Y-50888423D01*
X49045161Y-50972633D01*
X48732010Y-51121999D01*
X48438101Y-51306368D01*
X48435265Y-51308640D01*
X48435258Y-51308645D01*
X48191206Y-51504168D01*
X48167331Y-51523295D01*
X47923288Y-51769907D01*
X47921047Y-51772765D01*
X47864554Y-51844814D01*
X47709208Y-52042934D01*
X47707315Y-52046023D01*
X47707313Y-52046026D01*
X47661055Y-52121512D01*
X47527927Y-52338757D01*
X47526402Y-52342042D01*
X47526400Y-52342046D01*
X47487327Y-52426222D01*
X47381849Y-52653456D01*
X47272909Y-52982859D01*
X47202552Y-53322600D01*
X47171710Y-53668177D01*
X-17308037Y-53668177D01*
X-17322342Y-53420082D01*
X-17322343Y-53420077D01*
X-17322551Y-53416462D01*
X-17382202Y-53074678D01*
X-17480741Y-52742016D01*
X-17541936Y-52598545D01*
X-17615438Y-52426222D01*
X-17615440Y-52426219D01*
X-17616862Y-52422884D01*
X-17666609Y-52335667D01*
X-17786970Y-52124652D01*
X-17788761Y-52121512D01*
X-17994160Y-51841896D01*
X-18230336Y-51587740D01*
X-18494159Y-51362414D01*
X-18782131Y-51168905D01*
X-19090437Y-51009776D01*
X-19414989Y-50887138D01*
X-19418510Y-50886254D01*
X-19418515Y-50886252D01*
X-19579800Y-50845740D01*
X-19751486Y-50802616D01*
X-19773702Y-50799691D01*
X-20091863Y-50757804D01*
X-20091871Y-50757803D01*
X-20095467Y-50757330D01*
X-20240133Y-50755057D01*
X-20438732Y-50751937D01*
X-20438736Y-50751937D01*
X-20442374Y-50751880D01*
X-20445988Y-50752241D01*
X-20445994Y-50752241D01*
X-20689335Y-50776530D01*
X-20787609Y-50786339D01*
X-21126595Y-50860250D01*
X-21130022Y-50861423D01*
X-21130028Y-50861425D01*
X-21208882Y-50888423D01*
X-21454839Y-50972633D01*
X-21767990Y-51121999D01*
X-22061899Y-51306368D01*
X-22064735Y-51308640D01*
X-22064742Y-51308645D01*
X-22308794Y-51504168D01*
X-22332669Y-51523295D01*
X-22576712Y-51769907D01*
X-22578953Y-51772765D01*
X-22635446Y-51844814D01*
X-22790792Y-52042934D01*
X-22792685Y-52046023D01*
X-22792687Y-52046026D01*
X-22838945Y-52121512D01*
X-22972073Y-52338757D01*
X-22973598Y-52342042D01*
X-22973600Y-52342046D01*
X-23067890Y-52545178D01*
X-23114714Y-52598545D01*
X-23182957Y-52618126D01*
X-23250953Y-52597703D01*
X-23297113Y-52543760D01*
X-23308178Y-52492128D01*
X-23308178Y-37896786D01*
X8087079Y-37896786D01*
X8117387Y-38031266D01*
X8120467Y-38041095D01*
X8200592Y-38238423D01*
X8205235Y-38247614D01*
X8316516Y-38429208D01*
X8322599Y-38437519D01*
X8462035Y-38598487D01*
X8469402Y-38605703D01*
X8633256Y-38741736D01*
X8641703Y-38747651D01*
X8825578Y-38855099D01*
X8834864Y-38859549D01*
X9033823Y-38935523D01*
X9043721Y-38938399D01*
X9147072Y-38959426D01*
X9161121Y-38958230D01*
X9164822Y-38947885D01*
X9164822Y-37900935D01*
X9160347Y-37885696D01*
X9158957Y-37884491D01*
X9151274Y-37882820D01*
X8102047Y-37882820D01*
X8088516Y-37886793D01*
X8087079Y-37896786D01*
X-23308178Y-37896786D01*
X-23308178Y-37363003D01*
X8083211Y-37363003D01*
X8084734Y-37371427D01*
X8097114Y-37374820D01*
X9146707Y-37374820D01*
X9161946Y-37370345D01*
X9163151Y-37368955D01*
X9164822Y-37361272D01*
X9164822Y-36311922D01*
X9160904Y-36298578D01*
X9146628Y-36296591D01*
X9108146Y-36302480D01*
X9098110Y-36304871D01*
X8895690Y-36371032D01*
X8886181Y-36375029D01*
X8697285Y-36473362D01*
X8688560Y-36478856D01*
X8518255Y-36606725D01*
X8510548Y-36613568D01*
X8363412Y-36767537D01*
X8356926Y-36775547D01*
X8236920Y-36951469D01*
X8231822Y-36960443D01*
X8142160Y-37153603D01*
X8138597Y-37163290D01*
X8083211Y-37363003D01*
X-23308178Y-37363003D01*
X-23308178Y-30639531D01*
X-11158927Y-30639531D01*
X-11158630Y-30644684D01*
X-11158630Y-30644687D01*
X-11153167Y-30739426D01*
X-11146068Y-30862551D01*
X-11144931Y-30867597D01*
X-11144930Y-30867603D01*
X-11125059Y-30955775D01*
X-11096956Y-31080475D01*
X-11012912Y-31287452D01*
X-10974358Y-31350367D01*
X-10898887Y-31473524D01*
X-10896191Y-31477924D01*
X-10749928Y-31646774D01*
X-10745948Y-31650078D01*
X-10741197Y-31654023D01*
X-10701562Y-31712926D01*
X-10700065Y-31783907D01*
X-10737181Y-31844429D01*
X-10777453Y-31868948D01*
X-10817540Y-31883976D01*
X-10892883Y-31912221D01*
X-11009439Y-31999575D01*
X-11096793Y-32116131D01*
X-11147923Y-32252520D01*
X-11154678Y-32314702D01*
X-11154678Y-34110970D01*
X-11147923Y-34173152D01*
X-11096793Y-34309541D01*
X-11009439Y-34426097D01*
X-10892883Y-34513451D01*
X-10756494Y-34564581D01*
X-10694312Y-34571336D01*
X-8898044Y-34571336D01*
X-8835862Y-34564581D01*
X-8699473Y-34513451D01*
X-8582917Y-34426097D01*
X-8495563Y-34309541D01*
X-8451380Y-34191684D01*
X-8408738Y-34134920D01*
X-8342177Y-34110220D01*
X-8272828Y-34125428D01*
X-8238161Y-34153416D01*
X-8212960Y-34182509D01*
X-8205598Y-34189719D01*
X-8041744Y-34325752D01*
X-8033297Y-34331667D01*
X-7849422Y-34439115D01*
X-7840136Y-34443565D01*
X-7641177Y-34519539D01*
X-7631279Y-34522415D01*
X-7527928Y-34543442D01*
X-7513879Y-34542246D01*
X-7510178Y-34531901D01*
X-7510178Y-34531353D01*
X-7002178Y-34531353D01*
X-6998114Y-34545195D01*
X-6984700Y-34547229D01*
X-6977994Y-34546370D01*
X-6967916Y-34544228D01*
X-6763923Y-34483027D01*
X-6754336Y-34479269D01*
X-6563083Y-34385575D01*
X-6554233Y-34380300D01*
X-6380850Y-34256628D01*
X-6372978Y-34249975D01*
X-6222126Y-34099648D01*
X-6215448Y-34091801D01*
X-6088156Y-33914655D01*
X-6086899Y-33915558D01*
X-6039805Y-33872198D01*
X-5969867Y-33859981D01*
X-5904427Y-33887514D01*
X-5876599Y-33919347D01*
X-5816191Y-34017924D01*
X-5669928Y-34186774D01*
X-5498052Y-34329468D01*
X-5305178Y-34442174D01*
X-5096486Y-34521866D01*
X-5091418Y-34522897D01*
X-5091415Y-34522898D01*
X-4996316Y-34542246D01*
X-4877581Y-34566403D01*
X-4872406Y-34566593D01*
X-4872404Y-34566593D01*
X-4659505Y-34574400D01*
X-4659501Y-34574400D01*
X-4654341Y-34574589D01*
X-4649221Y-34573933D01*
X-4649219Y-34573933D01*
X-4437890Y-34546861D01*
X-4437889Y-34546861D01*
X-4432762Y-34546204D01*
X-4427812Y-34544719D01*
X-4223749Y-34483497D01*
X-4223744Y-34483495D01*
X-4218794Y-34482010D01*
X-4018184Y-34383732D01*
X-3836318Y-34254009D01*
X-3678082Y-34096325D01*
X-3547725Y-33914913D01*
X-3546402Y-33915864D01*
X-3499533Y-33872693D01*
X-3429598Y-33860461D01*
X-3364152Y-33887980D01*
X-3336303Y-33919830D01*
X-3276191Y-34017924D01*
X-3129928Y-34186774D01*
X-2958052Y-34329468D01*
X-2765178Y-34442174D01*
X-2556486Y-34521866D01*
X-2551418Y-34522897D01*
X-2551415Y-34522898D01*
X-2456316Y-34542246D01*
X-2337581Y-34566403D01*
X-2332406Y-34566593D01*
X-2332404Y-34566593D01*
X-2119505Y-34574400D01*
X-2119501Y-34574400D01*
X-2114341Y-34574589D01*
X-2109221Y-34573933D01*
X-2109219Y-34573933D01*
X-1897890Y-34546861D01*
X-1897889Y-34546861D01*
X-1892762Y-34546204D01*
X-1887812Y-34544719D01*
X-1683749Y-34483497D01*
X-1683744Y-34483495D01*
X-1678794Y-34482010D01*
X-1478184Y-34383732D01*
X-1296318Y-34254009D01*
X-1138082Y-34096325D01*
X-1007725Y-33914913D01*
X-1006402Y-33915864D01*
X-959533Y-33872693D01*
X-889598Y-33860461D01*
X-824152Y-33887980D01*
X-796303Y-33919830D01*
X-736191Y-34017924D01*
X-589928Y-34186774D01*
X-418052Y-34329468D01*
X-225178Y-34442174D01*
X-16486Y-34521866D01*
X-11418Y-34522897D01*
X-11415Y-34522898D01*
X83684Y-34542246D01*
X202419Y-34566403D01*
X207594Y-34566593D01*
X207596Y-34566593D01*
X420495Y-34574400D01*
X420499Y-34574400D01*
X425659Y-34574589D01*
X430779Y-34573933D01*
X430781Y-34573933D01*
X642110Y-34546861D01*
X642111Y-34546861D01*
X647238Y-34546204D01*
X652188Y-34544719D01*
X856251Y-34483497D01*
X856256Y-34483495D01*
X861206Y-34482010D01*
X1061816Y-34383732D01*
X1243682Y-34254009D01*
X1401918Y-34096325D01*
X1532275Y-33914913D01*
X1533598Y-33915864D01*
X1580467Y-33872693D01*
X1650402Y-33860461D01*
X1715848Y-33887980D01*
X1743697Y-33919830D01*
X1803809Y-34017924D01*
X1950072Y-34186774D01*
X2121948Y-34329468D01*
X2314822Y-34442174D01*
X2523514Y-34521866D01*
X2528582Y-34522897D01*
X2528585Y-34522898D01*
X2623684Y-34542246D01*
X2742419Y-34566403D01*
X2747594Y-34566593D01*
X2747596Y-34566593D01*
X2960495Y-34574400D01*
X2960499Y-34574400D01*
X2965659Y-34574589D01*
X2970779Y-34573933D01*
X2970781Y-34573933D01*
X3182110Y-34546861D01*
X3182111Y-34546861D01*
X3187238Y-34546204D01*
X3192188Y-34544719D01*
X3396251Y-34483497D01*
X3396256Y-34483495D01*
X3401206Y-34482010D01*
X3601816Y-34383732D01*
X3783682Y-34254009D01*
X3941918Y-34096325D01*
X4072275Y-33914913D01*
X4073598Y-33915864D01*
X4120467Y-33872693D01*
X4190402Y-33860461D01*
X4255848Y-33887980D01*
X4283697Y-33919830D01*
X4343809Y-34017924D01*
X4490072Y-34186774D01*
X4661948Y-34329468D01*
X4854822Y-34442174D01*
X5063514Y-34521866D01*
X5068582Y-34522897D01*
X5068585Y-34522898D01*
X5163684Y-34542246D01*
X5282419Y-34566403D01*
X5287594Y-34566593D01*
X5287596Y-34566593D01*
X5500495Y-34574400D01*
X5500499Y-34574400D01*
X5505659Y-34574589D01*
X5510779Y-34573933D01*
X5510781Y-34573933D01*
X5722110Y-34546861D01*
X5722111Y-34546861D01*
X5727238Y-34546204D01*
X5732188Y-34544719D01*
X5936251Y-34483497D01*
X5936256Y-34483495D01*
X5941206Y-34482010D01*
X6141816Y-34383732D01*
X6323682Y-34254009D01*
X6481918Y-34096325D01*
X6612275Y-33914913D01*
X6613598Y-33915864D01*
X6660467Y-33872693D01*
X6730402Y-33860461D01*
X6795848Y-33887980D01*
X6823697Y-33919830D01*
X6883809Y-34017924D01*
X7030072Y-34186774D01*
X7201948Y-34329468D01*
X7394822Y-34442174D01*
X7603514Y-34521866D01*
X7608582Y-34522897D01*
X7608585Y-34522898D01*
X7703684Y-34542246D01*
X7822419Y-34566403D01*
X7827594Y-34566593D01*
X7827596Y-34566593D01*
X8040495Y-34574400D01*
X8040499Y-34574400D01*
X8045659Y-34574589D01*
X8050779Y-34573933D01*
X8050781Y-34573933D01*
X8262110Y-34546861D01*
X8262111Y-34546861D01*
X8267238Y-34546204D01*
X8272188Y-34544719D01*
X8476251Y-34483497D01*
X8476256Y-34483495D01*
X8481206Y-34482010D01*
X8681816Y-34383732D01*
X8863682Y-34254009D01*
X9021918Y-34096325D01*
X9152275Y-33914913D01*
X9165817Y-33887514D01*
X9248958Y-33719289D01*
X9248959Y-33719287D01*
X9251252Y-33714647D01*
X9316192Y-33500905D01*
X9345351Y-33279426D01*
X9346660Y-33225855D01*
X9346896Y-33216201D01*
X9346896Y-33216197D01*
X9346978Y-33212836D01*
X9328674Y-32990197D01*
X9274253Y-32773538D01*
X9185176Y-32568676D01*
X9063836Y-32381113D01*
X8913492Y-32215887D01*
X8909441Y-32212688D01*
X8909437Y-32212684D01*
X8742236Y-32080636D01*
X8742232Y-32080634D01*
X8738181Y-32077434D01*
X8696875Y-32054632D01*
X8646906Y-32004200D01*
X8632134Y-31934757D01*
X8657250Y-31868352D01*
X8684602Y-31841745D01*
X8728425Y-31810486D01*
X8863682Y-31714009D01*
X8893045Y-31684749D01*
X9018257Y-31559973D01*
X9021918Y-31556325D01*
X9035399Y-31537565D01*
X9149257Y-31379113D01*
X9152275Y-31374913D01*
X9156734Y-31365892D01*
X9248958Y-31179289D01*
X9248959Y-31179287D01*
X9251252Y-31174647D01*
X9316192Y-30960905D01*
X9345351Y-30739426D01*
X9346067Y-30710114D01*
X9346896Y-30676201D01*
X9346896Y-30676197D01*
X9346978Y-30672836D01*
X9328674Y-30450197D01*
X9274253Y-30233538D01*
X9185176Y-30028676D01*
X9063836Y-29841113D01*
X8913492Y-29675887D01*
X8909441Y-29672688D01*
X8909437Y-29672684D01*
X8742236Y-29540636D01*
X8742232Y-29540634D01*
X8738181Y-29537434D01*
X8733653Y-29534934D01*
X8634072Y-29479963D01*
X8542611Y-29429474D01*
X8537742Y-29427750D01*
X8537738Y-29427748D01*
X8336909Y-29356631D01*
X8336905Y-29356630D01*
X8332034Y-29354905D01*
X8326941Y-29353998D01*
X8326938Y-29353997D01*
X8117195Y-29316636D01*
X8117189Y-29316635D01*
X8112106Y-29315730D01*
X8038274Y-29314828D01*
X7893903Y-29313064D01*
X7893901Y-29313064D01*
X7888733Y-29313001D01*
X7667913Y-29346791D01*
X7455578Y-29416193D01*
X7422245Y-29433545D01*
X7281797Y-29506658D01*
X7257429Y-29519343D01*
X7253296Y-29522446D01*
X7253293Y-29522448D01*
X7103060Y-29635246D01*
X7078787Y-29653471D01*
X6924451Y-29814974D01*
X6817023Y-29972457D01*
X6762115Y-30017457D01*
X6691590Y-30025628D01*
X6627843Y-29994374D01*
X6607146Y-29969890D01*
X6526644Y-29845453D01*
X6526642Y-29845450D01*
X6523836Y-29841113D01*
X6373492Y-29675887D01*
X6369441Y-29672688D01*
X6369437Y-29672684D01*
X6202236Y-29540636D01*
X6202232Y-29540634D01*
X6198181Y-29537434D01*
X6193657Y-29534937D01*
X6193653Y-29534934D01*
X6142430Y-29506658D01*
X6092458Y-29456226D01*
X6077322Y-29396349D01*
X6077322Y-15967430D01*
X6097324Y-15899309D01*
X6114227Y-15878335D01*
X19889322Y-2103241D01*
X19951634Y-2069215D01*
X19978417Y-2066336D01*
X23544428Y-2066336D01*
X23612549Y-2086338D01*
X23647641Y-2120065D01*
X23757624Y-2277136D01*
X23919522Y-2439034D01*
X23924030Y-2442191D01*
X23924033Y-2442193D01*
X24002211Y-2496934D01*
X24107073Y-2570359D01*
X24112055Y-2572682D01*
X24112060Y-2572685D01*
X24146279Y-2588641D01*
X24199564Y-2635558D01*
X24219025Y-2703835D01*
X24198483Y-2771795D01*
X24146279Y-2817031D01*
X24112060Y-2832987D01*
X24112055Y-2832990D01*
X24107073Y-2835313D01*
X24009057Y-2903945D01*
X23924033Y-2963479D01*
X23924030Y-2963481D01*
X23919522Y-2966638D01*
X23757624Y-3128536D01*
X23626299Y-3316087D01*
X23623976Y-3321069D01*
X23623973Y-3321074D01*
X23543231Y-3494228D01*
X23529538Y-3523593D01*
X23528116Y-3528901D01*
X23528115Y-3528903D01*
X23485930Y-3686339D01*
X23470279Y-3744749D01*
X23450324Y-3972836D01*
X23470279Y-4200923D01*
X23471703Y-4206236D01*
X23471703Y-4206238D01*
X23526808Y-4411889D01*
X23529538Y-4422079D01*
X23531861Y-4427060D01*
X23531861Y-4427061D01*
X23623973Y-4624598D01*
X23623976Y-4624603D01*
X23626299Y-4629585D01*
X23629456Y-4634093D01*
X23743737Y-4797303D01*
X23757624Y-4817136D01*
X23919522Y-4979034D01*
X23924030Y-4982191D01*
X23924033Y-4982193D01*
X24002211Y-5036934D01*
X24107073Y-5110359D01*
X24112055Y-5112682D01*
X24112060Y-5112685D01*
X24146279Y-5128641D01*
X24199564Y-5175558D01*
X24219025Y-5243835D01*
X24198483Y-5311795D01*
X24146279Y-5357031D01*
X24112060Y-5372987D01*
X24112055Y-5372990D01*
X24107073Y-5375313D01*
X24047100Y-5417307D01*
X23924033Y-5503479D01*
X23924030Y-5503481D01*
X23919522Y-5506638D01*
X23757624Y-5668536D01*
X23754467Y-5673044D01*
X23754465Y-5673047D01*
X23648148Y-5824883D01*
X23592691Y-5869211D01*
X23536051Y-5877612D01*
X23533913Y-5877134D01*
X23525990Y-5877383D01*
X23465823Y-5879274D01*
X23461865Y-5879336D01*
X23433966Y-5879336D01*
X23429976Y-5879840D01*
X23418142Y-5880772D01*
X23373933Y-5882162D01*
X23366319Y-5884374D01*
X23366314Y-5884375D01*
X23354481Y-5887813D01*
X23335118Y-5891824D01*
X23315025Y-5894362D01*
X23307658Y-5897279D01*
X23307653Y-5897280D01*
X23273914Y-5910638D01*
X23262687Y-5914482D01*
X23220229Y-5926818D01*
X23213403Y-5930855D01*
X23202794Y-5937129D01*
X23185046Y-5945824D01*
X23166205Y-5953284D01*
X23159789Y-5957946D01*
X23159788Y-5957946D01*
X23130435Y-5979272D01*
X23120515Y-5985788D01*
X23089287Y-6004256D01*
X23089284Y-6004258D01*
X23082460Y-6008294D01*
X23068139Y-6022615D01*
X23053106Y-6035455D01*
X23036715Y-6047364D01*
X23008524Y-6081441D01*
X23000534Y-6090220D01*
X10238733Y-18852020D01*
X10230447Y-18859560D01*
X10223968Y-18863672D01*
X10218543Y-18869449D01*
X10177343Y-18913323D01*
X10174588Y-18916165D01*
X10154851Y-18935902D01*
X10152371Y-18939099D01*
X10144668Y-18948119D01*
X10114400Y-18980351D01*
X10110581Y-18987297D01*
X10110579Y-18987300D01*
X10104638Y-18998106D01*
X10093787Y-19014625D01*
X10081372Y-19030631D01*
X10078227Y-19037900D01*
X10078224Y-19037904D01*
X10063812Y-19071209D01*
X10058595Y-19081859D01*
X10037291Y-19120612D01*
X10035320Y-19128287D01*
X10035320Y-19128288D01*
X10032253Y-19140234D01*
X10025849Y-19158938D01*
X10017805Y-19177527D01*
X10016566Y-19185350D01*
X10016563Y-19185360D01*
X10010887Y-19221196D01*
X10008481Y-19232816D01*
X9997486Y-19275642D01*
X9997486Y-19295896D01*
X9995935Y-19315606D01*
X9992766Y-19335615D01*
X9993512Y-19343507D01*
X9996927Y-19379633D01*
X9997486Y-19391491D01*
X9997486Y-36214741D01*
X9977484Y-36282862D01*
X9923828Y-36329355D01*
X9853554Y-36339459D01*
X9829425Y-36333514D01*
X9771777Y-36313099D01*
X9761810Y-36310466D01*
X9690659Y-36297792D01*
X9677362Y-36299252D01*
X9672822Y-36313809D01*
X9672822Y-38947337D01*
X9676886Y-38961179D01*
X9690300Y-38963213D01*
X9697006Y-38962354D01*
X9707088Y-38960211D01*
X9835279Y-38921752D01*
X9906274Y-38921336D01*
X9966224Y-38959368D01*
X9996096Y-39023775D01*
X9997486Y-39042438D01*
X9997486Y-43101233D01*
X9996959Y-43112416D01*
X9995284Y-43119909D01*
X9995533Y-43127835D01*
X9995533Y-43127836D01*
X9997424Y-43187986D01*
X9997486Y-43191945D01*
X9997486Y-43219856D01*
X9997983Y-43223790D01*
X9997983Y-43223791D01*
X9997991Y-43223856D01*
X9998924Y-43235693D01*
X10000313Y-43279889D01*
X10005964Y-43299339D01*
X10009973Y-43318700D01*
X10012512Y-43338797D01*
X10015431Y-43346168D01*
X10015431Y-43346170D01*
X10028790Y-43379912D01*
X10032635Y-43391142D01*
X10044968Y-43433593D01*
X10049001Y-43440412D01*
X10049003Y-43440417D01*
X10055279Y-43451028D01*
X10063974Y-43468776D01*
X10071434Y-43487617D01*
X10076096Y-43494033D01*
X10076096Y-43494034D01*
X10097422Y-43523387D01*
X10103938Y-43533307D01*
X10111311Y-43545773D01*
X10126444Y-43571362D01*
X10140765Y-43585683D01*
X10153605Y-43600716D01*
X10165514Y-43617107D01*
X10171620Y-43622158D01*
X10199591Y-43645298D01*
X10208370Y-43653288D01*
X12354385Y-45799304D01*
X12361925Y-45807590D01*
X12366037Y-45814069D01*
X12371814Y-45819494D01*
X12415688Y-45860694D01*
X12418530Y-45863449D01*
X12438267Y-45883186D01*
X12441464Y-45885666D01*
X12450484Y-45893369D01*
X12482716Y-45923637D01*
X12489662Y-45927456D01*
X12489665Y-45927458D01*
X12500471Y-45933399D01*
X12516990Y-45944250D01*
X12532996Y-45956665D01*
X12540265Y-45959810D01*
X12540269Y-45959813D01*
X12573574Y-45974225D01*
X12584224Y-45979442D01*
X12622977Y-46000746D01*
X12630652Y-46002717D01*
X12630653Y-46002717D01*
X12642599Y-46005784D01*
X12661304Y-46012188D01*
X12679892Y-46020232D01*
X12687715Y-46021471D01*
X12687725Y-46021474D01*
X12723561Y-46027150D01*
X12735181Y-46029556D01*
X12770326Y-46038579D01*
X12778007Y-46040551D01*
X12798261Y-46040551D01*
X12817971Y-46042102D01*
X12837980Y-46045271D01*
X12845872Y-46044525D01*
X12881998Y-46041110D01*
X12893856Y-46040551D01*
X16948338Y-46040551D01*
X17016459Y-46060553D01*
X17062952Y-46114209D01*
X17074338Y-46166551D01*
X17074338Y-47317815D01*
X17074675Y-47321061D01*
X17074675Y-47321065D01*
X17080136Y-47373692D01*
X17085312Y-47423581D01*
X17087493Y-47430117D01*
X17087493Y-47430119D01*
X17131566Y-47562221D01*
X17141288Y-47591361D01*
X17234360Y-47741763D01*
X17359535Y-47866720D01*
X17365765Y-47870560D01*
X17365766Y-47870561D01*
X17502928Y-47955109D01*
X17510100Y-47959530D01*
X17564209Y-47977477D01*
X17671449Y-48013047D01*
X17671451Y-48013047D01*
X17677977Y-48015212D01*
X17684813Y-48015912D01*
X17684816Y-48015913D01*
X17724210Y-48019949D01*
X17782438Y-48025915D01*
X19083238Y-48025915D01*
X19086484Y-48025578D01*
X19086488Y-48025578D01*
X19182146Y-48015653D01*
X19182150Y-48015652D01*
X19189004Y-48014941D01*
X19195540Y-48012760D01*
X19195542Y-48012760D01*
X19327644Y-47968687D01*
X19356784Y-47958965D01*
X19507186Y-47865893D01*
X19632143Y-47740718D01*
X19724953Y-47590153D01*
X19727256Y-47583210D01*
X19729601Y-47578181D01*
X19776518Y-47524896D01*
X19844796Y-47505436D01*
X19912756Y-47525979D01*
X19939032Y-47548935D01*
X20015698Y-47637440D01*
X20019088Y-47641353D01*
X20190964Y-47784047D01*
X20383838Y-47896753D01*
X20592530Y-47976445D01*
X20597598Y-47977476D01*
X20597601Y-47977477D01*
X20704855Y-47999298D01*
X20811435Y-48020982D01*
X20816610Y-48021172D01*
X20816612Y-48021172D01*
X21029511Y-48028979D01*
X21029515Y-48028979D01*
X21034675Y-48029168D01*
X21039795Y-48028512D01*
X21039797Y-48028512D01*
X21251126Y-48001440D01*
X21251127Y-48001440D01*
X21256254Y-48000783D01*
X21261204Y-47999298D01*
X21465267Y-47938076D01*
X21465272Y-47938074D01*
X21470222Y-47936589D01*
X21670832Y-47838311D01*
X21852698Y-47708588D01*
X22010934Y-47550904D01*
X22141291Y-47369492D01*
X22142614Y-47370443D01*
X22189483Y-47327272D01*
X22259418Y-47315040D01*
X22324864Y-47342559D01*
X22352713Y-47374409D01*
X22412825Y-47472503D01*
X22559088Y-47641353D01*
X22730964Y-47784047D01*
X22923838Y-47896753D01*
X23132530Y-47976445D01*
X23137598Y-47977476D01*
X23137601Y-47977477D01*
X23244855Y-47999298D01*
X23351435Y-48020982D01*
X23356610Y-48021172D01*
X23356612Y-48021172D01*
X23569511Y-48028979D01*
X23569515Y-48028979D01*
X23574675Y-48029168D01*
X23579795Y-48028512D01*
X23579797Y-48028512D01*
X23791126Y-48001440D01*
X23791127Y-48001440D01*
X23796254Y-48000783D01*
X23801204Y-47999298D01*
X24005267Y-47938076D01*
X24005272Y-47938074D01*
X24010222Y-47936589D01*
X24210832Y-47838311D01*
X24392698Y-47708588D01*
X24550934Y-47550904D01*
X24681291Y-47369492D01*
X24682614Y-47370443D01*
X24729483Y-47327272D01*
X24799418Y-47315040D01*
X24864864Y-47342559D01*
X24892713Y-47374409D01*
X24952825Y-47472503D01*
X25099088Y-47641353D01*
X25270964Y-47784047D01*
X25463838Y-47896753D01*
X25672530Y-47976445D01*
X25677598Y-47977476D01*
X25677601Y-47977477D01*
X25784855Y-47999298D01*
X25891435Y-48020982D01*
X25896610Y-48021172D01*
X25896612Y-48021172D01*
X26109511Y-48028979D01*
X26109515Y-48028979D01*
X26114675Y-48029168D01*
X26119795Y-48028512D01*
X26119797Y-48028512D01*
X26331126Y-48001440D01*
X26331127Y-48001440D01*
X26336254Y-48000783D01*
X26341204Y-47999298D01*
X26545267Y-47938076D01*
X26545272Y-47938074D01*
X26550222Y-47936589D01*
X26750832Y-47838311D01*
X26932698Y-47708588D01*
X27090934Y-47550904D01*
X27221291Y-47369492D01*
X27222614Y-47370443D01*
X27269483Y-47327272D01*
X27339418Y-47315040D01*
X27404864Y-47342559D01*
X27432713Y-47374409D01*
X27492825Y-47472503D01*
X27639088Y-47641353D01*
X27810964Y-47784047D01*
X28003838Y-47896753D01*
X28212530Y-47976445D01*
X28217598Y-47977476D01*
X28217601Y-47977477D01*
X28324855Y-47999298D01*
X28431435Y-48020982D01*
X28436610Y-48021172D01*
X28436612Y-48021172D01*
X28649511Y-48028979D01*
X28649515Y-48028979D01*
X28654675Y-48029168D01*
X28659795Y-48028512D01*
X28659797Y-48028512D01*
X28871126Y-48001440D01*
X28871127Y-48001440D01*
X28876254Y-48000783D01*
X28958850Y-47976003D01*
X29084229Y-47938387D01*
X29155225Y-47937970D01*
X29215175Y-47976003D01*
X29245047Y-48040409D01*
X29246437Y-48059073D01*
X29246437Y-48545468D01*
X29226435Y-48613589D01*
X29209532Y-48634564D01*
X28984499Y-48859596D01*
X28922187Y-48893621D01*
X28895404Y-48896500D01*
X9598200Y-48896500D01*
X9530079Y-48876498D01*
X9510853Y-48860157D01*
X9510580Y-48860460D01*
X9505668Y-48856037D01*
X9501253Y-48851134D01*
X9346752Y-48738882D01*
X9340724Y-48736198D01*
X9340722Y-48736197D01*
X9178319Y-48663891D01*
X9178318Y-48663891D01*
X9172288Y-48661206D01*
X9078888Y-48641353D01*
X8991944Y-48622872D01*
X8991939Y-48622872D01*
X8985487Y-48621500D01*
X8794513Y-48621500D01*
X8788061Y-48622872D01*
X8788056Y-48622872D01*
X8701112Y-48641353D01*
X8607712Y-48661206D01*
X8601682Y-48663891D01*
X8601681Y-48663891D01*
X8439278Y-48736197D01*
X8439276Y-48736198D01*
X8433248Y-48738882D01*
X8278747Y-48851134D01*
X8274326Y-48856044D01*
X8274325Y-48856045D01*
X8240492Y-48893621D01*
X8150960Y-48993056D01*
X8120691Y-49045483D01*
X8063509Y-49144526D01*
X8055473Y-49158444D01*
X7996458Y-49340072D01*
X7995768Y-49346633D01*
X7995768Y-49346635D01*
X7977186Y-49523435D01*
X7976496Y-49530000D01*
X7996458Y-49719928D01*
X8055473Y-49901556D01*
X8150960Y-50066944D01*
X8155378Y-50071851D01*
X8155379Y-50071852D01*
X8237452Y-50163003D01*
X8278747Y-50208866D01*
X8433248Y-50321118D01*
X8439276Y-50323802D01*
X8439278Y-50323803D01*
X8601681Y-50396109D01*
X8607712Y-50398794D01*
X8701113Y-50418647D01*
X8788056Y-50437128D01*
X8788061Y-50437128D01*
X8794513Y-50438500D01*
X8985487Y-50438500D01*
X8991939Y-50437128D01*
X8991944Y-50437128D01*
X9078887Y-50418647D01*
X9172288Y-50398794D01*
X9178319Y-50396109D01*
X9340722Y-50323803D01*
X9340724Y-50323802D01*
X9346752Y-50321118D01*
X9501253Y-50208866D01*
X9505668Y-50203963D01*
X9510580Y-50199540D01*
X9511705Y-50200789D01*
X9565014Y-50167949D01*
X9598200Y-50163500D01*
X29131233Y-50163500D01*
X29142416Y-50164027D01*
X29149909Y-50165702D01*
X29157835Y-50165453D01*
X29157836Y-50165453D01*
X29217986Y-50163562D01*
X29221945Y-50163500D01*
X29249856Y-50163500D01*
X29253791Y-50163003D01*
X29253856Y-50162995D01*
X29265693Y-50162062D01*
X29297951Y-50161048D01*
X29301970Y-50160922D01*
X29309889Y-50160673D01*
X29329343Y-50155021D01*
X29348700Y-50151013D01*
X29360930Y-50149468D01*
X29360931Y-50149468D01*
X29368797Y-50148474D01*
X29376168Y-50145555D01*
X29376170Y-50145555D01*
X29409912Y-50132196D01*
X29421142Y-50128351D01*
X29455983Y-50118229D01*
X29455984Y-50118229D01*
X29463593Y-50116018D01*
X29470412Y-50111985D01*
X29470417Y-50111983D01*
X29481028Y-50105707D01*
X29498776Y-50097012D01*
X29517617Y-50089552D01*
X29553387Y-50063564D01*
X29563307Y-50057048D01*
X29594535Y-50038580D01*
X29594538Y-50038578D01*
X29601362Y-50034542D01*
X29615683Y-50020221D01*
X29630717Y-50007380D01*
X29640693Y-50000132D01*
X29647107Y-49995472D01*
X29675288Y-49961407D01*
X29683278Y-49952626D01*
X30272195Y-49363710D01*
X30280474Y-49356176D01*
X30286955Y-49352063D01*
X30333581Y-49302411D01*
X30336335Y-49299570D01*
X30356072Y-49279833D01*
X30358552Y-49276636D01*
X30366257Y-49267614D01*
X30391096Y-49241163D01*
X30396523Y-49235384D01*
X30400342Y-49228438D01*
X30400344Y-49228435D01*
X30406285Y-49217629D01*
X30417136Y-49201110D01*
X30424695Y-49191364D01*
X30429551Y-49185104D01*
X30432696Y-49177835D01*
X30432699Y-49177831D01*
X30447111Y-49144526D01*
X30452328Y-49133876D01*
X30473632Y-49095123D01*
X30478670Y-49075500D01*
X30485074Y-49056797D01*
X30489970Y-49045483D01*
X30489970Y-49045482D01*
X30493118Y-49038208D01*
X30494357Y-49030385D01*
X30494360Y-49030375D01*
X30500036Y-48994539D01*
X30502442Y-48982919D01*
X30511465Y-48947774D01*
X30511465Y-48947773D01*
X30513437Y-48940093D01*
X30513437Y-48919839D01*
X30514988Y-48900128D01*
X30516917Y-48887949D01*
X30518157Y-48880120D01*
X30513996Y-48836101D01*
X30513437Y-48824244D01*
X30513437Y-48068133D01*
X30533439Y-48000012D01*
X30587095Y-47953519D01*
X30657369Y-47943415D01*
X30684384Y-47950422D01*
X30752530Y-47976445D01*
X30757598Y-47977476D01*
X30757601Y-47977477D01*
X30864855Y-47999298D01*
X30971435Y-48020982D01*
X30976610Y-48021172D01*
X30976612Y-48021172D01*
X31189511Y-48028979D01*
X31189515Y-48028979D01*
X31194675Y-48029168D01*
X31199795Y-48028512D01*
X31199797Y-48028512D01*
X31411126Y-48001440D01*
X31411127Y-48001440D01*
X31416254Y-48000783D01*
X31421204Y-47999298D01*
X31625267Y-47938076D01*
X31625272Y-47938074D01*
X31630222Y-47936589D01*
X31830832Y-47838311D01*
X32012698Y-47708588D01*
X32170934Y-47550904D01*
X32301291Y-47369492D01*
X32302614Y-47370443D01*
X32349483Y-47327272D01*
X32419418Y-47315040D01*
X32484864Y-47342559D01*
X32512713Y-47374409D01*
X32572825Y-47472503D01*
X32719088Y-47641353D01*
X32890964Y-47784047D01*
X33083838Y-47896753D01*
X33292530Y-47976445D01*
X33297598Y-47977476D01*
X33297601Y-47977477D01*
X33404855Y-47999298D01*
X33511435Y-48020982D01*
X33516610Y-48021172D01*
X33516612Y-48021172D01*
X33729511Y-48028979D01*
X33729515Y-48028979D01*
X33734675Y-48029168D01*
X33739795Y-48028512D01*
X33739797Y-48028512D01*
X33951126Y-48001440D01*
X33951127Y-48001440D01*
X33956254Y-48000783D01*
X33961204Y-47999298D01*
X34165267Y-47938076D01*
X34165272Y-47938074D01*
X34170222Y-47936589D01*
X34370832Y-47838311D01*
X34552698Y-47708588D01*
X34710934Y-47550904D01*
X34841291Y-47369492D01*
X34842614Y-47370443D01*
X34889483Y-47327272D01*
X34959418Y-47315040D01*
X35024864Y-47342559D01*
X35052713Y-47374409D01*
X35112825Y-47472503D01*
X35259088Y-47641353D01*
X35430964Y-47784047D01*
X35623838Y-47896753D01*
X35832530Y-47976445D01*
X35837598Y-47977476D01*
X35837601Y-47977477D01*
X35944855Y-47999298D01*
X36051435Y-48020982D01*
X36056610Y-48021172D01*
X36056612Y-48021172D01*
X36269511Y-48028979D01*
X36269515Y-48028979D01*
X36274675Y-48029168D01*
X36279795Y-48028512D01*
X36279797Y-48028512D01*
X36491126Y-48001440D01*
X36491127Y-48001440D01*
X36496254Y-48000783D01*
X36501204Y-47999298D01*
X36705267Y-47938076D01*
X36705272Y-47938074D01*
X36710222Y-47936589D01*
X36910832Y-47838311D01*
X37092698Y-47708588D01*
X37250934Y-47550904D01*
X37381291Y-47369492D01*
X37382614Y-47370443D01*
X37429483Y-47327272D01*
X37499418Y-47315040D01*
X37564864Y-47342559D01*
X37592713Y-47374409D01*
X37652825Y-47472503D01*
X37799088Y-47641353D01*
X37970964Y-47784047D01*
X38163838Y-47896753D01*
X38372530Y-47976445D01*
X38377598Y-47977476D01*
X38377601Y-47977477D01*
X38484855Y-47999298D01*
X38591435Y-48020982D01*
X38596610Y-48021172D01*
X38596612Y-48021172D01*
X38809511Y-48028979D01*
X38809515Y-48028979D01*
X38814675Y-48029168D01*
X38819795Y-48028512D01*
X38819797Y-48028512D01*
X39031126Y-48001440D01*
X39031127Y-48001440D01*
X39036254Y-48000783D01*
X39041204Y-47999298D01*
X39245267Y-47938076D01*
X39245272Y-47938074D01*
X39250222Y-47936589D01*
X39450832Y-47838311D01*
X39632698Y-47708588D01*
X39790934Y-47550904D01*
X39921291Y-47369492D01*
X39922614Y-47370443D01*
X39969483Y-47327272D01*
X40039418Y-47315040D01*
X40104864Y-47342559D01*
X40132713Y-47374409D01*
X40192825Y-47472503D01*
X40339088Y-47641353D01*
X40510964Y-47784047D01*
X40703838Y-47896753D01*
X40912530Y-47976445D01*
X40917598Y-47977476D01*
X40917601Y-47977477D01*
X41024855Y-47999298D01*
X41131435Y-48020982D01*
X41136610Y-48021172D01*
X41136612Y-48021172D01*
X41349511Y-48028979D01*
X41349515Y-48028979D01*
X41354675Y-48029168D01*
X41359795Y-48028512D01*
X41359797Y-48028512D01*
X41571126Y-48001440D01*
X41571127Y-48001440D01*
X41576254Y-48000783D01*
X41581204Y-47999298D01*
X41785267Y-47938076D01*
X41785272Y-47938074D01*
X41790222Y-47936589D01*
X41990832Y-47838311D01*
X42172698Y-47708588D01*
X42330934Y-47550904D01*
X42461291Y-47369492D01*
X42482158Y-47327272D01*
X42557974Y-47173868D01*
X42557975Y-47173866D01*
X42560268Y-47169226D01*
X42625208Y-46955484D01*
X42654367Y-46734005D01*
X42655994Y-46667415D01*
X42637690Y-46444776D01*
X42583269Y-46228117D01*
X42494192Y-46023255D01*
X42451113Y-45956665D01*
X42375660Y-45840032D01*
X42375658Y-45840029D01*
X42372852Y-45835692D01*
X42222508Y-45670466D01*
X42218457Y-45667267D01*
X42218453Y-45667263D01*
X42051252Y-45535215D01*
X42051248Y-45535213D01*
X42047197Y-45532013D01*
X42005891Y-45509211D01*
X41955922Y-45458779D01*
X41941150Y-45389336D01*
X41966266Y-45322931D01*
X41993618Y-45296324D01*
X42037441Y-45265065D01*
X42172698Y-45168588D01*
X42330934Y-45010904D01*
X42461291Y-44829492D01*
X42463584Y-44824852D01*
X42465284Y-44822023D01*
X42517512Y-44773933D01*
X42573289Y-44760915D01*
X44954987Y-44760915D01*
X44966170Y-44761442D01*
X44973663Y-44763117D01*
X44981589Y-44762868D01*
X44981590Y-44762868D01*
X45041740Y-44760977D01*
X45045699Y-44760915D01*
X45073610Y-44760915D01*
X45077545Y-44760418D01*
X45077610Y-44760410D01*
X45089447Y-44759477D01*
X45121705Y-44758463D01*
X45125724Y-44758337D01*
X45133643Y-44758088D01*
X45153097Y-44752436D01*
X45172454Y-44748428D01*
X45184684Y-44746883D01*
X45184685Y-44746883D01*
X45192551Y-44745889D01*
X45199922Y-44742970D01*
X45199924Y-44742970D01*
X45233666Y-44729611D01*
X45244896Y-44725766D01*
X45279737Y-44715644D01*
X45279738Y-44715644D01*
X45287347Y-44713433D01*
X45294166Y-44709400D01*
X45294171Y-44709398D01*
X45304782Y-44703122D01*
X45322530Y-44694427D01*
X45341371Y-44686967D01*
X45363639Y-44670789D01*
X45377141Y-44660979D01*
X45387061Y-44654463D01*
X45418289Y-44635995D01*
X45418292Y-44635993D01*
X45425116Y-44631957D01*
X45439437Y-44617636D01*
X45454471Y-44604795D01*
X45464448Y-44597546D01*
X45470861Y-44592887D01*
X45475911Y-44586783D01*
X45475916Y-44586778D01*
X45499047Y-44558817D01*
X45507037Y-44550036D01*
X45943176Y-44113898D01*
X46005488Y-44079873D01*
X46032271Y-44076994D01*
X46088162Y-44076994D01*
X46094614Y-44075622D01*
X46094619Y-44075622D01*
X46181563Y-44057141D01*
X46274963Y-44037288D01*
X46280994Y-44034603D01*
X46443397Y-43962297D01*
X46443399Y-43962296D01*
X46449427Y-43959612D01*
X46603928Y-43847360D01*
X46731715Y-43705438D01*
X46800856Y-43585683D01*
X46823898Y-43545773D01*
X46823899Y-43545772D01*
X46827202Y-43540050D01*
X46886217Y-43358422D01*
X46889107Y-43330930D01*
X46905489Y-43175059D01*
X46906179Y-43168494D01*
X46901906Y-43127836D01*
X46886907Y-42985129D01*
X46886907Y-42985127D01*
X46886217Y-42978566D01*
X46827202Y-42796938D01*
X46810289Y-42767643D01*
X46735016Y-42637268D01*
X46731715Y-42631550D01*
X46603928Y-42489628D01*
X46449427Y-42377376D01*
X46443399Y-42374692D01*
X46443397Y-42374691D01*
X46280994Y-42302385D01*
X46280993Y-42302385D01*
X46274963Y-42299700D01*
X46181562Y-42279847D01*
X46094619Y-42261366D01*
X46094614Y-42261366D01*
X46088162Y-42259994D01*
X45897188Y-42259994D01*
X45890736Y-42261366D01*
X45890731Y-42261366D01*
X45803788Y-42279847D01*
X45710387Y-42299700D01*
X45704357Y-42302385D01*
X45704356Y-42302385D01*
X45541953Y-42374691D01*
X45541951Y-42374692D01*
X45535923Y-42377376D01*
X45381422Y-42489628D01*
X45253635Y-42631550D01*
X45250334Y-42637268D01*
X45175062Y-42767643D01*
X45158148Y-42796938D01*
X45099133Y-42978566D01*
X45098443Y-42985127D01*
X45098443Y-42985129D01*
X45097383Y-42995215D01*
X45082767Y-43134285D01*
X45081768Y-43143786D01*
X45054755Y-43209443D01*
X45045553Y-43219712D01*
X44808253Y-43457011D01*
X44745941Y-43491036D01*
X44719158Y-43493915D01*
X42569643Y-43493915D01*
X42501522Y-43473913D01*
X42463851Y-43436355D01*
X42375660Y-43300032D01*
X42375658Y-43300029D01*
X42372852Y-43295692D01*
X42222508Y-43130466D01*
X42218457Y-43127267D01*
X42218453Y-43127263D01*
X42051252Y-42995215D01*
X42051248Y-42995213D01*
X42047197Y-42992013D01*
X42042669Y-42989513D01*
X41926826Y-42925565D01*
X41851627Y-42884053D01*
X41846758Y-42882329D01*
X41846754Y-42882327D01*
X41645925Y-42811210D01*
X41645921Y-42811209D01*
X41641050Y-42809484D01*
X41635957Y-42808577D01*
X41635954Y-42808576D01*
X41426211Y-42771215D01*
X41426205Y-42771214D01*
X41421122Y-42770309D01*
X41347290Y-42769407D01*
X41202919Y-42767643D01*
X41202917Y-42767643D01*
X41197749Y-42767580D01*
X40976929Y-42801370D01*
X40764594Y-42870772D01*
X40734281Y-42886552D01*
X40590813Y-42961237D01*
X40566445Y-42973922D01*
X40562312Y-42977025D01*
X40562309Y-42977027D01*
X40538085Y-42995215D01*
X40387803Y-43108050D01*
X40384231Y-43111788D01*
X40290910Y-43209443D01*
X40233467Y-43269553D01*
X40126039Y-43427036D01*
X40071131Y-43472036D01*
X40000606Y-43480207D01*
X39936859Y-43448953D01*
X39916162Y-43424469D01*
X39835660Y-43300032D01*
X39835658Y-43300029D01*
X39832852Y-43295692D01*
X39682508Y-43130466D01*
X39678457Y-43127267D01*
X39678453Y-43127263D01*
X39511252Y-42995215D01*
X39511248Y-42995213D01*
X39507197Y-42992013D01*
X39502669Y-42989513D01*
X39386826Y-42925565D01*
X39311627Y-42884053D01*
X39306758Y-42882329D01*
X39306754Y-42882327D01*
X39105925Y-42811210D01*
X39105921Y-42811209D01*
X39101050Y-42809484D01*
X39095957Y-42808577D01*
X39095954Y-42808576D01*
X38886211Y-42771215D01*
X38886205Y-42771214D01*
X38881122Y-42770309D01*
X38807290Y-42769407D01*
X38662919Y-42767643D01*
X38662917Y-42767643D01*
X38657749Y-42767580D01*
X38436929Y-42801370D01*
X38224594Y-42870772D01*
X38194281Y-42886552D01*
X38050813Y-42961237D01*
X38026445Y-42973922D01*
X38022312Y-42977025D01*
X38022309Y-42977027D01*
X37998085Y-42995215D01*
X37847803Y-43108050D01*
X37844231Y-43111788D01*
X37750910Y-43209443D01*
X37693467Y-43269553D01*
X37586039Y-43427036D01*
X37531131Y-43472036D01*
X37460606Y-43480207D01*
X37396859Y-43448953D01*
X37376162Y-43424469D01*
X37295660Y-43300032D01*
X37295658Y-43300029D01*
X37292852Y-43295692D01*
X37142508Y-43130466D01*
X37138457Y-43127267D01*
X37138453Y-43127263D01*
X36971252Y-42995215D01*
X36971248Y-42995213D01*
X36967197Y-42992013D01*
X36962669Y-42989513D01*
X36846826Y-42925565D01*
X36771627Y-42884053D01*
X36766758Y-42882329D01*
X36766754Y-42882327D01*
X36565925Y-42811210D01*
X36565921Y-42811209D01*
X36561050Y-42809484D01*
X36555957Y-42808577D01*
X36555954Y-42808576D01*
X36346211Y-42771215D01*
X36346205Y-42771214D01*
X36341122Y-42770309D01*
X36267290Y-42769407D01*
X36122919Y-42767643D01*
X36122917Y-42767643D01*
X36117749Y-42767580D01*
X35896929Y-42801370D01*
X35684594Y-42870772D01*
X35654281Y-42886552D01*
X35510813Y-42961237D01*
X35486445Y-42973922D01*
X35482312Y-42977025D01*
X35482309Y-42977027D01*
X35458085Y-42995215D01*
X35307803Y-43108050D01*
X35304231Y-43111788D01*
X35210910Y-43209443D01*
X35153467Y-43269553D01*
X35046039Y-43427036D01*
X34991131Y-43472036D01*
X34920606Y-43480207D01*
X34856859Y-43448953D01*
X34836162Y-43424469D01*
X34755660Y-43300032D01*
X34755658Y-43300029D01*
X34752852Y-43295692D01*
X34602508Y-43130466D01*
X34598457Y-43127267D01*
X34598453Y-43127263D01*
X34431252Y-42995215D01*
X34431248Y-42995213D01*
X34427197Y-42992013D01*
X34422669Y-42989513D01*
X34306826Y-42925565D01*
X34231627Y-42884053D01*
X34226758Y-42882329D01*
X34226754Y-42882327D01*
X34025925Y-42811210D01*
X34025921Y-42811209D01*
X34021050Y-42809484D01*
X34015957Y-42808577D01*
X34015954Y-42808576D01*
X33806211Y-42771215D01*
X33806205Y-42771214D01*
X33801122Y-42770309D01*
X33727290Y-42769407D01*
X33582919Y-42767643D01*
X33582917Y-42767643D01*
X33577749Y-42767580D01*
X33356929Y-42801370D01*
X33144594Y-42870772D01*
X33114281Y-42886552D01*
X32970813Y-42961237D01*
X32946445Y-42973922D01*
X32942312Y-42977025D01*
X32942309Y-42977027D01*
X32918085Y-42995215D01*
X32767803Y-43108050D01*
X32764231Y-43111788D01*
X32670910Y-43209443D01*
X32613467Y-43269553D01*
X32506039Y-43427036D01*
X32451131Y-43472036D01*
X32380606Y-43480207D01*
X32316859Y-43448953D01*
X32296162Y-43424469D01*
X32215660Y-43300032D01*
X32215658Y-43300029D01*
X32212852Y-43295692D01*
X32062508Y-43130466D01*
X32058457Y-43127267D01*
X32058453Y-43127263D01*
X31891252Y-42995215D01*
X31891248Y-42995213D01*
X31887197Y-42992013D01*
X31882669Y-42989513D01*
X31766826Y-42925565D01*
X31691627Y-42884053D01*
X31686758Y-42882329D01*
X31686754Y-42882327D01*
X31485925Y-42811210D01*
X31485921Y-42811209D01*
X31481050Y-42809484D01*
X31475957Y-42808577D01*
X31475954Y-42808576D01*
X31266211Y-42771215D01*
X31266205Y-42771214D01*
X31261122Y-42770309D01*
X31187290Y-42769407D01*
X31042919Y-42767643D01*
X31042917Y-42767643D01*
X31037749Y-42767580D01*
X30816929Y-42801370D01*
X30604594Y-42870772D01*
X30574281Y-42886552D01*
X30430813Y-42961237D01*
X30406445Y-42973922D01*
X30402312Y-42977025D01*
X30402309Y-42977027D01*
X30378085Y-42995215D01*
X30227803Y-43108050D01*
X30224231Y-43111788D01*
X30130910Y-43209443D01*
X30073467Y-43269553D01*
X29966039Y-43427036D01*
X29911131Y-43472036D01*
X29840606Y-43480207D01*
X29776859Y-43448953D01*
X29756162Y-43424469D01*
X29675660Y-43300032D01*
X29675658Y-43300029D01*
X29672852Y-43295692D01*
X29522508Y-43130466D01*
X29518457Y-43127267D01*
X29518453Y-43127263D01*
X29351252Y-42995215D01*
X29351248Y-42995213D01*
X29347197Y-42992013D01*
X29342669Y-42989513D01*
X29226826Y-42925565D01*
X29151627Y-42884053D01*
X29146758Y-42882329D01*
X29146754Y-42882327D01*
X28945925Y-42811210D01*
X28945921Y-42811209D01*
X28941050Y-42809484D01*
X28935957Y-42808577D01*
X28935954Y-42808576D01*
X28726211Y-42771215D01*
X28726205Y-42771214D01*
X28721122Y-42770309D01*
X28647290Y-42769407D01*
X28502919Y-42767643D01*
X28502917Y-42767643D01*
X28497749Y-42767580D01*
X28276929Y-42801370D01*
X28064594Y-42870772D01*
X28034281Y-42886552D01*
X27890813Y-42961237D01*
X27866445Y-42973922D01*
X27862312Y-42977025D01*
X27862309Y-42977027D01*
X27838085Y-42995215D01*
X27687803Y-43108050D01*
X27684231Y-43111788D01*
X27590910Y-43209443D01*
X27533467Y-43269553D01*
X27426039Y-43427036D01*
X27371131Y-43472036D01*
X27300606Y-43480207D01*
X27236859Y-43448953D01*
X27216162Y-43424469D01*
X27135662Y-43300035D01*
X27135660Y-43300032D01*
X27132852Y-43295692D01*
X27129371Y-43291867D01*
X27126217Y-43287771D01*
X27127242Y-43286982D01*
X27098852Y-43228600D01*
X27107252Y-43158102D01*
X27134004Y-43118559D01*
X29841789Y-40410774D01*
X29904101Y-40376748D01*
X29974916Y-40381813D01*
X30031752Y-40424360D01*
X30052295Y-40472972D01*
X30053149Y-40472724D01*
X30053149Y-40472725D01*
X30055362Y-40480342D01*
X30055362Y-40480343D01*
X30058800Y-40492175D01*
X30062809Y-40511536D01*
X30065348Y-40531633D01*
X30068267Y-40539004D01*
X30068267Y-40539006D01*
X30081626Y-40572748D01*
X30085471Y-40583978D01*
X30097804Y-40626429D01*
X30101837Y-40633248D01*
X30101839Y-40633253D01*
X30108115Y-40643864D01*
X30116810Y-40661612D01*
X30124270Y-40680453D01*
X30128932Y-40686869D01*
X30128932Y-40686870D01*
X30150258Y-40716223D01*
X30156774Y-40726143D01*
X30179280Y-40764198D01*
X30193601Y-40778519D01*
X30206441Y-40793552D01*
X30218350Y-40809943D01*
X30224456Y-40814994D01*
X30252427Y-40838134D01*
X30261206Y-40846124D01*
X30600165Y-41185083D01*
X30607709Y-41193373D01*
X30611822Y-41199854D01*
X30617599Y-41205279D01*
X30661489Y-41246494D01*
X30664331Y-41249249D01*
X30684053Y-41268971D01*
X30687195Y-41271408D01*
X30687255Y-41271455D01*
X30696267Y-41279153D01*
X30709700Y-41291767D01*
X30728501Y-41309422D01*
X30735444Y-41313239D01*
X30746253Y-41319181D01*
X30762775Y-41330034D01*
X30778781Y-41342450D01*
X30786059Y-41345600D01*
X30786060Y-41345600D01*
X30819359Y-41360010D01*
X30830009Y-41365227D01*
X30868762Y-41386531D01*
X30876437Y-41388502D01*
X30876438Y-41388502D01*
X30888384Y-41391569D01*
X30907089Y-41397973D01*
X30925677Y-41406017D01*
X30933500Y-41407256D01*
X30933510Y-41407259D01*
X30969346Y-41412935D01*
X30980966Y-41415341D01*
X31012781Y-41423509D01*
X31023792Y-41426336D01*
X31044046Y-41426336D01*
X31063756Y-41427887D01*
X31083765Y-41431056D01*
X31091657Y-41430310D01*
X31110402Y-41428538D01*
X31127784Y-41426895D01*
X31139641Y-41426336D01*
X39285622Y-41426336D01*
X39353743Y-41446338D01*
X39372969Y-41462679D01*
X39373242Y-41462376D01*
X39378154Y-41466799D01*
X39382569Y-41471702D01*
X39537070Y-41583954D01*
X39543098Y-41586638D01*
X39543100Y-41586639D01*
X39705503Y-41658945D01*
X39711534Y-41661630D01*
X39804935Y-41681483D01*
X39891878Y-41699964D01*
X39891883Y-41699964D01*
X39898335Y-41701336D01*
X40089309Y-41701336D01*
X40095761Y-41699964D01*
X40095766Y-41699964D01*
X40182709Y-41681483D01*
X40276110Y-41661630D01*
X40282141Y-41658945D01*
X40444544Y-41586639D01*
X40444546Y-41586638D01*
X40450574Y-41583954D01*
X40605075Y-41471702D01*
X40641917Y-41430785D01*
X40728443Y-41334688D01*
X40728444Y-41334687D01*
X40732862Y-41329780D01*
X40807875Y-41199854D01*
X40825045Y-41170115D01*
X40825046Y-41170114D01*
X40828349Y-41164392D01*
X40887364Y-40982764D01*
X40907326Y-40792836D01*
X40895514Y-40680453D01*
X40888054Y-40609471D01*
X40888054Y-40609469D01*
X40887364Y-40602908D01*
X40828349Y-40421280D01*
X40822284Y-40410774D01*
X40739781Y-40267876D01*
X40732862Y-40255892D01*
X40702211Y-40221850D01*
X40609497Y-40118881D01*
X40609496Y-40118880D01*
X40605075Y-40113970D01*
X40479682Y-40022866D01*
X40455916Y-40005599D01*
X40455915Y-40005598D01*
X40450574Y-40001718D01*
X40444546Y-39999034D01*
X40444544Y-39999033D01*
X40282141Y-39926727D01*
X40282140Y-39926727D01*
X40276110Y-39924042D01*
X40182709Y-39904189D01*
X40095766Y-39885708D01*
X40095761Y-39885708D01*
X40089309Y-39884336D01*
X39898335Y-39884336D01*
X39891883Y-39885708D01*
X39891878Y-39885708D01*
X39804935Y-39904189D01*
X39711534Y-39924042D01*
X39705504Y-39926727D01*
X39705503Y-39926727D01*
X39543100Y-39999033D01*
X39543098Y-39999034D01*
X39537070Y-40001718D01*
X39531729Y-40005598D01*
X39531728Y-40005599D01*
X39507962Y-40022866D01*
X39382569Y-40113970D01*
X39378154Y-40118873D01*
X39373242Y-40123296D01*
X39372117Y-40122047D01*
X39318808Y-40154887D01*
X39285622Y-40159336D01*
X31443322Y-40159336D01*
X31375201Y-40139334D01*
X31328708Y-40085678D01*
X31317322Y-40033336D01*
X31317322Y-39113320D01*
X31337324Y-39045199D01*
X31390980Y-38998706D01*
X31443322Y-38987320D01*
X31581956Y-38987320D01*
X31644138Y-38980565D01*
X31780527Y-38929435D01*
X31897083Y-38842081D01*
X31984437Y-38725525D01*
X32035567Y-38589136D01*
X32042322Y-38526954D01*
X32042322Y-37896786D01*
X40782079Y-37896786D01*
X40812387Y-38031266D01*
X40815467Y-38041095D01*
X40895592Y-38238423D01*
X40900235Y-38247614D01*
X41011516Y-38429208D01*
X41017599Y-38437519D01*
X41157035Y-38598487D01*
X41164402Y-38605703D01*
X41328256Y-38741736D01*
X41336703Y-38747651D01*
X41520578Y-38855099D01*
X41529864Y-38859549D01*
X41728823Y-38935523D01*
X41738721Y-38938399D01*
X41842072Y-38959426D01*
X41856121Y-38958230D01*
X41859822Y-38947885D01*
X41859822Y-37900935D01*
X41855347Y-37885696D01*
X41853957Y-37884491D01*
X41846274Y-37882820D01*
X40797047Y-37882820D01*
X40783516Y-37886793D01*
X40782079Y-37896786D01*
X32042322Y-37896786D01*
X32042322Y-37363003D01*
X40778211Y-37363003D01*
X40779734Y-37371427D01*
X40792114Y-37374820D01*
X41841707Y-37374820D01*
X41856946Y-37370345D01*
X41858151Y-37368955D01*
X41859822Y-37361272D01*
X41859822Y-36311922D01*
X41855904Y-36298578D01*
X41841628Y-36296591D01*
X41803146Y-36302480D01*
X41793110Y-36304871D01*
X41590690Y-36371032D01*
X41581181Y-36375029D01*
X41392285Y-36473362D01*
X41383560Y-36478856D01*
X41213255Y-36606725D01*
X41205548Y-36613568D01*
X41058412Y-36767537D01*
X41051926Y-36775547D01*
X40931920Y-36951469D01*
X40926822Y-36960443D01*
X40837160Y-37153603D01*
X40833597Y-37163290D01*
X40778211Y-37363003D01*
X32042322Y-37363003D01*
X32042322Y-36730686D01*
X32035567Y-36668504D01*
X31984437Y-36532115D01*
X31897083Y-36415559D01*
X31780527Y-36328205D01*
X31644138Y-36277075D01*
X31581956Y-36270320D01*
X30268811Y-36270320D01*
X30200690Y-36250318D01*
X30154197Y-36196662D01*
X30142811Y-36144320D01*
X30142811Y-30021941D01*
X30162813Y-29953820D01*
X30179716Y-29932846D01*
X30857233Y-29255329D01*
X30919545Y-29221303D01*
X30990360Y-29226368D01*
X31047196Y-29268915D01*
X31072007Y-29335435D01*
X31071848Y-29355406D01*
X31070803Y-29367350D01*
X31070803Y-29367361D01*
X31070324Y-29372836D01*
X31090279Y-29600923D01*
X31091703Y-29606236D01*
X31091703Y-29606238D01*
X31146718Y-29811553D01*
X31149538Y-29822079D01*
X31151861Y-29827060D01*
X31151861Y-29827061D01*
X31243973Y-30024598D01*
X31243976Y-30024603D01*
X31246299Y-30029585D01*
X31284379Y-30083969D01*
X31370620Y-30207133D01*
X31377624Y-30217136D01*
X31539522Y-30379034D01*
X31544030Y-30382191D01*
X31544033Y-30382193D01*
X31594323Y-30417406D01*
X31727073Y-30510359D01*
X31732055Y-30512682D01*
X31732060Y-30512685D01*
X31766279Y-30528641D01*
X31819564Y-30575558D01*
X31839025Y-30643835D01*
X31818483Y-30711795D01*
X31766279Y-30757031D01*
X31732060Y-30772987D01*
X31732055Y-30772990D01*
X31727073Y-30775313D01*
X31622211Y-30848738D01*
X31544033Y-30903479D01*
X31544030Y-30903481D01*
X31539522Y-30906638D01*
X31377624Y-31068536D01*
X31374467Y-31073044D01*
X31374465Y-31073047D01*
X31344670Y-31115599D01*
X31246299Y-31256087D01*
X31243976Y-31261069D01*
X31243973Y-31261074D01*
X31157106Y-31447364D01*
X31149538Y-31463593D01*
X31148116Y-31468901D01*
X31148115Y-31468903D01*
X31125815Y-31552128D01*
X31090279Y-31684749D01*
X31070324Y-31912836D01*
X31090279Y-32140923D01*
X31091703Y-32146236D01*
X31091703Y-32146238D01*
X31122287Y-32260376D01*
X31149538Y-32362079D01*
X31151861Y-32367060D01*
X31151861Y-32367061D01*
X31243973Y-32564598D01*
X31243976Y-32564603D01*
X31246299Y-32569585D01*
X31377624Y-32757136D01*
X31539522Y-32919034D01*
X31544030Y-32922191D01*
X31544033Y-32922193D01*
X31573456Y-32942795D01*
X31727073Y-33050359D01*
X31732055Y-33052682D01*
X31732060Y-33052685D01*
X31917648Y-33139225D01*
X31934579Y-33147120D01*
X31939887Y-33148542D01*
X31939889Y-33148543D01*
X32150420Y-33204955D01*
X32150422Y-33204955D01*
X32155735Y-33206379D01*
X32383822Y-33226334D01*
X32611909Y-33206379D01*
X32617222Y-33204955D01*
X32617224Y-33204955D01*
X32827755Y-33148543D01*
X32827757Y-33148542D01*
X32833065Y-33147120D01*
X32849996Y-33139225D01*
X33035584Y-33052685D01*
X33035589Y-33052682D01*
X33040571Y-33050359D01*
X33194188Y-32942795D01*
X33223611Y-32922193D01*
X33223614Y-32922191D01*
X33228122Y-32919034D01*
X33390020Y-32757136D01*
X33521345Y-32569585D01*
X33523668Y-32564603D01*
X33523671Y-32564598D01*
X33615783Y-32367061D01*
X33615783Y-32367060D01*
X33618106Y-32362079D01*
X33645358Y-32260376D01*
X33675941Y-32146238D01*
X33675941Y-32146236D01*
X33677365Y-32140923D01*
X33697320Y-31912836D01*
X33677365Y-31684749D01*
X33641829Y-31552128D01*
X33619529Y-31468903D01*
X33619528Y-31468901D01*
X33618106Y-31463593D01*
X33610538Y-31447364D01*
X33523671Y-31261074D01*
X33523668Y-31261069D01*
X33521345Y-31256087D01*
X33422974Y-31115599D01*
X33393179Y-31073047D01*
X33393177Y-31073044D01*
X33390020Y-31068536D01*
X33228122Y-30906638D01*
X33223614Y-30903481D01*
X33223611Y-30903479D01*
X33145433Y-30848738D01*
X33040571Y-30775313D01*
X33035589Y-30772990D01*
X33035584Y-30772987D01*
X33001365Y-30757031D01*
X32948080Y-30710114D01*
X32928619Y-30641837D01*
X32949161Y-30573877D01*
X33001365Y-30528641D01*
X33035584Y-30512685D01*
X33035589Y-30512682D01*
X33040571Y-30510359D01*
X33173321Y-30417406D01*
X33223611Y-30382193D01*
X33223614Y-30382191D01*
X33228122Y-30379034D01*
X33390020Y-30217136D01*
X33397025Y-30207133D01*
X33483265Y-30083969D01*
X33521345Y-30029585D01*
X33523668Y-30024603D01*
X33523671Y-30024598D01*
X33615783Y-29827061D01*
X33615783Y-29827060D01*
X33618106Y-29822079D01*
X33620927Y-29811553D01*
X33675941Y-29606238D01*
X33675941Y-29606236D01*
X33677365Y-29600923D01*
X33697320Y-29372836D01*
X33677365Y-29144749D01*
X33644368Y-29021604D01*
X33619529Y-28928903D01*
X33619528Y-28928901D01*
X33618106Y-28923593D01*
X33615783Y-28918611D01*
X33523671Y-28721074D01*
X33523668Y-28721069D01*
X33521345Y-28716087D01*
X33432727Y-28589528D01*
X33393179Y-28533047D01*
X33393177Y-28533044D01*
X33390020Y-28528536D01*
X33228122Y-28366638D01*
X33223614Y-28363481D01*
X33223611Y-28363479D01*
X33145433Y-28308738D01*
X33040571Y-28235313D01*
X33035589Y-28232990D01*
X33035584Y-28232987D01*
X33001365Y-28217031D01*
X32948080Y-28170114D01*
X32928619Y-28101837D01*
X32949161Y-28033877D01*
X33001365Y-27988641D01*
X33035584Y-27972685D01*
X33035589Y-27972682D01*
X33040571Y-27970359D01*
X33145433Y-27896934D01*
X33223611Y-27842193D01*
X33223614Y-27842191D01*
X33228122Y-27839034D01*
X33390020Y-27677136D01*
X33521345Y-27489585D01*
X33523668Y-27484603D01*
X33523671Y-27484598D01*
X33615783Y-27287061D01*
X33615783Y-27287060D01*
X33618106Y-27282079D01*
X33660363Y-27124377D01*
X33675941Y-27066238D01*
X33675942Y-27066234D01*
X33677365Y-27060923D01*
X33697320Y-26832836D01*
X33677365Y-26604749D01*
X33618106Y-26383593D01*
X33604988Y-26355460D01*
X33546530Y-26230097D01*
X33535869Y-26159905D01*
X33564849Y-26095092D01*
X33624269Y-26056236D01*
X33660725Y-26050847D01*
X33944594Y-26050847D01*
X34010710Y-26069587D01*
X34134037Y-26145607D01*
X34141084Y-26149951D01*
X34171095Y-26159905D01*
X34302433Y-26203468D01*
X34302435Y-26203468D01*
X34308961Y-26205633D01*
X34315797Y-26206333D01*
X34315800Y-26206334D01*
X34358853Y-26210745D01*
X34413422Y-26216336D01*
X35414222Y-26216336D01*
X35417468Y-26215999D01*
X35417472Y-26215999D01*
X35513130Y-26206074D01*
X35513134Y-26206073D01*
X35519988Y-26205362D01*
X35526524Y-26203181D01*
X35526526Y-26203181D01*
X35658628Y-26159108D01*
X35687768Y-26149386D01*
X35838170Y-26056314D01*
X35843628Y-26050847D01*
X35950593Y-25943695D01*
X35963127Y-25931139D01*
X35988068Y-25890678D01*
X36052097Y-25786804D01*
X36052098Y-25786802D01*
X36055937Y-25780574D01*
X36084988Y-25692987D01*
X36109454Y-25619225D01*
X36109454Y-25619223D01*
X36111619Y-25612697D01*
X36113069Y-25598552D01*
X36121994Y-25511434D01*
X36122322Y-25508236D01*
X36122322Y-24882436D01*
X36111348Y-24776670D01*
X36099808Y-24742079D01*
X36057690Y-24615838D01*
X36055372Y-24608890D01*
X35962300Y-24458488D01*
X35875713Y-24372052D01*
X35841634Y-24309770D01*
X35846637Y-24238950D01*
X35875558Y-24193861D01*
X35957956Y-24111319D01*
X35963127Y-24106139D01*
X35972225Y-24091379D01*
X36052097Y-23961804D01*
X36052098Y-23961802D01*
X36055937Y-23955574D01*
X36094732Y-23838611D01*
X36109454Y-23794225D01*
X36109454Y-23794223D01*
X36111619Y-23787697D01*
X36122322Y-23683236D01*
X36122322Y-23057436D01*
X36118732Y-23022836D01*
X36112060Y-22958528D01*
X36112059Y-22958524D01*
X36111348Y-22951670D01*
X36096993Y-22908641D01*
X36057690Y-22790838D01*
X36055372Y-22783890D01*
X35962300Y-22633488D01*
X35957118Y-22628315D01*
X35957114Y-22628310D01*
X35930266Y-22601509D01*
X35896186Y-22539227D01*
X35901189Y-22468407D01*
X35943686Y-22411534D01*
X36010184Y-22386665D01*
X36019283Y-22386336D01*
X37149228Y-22386336D01*
X37217349Y-22406338D01*
X37238323Y-22423241D01*
X43983417Y-29168335D01*
X44017443Y-29230647D01*
X44020322Y-29257430D01*
X44020322Y-36350512D01*
X44000320Y-36418633D01*
X43952505Y-36462273D01*
X43927429Y-36475327D01*
X43923296Y-36478430D01*
X43923293Y-36478432D01*
X43752922Y-36606350D01*
X43748787Y-36609455D01*
X43723363Y-36636060D01*
X43655102Y-36707491D01*
X43594451Y-36770958D01*
X43591537Y-36775230D01*
X43591536Y-36775231D01*
X43486720Y-36928886D01*
X43431809Y-36973889D01*
X43361284Y-36982060D01*
X43297537Y-36950806D01*
X43276840Y-36926322D01*
X43196248Y-36801746D01*
X43189958Y-36793577D01*
X43046628Y-36636060D01*
X43039095Y-36629035D01*
X42871961Y-36497042D01*
X42863374Y-36491337D01*
X42676939Y-36388419D01*
X42667527Y-36384189D01*
X42466781Y-36313100D01*
X42456810Y-36310466D01*
X42385659Y-36297792D01*
X42372362Y-36299252D01*
X42367822Y-36313809D01*
X42367822Y-38947337D01*
X42371886Y-38961179D01*
X42385300Y-38963213D01*
X42392006Y-38962354D01*
X42402084Y-38960212D01*
X42606077Y-38899011D01*
X42615664Y-38895253D01*
X42806917Y-38801559D01*
X42815767Y-38796284D01*
X42989150Y-38672612D01*
X42997022Y-38665959D01*
X43147874Y-38515632D01*
X43154552Y-38507785D01*
X43281844Y-38330639D01*
X43283101Y-38331542D01*
X43330195Y-38288182D01*
X43400133Y-38275965D01*
X43465573Y-38303498D01*
X43493401Y-38335331D01*
X43553809Y-38433908D01*
X43700072Y-38602758D01*
X43871948Y-38745452D01*
X44064822Y-38858158D01*
X44273514Y-38937850D01*
X44278582Y-38938881D01*
X44278585Y-38938882D01*
X44373684Y-38958230D01*
X44492419Y-38982387D01*
X44497594Y-38982577D01*
X44497596Y-38982577D01*
X44710495Y-38990384D01*
X44710499Y-38990384D01*
X44715659Y-38990573D01*
X44720779Y-38989917D01*
X44720781Y-38989917D01*
X44932110Y-38962845D01*
X44932111Y-38962845D01*
X44937238Y-38962188D01*
X44942188Y-38960703D01*
X45146251Y-38899481D01*
X45146256Y-38899479D01*
X45151206Y-38897994D01*
X45351816Y-38799716D01*
X45533682Y-38669993D01*
X45641913Y-38562139D01*
X45704284Y-38528224D01*
X45775090Y-38533412D01*
X45831852Y-38576058D01*
X45848834Y-38607161D01*
X45893207Y-38725525D01*
X45980561Y-38842081D01*
X46097117Y-38929435D01*
X46233506Y-38980565D01*
X46295688Y-38987320D01*
X46434322Y-38987320D01*
X46502443Y-39007322D01*
X46548936Y-39060978D01*
X46560322Y-39113320D01*
X46560322Y-39628241D01*
X46540320Y-39696362D01*
X46523417Y-39717337D01*
X46118321Y-40122432D01*
X46056009Y-40156457D01*
X46029226Y-40159336D01*
X44512022Y-40159336D01*
X44443901Y-40139334D01*
X44424675Y-40122993D01*
X44424402Y-40123296D01*
X44419490Y-40118873D01*
X44415075Y-40113970D01*
X44289682Y-40022866D01*
X44265916Y-40005599D01*
X44265915Y-40005598D01*
X44260574Y-40001718D01*
X44254546Y-39999034D01*
X44254544Y-39999033D01*
X44092141Y-39926727D01*
X44092140Y-39926727D01*
X44086110Y-39924042D01*
X43992709Y-39904189D01*
X43905766Y-39885708D01*
X43905761Y-39885708D01*
X43899309Y-39884336D01*
X43708335Y-39884336D01*
X43701883Y-39885708D01*
X43701878Y-39885708D01*
X43614935Y-39904189D01*
X43521534Y-39924042D01*
X43515504Y-39926727D01*
X43515503Y-39926727D01*
X43353100Y-39999033D01*
X43353098Y-39999034D01*
X43347070Y-40001718D01*
X43341729Y-40005598D01*
X43341728Y-40005599D01*
X43317962Y-40022866D01*
X43192569Y-40113970D01*
X43188148Y-40118880D01*
X43188147Y-40118881D01*
X43095434Y-40221850D01*
X43064782Y-40255892D01*
X43057863Y-40267876D01*
X42975361Y-40410774D01*
X42969295Y-40421280D01*
X42910280Y-40602908D01*
X42909590Y-40609469D01*
X42909590Y-40609471D01*
X42902130Y-40680453D01*
X42890318Y-40792836D01*
X42910280Y-40982764D01*
X42969295Y-41164392D01*
X42972598Y-41170114D01*
X42972599Y-41170115D01*
X42989769Y-41199854D01*
X43064782Y-41329780D01*
X43069200Y-41334687D01*
X43069201Y-41334688D01*
X43155727Y-41430785D01*
X43192569Y-41471702D01*
X43347070Y-41583954D01*
X43353098Y-41586638D01*
X43353100Y-41586639D01*
X43515503Y-41658945D01*
X43521534Y-41661630D01*
X43614935Y-41681483D01*
X43701878Y-41699964D01*
X43701883Y-41699964D01*
X43708335Y-41701336D01*
X43899309Y-41701336D01*
X43905761Y-41699964D01*
X43905766Y-41699964D01*
X43992709Y-41681483D01*
X44086110Y-41661630D01*
X44092141Y-41658945D01*
X44254544Y-41586639D01*
X44254546Y-41586638D01*
X44260574Y-41583954D01*
X44415075Y-41471702D01*
X44419490Y-41466799D01*
X44424402Y-41462376D01*
X44425527Y-41463625D01*
X44478836Y-41430785D01*
X44512022Y-41426336D01*
X46265055Y-41426336D01*
X46276238Y-41426863D01*
X46283731Y-41428538D01*
X46291657Y-41428289D01*
X46291658Y-41428289D01*
X46351808Y-41426398D01*
X46355767Y-41426336D01*
X46383678Y-41426336D01*
X46387613Y-41425839D01*
X46387678Y-41425831D01*
X46399515Y-41424898D01*
X46431773Y-41423884D01*
X46435792Y-41423758D01*
X46443711Y-41423509D01*
X46463165Y-41417857D01*
X46482522Y-41413849D01*
X46494752Y-41412304D01*
X46494753Y-41412304D01*
X46502619Y-41411310D01*
X46509990Y-41408391D01*
X46509992Y-41408391D01*
X46543734Y-41395032D01*
X46554964Y-41391187D01*
X46589805Y-41381065D01*
X46589806Y-41381065D01*
X46597415Y-41378854D01*
X46604234Y-41374821D01*
X46604239Y-41374819D01*
X46614850Y-41368543D01*
X46632598Y-41359848D01*
X46651439Y-41352388D01*
X46687209Y-41326400D01*
X46697129Y-41319884D01*
X46728357Y-41301416D01*
X46728360Y-41301414D01*
X46735184Y-41297378D01*
X46749505Y-41283057D01*
X46764539Y-41270216D01*
X46766253Y-41268971D01*
X46780929Y-41258308D01*
X46809120Y-41224231D01*
X46817110Y-41215452D01*
X47586069Y-40446493D01*
X47594359Y-40438949D01*
X47600840Y-40434836D01*
X47647481Y-40385168D01*
X47650235Y-40382327D01*
X47669957Y-40362605D01*
X47672434Y-40359412D01*
X47680139Y-40350391D01*
X47704981Y-40323936D01*
X47710408Y-40318157D01*
X47718799Y-40302894D01*
X47720168Y-40300404D01*
X47731024Y-40283877D01*
X47738579Y-40274138D01*
X47738580Y-40274136D01*
X47743436Y-40267876D01*
X47760996Y-40227296D01*
X47766213Y-40216648D01*
X47783697Y-40184845D01*
X47783698Y-40184843D01*
X47787517Y-40177896D01*
X47792555Y-40158273D01*
X47798959Y-40139570D01*
X47803855Y-40128256D01*
X47803855Y-40128255D01*
X47807003Y-40120981D01*
X47808242Y-40113158D01*
X47808245Y-40113148D01*
X47813921Y-40077312D01*
X47816327Y-40065692D01*
X47825350Y-40030547D01*
X47825350Y-40030546D01*
X47827322Y-40022866D01*
X47827322Y-40002612D01*
X47828873Y-39982901D01*
X47830802Y-39970722D01*
X47832042Y-39962893D01*
X47827881Y-39918874D01*
X47827322Y-39907017D01*
X47827322Y-39113320D01*
X47847324Y-39045199D01*
X47900980Y-38998706D01*
X47953322Y-38987320D01*
X48091956Y-38987320D01*
X48154138Y-38980565D01*
X48290527Y-38929435D01*
X48407083Y-38842081D01*
X48494437Y-38725525D01*
X48545567Y-38589136D01*
X48552322Y-38526954D01*
X48552322Y-36730686D01*
X48545567Y-36668504D01*
X48494437Y-36532115D01*
X48407083Y-36415559D01*
X48290527Y-36328205D01*
X48154138Y-36277075D01*
X48091956Y-36270320D01*
X46295688Y-36270320D01*
X46233506Y-36277075D01*
X46097117Y-36328205D01*
X45980561Y-36415559D01*
X45893207Y-36532115D01*
X45890055Y-36540523D01*
X45848741Y-36650727D01*
X45806099Y-36707491D01*
X45739538Y-36732191D01*
X45670189Y-36716983D01*
X45637565Y-36691296D01*
X45586973Y-36635695D01*
X45586964Y-36635686D01*
X45583492Y-36631871D01*
X45579441Y-36628672D01*
X45579437Y-36628668D01*
X45412236Y-36496620D01*
X45412232Y-36496618D01*
X45408181Y-36493418D01*
X45403657Y-36490921D01*
X45403653Y-36490918D01*
X45352430Y-36462642D01*
X45302458Y-36412210D01*
X45287322Y-36352333D01*
X45287322Y-29021604D01*
X45287849Y-29010421D01*
X45289524Y-29002928D01*
X45288724Y-28977457D01*
X45287384Y-28934838D01*
X45287322Y-28930880D01*
X45287322Y-28902980D01*
X45286818Y-28898989D01*
X45285885Y-28887147D01*
X45284745Y-28850872D01*
X45284496Y-28842947D01*
X45281018Y-28830976D01*
X45278843Y-28823488D01*
X45274834Y-28804129D01*
X45274668Y-28802819D01*
X45272296Y-28784039D01*
X45269380Y-28776673D01*
X45269378Y-28776667D01*
X45256022Y-28742934D01*
X45252177Y-28731704D01*
X45242052Y-28696853D01*
X45242052Y-28696852D01*
X45239841Y-28689243D01*
X45229527Y-28671802D01*
X45220830Y-28654049D01*
X45216294Y-28642594D01*
X45213374Y-28635219D01*
X45187385Y-28599448D01*
X45180869Y-28589528D01*
X45162400Y-28558299D01*
X45158364Y-28551474D01*
X45144043Y-28537153D01*
X45131202Y-28522119D01*
X45123953Y-28512142D01*
X45119294Y-28505729D01*
X45085217Y-28477538D01*
X45076438Y-28469548D01*
X40531880Y-23924989D01*
X40497854Y-23862677D01*
X40502919Y-23791862D01*
X40546914Y-23733959D01*
X40605075Y-23691702D01*
X40612698Y-23683236D01*
X40728443Y-23554688D01*
X40728444Y-23554687D01*
X40732862Y-23549780D01*
X40828349Y-23384392D01*
X40887364Y-23202764D01*
X40892020Y-23158470D01*
X40906636Y-23019401D01*
X40907326Y-23012836D01*
X40894453Y-22890359D01*
X40888054Y-22829471D01*
X40888054Y-22829469D01*
X40887364Y-22822908D01*
X40828349Y-22641280D01*
X40732862Y-22475892D01*
X40726123Y-22468407D01*
X40609497Y-22338881D01*
X40609496Y-22338880D01*
X40605075Y-22333970D01*
X40450574Y-22221718D01*
X40444546Y-22219034D01*
X40444544Y-22219033D01*
X40282141Y-22146727D01*
X40282140Y-22146727D01*
X40276110Y-22144042D01*
X40182710Y-22124189D01*
X40095766Y-22105708D01*
X40095761Y-22105708D01*
X40089309Y-22104336D01*
X40033417Y-22104336D01*
X39965296Y-22084334D01*
X39944322Y-22067431D01*
X38599878Y-20722987D01*
X38565852Y-20660675D01*
X38570917Y-20589860D01*
X38613464Y-20533024D01*
X38679984Y-20508213D01*
X38699955Y-20508371D01*
X38733822Y-20511334D01*
X38961909Y-20491379D01*
X38967222Y-20489955D01*
X38967224Y-20489955D01*
X39177755Y-20433543D01*
X39177757Y-20433542D01*
X39183065Y-20432120D01*
X39218583Y-20415558D01*
X39385584Y-20337685D01*
X39385589Y-20337682D01*
X39390571Y-20335359D01*
X39514928Y-20248283D01*
X39573611Y-20207193D01*
X39573614Y-20207191D01*
X39578122Y-20204034D01*
X39740020Y-20042136D01*
X39871345Y-19854585D01*
X39873668Y-19849603D01*
X39873671Y-19849598D01*
X39965783Y-19652061D01*
X39965783Y-19652060D01*
X39968106Y-19647079D01*
X39975878Y-19618076D01*
X40025941Y-19431238D01*
X40025941Y-19431236D01*
X40027365Y-19425923D01*
X40047320Y-19197836D01*
X45040324Y-19197836D01*
X45060279Y-19425923D01*
X45061703Y-19431236D01*
X45061703Y-19431238D01*
X45111767Y-19618076D01*
X45119538Y-19647079D01*
X45121861Y-19652060D01*
X45121861Y-19652061D01*
X45213973Y-19849598D01*
X45213976Y-19849603D01*
X45216299Y-19854585D01*
X45347624Y-20042136D01*
X45509522Y-20204034D01*
X45514030Y-20207191D01*
X45514033Y-20207193D01*
X45572716Y-20248283D01*
X45697073Y-20335359D01*
X45702055Y-20337682D01*
X45702060Y-20337685D01*
X45869061Y-20415558D01*
X45904579Y-20432120D01*
X45909887Y-20433542D01*
X45909889Y-20433543D01*
X46120420Y-20489955D01*
X46120422Y-20489955D01*
X46125735Y-20491379D01*
X46353822Y-20511334D01*
X46581909Y-20491379D01*
X46587222Y-20489955D01*
X46587224Y-20489955D01*
X46797755Y-20433543D01*
X46797757Y-20433542D01*
X46803065Y-20432120D01*
X46838583Y-20415558D01*
X47005584Y-20337685D01*
X47005589Y-20337682D01*
X47010571Y-20335359D01*
X47134928Y-20248283D01*
X47193611Y-20207193D01*
X47193614Y-20207191D01*
X47198122Y-20204034D01*
X47360020Y-20042136D01*
X47491345Y-19854585D01*
X47493668Y-19849603D01*
X47493671Y-19849598D01*
X47585783Y-19652061D01*
X47585783Y-19652060D01*
X47588106Y-19647079D01*
X47595878Y-19618076D01*
X47645941Y-19431238D01*
X47645941Y-19431236D01*
X47647365Y-19425923D01*
X47667320Y-19197836D01*
X47647365Y-18969749D01*
X47617493Y-18858265D01*
X47589529Y-18753903D01*
X47589528Y-18753901D01*
X47588106Y-18748593D01*
X47562372Y-18693406D01*
X47493671Y-18546074D01*
X47493668Y-18546069D01*
X47491345Y-18541087D01*
X47385826Y-18390390D01*
X47363179Y-18358047D01*
X47363177Y-18358044D01*
X47360020Y-18353536D01*
X47198122Y-18191638D01*
X47193614Y-18188481D01*
X47193611Y-18188479D01*
X47115433Y-18133738D01*
X47010571Y-18060313D01*
X47005589Y-18057990D01*
X47005584Y-18057987D01*
X46970773Y-18041755D01*
X46917488Y-17994838D01*
X46898027Y-17926561D01*
X46918569Y-17858601D01*
X46970773Y-17813365D01*
X47005333Y-17797250D01*
X47014829Y-17791767D01*
X47193289Y-17666808D01*
X47201697Y-17659752D01*
X47355738Y-17505711D01*
X47362794Y-17497303D01*
X47487753Y-17318843D01*
X47493236Y-17309347D01*
X47585312Y-17111889D01*
X47589058Y-17101597D01*
X47635216Y-16929333D01*
X47634880Y-16915237D01*
X47626938Y-16911836D01*
X45085855Y-16911836D01*
X45072324Y-16915809D01*
X45071095Y-16924358D01*
X45118586Y-17101597D01*
X45122332Y-17111889D01*
X45214408Y-17309347D01*
X45219891Y-17318843D01*
X45344850Y-17497303D01*
X45351906Y-17505711D01*
X45505947Y-17659752D01*
X45514355Y-17666808D01*
X45692815Y-17791767D01*
X45702311Y-17797250D01*
X45736871Y-17813365D01*
X45790156Y-17860282D01*
X45809617Y-17928559D01*
X45789075Y-17996519D01*
X45736871Y-18041755D01*
X45702060Y-18057987D01*
X45702055Y-18057990D01*
X45697073Y-18060313D01*
X45592211Y-18133738D01*
X45514033Y-18188479D01*
X45514030Y-18188481D01*
X45509522Y-18191638D01*
X45347624Y-18353536D01*
X45344467Y-18358044D01*
X45344465Y-18358047D01*
X45321818Y-18390390D01*
X45216299Y-18541087D01*
X45213976Y-18546069D01*
X45213973Y-18546074D01*
X45145272Y-18693406D01*
X45119538Y-18748593D01*
X45118116Y-18753901D01*
X45118115Y-18753903D01*
X45090151Y-18858265D01*
X45060279Y-18969749D01*
X45040324Y-19197836D01*
X40047320Y-19197836D01*
X40027365Y-18969749D01*
X39997493Y-18858265D01*
X39969529Y-18753903D01*
X39969528Y-18753901D01*
X39968106Y-18748593D01*
X39942372Y-18693406D01*
X39873671Y-18546074D01*
X39873668Y-18546069D01*
X39871345Y-18541087D01*
X39765826Y-18390390D01*
X39743179Y-18358047D01*
X39743177Y-18358044D01*
X39740020Y-18353536D01*
X39578122Y-18191638D01*
X39573614Y-18188481D01*
X39573611Y-18188479D01*
X39495433Y-18133738D01*
X39390571Y-18060313D01*
X39385589Y-18057990D01*
X39385584Y-18057987D01*
X39351365Y-18042031D01*
X39298080Y-17995114D01*
X39278619Y-17926837D01*
X39299161Y-17858877D01*
X39351365Y-17813641D01*
X39385584Y-17797685D01*
X39385589Y-17797682D01*
X39390571Y-17795359D01*
X39495433Y-17721934D01*
X39573611Y-17667193D01*
X39573614Y-17667191D01*
X39578122Y-17664034D01*
X39740020Y-17502136D01*
X39758128Y-17476276D01*
X39817710Y-17391183D01*
X39871345Y-17314585D01*
X39873668Y-17309603D01*
X39873671Y-17309598D01*
X39965783Y-17112061D01*
X39965783Y-17112060D01*
X39968106Y-17107079D01*
X40015036Y-16931937D01*
X40025941Y-16891238D01*
X40025941Y-16891236D01*
X40027365Y-16885923D01*
X40047320Y-16657836D01*
X40027365Y-16429749D01*
X40017066Y-16391314D01*
X39969529Y-16213903D01*
X39969528Y-16213901D01*
X39968106Y-16208593D01*
X39962561Y-16196701D01*
X39873671Y-16006074D01*
X39873668Y-16006069D01*
X39871345Y-16001087D01*
X39750523Y-15828536D01*
X39743179Y-15818047D01*
X39743177Y-15818044D01*
X39740020Y-15813536D01*
X39578122Y-15651638D01*
X39573614Y-15648481D01*
X39573611Y-15648479D01*
X39476862Y-15580735D01*
X39390571Y-15520313D01*
X39385589Y-15517990D01*
X39385584Y-15517987D01*
X39351365Y-15502031D01*
X39298080Y-15455114D01*
X39278619Y-15386837D01*
X39299161Y-15318877D01*
X39351365Y-15273641D01*
X39385584Y-15257685D01*
X39385589Y-15257682D01*
X39390571Y-15255359D01*
X39517313Y-15166613D01*
X39573611Y-15127193D01*
X39573614Y-15127191D01*
X39578122Y-15124034D01*
X39740020Y-14962136D01*
X39871345Y-14774585D01*
X39873668Y-14769603D01*
X39873671Y-14769598D01*
X39965783Y-14572061D01*
X39965783Y-14572060D01*
X39968106Y-14567079D01*
X39987667Y-14494079D01*
X40017067Y-14384358D01*
X45071095Y-14384358D01*
X45118586Y-14561597D01*
X45122332Y-14571889D01*
X45214408Y-14769347D01*
X45219891Y-14778843D01*
X45344850Y-14957303D01*
X45351906Y-14965711D01*
X45505947Y-15119752D01*
X45514355Y-15126808D01*
X45692815Y-15251767D01*
X45702311Y-15257250D01*
X45737463Y-15273641D01*
X45790748Y-15320558D01*
X45810209Y-15388835D01*
X45789667Y-15456795D01*
X45737463Y-15502031D01*
X45702311Y-15518422D01*
X45692815Y-15523905D01*
X45514355Y-15648864D01*
X45505947Y-15655920D01*
X45351906Y-15809961D01*
X45344850Y-15818369D01*
X45219891Y-15996829D01*
X45214408Y-16006325D01*
X45122332Y-16203783D01*
X45118586Y-16214075D01*
X45072428Y-16386339D01*
X45072764Y-16400435D01*
X45080706Y-16403836D01*
X46081707Y-16403836D01*
X46096946Y-16399361D01*
X46098151Y-16397971D01*
X46099822Y-16390288D01*
X46099822Y-16385721D01*
X46607822Y-16385721D01*
X46612297Y-16400960D01*
X46613687Y-16402165D01*
X46621370Y-16403836D01*
X47621789Y-16403836D01*
X47635320Y-16399863D01*
X47636549Y-16391314D01*
X47589058Y-16214075D01*
X47585312Y-16203783D01*
X47493236Y-16006325D01*
X47487753Y-15996829D01*
X47362794Y-15818369D01*
X47355738Y-15809961D01*
X47201697Y-15655920D01*
X47193289Y-15648864D01*
X47014829Y-15523905D01*
X47005333Y-15518422D01*
X46970181Y-15502031D01*
X46916896Y-15455114D01*
X46897435Y-15386837D01*
X46917977Y-15318877D01*
X46970181Y-15273641D01*
X47005333Y-15257250D01*
X47014829Y-15251767D01*
X47193289Y-15126808D01*
X47201697Y-15119752D01*
X47355738Y-14965711D01*
X47362794Y-14957303D01*
X47487753Y-14778843D01*
X47493236Y-14769347D01*
X47585312Y-14571889D01*
X47589058Y-14561597D01*
X47635216Y-14389333D01*
X47634880Y-14375237D01*
X47626938Y-14371836D01*
X46625937Y-14371836D01*
X46610698Y-14376311D01*
X46609493Y-14377701D01*
X46607822Y-14385384D01*
X46607822Y-16385721D01*
X46099822Y-16385721D01*
X46099822Y-14389951D01*
X46095347Y-14374712D01*
X46093957Y-14373507D01*
X46086274Y-14371836D01*
X45085855Y-14371836D01*
X45072324Y-14375809D01*
X45071095Y-14384358D01*
X40017067Y-14384358D01*
X40025941Y-14351238D01*
X40025941Y-14351236D01*
X40027365Y-14345923D01*
X40047320Y-14117836D01*
X40027365Y-13889749D01*
X40015733Y-13846339D01*
X39969529Y-13673903D01*
X39969528Y-13673901D01*
X39968106Y-13668593D01*
X39929378Y-13585540D01*
X39873671Y-13466074D01*
X39873668Y-13466069D01*
X39871345Y-13461087D01*
X39797920Y-13356225D01*
X39743179Y-13278047D01*
X39743177Y-13278044D01*
X39740020Y-13273536D01*
X39578122Y-13111638D01*
X39573614Y-13108481D01*
X39573611Y-13108479D01*
X39495433Y-13053738D01*
X39390571Y-12980313D01*
X39385589Y-12977990D01*
X39385584Y-12977987D01*
X39351365Y-12962031D01*
X39298080Y-12915114D01*
X39278619Y-12846837D01*
X39299161Y-12778877D01*
X39351365Y-12733641D01*
X39385584Y-12717685D01*
X39385589Y-12717682D01*
X39390571Y-12715359D01*
X39546983Y-12605838D01*
X39573611Y-12587193D01*
X39573614Y-12587191D01*
X39578122Y-12584034D01*
X39740020Y-12422136D01*
X39871345Y-12234585D01*
X39873668Y-12229603D01*
X39873671Y-12229598D01*
X39965783Y-12032061D01*
X39965783Y-12032060D01*
X39968106Y-12027079D01*
X39995861Y-11923499D01*
X40025941Y-11811238D01*
X40025941Y-11811236D01*
X40027365Y-11805923D01*
X40047320Y-11577836D01*
X45040324Y-11577836D01*
X45060279Y-11805923D01*
X45061703Y-11811236D01*
X45061703Y-11811238D01*
X45091784Y-11923499D01*
X45119538Y-12027079D01*
X45121861Y-12032060D01*
X45121861Y-12032061D01*
X45213973Y-12229598D01*
X45213976Y-12229603D01*
X45216299Y-12234585D01*
X45347624Y-12422136D01*
X45509522Y-12584034D01*
X45514030Y-12587191D01*
X45514033Y-12587193D01*
X45540661Y-12605838D01*
X45697073Y-12715359D01*
X45702055Y-12717682D01*
X45702060Y-12717685D01*
X45736871Y-12733917D01*
X45790156Y-12780834D01*
X45809617Y-12849111D01*
X45789075Y-12917071D01*
X45736871Y-12962307D01*
X45702311Y-12978422D01*
X45692815Y-12983905D01*
X45514355Y-13108864D01*
X45505947Y-13115920D01*
X45351906Y-13269961D01*
X45344850Y-13278369D01*
X45219891Y-13456829D01*
X45214408Y-13466325D01*
X45122332Y-13663783D01*
X45118586Y-13674075D01*
X45072428Y-13846339D01*
X45072764Y-13860435D01*
X45080706Y-13863836D01*
X47621789Y-13863836D01*
X47635320Y-13859863D01*
X47636549Y-13851314D01*
X47589058Y-13674075D01*
X47585312Y-13663783D01*
X47493236Y-13466325D01*
X47487753Y-13456829D01*
X47362794Y-13278369D01*
X47355738Y-13269961D01*
X47201697Y-13115920D01*
X47193289Y-13108864D01*
X47014829Y-12983905D01*
X47005333Y-12978422D01*
X46970773Y-12962307D01*
X46917488Y-12915390D01*
X46898027Y-12847113D01*
X46918569Y-12779153D01*
X46970773Y-12733917D01*
X47005584Y-12717685D01*
X47005589Y-12717682D01*
X47010571Y-12715359D01*
X47166983Y-12605838D01*
X47193611Y-12587193D01*
X47193614Y-12587191D01*
X47198122Y-12584034D01*
X47360020Y-12422136D01*
X47491345Y-12234585D01*
X47493668Y-12229603D01*
X47493671Y-12229598D01*
X47585783Y-12032061D01*
X47585783Y-12032060D01*
X47588106Y-12027079D01*
X47615861Y-11923499D01*
X47645941Y-11811238D01*
X47645941Y-11811236D01*
X47647365Y-11805923D01*
X47667320Y-11577836D01*
X47647365Y-11349749D01*
X47638254Y-11315746D01*
X47589529Y-11133903D01*
X47589528Y-11133901D01*
X47588106Y-11128593D01*
X47557549Y-11063063D01*
X47493671Y-10926074D01*
X47493668Y-10926069D01*
X47491345Y-10921087D01*
X47370523Y-10748536D01*
X47363179Y-10738047D01*
X47363177Y-10738044D01*
X47360020Y-10733536D01*
X47198122Y-10571638D01*
X47193614Y-10568481D01*
X47193611Y-10568479D01*
X47115433Y-10513738D01*
X47010571Y-10440313D01*
X47005589Y-10437990D01*
X47005584Y-10437987D01*
X46970773Y-10421755D01*
X46917488Y-10374838D01*
X46898027Y-10306561D01*
X46918569Y-10238601D01*
X46970773Y-10193365D01*
X47005333Y-10177250D01*
X47014829Y-10171767D01*
X47193289Y-10046808D01*
X47201697Y-10039752D01*
X47355738Y-9885711D01*
X47362794Y-9877303D01*
X47487753Y-9698843D01*
X47493236Y-9689347D01*
X47585312Y-9491889D01*
X47589058Y-9481597D01*
X47635216Y-9309333D01*
X47634880Y-9295237D01*
X47626938Y-9291836D01*
X45085855Y-9291836D01*
X45072324Y-9295809D01*
X45071095Y-9304358D01*
X45118586Y-9481597D01*
X45122332Y-9491889D01*
X45214408Y-9689347D01*
X45219891Y-9698843D01*
X45344850Y-9877303D01*
X45351906Y-9885711D01*
X45505947Y-10039752D01*
X45514355Y-10046808D01*
X45692815Y-10171767D01*
X45702311Y-10177250D01*
X45736871Y-10193365D01*
X45790156Y-10240282D01*
X45809617Y-10308559D01*
X45789075Y-10376519D01*
X45736871Y-10421755D01*
X45702060Y-10437987D01*
X45702055Y-10437990D01*
X45697073Y-10440313D01*
X45592211Y-10513738D01*
X45514033Y-10568479D01*
X45514030Y-10568481D01*
X45509522Y-10571638D01*
X45347624Y-10733536D01*
X45344467Y-10738044D01*
X45344465Y-10738047D01*
X45337121Y-10748536D01*
X45216299Y-10921087D01*
X45213976Y-10926069D01*
X45213973Y-10926074D01*
X45150095Y-11063063D01*
X45119538Y-11128593D01*
X45118116Y-11133901D01*
X45118115Y-11133903D01*
X45069390Y-11315746D01*
X45060279Y-11349749D01*
X45040324Y-11577836D01*
X40047320Y-11577836D01*
X40027365Y-11349749D01*
X40018254Y-11315746D01*
X39969529Y-11133903D01*
X39969528Y-11133901D01*
X39968106Y-11128593D01*
X39937549Y-11063063D01*
X39873671Y-10926074D01*
X39873668Y-10926069D01*
X39871345Y-10921087D01*
X39750523Y-10748536D01*
X39743179Y-10738047D01*
X39743177Y-10738044D01*
X39740020Y-10733536D01*
X39578122Y-10571638D01*
X39573614Y-10568481D01*
X39573611Y-10568479D01*
X39495433Y-10513738D01*
X39390571Y-10440313D01*
X39385589Y-10437990D01*
X39385584Y-10437987D01*
X39351365Y-10422031D01*
X39298080Y-10375114D01*
X39278619Y-10306837D01*
X39299161Y-10238877D01*
X39351365Y-10193641D01*
X39385584Y-10177685D01*
X39385589Y-10177682D01*
X39390571Y-10175359D01*
X39546449Y-10066212D01*
X39573611Y-10047193D01*
X39573614Y-10047191D01*
X39578122Y-10044034D01*
X39740020Y-9882136D01*
X39871345Y-9694585D01*
X39873668Y-9689603D01*
X39873671Y-9689598D01*
X39965783Y-9492061D01*
X39965783Y-9492060D01*
X39968106Y-9487079D01*
X40027365Y-9265923D01*
X40047320Y-9037836D01*
X40027365Y-8809749D01*
X40017066Y-8771314D01*
X39969529Y-8593903D01*
X39969528Y-8593901D01*
X39968106Y-8588593D01*
X39965783Y-8583611D01*
X39873671Y-8386074D01*
X39873668Y-8386069D01*
X39871345Y-8381087D01*
X39750523Y-8208536D01*
X39743179Y-8198047D01*
X39743177Y-8198044D01*
X39740020Y-8193536D01*
X39578122Y-8031638D01*
X39573614Y-8028481D01*
X39573611Y-8028479D01*
X39495433Y-7973738D01*
X39390571Y-7900313D01*
X39385589Y-7897990D01*
X39385584Y-7897987D01*
X39351365Y-7882031D01*
X39298080Y-7835114D01*
X39278619Y-7766837D01*
X39299161Y-7698877D01*
X39351365Y-7653641D01*
X39385584Y-7637685D01*
X39385589Y-7637682D01*
X39390571Y-7635359D01*
X39495433Y-7561934D01*
X39573611Y-7507193D01*
X39573614Y-7507191D01*
X39578122Y-7504034D01*
X39740020Y-7342136D01*
X39750797Y-7326746D01*
X39857685Y-7174093D01*
X39871345Y-7154585D01*
X39873668Y-7149603D01*
X39873671Y-7149598D01*
X39965783Y-6952061D01*
X39965783Y-6952060D01*
X39968106Y-6947079D01*
X40016792Y-6765384D01*
X40017067Y-6764358D01*
X45071095Y-6764358D01*
X45118586Y-6941597D01*
X45122332Y-6951889D01*
X45214408Y-7149347D01*
X45219891Y-7158843D01*
X45344850Y-7337303D01*
X45351906Y-7345711D01*
X45505947Y-7499752D01*
X45514355Y-7506808D01*
X45692815Y-7631767D01*
X45702311Y-7637250D01*
X45737463Y-7653641D01*
X45790748Y-7700558D01*
X45810209Y-7768835D01*
X45789667Y-7836795D01*
X45737463Y-7882031D01*
X45702311Y-7898422D01*
X45692815Y-7903905D01*
X45514355Y-8028864D01*
X45505947Y-8035920D01*
X45351906Y-8189961D01*
X45344850Y-8198369D01*
X45219891Y-8376829D01*
X45214408Y-8386325D01*
X45122332Y-8583783D01*
X45118586Y-8594075D01*
X45072428Y-8766339D01*
X45072764Y-8780435D01*
X45080706Y-8783836D01*
X46081707Y-8783836D01*
X46096946Y-8779361D01*
X46098151Y-8777971D01*
X46099822Y-8770288D01*
X46099822Y-8765721D01*
X46607822Y-8765721D01*
X46612297Y-8780960D01*
X46613687Y-8782165D01*
X46621370Y-8783836D01*
X47621789Y-8783836D01*
X47635320Y-8779863D01*
X47636549Y-8771314D01*
X47589058Y-8594075D01*
X47585312Y-8583783D01*
X47493236Y-8386325D01*
X47487753Y-8376829D01*
X47362794Y-8198369D01*
X47355738Y-8189961D01*
X47201697Y-8035920D01*
X47193289Y-8028864D01*
X47014829Y-7903905D01*
X47005333Y-7898422D01*
X46970181Y-7882031D01*
X46916896Y-7835114D01*
X46897435Y-7766837D01*
X46917977Y-7698877D01*
X46970181Y-7653641D01*
X47005333Y-7637250D01*
X47014829Y-7631767D01*
X47193289Y-7506808D01*
X47201697Y-7499752D01*
X47355738Y-7345711D01*
X47362794Y-7337303D01*
X47487753Y-7158843D01*
X47493236Y-7149347D01*
X47585312Y-6951889D01*
X47589058Y-6941597D01*
X47635216Y-6769333D01*
X47634880Y-6755237D01*
X47626938Y-6751836D01*
X46625937Y-6751836D01*
X46610698Y-6756311D01*
X46609493Y-6757701D01*
X46607822Y-6765384D01*
X46607822Y-8765721D01*
X46099822Y-8765721D01*
X46099822Y-6769951D01*
X46095347Y-6754712D01*
X46093957Y-6753507D01*
X46086274Y-6751836D01*
X45085855Y-6751836D01*
X45072324Y-6755809D01*
X45071095Y-6764358D01*
X40017067Y-6764358D01*
X40025941Y-6731238D01*
X40025941Y-6731236D01*
X40027365Y-6725923D01*
X40047320Y-6497836D01*
X40027365Y-6269749D01*
X40017066Y-6231314D01*
X39969529Y-6053903D01*
X39969528Y-6053901D01*
X39968106Y-6048593D01*
X39965783Y-6043611D01*
X39873671Y-5846074D01*
X39873668Y-5846069D01*
X39871345Y-5841087D01*
X39750523Y-5668536D01*
X39743179Y-5658047D01*
X39743177Y-5658044D01*
X39740020Y-5653536D01*
X39578122Y-5491638D01*
X39573611Y-5488479D01*
X39569398Y-5484944D01*
X39570349Y-5483810D01*
X39530351Y-5433765D01*
X39523046Y-5363146D01*
X39555080Y-5299787D01*
X39616284Y-5263806D01*
X39633339Y-5260754D01*
X39644138Y-5259581D01*
X39780527Y-5208451D01*
X39897083Y-5121097D01*
X39984437Y-5004541D01*
X40035567Y-4868152D01*
X40042322Y-4805970D01*
X40042322Y-4224358D01*
X45071095Y-4224358D01*
X45118586Y-4401597D01*
X45122332Y-4411889D01*
X45214408Y-4609347D01*
X45219891Y-4618843D01*
X45344850Y-4797303D01*
X45351906Y-4805711D01*
X45505947Y-4959752D01*
X45514355Y-4966808D01*
X45692815Y-5091767D01*
X45702311Y-5097250D01*
X45737463Y-5113641D01*
X45790748Y-5160558D01*
X45810209Y-5228835D01*
X45789667Y-5296795D01*
X45737463Y-5342031D01*
X45702311Y-5358422D01*
X45692815Y-5363905D01*
X45514355Y-5488864D01*
X45505947Y-5495920D01*
X45351906Y-5649961D01*
X45344850Y-5658369D01*
X45219891Y-5836829D01*
X45214408Y-5846325D01*
X45122332Y-6043783D01*
X45118586Y-6054075D01*
X45072428Y-6226339D01*
X45072764Y-6240435D01*
X45080706Y-6243836D01*
X46081707Y-6243836D01*
X46096946Y-6239361D01*
X46098151Y-6237971D01*
X46099822Y-6230288D01*
X46099822Y-6225721D01*
X46607822Y-6225721D01*
X46612297Y-6240960D01*
X46613687Y-6242165D01*
X46621370Y-6243836D01*
X47621789Y-6243836D01*
X47635320Y-6239863D01*
X47636549Y-6231314D01*
X47589058Y-6054075D01*
X47585312Y-6043783D01*
X47493236Y-5846325D01*
X47487753Y-5836829D01*
X47362794Y-5658369D01*
X47355738Y-5649961D01*
X47201697Y-5495920D01*
X47193289Y-5488864D01*
X47014829Y-5363905D01*
X47005333Y-5358422D01*
X46970181Y-5342031D01*
X46916896Y-5295114D01*
X46897435Y-5226837D01*
X46917977Y-5158877D01*
X46970181Y-5113641D01*
X47005333Y-5097250D01*
X47014829Y-5091767D01*
X47193289Y-4966808D01*
X47201697Y-4959752D01*
X47355738Y-4805711D01*
X47362794Y-4797303D01*
X47487753Y-4618843D01*
X47493236Y-4609347D01*
X47585312Y-4411889D01*
X47589058Y-4401597D01*
X47635216Y-4229333D01*
X47634880Y-4215237D01*
X47626938Y-4211836D01*
X46625937Y-4211836D01*
X46610698Y-4216311D01*
X46609493Y-4217701D01*
X46607822Y-4225384D01*
X46607822Y-6225721D01*
X46099822Y-6225721D01*
X46099822Y-4229951D01*
X46095347Y-4214712D01*
X46093957Y-4213507D01*
X46086274Y-4211836D01*
X45085855Y-4211836D01*
X45072324Y-4215809D01*
X45071095Y-4224358D01*
X40042322Y-4224358D01*
X40042322Y-3686339D01*
X45072428Y-3686339D01*
X45072764Y-3700435D01*
X45080706Y-3703836D01*
X46081707Y-3703836D01*
X46096946Y-3699361D01*
X46098151Y-3697971D01*
X46099822Y-3690288D01*
X46099822Y-3685721D01*
X46607822Y-3685721D01*
X46612297Y-3700960D01*
X46613687Y-3702165D01*
X46621370Y-3703836D01*
X47621789Y-3703836D01*
X47635320Y-3699863D01*
X47636549Y-3691314D01*
X47589058Y-3514075D01*
X47585312Y-3503783D01*
X47493236Y-3306325D01*
X47487753Y-3296829D01*
X47362794Y-3118369D01*
X47355738Y-3109961D01*
X47201697Y-2955920D01*
X47193289Y-2948864D01*
X47014829Y-2823905D01*
X47005333Y-2818422D01*
X46807875Y-2726346D01*
X46797583Y-2722600D01*
X46625319Y-2676442D01*
X46611223Y-2676778D01*
X46607822Y-2684720D01*
X46607822Y-3685721D01*
X46099822Y-3685721D01*
X46099822Y-2689869D01*
X46095849Y-2676338D01*
X46087300Y-2675109D01*
X45910061Y-2722600D01*
X45899769Y-2726346D01*
X45702311Y-2818422D01*
X45692815Y-2823905D01*
X45514355Y-2948864D01*
X45505947Y-2955920D01*
X45351906Y-3109961D01*
X45344850Y-3118369D01*
X45219891Y-3296829D01*
X45214408Y-3306325D01*
X45122332Y-3503783D01*
X45118586Y-3514075D01*
X45072428Y-3686339D01*
X40042322Y-3686339D01*
X40042322Y-3109702D01*
X40035567Y-3047520D01*
X39984437Y-2911131D01*
X39897083Y-2794575D01*
X39780527Y-2707221D01*
X39644138Y-2656091D01*
X39581956Y-2649336D01*
X37885688Y-2649336D01*
X37823506Y-2656091D01*
X37687117Y-2707221D01*
X37570561Y-2794575D01*
X37483207Y-2911131D01*
X37432077Y-3047520D01*
X37425322Y-3109702D01*
X37425322Y-4805970D01*
X37432077Y-4868152D01*
X37483207Y-5004541D01*
X37570561Y-5121097D01*
X37687117Y-5208451D01*
X37823506Y-5259581D01*
X37834296Y-5260753D01*
X37836428Y-5261639D01*
X37839044Y-5262261D01*
X37838943Y-5262684D01*
X37899857Y-5287991D01*
X37940285Y-5346353D01*
X37942744Y-5417307D01*
X37906451Y-5478326D01*
X37897791Y-5485325D01*
X37894029Y-5488482D01*
X37889522Y-5491638D01*
X37727624Y-5653536D01*
X37724467Y-5658044D01*
X37724465Y-5658047D01*
X37717121Y-5668536D01*
X37596299Y-5841087D01*
X37593976Y-5846069D01*
X37593973Y-5846074D01*
X37501861Y-6043611D01*
X37499538Y-6048593D01*
X37498116Y-6053901D01*
X37498115Y-6053903D01*
X37450578Y-6231314D01*
X37440279Y-6269749D01*
X37420324Y-6497836D01*
X37440279Y-6725923D01*
X37441703Y-6731236D01*
X37441703Y-6731238D01*
X37450853Y-6765384D01*
X37499538Y-6947079D01*
X37501861Y-6952060D01*
X37501861Y-6952061D01*
X37593973Y-7149598D01*
X37593976Y-7149603D01*
X37596299Y-7154585D01*
X37609959Y-7174093D01*
X37716848Y-7326746D01*
X37727624Y-7342136D01*
X37889522Y-7504034D01*
X37894030Y-7507191D01*
X37894033Y-7507193D01*
X37972211Y-7561934D01*
X38077073Y-7635359D01*
X38082055Y-7637682D01*
X38082060Y-7637685D01*
X38116279Y-7653641D01*
X38169564Y-7700558D01*
X38189025Y-7768835D01*
X38168483Y-7836795D01*
X38116279Y-7882031D01*
X38082060Y-7897987D01*
X38082055Y-7897990D01*
X38077073Y-7900313D01*
X37972211Y-7973738D01*
X37894033Y-8028479D01*
X37894030Y-8028481D01*
X37889522Y-8031638D01*
X37727624Y-8193536D01*
X37724467Y-8198044D01*
X37724465Y-8198047D01*
X37717121Y-8208536D01*
X37596299Y-8381087D01*
X37593976Y-8386069D01*
X37593973Y-8386074D01*
X37501861Y-8583611D01*
X37499538Y-8588593D01*
X37498116Y-8593901D01*
X37498115Y-8593903D01*
X37450578Y-8771314D01*
X37440279Y-8809749D01*
X37420324Y-9037836D01*
X37440279Y-9265923D01*
X37499538Y-9487079D01*
X37501861Y-9492060D01*
X37501861Y-9492061D01*
X37593973Y-9689598D01*
X37593976Y-9689603D01*
X37596299Y-9694585D01*
X37727624Y-9882136D01*
X37889522Y-10044034D01*
X37894030Y-10047191D01*
X37894033Y-10047193D01*
X37921195Y-10066212D01*
X38077073Y-10175359D01*
X38082055Y-10177682D01*
X38082060Y-10177685D01*
X38116279Y-10193641D01*
X38169564Y-10240558D01*
X38189025Y-10308835D01*
X38168483Y-10376795D01*
X38116279Y-10422031D01*
X38082060Y-10437987D01*
X38082055Y-10437990D01*
X38077073Y-10440313D01*
X37972211Y-10513738D01*
X37894033Y-10568479D01*
X37894030Y-10568481D01*
X37889522Y-10571638D01*
X37727624Y-10733536D01*
X37724467Y-10738044D01*
X37724465Y-10738047D01*
X37717121Y-10748536D01*
X37596299Y-10921087D01*
X37593976Y-10926069D01*
X37593973Y-10926074D01*
X37530095Y-11063063D01*
X37499538Y-11128593D01*
X37498116Y-11133901D01*
X37498115Y-11133903D01*
X37449390Y-11315746D01*
X37440279Y-11349749D01*
X37420324Y-11577836D01*
X37420803Y-11583311D01*
X37420803Y-11583321D01*
X37421848Y-11595264D01*
X37407860Y-11664869D01*
X37358461Y-11715862D01*
X37289336Y-11732053D01*
X37222430Y-11708301D01*
X37207233Y-11695342D01*
X35584227Y-10072336D01*
X35550201Y-10010024D01*
X35547322Y-9983241D01*
X35547322Y-5311603D01*
X35547849Y-5300420D01*
X35549524Y-5292927D01*
X35548541Y-5261639D01*
X35547384Y-5224850D01*
X35547322Y-5220891D01*
X35547322Y-5192980D01*
X35546817Y-5188980D01*
X35545884Y-5177137D01*
X35545835Y-5175558D01*
X35544495Y-5132946D01*
X35538844Y-5113494D01*
X35534836Y-5094142D01*
X35533289Y-5081899D01*
X35532296Y-5074039D01*
X35529378Y-5066668D01*
X35516022Y-5032933D01*
X35512177Y-5021706D01*
X35504747Y-4996133D01*
X35499840Y-4979243D01*
X35489529Y-4961808D01*
X35480834Y-4944060D01*
X35473374Y-4925219D01*
X35447386Y-4889449D01*
X35440870Y-4879529D01*
X35422402Y-4848301D01*
X35422400Y-4848298D01*
X35418364Y-4841474D01*
X35404043Y-4827153D01*
X35391202Y-4812119D01*
X35389471Y-4809736D01*
X35379294Y-4795729D01*
X35345217Y-4767538D01*
X35336438Y-4759548D01*
X34157474Y-3580583D01*
X34149934Y-3572297D01*
X34145822Y-3565818D01*
X34096170Y-3519192D01*
X34093329Y-3516438D01*
X34073592Y-3496701D01*
X34070395Y-3494221D01*
X34061373Y-3486516D01*
X34034922Y-3461677D01*
X34029143Y-3456250D01*
X34022197Y-3452431D01*
X34022194Y-3452429D01*
X34011388Y-3446488D01*
X33994869Y-3435637D01*
X33994405Y-3435277D01*
X33978863Y-3423222D01*
X33971594Y-3420077D01*
X33971590Y-3420074D01*
X33938285Y-3405662D01*
X33927635Y-3400445D01*
X33888882Y-3379141D01*
X33869259Y-3374103D01*
X33850556Y-3367699D01*
X33839242Y-3362803D01*
X33839241Y-3362803D01*
X33831967Y-3359655D01*
X33824144Y-3358416D01*
X33824134Y-3358413D01*
X33788298Y-3352737D01*
X33776678Y-3350331D01*
X33741533Y-3341308D01*
X33741532Y-3341308D01*
X33733852Y-3339336D01*
X33713598Y-3339336D01*
X33693887Y-3337785D01*
X33681708Y-3335856D01*
X33673879Y-3334616D01*
X33665987Y-3335362D01*
X33629861Y-3338777D01*
X33618003Y-3339336D01*
X33603216Y-3339336D01*
X33535095Y-3319334D01*
X33500003Y-3285607D01*
X33393179Y-3133047D01*
X33393177Y-3133044D01*
X33390020Y-3128536D01*
X33228122Y-2966638D01*
X33223614Y-2963481D01*
X33223611Y-2963479D01*
X33138587Y-2903945D01*
X33040571Y-2835313D01*
X33035589Y-2832990D01*
X33035584Y-2832987D01*
X33001365Y-2817031D01*
X32948080Y-2770114D01*
X32928619Y-2701837D01*
X32949161Y-2633877D01*
X33001365Y-2588641D01*
X33035584Y-2572685D01*
X33035589Y-2572682D01*
X33040571Y-2570359D01*
X33145433Y-2496934D01*
X33223611Y-2442193D01*
X33223614Y-2442191D01*
X33228122Y-2439034D01*
X33390020Y-2277136D01*
X33521345Y-2089585D01*
X33523668Y-2084603D01*
X33523671Y-2084598D01*
X33615783Y-1887061D01*
X33615783Y-1887060D01*
X33618106Y-1882079D01*
X33677365Y-1660923D01*
X33697320Y-1432836D01*
X33677365Y-1204749D01*
X33625241Y-1010220D01*
X33619529Y-988903D01*
X33619528Y-988901D01*
X33618106Y-983593D01*
X33604986Y-955456D01*
X33523671Y-781074D01*
X33523668Y-781069D01*
X33521345Y-776087D01*
X33390020Y-588536D01*
X33228122Y-426638D01*
X33223614Y-423481D01*
X33223611Y-423479D01*
X33145433Y-368738D01*
X33040571Y-295313D01*
X33035589Y-292990D01*
X33035584Y-292987D01*
X33001365Y-277031D01*
X32948080Y-230114D01*
X32928619Y-161837D01*
X32949161Y-93877D01*
X33001365Y-48641D01*
X33035584Y-32685D01*
X33035589Y-32682D01*
X33040571Y-30359D01*
X33182280Y68867D01*
X33223611Y97807D01*
X33223614Y97809D01*
X33228122Y100966D01*
X33390020Y262864D01*
X33521345Y450415D01*
X33523668Y455397D01*
X33523671Y455402D01*
X33615783Y652939D01*
X33615783Y652940D01*
X33618106Y657921D01*
X33677365Y879077D01*
X33697320Y1107164D01*
X33677365Y1335251D01*
X33618106Y1556407D01*
X33615783Y1561389D01*
X33523671Y1758926D01*
X33523668Y1758931D01*
X33521345Y1763913D01*
X33390020Y1951464D01*
X33228122Y2113362D01*
X33223614Y2116519D01*
X33223611Y2116521D01*
X33145433Y2171262D01*
X33040571Y2244687D01*
X33035589Y2247010D01*
X33035584Y2247013D01*
X32838047Y2339125D01*
X32838046Y2339125D01*
X32833065Y2341448D01*
X32827757Y2342870D01*
X32827755Y2342871D01*
X32617224Y2399283D01*
X32617222Y2399283D01*
X32611909Y2400707D01*
X32383822Y2420662D01*
X32155735Y2400707D01*
X32150422Y2399283D01*
X32150420Y2399283D01*
X31939889Y2342871D01*
X31939887Y2342870D01*
X31934579Y2341448D01*
X31929598Y2339125D01*
X31929597Y2339125D01*
X31732060Y2247013D01*
X31732055Y2247010D01*
X31727073Y2244687D01*
X31622211Y2171262D01*
X31544033Y2116521D01*
X31544030Y2116519D01*
X31539522Y2113362D01*
X31377624Y1951464D01*
X31374467Y1946956D01*
X31374465Y1946953D01*
X31267641Y1794393D01*
X31212184Y1750065D01*
X31164428Y1740664D01*
X28888417Y1740664D01*
X28820296Y1760666D01*
X28799322Y1777569D01*
X25801727Y4775164D01*
X25767701Y4837476D01*
X25764822Y4864259D01*
X25764822Y6472759D01*
X25784824Y6540880D01*
X25825940Y6580636D01*
X25829316Y6582290D01*
X26011182Y6712013D01*
X26169418Y6869697D01*
X26228916Y6952497D01*
X26299775Y7051109D01*
X26301098Y7050158D01*
X26347967Y7093329D01*
X26417902Y7105561D01*
X26483348Y7078042D01*
X26511197Y7046192D01*
X26571309Y6948098D01*
X26717572Y6779248D01*
X26889448Y6636554D01*
X27082322Y6523848D01*
X27291014Y6444156D01*
X27296082Y6443125D01*
X27296085Y6443124D01*
X27403339Y6421303D01*
X27509919Y6399619D01*
X27515094Y6399429D01*
X27515096Y6399429D01*
X27727995Y6391622D01*
X27727999Y6391622D01*
X27733159Y6391433D01*
X27738279Y6392089D01*
X27738281Y6392089D01*
X27949610Y6419161D01*
X27949611Y6419161D01*
X27954738Y6419818D01*
X27959688Y6421303D01*
X28163751Y6482525D01*
X28163756Y6482527D01*
X28168706Y6484012D01*
X28369316Y6582290D01*
X28551182Y6712013D01*
X28709418Y6869697D01*
X28768916Y6952497D01*
X28839775Y7051109D01*
X28841098Y7050158D01*
X28887967Y7093329D01*
X28957902Y7105561D01*
X29023348Y7078042D01*
X29051197Y7046192D01*
X29111309Y6948098D01*
X29257572Y6779248D01*
X29429448Y6636554D01*
X29622322Y6523848D01*
X29831014Y6444156D01*
X29836082Y6443125D01*
X29836085Y6443124D01*
X29943339Y6421303D01*
X30049919Y6399619D01*
X30055094Y6399429D01*
X30055096Y6399429D01*
X30267995Y6391622D01*
X30267999Y6391622D01*
X30273159Y6391433D01*
X30278279Y6392089D01*
X30278281Y6392089D01*
X30489610Y6419161D01*
X30489611Y6419161D01*
X30494738Y6419818D01*
X30499688Y6421303D01*
X30703751Y6482525D01*
X30703756Y6482527D01*
X30708706Y6484012D01*
X30909316Y6582290D01*
X31091182Y6712013D01*
X31158653Y6779248D01*
X31199801Y6820253D01*
X31262173Y6854169D01*
X31332980Y6848981D01*
X31389741Y6806335D01*
X31406723Y6775232D01*
X31447998Y6665132D01*
X31456536Y6649537D01*
X31533037Y6547462D01*
X31545598Y6534901D01*
X31647673Y6458400D01*
X31663268Y6449862D01*
X31783716Y6404708D01*
X31798971Y6401081D01*
X31849836Y6395555D01*
X31856650Y6395186D01*
X32479207Y6395186D01*
X32494446Y6399661D01*
X32495651Y6401051D01*
X32497322Y6408734D01*
X32497322Y6413302D01*
X33005322Y6413302D01*
X33009797Y6398063D01*
X33011187Y6396858D01*
X33018870Y6395187D01*
X33645991Y6395187D01*
X33652812Y6395557D01*
X33703674Y6401081D01*
X33718926Y6404707D01*
X33839376Y6449862D01*
X33854971Y6458400D01*
X33957046Y6534901D01*
X33969607Y6547462D01*
X34046108Y6649537D01*
X34054646Y6665132D01*
X34099800Y6785580D01*
X34103427Y6800835D01*
X34108953Y6851700D01*
X34109322Y6858514D01*
X34109322Y7481071D01*
X34104847Y7496310D01*
X34103457Y7497515D01*
X34095774Y7499186D01*
X33023437Y7499186D01*
X33008198Y7494711D01*
X33006993Y7493321D01*
X33005322Y7485638D01*
X33005322Y6413302D01*
X32497322Y6413302D01*
X32497322Y8025301D01*
X33005322Y8025301D01*
X33009797Y8010062D01*
X33011187Y8008857D01*
X33018870Y8007186D01*
X34091206Y8007186D01*
X34106445Y8011661D01*
X34107650Y8013051D01*
X34109321Y8020734D01*
X34109321Y8331823D01*
X47171710Y8331823D01*
X47171805Y8328193D01*
X47171805Y8328192D01*
X47180167Y8008857D01*
X47180792Y7984993D01*
X47229678Y7641504D01*
X47317719Y7305911D01*
X47443749Y6982661D01*
X47445446Y6979456D01*
X47588637Y6709015D01*
X47606097Y6676038D01*
X47608147Y6673055D01*
X47608149Y6673052D01*
X47800555Y6393100D01*
X47800561Y6393093D01*
X47802612Y6390108D01*
X48030688Y6128659D01*
X48033373Y6126216D01*
X48243090Y5935389D01*
X48287303Y5895158D01*
X48569055Y5692698D01*
X48872210Y5523964D01*
X49192750Y5391192D01*
X49196244Y5390197D01*
X49196246Y5390196D01*
X49522925Y5297139D01*
X49522930Y5297138D01*
X49526426Y5296142D01*
X49723126Y5263931D01*
X49865234Y5240660D01*
X49865241Y5240659D01*
X49868815Y5240074D01*
X50042097Y5231902D01*
X50211753Y5223901D01*
X50211754Y5223901D01*
X50215380Y5223730D01*
X50224237Y5224334D01*
X50557895Y5247080D01*
X50557903Y5247081D01*
X50561526Y5247328D01*
X50565101Y5247991D01*
X50565104Y5247991D01*
X50899101Y5309894D01*
X50899105Y5309895D01*
X50902666Y5310555D01*
X51234278Y5412572D01*
X51551967Y5552028D01*
X51796333Y5694823D01*
X51848382Y5725238D01*
X51848384Y5725239D01*
X51851522Y5727073D01*
X51854431Y5729257D01*
X52126066Y5933206D01*
X52126070Y5933209D01*
X52128973Y5935389D01*
X52380641Y6174214D01*
X52603192Y6440381D01*
X52624461Y6472759D01*
X52699064Y6586333D01*
X52793675Y6730365D01*
X52942817Y7026901D01*
X52947939Y7037084D01*
X52947942Y7037092D01*
X52949566Y7040320D01*
X53048044Y7309423D01*
X53067551Y7362727D01*
X53067552Y7362731D01*
X53068799Y7366138D01*
X53069644Y7369660D01*
X53069647Y7369668D01*
X53148946Y7699973D01*
X53148947Y7699977D01*
X53149793Y7703502D01*
X53150230Y7707112D01*
X53191138Y8045160D01*
X53191138Y8045167D01*
X53191474Y8047939D01*
X53197421Y8237164D01*
X53197155Y8241780D01*
X53177658Y8579918D01*
X53177657Y8579923D01*
X53177449Y8583538D01*
X53153495Y8720790D01*
X53118422Y8921749D01*
X53118420Y8921756D01*
X53117798Y8925322D01*
X53019259Y9257984D01*
X52958064Y9401455D01*
X52884562Y9573778D01*
X52884560Y9573781D01*
X52883138Y9577116D01*
X52833391Y9664333D01*
X52713030Y9875348D01*
X52711239Y9878488D01*
X52505840Y10158104D01*
X52269664Y10412260D01*
X52005841Y10637586D01*
X51717869Y10831095D01*
X51409563Y10990224D01*
X51085011Y11112862D01*
X51081490Y11113746D01*
X51081485Y11113748D01*
X50920200Y11154260D01*
X50748514Y11197384D01*
X50726298Y11200309D01*
X50408137Y11242196D01*
X50408129Y11242197D01*
X50404533Y11242670D01*
X50259867Y11244943D01*
X50061268Y11248063D01*
X50061264Y11248063D01*
X50057626Y11248120D01*
X50054012Y11247759D01*
X50054006Y11247759D01*
X49810665Y11223470D01*
X49712391Y11213661D01*
X49373405Y11139750D01*
X49369978Y11138577D01*
X49369972Y11138575D01*
X49291118Y11111577D01*
X49045161Y11027367D01*
X48732010Y10878001D01*
X48438101Y10693632D01*
X48435265Y10691360D01*
X48435258Y10691355D01*
X48191206Y10495832D01*
X48167331Y10476705D01*
X47923288Y10230093D01*
X47921047Y10227235D01*
X47864554Y10155186D01*
X47709208Y9957066D01*
X47707315Y9953977D01*
X47707313Y9953974D01*
X47661055Y9878488D01*
X47527927Y9661243D01*
X47526402Y9657958D01*
X47526400Y9657954D01*
X47487327Y9573778D01*
X47381849Y9346544D01*
X47351408Y9254498D01*
X47302532Y9106711D01*
X47272909Y9017141D01*
X47272173Y9013586D01*
X47272172Y9013583D01*
X47208379Y8705538D01*
X47202552Y8677400D01*
X47171710Y8331823D01*
X34109321Y8331823D01*
X34109321Y8647855D01*
X34108951Y8654676D01*
X34103427Y8705538D01*
X34099801Y8720790D01*
X34054646Y8841240D01*
X34046108Y8856835D01*
X33969607Y8958910D01*
X33957046Y8971471D01*
X33854971Y9047972D01*
X33839376Y9056510D01*
X33718928Y9101664D01*
X33703673Y9105291D01*
X33652808Y9110817D01*
X33645994Y9111186D01*
X33023437Y9111186D01*
X33008198Y9106711D01*
X33006993Y9105321D01*
X33005322Y9097638D01*
X33005322Y8025301D01*
X32497322Y8025301D01*
X32497322Y9093070D01*
X32492847Y9108309D01*
X32491457Y9109514D01*
X32483774Y9111185D01*
X31856653Y9111185D01*
X31849832Y9110815D01*
X31798970Y9105291D01*
X31783718Y9101665D01*
X31663268Y9056510D01*
X31647673Y9047972D01*
X31545598Y8971471D01*
X31533037Y8958910D01*
X31456536Y8856835D01*
X31447998Y8841240D01*
X31406619Y8730864D01*
X31363977Y8674099D01*
X31297415Y8649400D01*
X31228066Y8664608D01*
X31195443Y8690295D01*
X31144473Y8746310D01*
X31144467Y8746316D01*
X31140992Y8750135D01*
X31136941Y8753334D01*
X31136937Y8753338D01*
X30969736Y8885386D01*
X30969732Y8885388D01*
X30965681Y8888588D01*
X30770111Y8996548D01*
X30765242Y8998272D01*
X30765238Y8998274D01*
X30564409Y9069391D01*
X30564405Y9069392D01*
X30559534Y9071117D01*
X30554441Y9072024D01*
X30554438Y9072025D01*
X30344695Y9109386D01*
X30344689Y9109387D01*
X30339606Y9110292D01*
X30265774Y9111194D01*
X30121403Y9112958D01*
X30121401Y9112958D01*
X30116233Y9113021D01*
X29895413Y9079231D01*
X29683078Y9009829D01*
X29484929Y8906679D01*
X29480796Y8903576D01*
X29480793Y8903574D01*
X29397772Y8841240D01*
X29306287Y8772551D01*
X29266450Y8730864D01*
X29215359Y8677400D01*
X29151951Y8611048D01*
X29044523Y8453565D01*
X28989615Y8408565D01*
X28919090Y8400394D01*
X28855343Y8431648D01*
X28834646Y8456132D01*
X28754144Y8580569D01*
X28754142Y8580572D01*
X28751336Y8584909D01*
X28600992Y8750135D01*
X28596941Y8753334D01*
X28596937Y8753338D01*
X28429736Y8885386D01*
X28429732Y8885388D01*
X28425681Y8888588D01*
X28230111Y8996548D01*
X28225242Y8998272D01*
X28225238Y8998274D01*
X28024409Y9069391D01*
X28024405Y9069392D01*
X28019534Y9071117D01*
X28014441Y9072024D01*
X28014438Y9072025D01*
X27804695Y9109386D01*
X27804689Y9109387D01*
X27799606Y9110292D01*
X27725774Y9111194D01*
X27581403Y9112958D01*
X27581401Y9112958D01*
X27576233Y9113021D01*
X27355413Y9079231D01*
X27143078Y9009829D01*
X26944929Y8906679D01*
X26940796Y8903576D01*
X26940793Y8903574D01*
X26857772Y8841240D01*
X26766287Y8772551D01*
X26726450Y8730864D01*
X26675359Y8677400D01*
X26611951Y8611048D01*
X26504523Y8453565D01*
X26449615Y8408565D01*
X26379090Y8400394D01*
X26315343Y8431648D01*
X26294646Y8456132D01*
X26214144Y8580569D01*
X26214142Y8580572D01*
X26211336Y8584909D01*
X26060992Y8750135D01*
X26056941Y8753334D01*
X26056937Y8753338D01*
X25889736Y8885386D01*
X25889732Y8885388D01*
X25885681Y8888588D01*
X25690111Y8996548D01*
X25685242Y8998272D01*
X25685238Y8998274D01*
X25484409Y9069391D01*
X25484405Y9069392D01*
X25479534Y9071117D01*
X25474441Y9072024D01*
X25474438Y9072025D01*
X25264695Y9109386D01*
X25264689Y9109387D01*
X25259606Y9110292D01*
X25185774Y9111194D01*
X25041403Y9112958D01*
X25041401Y9112958D01*
X25036233Y9113021D01*
X24815413Y9079231D01*
X24603078Y9009829D01*
X24404929Y8906679D01*
X24400796Y8903576D01*
X24400793Y8903574D01*
X24317772Y8841240D01*
X24226287Y8772551D01*
X24186450Y8730864D01*
X24135359Y8677400D01*
X24071951Y8611048D01*
X24069042Y8606783D01*
X24069036Y8606775D01*
X24035200Y8557173D01*
X23946065Y8426506D01*
X23903796Y8335444D01*
X23858176Y8237164D01*
X23852010Y8223881D01*
X23792311Y8008616D01*
X23768573Y7786491D01*
X23781432Y7563471D01*
X23782569Y7558425D01*
X23782570Y7558419D01*
X23796928Y7494711D01*
X23830544Y7345547D01*
X23914588Y7138570D01*
X23954528Y7073394D01*
X24028613Y6952498D01*
X24031309Y6948098D01*
X24177572Y6779248D01*
X24349448Y6636554D01*
X24353915Y6633944D01*
X24435392Y6586333D01*
X24484116Y6534695D01*
X24497822Y6477545D01*
X24497822Y4628431D01*
X24497295Y4617248D01*
X24495620Y4609755D01*
X24495869Y4601829D01*
X24495869Y4601828D01*
X24497760Y4541678D01*
X24497822Y4537719D01*
X24497822Y4509808D01*
X24498319Y4505874D01*
X24498319Y4505873D01*
X24498327Y4505808D01*
X24499260Y4493971D01*
X24500649Y4449775D01*
X24506300Y4430325D01*
X24510309Y4410964D01*
X24512848Y4390867D01*
X24515767Y4383496D01*
X24515767Y4383494D01*
X24529126Y4349752D01*
X24532971Y4338522D01*
X24545304Y4296071D01*
X24549337Y4289252D01*
X24549339Y4289247D01*
X24555615Y4278636D01*
X24564310Y4260888D01*
X24571770Y4242047D01*
X24576432Y4235631D01*
X24576432Y4235630D01*
X24597758Y4206277D01*
X24604274Y4196357D01*
X24626780Y4158302D01*
X24641101Y4143981D01*
X24653941Y4128948D01*
X24665850Y4112557D01*
X24671956Y4107506D01*
X24699927Y4084366D01*
X24708706Y4076376D01*
X28070165Y714917D01*
X28077709Y706627D01*
X28081822Y700146D01*
X28087599Y694721D01*
X28131489Y653506D01*
X28134331Y650751D01*
X28154052Y631030D01*
X28157247Y628552D01*
X28166269Y620846D01*
X28198501Y590578D01*
X28205450Y586758D01*
X28216254Y580818D01*
X28232778Y569965D01*
X28248781Y557551D01*
X28289365Y539988D01*
X28299995Y534781D01*
X28338762Y513469D01*
X28346439Y511498D01*
X28346444Y511496D01*
X28358380Y508432D01*
X28377088Y502027D01*
X28395677Y493983D01*
X28403505Y492743D01*
X28403512Y492741D01*
X28439346Y487065D01*
X28450966Y484659D01*
X28486111Y475636D01*
X28493792Y473664D01*
X28514046Y473664D01*
X28533756Y472113D01*
X28553765Y468944D01*
X28561657Y469690D01*
X28597783Y473105D01*
X28609641Y473664D01*
X31164428Y473664D01*
X31232549Y453662D01*
X31267641Y419935D01*
X31377624Y262864D01*
X31539522Y100966D01*
X31544030Y97809D01*
X31544033Y97807D01*
X31585364Y68867D01*
X31727073Y-30359D01*
X31732055Y-32682D01*
X31732060Y-32685D01*
X31766279Y-48641D01*
X31819564Y-95558D01*
X31839025Y-163835D01*
X31818483Y-231795D01*
X31766279Y-277031D01*
X31732060Y-292987D01*
X31732055Y-292990D01*
X31727073Y-295313D01*
X31622211Y-368738D01*
X31544033Y-423479D01*
X31544030Y-423481D01*
X31539522Y-426638D01*
X31377624Y-588536D01*
X31246299Y-776087D01*
X31243976Y-781069D01*
X31243973Y-781074D01*
X31162658Y-955456D01*
X31149538Y-983593D01*
X31148116Y-988901D01*
X31148115Y-988903D01*
X31142403Y-1010220D01*
X31090279Y-1204749D01*
X31070324Y-1432836D01*
X31090279Y-1660923D01*
X31149538Y-1882079D01*
X31151861Y-1887060D01*
X31151861Y-1887061D01*
X31243973Y-2084598D01*
X31243976Y-2084603D01*
X31246299Y-2089585D01*
X31377624Y-2277136D01*
X31539522Y-2439034D01*
X31544030Y-2442191D01*
X31544033Y-2442193D01*
X31622211Y-2496934D01*
X31727073Y-2570359D01*
X31732055Y-2572682D01*
X31732060Y-2572685D01*
X31766279Y-2588641D01*
X31819564Y-2635558D01*
X31839025Y-2703835D01*
X31818483Y-2771795D01*
X31766279Y-2817031D01*
X31732060Y-2832987D01*
X31732055Y-2832990D01*
X31727073Y-2835313D01*
X31629057Y-2903945D01*
X31544033Y-2963479D01*
X31544030Y-2963481D01*
X31539522Y-2966638D01*
X31377624Y-3128536D01*
X31246299Y-3316087D01*
X31243976Y-3321069D01*
X31243973Y-3321074D01*
X31163231Y-3494228D01*
X31149538Y-3523593D01*
X31148116Y-3528901D01*
X31148115Y-3528903D01*
X31105930Y-3686339D01*
X31090279Y-3744749D01*
X31070324Y-3972836D01*
X31090279Y-4200923D01*
X31091703Y-4206236D01*
X31091703Y-4206238D01*
X31146808Y-4411889D01*
X31149538Y-4422079D01*
X31151861Y-4427060D01*
X31151861Y-4427061D01*
X31243973Y-4624598D01*
X31243976Y-4624603D01*
X31246299Y-4629585D01*
X31249456Y-4634093D01*
X31363737Y-4797303D01*
X31377624Y-4817136D01*
X31539522Y-4979034D01*
X31544030Y-4982191D01*
X31544033Y-4982193D01*
X31622211Y-5036934D01*
X31727073Y-5110359D01*
X31732055Y-5112682D01*
X31732060Y-5112685D01*
X31766279Y-5128641D01*
X31819564Y-5175558D01*
X31839025Y-5243835D01*
X31818483Y-5311795D01*
X31766279Y-5357031D01*
X31732060Y-5372987D01*
X31732055Y-5372990D01*
X31727073Y-5375313D01*
X31667100Y-5417307D01*
X31544033Y-5503479D01*
X31544030Y-5503481D01*
X31539522Y-5506638D01*
X31377624Y-5668536D01*
X31246299Y-5856087D01*
X31243976Y-5861068D01*
X31243973Y-5861074D01*
X31154258Y-6053470D01*
X31149538Y-6063593D01*
X31148116Y-6068901D01*
X31148115Y-6068903D01*
X31105930Y-6226339D01*
X31090279Y-6284749D01*
X31070324Y-6512836D01*
X31090279Y-6740923D01*
X31091703Y-6746236D01*
X31091703Y-6746238D01*
X31146854Y-6952061D01*
X31149538Y-6962079D01*
X31151861Y-6967060D01*
X31151861Y-6967061D01*
X31243973Y-7164598D01*
X31243976Y-7164603D01*
X31246299Y-7169585D01*
X31319724Y-7274447D01*
X31369850Y-7346033D01*
X31377624Y-7357136D01*
X31539522Y-7519034D01*
X31544030Y-7522191D01*
X31544033Y-7522193D01*
X31621343Y-7576326D01*
X31727073Y-7650359D01*
X31732055Y-7652682D01*
X31732060Y-7652685D01*
X31766279Y-7668641D01*
X31819564Y-7715558D01*
X31839025Y-7783835D01*
X31818483Y-7851795D01*
X31766279Y-7897031D01*
X31732060Y-7912987D01*
X31732055Y-7912990D01*
X31727073Y-7915313D01*
X31622211Y-7988738D01*
X31544033Y-8043479D01*
X31544030Y-8043481D01*
X31539522Y-8046638D01*
X31377624Y-8208536D01*
X31246299Y-8396087D01*
X31243976Y-8401069D01*
X31243973Y-8401074D01*
X31154056Y-8593903D01*
X31149538Y-8603593D01*
X31148116Y-8608901D01*
X31148115Y-8608903D01*
X31105930Y-8766339D01*
X31090279Y-8824749D01*
X31070324Y-9052836D01*
X31090279Y-9280923D01*
X31091703Y-9286236D01*
X31091703Y-9286238D01*
X31146854Y-9492061D01*
X31149538Y-9502079D01*
X31151861Y-9507060D01*
X31151861Y-9507061D01*
X31243973Y-9704598D01*
X31243976Y-9704603D01*
X31246299Y-9709585D01*
X31249456Y-9714093D01*
X31369850Y-9886033D01*
X31377624Y-9897136D01*
X31539522Y-10059034D01*
X31544030Y-10062191D01*
X31544033Y-10062193D01*
X31622211Y-10116934D01*
X31727073Y-10190359D01*
X31732055Y-10192682D01*
X31732060Y-10192685D01*
X31766279Y-10208641D01*
X31819564Y-10255558D01*
X31839025Y-10323835D01*
X31818483Y-10391795D01*
X31766279Y-10437031D01*
X31732060Y-10452987D01*
X31732055Y-10452990D01*
X31727073Y-10455313D01*
X31622211Y-10528738D01*
X31544033Y-10583479D01*
X31544030Y-10583481D01*
X31539522Y-10586638D01*
X31377624Y-10748536D01*
X31246299Y-10936087D01*
X31243976Y-10941069D01*
X31243973Y-10941074D01*
X31154056Y-11133903D01*
X31149538Y-11143593D01*
X31090279Y-11364749D01*
X31070324Y-11592836D01*
X31090279Y-11820923D01*
X31091703Y-11826236D01*
X31091703Y-11826238D01*
X31146854Y-12032061D01*
X31149538Y-12042079D01*
X31151861Y-12047060D01*
X31151861Y-12047061D01*
X31243973Y-12244598D01*
X31243976Y-12244603D01*
X31246299Y-12249585D01*
X31319724Y-12354447D01*
X31369850Y-12426033D01*
X31377624Y-12437136D01*
X31539522Y-12599034D01*
X31544030Y-12602191D01*
X31544033Y-12602193D01*
X31603466Y-12643808D01*
X31727073Y-12730359D01*
X31732055Y-12732682D01*
X31732060Y-12732685D01*
X31766279Y-12748641D01*
X31819564Y-12795558D01*
X31839025Y-12863835D01*
X31818483Y-12931795D01*
X31766279Y-12977031D01*
X31732060Y-12992987D01*
X31732055Y-12992990D01*
X31727073Y-12995313D01*
X31643352Y-13053935D01*
X31544033Y-13123479D01*
X31544030Y-13123481D01*
X31539522Y-13126638D01*
X31377624Y-13288536D01*
X31374467Y-13293044D01*
X31374465Y-13293047D01*
X31296535Y-13404343D01*
X31241078Y-13448671D01*
X31170459Y-13455980D01*
X31107098Y-13423949D01*
X31071113Y-13362748D01*
X31067322Y-13332072D01*
X31067322Y-12872436D01*
X31066251Y-12862113D01*
X31057060Y-12773528D01*
X31057059Y-12773524D01*
X31056348Y-12766670D01*
X31043181Y-12727202D01*
X31002690Y-12605838D01*
X31000372Y-12598890D01*
X30907300Y-12448488D01*
X30782125Y-12323531D01*
X30775894Y-12319690D01*
X30637790Y-12234561D01*
X30637788Y-12234560D01*
X30631560Y-12230721D01*
X30551817Y-12204272D01*
X30470211Y-12177204D01*
X30470209Y-12177204D01*
X30463683Y-12175039D01*
X30456847Y-12174339D01*
X30456844Y-12174338D01*
X30413791Y-12169927D01*
X30359222Y-12164336D01*
X29773417Y-12164336D01*
X29705296Y-12144334D01*
X29684322Y-12127431D01*
X29271502Y-11714611D01*
X29263962Y-11706325D01*
X29259850Y-11699846D01*
X29210198Y-11653220D01*
X29207357Y-11650466D01*
X29187620Y-11630729D01*
X29184423Y-11628249D01*
X29175401Y-11620544D01*
X29148950Y-11595705D01*
X29143171Y-11590278D01*
X29136225Y-11586459D01*
X29136222Y-11586457D01*
X29125416Y-11580516D01*
X29108897Y-11569665D01*
X29102898Y-11565012D01*
X29092891Y-11557250D01*
X29085622Y-11554105D01*
X29085618Y-11554102D01*
X29052313Y-11539690D01*
X29041663Y-11534473D01*
X29002910Y-11513169D01*
X28983287Y-11508131D01*
X28964584Y-11501727D01*
X28953270Y-11496831D01*
X28953269Y-11496831D01*
X28945995Y-11493683D01*
X28938172Y-11492444D01*
X28938162Y-11492441D01*
X28902326Y-11486765D01*
X28890706Y-11484359D01*
X28855561Y-11475336D01*
X28855560Y-11475336D01*
X28847880Y-11473364D01*
X28827626Y-11473364D01*
X28807915Y-11471813D01*
X28795736Y-11469884D01*
X28787907Y-11468644D01*
X28775436Y-11469823D01*
X28705736Y-11456321D01*
X28679658Y-11436196D01*
X28678643Y-11437324D01*
X28673731Y-11432901D01*
X28669316Y-11427998D01*
X28574946Y-11359434D01*
X28520157Y-11319627D01*
X28520156Y-11319626D01*
X28514815Y-11315746D01*
X28508787Y-11313062D01*
X28508785Y-11313061D01*
X28346382Y-11240755D01*
X28346381Y-11240755D01*
X28340351Y-11238070D01*
X28246951Y-11218217D01*
X28160007Y-11199736D01*
X28160002Y-11199736D01*
X28153550Y-11198364D01*
X27962576Y-11198364D01*
X27956124Y-11199736D01*
X27956119Y-11199736D01*
X27869176Y-11218217D01*
X27775775Y-11238070D01*
X27769745Y-11240755D01*
X27769744Y-11240755D01*
X27607341Y-11313061D01*
X27607339Y-11313062D01*
X27601311Y-11315746D01*
X27595970Y-11319626D01*
X27595969Y-11319627D01*
X27554510Y-11349749D01*
X27446810Y-11427998D01*
X27442389Y-11432908D01*
X27442388Y-11432909D01*
X27333266Y-11554102D01*
X27319023Y-11569920D01*
X27289795Y-11620544D01*
X27239129Y-11708301D01*
X27223536Y-11735308D01*
X27164521Y-11916936D01*
X27144559Y-12106864D01*
X27145249Y-12113429D01*
X27157335Y-12228417D01*
X27164521Y-12296792D01*
X27223536Y-12478420D01*
X27226839Y-12484142D01*
X27226840Y-12484143D01*
X27234347Y-12497145D01*
X27319023Y-12643808D01*
X27323441Y-12648715D01*
X27323442Y-12648716D01*
X27440888Y-12779153D01*
X27446810Y-12785730D01*
X27601311Y-12897982D01*
X27607339Y-12900666D01*
X27607341Y-12900667D01*
X27745168Y-12962031D01*
X27775775Y-12975658D01*
X27857301Y-12992987D01*
X27956119Y-13013992D01*
X27956124Y-13013992D01*
X27962576Y-13015364D01*
X28153550Y-13015364D01*
X28160002Y-13013992D01*
X28160007Y-13013992D01*
X28258825Y-12992987D01*
X28340351Y-12975658D01*
X28376641Y-12959501D01*
X28423073Y-12938828D01*
X28493440Y-12929394D01*
X28557737Y-12959501D01*
X28595551Y-13019589D01*
X28600322Y-13053935D01*
X28600322Y-13473236D01*
X28611296Y-13579002D01*
X28613477Y-13585538D01*
X28613477Y-13585540D01*
X28643015Y-13674075D01*
X28667272Y-13746782D01*
X28760344Y-13897184D01*
X28885519Y-14022141D01*
X28890057Y-14024938D01*
X28930646Y-14082189D01*
X28933876Y-14153112D01*
X28898250Y-14214523D01*
X28889754Y-14221898D01*
X28879615Y-14229934D01*
X28765083Y-14344665D01*
X28756071Y-14356076D01*
X28671006Y-14494079D01*
X28664859Y-14507260D01*
X28613684Y-14661546D01*
X28610817Y-14674922D01*
X28601150Y-14769274D01*
X28600822Y-14775691D01*
X28600822Y-14800721D01*
X28605297Y-14815960D01*
X28606687Y-14817165D01*
X28614370Y-14818836D01*
X31048706Y-14818836D01*
X31063946Y-14814361D01*
X31068610Y-14808978D01*
X31128335Y-14770593D01*
X31199332Y-14770593D01*
X31259059Y-14808976D01*
X31267048Y-14819218D01*
X31369850Y-14966033D01*
X31377624Y-14977136D01*
X31539522Y-15139034D01*
X31544030Y-15142191D01*
X31544033Y-15142193D01*
X31562936Y-15155429D01*
X31727073Y-15270359D01*
X31732055Y-15272682D01*
X31732060Y-15272685D01*
X31766279Y-15288641D01*
X31819564Y-15335558D01*
X31839025Y-15403835D01*
X31818483Y-15471795D01*
X31766279Y-15517031D01*
X31732060Y-15532987D01*
X31732055Y-15532990D01*
X31727073Y-15535313D01*
X31673528Y-15572806D01*
X31544033Y-15663479D01*
X31544030Y-15663481D01*
X31539522Y-15666638D01*
X31377624Y-15828536D01*
X31246299Y-16016087D01*
X31243976Y-16021069D01*
X31243973Y-16021074D01*
X31154056Y-16213903D01*
X31149538Y-16223593D01*
X31148116Y-16228901D01*
X31148115Y-16228903D01*
X31105930Y-16386339D01*
X31090279Y-16444749D01*
X31070324Y-16672836D01*
X31090279Y-16900923D01*
X31091703Y-16906236D01*
X31091703Y-16906238D01*
X31146854Y-17112061D01*
X31149538Y-17122079D01*
X31151861Y-17127060D01*
X31151861Y-17127061D01*
X31243973Y-17324598D01*
X31243976Y-17324603D01*
X31246299Y-17329585D01*
X31311185Y-17422252D01*
X31374465Y-17512624D01*
X31377624Y-17517136D01*
X31539522Y-17679034D01*
X31544030Y-17682191D01*
X31544033Y-17682193D01*
X31622211Y-17736934D01*
X31727073Y-17810359D01*
X31732055Y-17812682D01*
X31732060Y-17812685D01*
X31766871Y-17828917D01*
X31820156Y-17875834D01*
X31839617Y-17944111D01*
X31819075Y-18012071D01*
X31766871Y-18057307D01*
X31732311Y-18073422D01*
X31722815Y-18078905D01*
X31544355Y-18203864D01*
X31535947Y-18210920D01*
X31381906Y-18364961D01*
X31374850Y-18373369D01*
X31249891Y-18551829D01*
X31244408Y-18561325D01*
X31152332Y-18758783D01*
X31148586Y-18769075D01*
X31102428Y-18941339D01*
X31102764Y-18955435D01*
X31110706Y-18958836D01*
X33651789Y-18958836D01*
X33665320Y-18954863D01*
X33666549Y-18946314D01*
X33619058Y-18769075D01*
X33615312Y-18758783D01*
X33523236Y-18561325D01*
X33517753Y-18551829D01*
X33392794Y-18373369D01*
X33385738Y-18364961D01*
X33231697Y-18210920D01*
X33223289Y-18203864D01*
X33044829Y-18078905D01*
X33035333Y-18073422D01*
X33000773Y-18057307D01*
X32947488Y-18010390D01*
X32928027Y-17942113D01*
X32948569Y-17874153D01*
X33000773Y-17828917D01*
X33035584Y-17812685D01*
X33035589Y-17812682D01*
X33040571Y-17810359D01*
X33145433Y-17736934D01*
X33223611Y-17682193D01*
X33223614Y-17682191D01*
X33228122Y-17679034D01*
X33390020Y-17517136D01*
X33396284Y-17508190D01*
X33401462Y-17500796D01*
X33456920Y-17456469D01*
X33527540Y-17449162D01*
X33590899Y-17481195D01*
X33606610Y-17499010D01*
X33616081Y-17512046D01*
X33622597Y-17521966D01*
X33645103Y-17560021D01*
X33659424Y-17574342D01*
X33672264Y-17589375D01*
X33684173Y-17605766D01*
X33690279Y-17610817D01*
X33718250Y-17633957D01*
X33727029Y-17641947D01*
X36989323Y-20904241D01*
X37023349Y-20966553D01*
X37018284Y-21037368D01*
X36975737Y-21094204D01*
X36909217Y-21119015D01*
X36900228Y-21119336D01*
X33603216Y-21119336D01*
X33535095Y-21099334D01*
X33500003Y-21065607D01*
X33393179Y-20913047D01*
X33393177Y-20913044D01*
X33390020Y-20908536D01*
X33228122Y-20746638D01*
X33223614Y-20743481D01*
X33223611Y-20743479D01*
X33105354Y-20660675D01*
X33040571Y-20615313D01*
X33035589Y-20612990D01*
X33035584Y-20612987D01*
X33000773Y-20596755D01*
X32947488Y-20549838D01*
X32928027Y-20481561D01*
X32948569Y-20413601D01*
X33000773Y-20368365D01*
X33035333Y-20352250D01*
X33044829Y-20346767D01*
X33223289Y-20221808D01*
X33231697Y-20214752D01*
X33385738Y-20060711D01*
X33392794Y-20052303D01*
X33517753Y-19873843D01*
X33523236Y-19864347D01*
X33615312Y-19666889D01*
X33619058Y-19656597D01*
X33665216Y-19484333D01*
X33664880Y-19470237D01*
X33656938Y-19466836D01*
X31115855Y-19466836D01*
X31102324Y-19470809D01*
X31101095Y-19479358D01*
X31148586Y-19656597D01*
X31152332Y-19666889D01*
X31244408Y-19864347D01*
X31249891Y-19873843D01*
X31374850Y-20052303D01*
X31381906Y-20060711D01*
X31535947Y-20214752D01*
X31544355Y-20221808D01*
X31722815Y-20346767D01*
X31732311Y-20352250D01*
X31766871Y-20368365D01*
X31820156Y-20415282D01*
X31839617Y-20483559D01*
X31819075Y-20551519D01*
X31766871Y-20596755D01*
X31732060Y-20612987D01*
X31732055Y-20612990D01*
X31727073Y-20615313D01*
X31662290Y-20660675D01*
X31544033Y-20743479D01*
X31544030Y-20743481D01*
X31539522Y-20746638D01*
X31377624Y-20908536D01*
X31246299Y-21096087D01*
X31243976Y-21101069D01*
X31243973Y-21101074D01*
X31151861Y-21298611D01*
X31149538Y-21303593D01*
X31090279Y-21524749D01*
X31070324Y-21752836D01*
X31090279Y-21980923D01*
X31091703Y-21986236D01*
X31091703Y-21986238D01*
X31123348Y-22104336D01*
X31149538Y-22202079D01*
X31151861Y-22207060D01*
X31151861Y-22207061D01*
X31243973Y-22404598D01*
X31243976Y-22404603D01*
X31246299Y-22409585D01*
X31289291Y-22470984D01*
X31337076Y-22539227D01*
X31377624Y-22597136D01*
X31539522Y-22759034D01*
X31544030Y-22762191D01*
X31544033Y-22762193D01*
X31621777Y-22816630D01*
X31727073Y-22890359D01*
X31732055Y-22892682D01*
X31732060Y-22892685D01*
X31766279Y-22908641D01*
X31819564Y-22955558D01*
X31839025Y-23023835D01*
X31818483Y-23091795D01*
X31766279Y-23137031D01*
X31732060Y-23152987D01*
X31732055Y-23152990D01*
X31727073Y-23155313D01*
X31668679Y-23196201D01*
X31544033Y-23283479D01*
X31544030Y-23283481D01*
X31539522Y-23286638D01*
X31377624Y-23448536D01*
X31246299Y-23636087D01*
X31243976Y-23641069D01*
X31243973Y-23641074D01*
X31168022Y-23803954D01*
X31149538Y-23843593D01*
X31148116Y-23848901D01*
X31148115Y-23848903D01*
X31094171Y-24050225D01*
X31090279Y-24064749D01*
X31070324Y-24292836D01*
X31070803Y-24298311D01*
X31070803Y-24298322D01*
X31071848Y-24310266D01*
X31057860Y-24379871D01*
X31008461Y-24430863D01*
X30939335Y-24447054D01*
X30872429Y-24423302D01*
X30857241Y-24410350D01*
X30171725Y-23724834D01*
X30137701Y-23662524D01*
X30134822Y-23635741D01*
X30134822Y-20372767D01*
X30154824Y-20304646D01*
X30194518Y-20265624D01*
X30215511Y-20252633D01*
X30339439Y-20128489D01*
X30431483Y-19979165D01*
X30466417Y-19873843D01*
X30484541Y-19819202D01*
X30484541Y-19819200D01*
X30486707Y-19812671D01*
X30497322Y-19709067D01*
X30497321Y-18696606D01*
X30486438Y-18591707D01*
X30484259Y-18585176D01*
X30484258Y-18585171D01*
X30433242Y-18432258D01*
X30430924Y-18425310D01*
X30338619Y-18276147D01*
X30214475Y-18152219D01*
X30208241Y-18148376D01*
X30174836Y-18127785D01*
X30065151Y-18060175D01*
X30058202Y-18057870D01*
X29905188Y-18007117D01*
X29905186Y-18007117D01*
X29898657Y-18004951D01*
X29795053Y-17994336D01*
X29503588Y-17994336D01*
X29207592Y-17994337D01*
X29102693Y-18005220D01*
X29096162Y-18007399D01*
X29096157Y-18007400D01*
X28993183Y-18041755D01*
X28936296Y-18060734D01*
X28787133Y-18153039D01*
X28663205Y-18277183D01*
X28661403Y-18280106D01*
X28604793Y-18320244D01*
X28533870Y-18323478D01*
X28472458Y-18287854D01*
X28466906Y-18281458D01*
X28463619Y-18276147D01*
X28339475Y-18152219D01*
X28333243Y-18148378D01*
X28333241Y-18148376D01*
X28275657Y-18112881D01*
X28228163Y-18060110D01*
X28220775Y-18040776D01*
X28212340Y-18011743D01*
X28203337Y-17996519D01*
X28202029Y-17994308D01*
X28193334Y-17976560D01*
X28185874Y-17957719D01*
X28159886Y-17921949D01*
X28153370Y-17912029D01*
X28134902Y-17880801D01*
X28134900Y-17880798D01*
X28130864Y-17873974D01*
X28116543Y-17859653D01*
X28103702Y-17844619D01*
X28096453Y-17834642D01*
X28091794Y-17828229D01*
X28057717Y-17800038D01*
X28048938Y-17792048D01*
X26537474Y-16280583D01*
X26529934Y-16272297D01*
X26525822Y-16265818D01*
X26476170Y-16219192D01*
X26473329Y-16216438D01*
X26453592Y-16196701D01*
X26450395Y-16194221D01*
X26441373Y-16186516D01*
X26414922Y-16161677D01*
X26409143Y-16156250D01*
X26402197Y-16152431D01*
X26402194Y-16152429D01*
X26391388Y-16146488D01*
X26374869Y-16135637D01*
X26374405Y-16135277D01*
X26358863Y-16123222D01*
X26351594Y-16120077D01*
X26351590Y-16120074D01*
X26318285Y-16105662D01*
X26307635Y-16100445D01*
X26268882Y-16079141D01*
X26249259Y-16074103D01*
X26230556Y-16067699D01*
X26219242Y-16062803D01*
X26219241Y-16062803D01*
X26211967Y-16059655D01*
X26204144Y-16058416D01*
X26204134Y-16058413D01*
X26168298Y-16052737D01*
X26156678Y-16050331D01*
X26121533Y-16041308D01*
X26121532Y-16041308D01*
X26113852Y-16039336D01*
X26093598Y-16039336D01*
X26073887Y-16037785D01*
X26061708Y-16035856D01*
X26053879Y-16034616D01*
X26045987Y-16035362D01*
X26009861Y-16038777D01*
X25998003Y-16039336D01*
X25983216Y-16039336D01*
X25915095Y-16019334D01*
X25880003Y-15985607D01*
X25773179Y-15833047D01*
X25773177Y-15833044D01*
X25770020Y-15828536D01*
X25608122Y-15666638D01*
X25603614Y-15663481D01*
X25603611Y-15663479D01*
X25474116Y-15572806D01*
X25420571Y-15535313D01*
X25415589Y-15532990D01*
X25415584Y-15532987D01*
X25380773Y-15516755D01*
X25327488Y-15469838D01*
X25308027Y-15401561D01*
X25317588Y-15369931D01*
X28600823Y-15369931D01*
X28601160Y-15376450D01*
X28611079Y-15472042D01*
X28613971Y-15485436D01*
X28665410Y-15639620D01*
X28671583Y-15652798D01*
X28756885Y-15790643D01*
X28765921Y-15802044D01*
X28880651Y-15916575D01*
X28892062Y-15925587D01*
X29030065Y-16010652D01*
X29043246Y-16016799D01*
X29197532Y-16067974D01*
X29210908Y-16070841D01*
X29305260Y-16080508D01*
X29311676Y-16080836D01*
X29561707Y-16080836D01*
X29576946Y-16076361D01*
X29578151Y-16074971D01*
X29579822Y-16067288D01*
X29579822Y-16062720D01*
X30087822Y-16062720D01*
X30092297Y-16077959D01*
X30093687Y-16079164D01*
X30101370Y-16080835D01*
X30355917Y-16080835D01*
X30362436Y-16080498D01*
X30458028Y-16070579D01*
X30471422Y-16067687D01*
X30625606Y-16016248D01*
X30638784Y-16010075D01*
X30776629Y-15924773D01*
X30788030Y-15915737D01*
X30902561Y-15801007D01*
X30911573Y-15789596D01*
X30996638Y-15651593D01*
X31002785Y-15638412D01*
X31053960Y-15484126D01*
X31056827Y-15470750D01*
X31066494Y-15376398D01*
X31066822Y-15369982D01*
X31066822Y-15344951D01*
X31062347Y-15329712D01*
X31060957Y-15328507D01*
X31053274Y-15326836D01*
X30105937Y-15326836D01*
X30090698Y-15331311D01*
X30089493Y-15332701D01*
X30087822Y-15340384D01*
X30087822Y-16062720D01*
X29579822Y-16062720D01*
X29579822Y-15344951D01*
X29575347Y-15329712D01*
X29573957Y-15328507D01*
X29566274Y-15326836D01*
X28618938Y-15326836D01*
X28603699Y-15331311D01*
X28602494Y-15332701D01*
X28600823Y-15340384D01*
X28600823Y-15369931D01*
X25317588Y-15369931D01*
X25328569Y-15333601D01*
X25380773Y-15288365D01*
X25415333Y-15272250D01*
X25424829Y-15266767D01*
X25603289Y-15141808D01*
X25611697Y-15134752D01*
X25765738Y-14980711D01*
X25772794Y-14972303D01*
X25897753Y-14793843D01*
X25903236Y-14784347D01*
X25995312Y-14586889D01*
X25999058Y-14576597D01*
X26045216Y-14404333D01*
X26044880Y-14390237D01*
X26036938Y-14386836D01*
X23495855Y-14386836D01*
X23482324Y-14390809D01*
X23481095Y-14399358D01*
X23528586Y-14576597D01*
X23532332Y-14586889D01*
X23624408Y-14784347D01*
X23629891Y-14793843D01*
X23754850Y-14972303D01*
X23761906Y-14980711D01*
X23915947Y-15134752D01*
X23924355Y-15141808D01*
X24102815Y-15266767D01*
X24112311Y-15272250D01*
X24146871Y-15288365D01*
X24200156Y-15335282D01*
X24219617Y-15403559D01*
X24199075Y-15471519D01*
X24146871Y-15516755D01*
X24112060Y-15532987D01*
X24112055Y-15532990D01*
X24107073Y-15535313D01*
X24053528Y-15572806D01*
X23924033Y-15663479D01*
X23924030Y-15663481D01*
X23919522Y-15666638D01*
X23757624Y-15828536D01*
X23626299Y-16016087D01*
X23623976Y-16021069D01*
X23623973Y-16021074D01*
X23534056Y-16213903D01*
X23529538Y-16223593D01*
X23528116Y-16228901D01*
X23528115Y-16228903D01*
X23485930Y-16386339D01*
X23470279Y-16444749D01*
X23450324Y-16672836D01*
X23470279Y-16900923D01*
X23471703Y-16906236D01*
X23471703Y-16906238D01*
X23526854Y-17112061D01*
X23529538Y-17122079D01*
X23531861Y-17127060D01*
X23531861Y-17127061D01*
X23623973Y-17324598D01*
X23623976Y-17324603D01*
X23626299Y-17329585D01*
X23691185Y-17422252D01*
X23754465Y-17512624D01*
X23757624Y-17517136D01*
X23919522Y-17679034D01*
X23924030Y-17682191D01*
X23924033Y-17682193D01*
X24002211Y-17736934D01*
X24107073Y-17810359D01*
X24112055Y-17812682D01*
X24112060Y-17812685D01*
X24146279Y-17828641D01*
X24199564Y-17875558D01*
X24219025Y-17943835D01*
X24198483Y-18011795D01*
X24146279Y-18057031D01*
X24112060Y-18072987D01*
X24112055Y-18072990D01*
X24107073Y-18075313D01*
X24002729Y-18148376D01*
X23924033Y-18203479D01*
X23924030Y-18203481D01*
X23919522Y-18206638D01*
X23757624Y-18368536D01*
X23754467Y-18373044D01*
X23754465Y-18373047D01*
X23722233Y-18419079D01*
X23626299Y-18556087D01*
X23623976Y-18561069D01*
X23623973Y-18561074D01*
X23534056Y-18753903D01*
X23529538Y-18763593D01*
X23528116Y-18768901D01*
X23528115Y-18768903D01*
X23478287Y-18954863D01*
X23470279Y-18984749D01*
X23450324Y-19212836D01*
X23470279Y-19440923D01*
X23471703Y-19446236D01*
X23471703Y-19446238D01*
X23526854Y-19652061D01*
X23529538Y-19662079D01*
X23531861Y-19667060D01*
X23531861Y-19667061D01*
X23623973Y-19864598D01*
X23623976Y-19864603D01*
X23626299Y-19869585D01*
X23629456Y-19874093D01*
X23749850Y-20046033D01*
X23757624Y-20057136D01*
X23919522Y-20219034D01*
X23924030Y-20222191D01*
X23924033Y-20222193D01*
X23961292Y-20248282D01*
X24107073Y-20350359D01*
X24112055Y-20352682D01*
X24112060Y-20352685D01*
X24146279Y-20368641D01*
X24199564Y-20415558D01*
X24219025Y-20483835D01*
X24198483Y-20551795D01*
X24146279Y-20597031D01*
X24112060Y-20612987D01*
X24112055Y-20612990D01*
X24107073Y-20615313D01*
X24042290Y-20660675D01*
X23924033Y-20743479D01*
X23924030Y-20743481D01*
X23919522Y-20746638D01*
X23757624Y-20908536D01*
X23626299Y-21096087D01*
X23623976Y-21101069D01*
X23623973Y-21101074D01*
X23531861Y-21298611D01*
X23529538Y-21303593D01*
X23470279Y-21524749D01*
X23450324Y-21752836D01*
X23470279Y-21980923D01*
X23471703Y-21986236D01*
X23471703Y-21986238D01*
X23503348Y-22104336D01*
X23529538Y-22202079D01*
X23531861Y-22207060D01*
X23531861Y-22207061D01*
X23623973Y-22404598D01*
X23623976Y-22404603D01*
X23626299Y-22409585D01*
X23669291Y-22470984D01*
X23717076Y-22539227D01*
X23757624Y-22597136D01*
X23919522Y-22759034D01*
X23924030Y-22762191D01*
X23924033Y-22762193D01*
X24001777Y-22816630D01*
X24107073Y-22890359D01*
X24112055Y-22892682D01*
X24112060Y-22892685D01*
X24146279Y-22908641D01*
X24199564Y-22955558D01*
X24219025Y-23023835D01*
X24198483Y-23091795D01*
X24146279Y-23137031D01*
X24112060Y-23152987D01*
X24112055Y-23152990D01*
X24107073Y-23155313D01*
X24048679Y-23196201D01*
X23924033Y-23283479D01*
X23924030Y-23283481D01*
X23919522Y-23286638D01*
X23757624Y-23448536D01*
X23626299Y-23636087D01*
X23623976Y-23641069D01*
X23623973Y-23641074D01*
X23548022Y-23803954D01*
X23529538Y-23843593D01*
X23528116Y-23848901D01*
X23528115Y-23848903D01*
X23474171Y-24050225D01*
X23470279Y-24064749D01*
X23450324Y-24292836D01*
X23470279Y-24520923D01*
X23471703Y-24526236D01*
X23471703Y-24526238D01*
X23495712Y-24615838D01*
X23529538Y-24742079D01*
X23531861Y-24747060D01*
X23531861Y-24747061D01*
X23623973Y-24944598D01*
X23623976Y-24944603D01*
X23626299Y-24949585D01*
X23757624Y-25137136D01*
X23919522Y-25299034D01*
X23924030Y-25302191D01*
X23924033Y-25302193D01*
X24002211Y-25356934D01*
X24107073Y-25430359D01*
X24112055Y-25432682D01*
X24112060Y-25432685D01*
X24146279Y-25448641D01*
X24199564Y-25495558D01*
X24219025Y-25563835D01*
X24198483Y-25631795D01*
X24146279Y-25677031D01*
X24112060Y-25692987D01*
X24112055Y-25692990D01*
X24107073Y-25695313D01*
X24002211Y-25768738D01*
X23924033Y-25823479D01*
X23924030Y-25823481D01*
X23919522Y-25826638D01*
X23757624Y-25988536D01*
X23754467Y-25993044D01*
X23754465Y-25993047D01*
X23647641Y-26145607D01*
X23592184Y-26189935D01*
X23544428Y-26199336D01*
X18472589Y-26199336D01*
X18461406Y-26198809D01*
X18453913Y-26197134D01*
X18445987Y-26197383D01*
X18445986Y-26197383D01*
X18385836Y-26199274D01*
X18381877Y-26199336D01*
X18353966Y-26199336D01*
X18350032Y-26199833D01*
X18350031Y-26199833D01*
X18349966Y-26199841D01*
X18338129Y-26200774D01*
X18306312Y-26201774D01*
X18301851Y-26201914D01*
X18293932Y-26202163D01*
X18281988Y-26205633D01*
X18274480Y-26207814D01*
X18255128Y-26211822D01*
X18248057Y-26212716D01*
X18235025Y-26214362D01*
X18227656Y-26217279D01*
X18227654Y-26217280D01*
X18193919Y-26230636D01*
X18182691Y-26234481D01*
X18140229Y-26246818D01*
X18133407Y-26250852D01*
X18133401Y-26250855D01*
X18122790Y-26257130D01*
X18105040Y-26265826D01*
X18093578Y-26270364D01*
X18093573Y-26270367D01*
X18086205Y-26273284D01*
X18079790Y-26277945D01*
X18050447Y-26299263D01*
X18040529Y-26305779D01*
X18021841Y-26316831D01*
X18002459Y-26328294D01*
X17988135Y-26342618D01*
X17973103Y-26355457D01*
X17956715Y-26367364D01*
X17928534Y-26401429D01*
X17920544Y-26410209D01*
X11566569Y-32764184D01*
X11558283Y-32771724D01*
X11551804Y-32775836D01*
X11546379Y-32781613D01*
X11505179Y-32825487D01*
X11502424Y-32828329D01*
X11482687Y-32848066D01*
X11482204Y-32847583D01*
X11424946Y-32883690D01*
X11353952Y-32883081D01*
X11294557Y-32844187D01*
X11265619Y-32779355D01*
X11264486Y-32762494D01*
X11264486Y-22902836D01*
X18410515Y-22902836D01*
X18429707Y-23122207D01*
X18486702Y-23334912D01*
X18489027Y-23339897D01*
X18577440Y-23529502D01*
X18577443Y-23529507D01*
X18579766Y-23534489D01*
X18582922Y-23538996D01*
X18582923Y-23538998D01*
X18689848Y-23691702D01*
X18706073Y-23714874D01*
X18861784Y-23870585D01*
X18866293Y-23873742D01*
X18866295Y-23873744D01*
X18880127Y-23883429D01*
X19042168Y-23996892D01*
X19241746Y-24089956D01*
X19454451Y-24146951D01*
X19673822Y-24166143D01*
X19893193Y-24146951D01*
X20105898Y-24089956D01*
X20305476Y-23996892D01*
X20467517Y-23883429D01*
X20481349Y-23873744D01*
X20481351Y-23873742D01*
X20485860Y-23870585D01*
X20641571Y-23714874D01*
X20657797Y-23691702D01*
X20764721Y-23538998D01*
X20764722Y-23538996D01*
X20767878Y-23534489D01*
X20770201Y-23529507D01*
X20770204Y-23529502D01*
X20858617Y-23339897D01*
X20860942Y-23334912D01*
X20917937Y-23122207D01*
X20937129Y-22902836D01*
X20917937Y-22683465D01*
X20860942Y-22470760D01*
X20797156Y-22333970D01*
X20770204Y-22276170D01*
X20770201Y-22276165D01*
X20767878Y-22271183D01*
X20731362Y-22219033D01*
X20644730Y-22095309D01*
X20644728Y-22095306D01*
X20641571Y-22090798D01*
X20485860Y-21935087D01*
X20305476Y-21808780D01*
X20105898Y-21715716D01*
X19893193Y-21658721D01*
X19673822Y-21639529D01*
X19454451Y-21658721D01*
X19241746Y-21715716D01*
X19173883Y-21747361D01*
X19047156Y-21806454D01*
X19047151Y-21806457D01*
X19042169Y-21808780D01*
X19037662Y-21811936D01*
X19037660Y-21811937D01*
X18866295Y-21931928D01*
X18866292Y-21931930D01*
X18861784Y-21935087D01*
X18706073Y-22090798D01*
X18702916Y-22095306D01*
X18702914Y-22095309D01*
X18616282Y-22219033D01*
X18579766Y-22271183D01*
X18577443Y-22276165D01*
X18577440Y-22276170D01*
X18550488Y-22333970D01*
X18486702Y-22470760D01*
X18429707Y-22683465D01*
X18410515Y-22902836D01*
X11264486Y-22902836D01*
X11264486Y-19670266D01*
X11284488Y-19602145D01*
X11301391Y-19581171D01*
X12859726Y-18022836D01*
X18410515Y-18022836D01*
X18429707Y-18242207D01*
X18486702Y-18454912D01*
X18489027Y-18459897D01*
X18577440Y-18649502D01*
X18577443Y-18649507D01*
X18579766Y-18654489D01*
X18582922Y-18658996D01*
X18582923Y-18658998D01*
X18659880Y-18768903D01*
X18706073Y-18834874D01*
X18861784Y-18990585D01*
X18866293Y-18993742D01*
X18866295Y-18993744D01*
X18896116Y-19014625D01*
X19042168Y-19116892D01*
X19241746Y-19209956D01*
X19454451Y-19266951D01*
X19673822Y-19286143D01*
X19893193Y-19266951D01*
X20105898Y-19209956D01*
X20305476Y-19116892D01*
X20451528Y-19014625D01*
X20481349Y-18993744D01*
X20481351Y-18993742D01*
X20485860Y-18990585D01*
X20641571Y-18834874D01*
X20687765Y-18768903D01*
X20764721Y-18658998D01*
X20764722Y-18658996D01*
X20767878Y-18654489D01*
X20770201Y-18649507D01*
X20770204Y-18649502D01*
X20858617Y-18459897D01*
X20860942Y-18454912D01*
X20917937Y-18242207D01*
X20937129Y-18022836D01*
X20917937Y-17803465D01*
X20860942Y-17590760D01*
X20809851Y-17481195D01*
X20770204Y-17396170D01*
X20770201Y-17396165D01*
X20767878Y-17391183D01*
X20764721Y-17386674D01*
X20644730Y-17215309D01*
X20644728Y-17215306D01*
X20641571Y-17210798D01*
X20485860Y-17055087D01*
X20305476Y-16928780D01*
X20105898Y-16835716D01*
X19893193Y-16778721D01*
X19673822Y-16759529D01*
X19454451Y-16778721D01*
X19241746Y-16835716D01*
X19148384Y-16879251D01*
X19047156Y-16926454D01*
X19047151Y-16926457D01*
X19042169Y-16928780D01*
X19037662Y-16931936D01*
X19037660Y-16931937D01*
X18866295Y-17051928D01*
X18866292Y-17051930D01*
X18861784Y-17055087D01*
X18706073Y-17210798D01*
X18702916Y-17215306D01*
X18702914Y-17215309D01*
X18582923Y-17386674D01*
X18579766Y-17391183D01*
X18577443Y-17396165D01*
X18577440Y-17396170D01*
X18537793Y-17481195D01*
X18486702Y-17590760D01*
X18429707Y-17803465D01*
X18410515Y-18022836D01*
X12859726Y-18022836D01*
X23555817Y-7326746D01*
X23618129Y-7292720D01*
X23688944Y-7297785D01*
X23748123Y-7343567D01*
X23757624Y-7357136D01*
X23919522Y-7519034D01*
X23924030Y-7522191D01*
X23924033Y-7522193D01*
X24001343Y-7576326D01*
X24107073Y-7650359D01*
X24112055Y-7652682D01*
X24112060Y-7652685D01*
X24146279Y-7668641D01*
X24199564Y-7715558D01*
X24219025Y-7783835D01*
X24198483Y-7851795D01*
X24146279Y-7897031D01*
X24112060Y-7912987D01*
X24112055Y-7912990D01*
X24107073Y-7915313D01*
X24002211Y-7988738D01*
X23924033Y-8043479D01*
X23924030Y-8043481D01*
X23919522Y-8046638D01*
X23757624Y-8208536D01*
X23626299Y-8396087D01*
X23623976Y-8401069D01*
X23623973Y-8401074D01*
X23534056Y-8593903D01*
X23529538Y-8603593D01*
X23528116Y-8608901D01*
X23528115Y-8608903D01*
X23485930Y-8766339D01*
X23470279Y-8824749D01*
X23450324Y-9052836D01*
X23470279Y-9280923D01*
X23471703Y-9286236D01*
X23471703Y-9286238D01*
X23526854Y-9492061D01*
X23529538Y-9502079D01*
X23531861Y-9507060D01*
X23531861Y-9507061D01*
X23623973Y-9704598D01*
X23623976Y-9704603D01*
X23626299Y-9709585D01*
X23629456Y-9714093D01*
X23749850Y-9886033D01*
X23757624Y-9897136D01*
X23919522Y-10059034D01*
X23924030Y-10062191D01*
X23924033Y-10062193D01*
X24002211Y-10116934D01*
X24107073Y-10190359D01*
X24112055Y-10192682D01*
X24112060Y-10192685D01*
X24146279Y-10208641D01*
X24199564Y-10255558D01*
X24219025Y-10323835D01*
X24198483Y-10391795D01*
X24146279Y-10437031D01*
X24112060Y-10452987D01*
X24112055Y-10452990D01*
X24107073Y-10455313D01*
X24002211Y-10528738D01*
X23924033Y-10583479D01*
X23924030Y-10583481D01*
X23919522Y-10586638D01*
X23757624Y-10748536D01*
X23626299Y-10936087D01*
X23623976Y-10941069D01*
X23623973Y-10941074D01*
X23534056Y-11133903D01*
X23529538Y-11143593D01*
X23470279Y-11364749D01*
X23450324Y-11592836D01*
X23470279Y-11820923D01*
X23471703Y-11826236D01*
X23471703Y-11826238D01*
X23526854Y-12032061D01*
X23529538Y-12042079D01*
X23531861Y-12047060D01*
X23531861Y-12047061D01*
X23623973Y-12244598D01*
X23623976Y-12244603D01*
X23626299Y-12249585D01*
X23699724Y-12354447D01*
X23749850Y-12426033D01*
X23757624Y-12437136D01*
X23919522Y-12599034D01*
X23924030Y-12602191D01*
X23924033Y-12602193D01*
X23983466Y-12643808D01*
X24107073Y-12730359D01*
X24112055Y-12732682D01*
X24112060Y-12732685D01*
X24146871Y-12748917D01*
X24200156Y-12795834D01*
X24219617Y-12864111D01*
X24199075Y-12932071D01*
X24146871Y-12977307D01*
X24112311Y-12993422D01*
X24102815Y-12998905D01*
X23924355Y-13123864D01*
X23915947Y-13130920D01*
X23761906Y-13284961D01*
X23754850Y-13293369D01*
X23629891Y-13471829D01*
X23624408Y-13481325D01*
X23532332Y-13678783D01*
X23528586Y-13689075D01*
X23482428Y-13861339D01*
X23482764Y-13875435D01*
X23490706Y-13878836D01*
X26031789Y-13878836D01*
X26045320Y-13874863D01*
X26046549Y-13866314D01*
X25999058Y-13689075D01*
X25995312Y-13678783D01*
X25903236Y-13481325D01*
X25897753Y-13471829D01*
X25772794Y-13293369D01*
X25765738Y-13284961D01*
X25611697Y-13130920D01*
X25603289Y-13123864D01*
X25424829Y-12998905D01*
X25415333Y-12993422D01*
X25380773Y-12977307D01*
X25327488Y-12930390D01*
X25308027Y-12862113D01*
X25328569Y-12794153D01*
X25380773Y-12748917D01*
X25415584Y-12732685D01*
X25415589Y-12732682D01*
X25420571Y-12730359D01*
X25544178Y-12643808D01*
X25603611Y-12602193D01*
X25603614Y-12602191D01*
X25608122Y-12599034D01*
X25770020Y-12437136D01*
X25777795Y-12426033D01*
X25827920Y-12354447D01*
X25901345Y-12249585D01*
X25903668Y-12244603D01*
X25903671Y-12244598D01*
X25995783Y-12047061D01*
X25995783Y-12047060D01*
X25998106Y-12042079D01*
X26000791Y-12032061D01*
X26055941Y-11826238D01*
X26055941Y-11826236D01*
X26057365Y-11820923D01*
X26077320Y-11592836D01*
X26057365Y-11364749D01*
X25998106Y-11143593D01*
X25993588Y-11133903D01*
X25903671Y-10941074D01*
X25903668Y-10941069D01*
X25901345Y-10936087D01*
X25770020Y-10748536D01*
X25608122Y-10586638D01*
X25603614Y-10583481D01*
X25603611Y-10583479D01*
X25525433Y-10528738D01*
X25420571Y-10455313D01*
X25415589Y-10452990D01*
X25415584Y-10452987D01*
X25381365Y-10437031D01*
X25328080Y-10390114D01*
X25308619Y-10321837D01*
X25329161Y-10253877D01*
X25381365Y-10208641D01*
X25415584Y-10192685D01*
X25415589Y-10192682D01*
X25420571Y-10190359D01*
X25525433Y-10116934D01*
X25603611Y-10062193D01*
X25603614Y-10062191D01*
X25608122Y-10059034D01*
X25770020Y-9897136D01*
X25777795Y-9886033D01*
X25898188Y-9714093D01*
X25901345Y-9709585D01*
X25903668Y-9704603D01*
X25903671Y-9704598D01*
X25995783Y-9507061D01*
X25995783Y-9507060D01*
X25998106Y-9502079D01*
X26000791Y-9492061D01*
X26055941Y-9286238D01*
X26055941Y-9286236D01*
X26057365Y-9280923D01*
X26077320Y-9052836D01*
X26057365Y-8824749D01*
X26041714Y-8766339D01*
X25999529Y-8608903D01*
X25999528Y-8608901D01*
X25998106Y-8603593D01*
X25993588Y-8593903D01*
X25903671Y-8401074D01*
X25903668Y-8401069D01*
X25901345Y-8396087D01*
X25770020Y-8208536D01*
X25608122Y-8046638D01*
X25603614Y-8043481D01*
X25603611Y-8043479D01*
X25525433Y-7988738D01*
X25420571Y-7915313D01*
X25415589Y-7912990D01*
X25415584Y-7912987D01*
X25381365Y-7897031D01*
X25328080Y-7850114D01*
X25308619Y-7781837D01*
X25329161Y-7713877D01*
X25381365Y-7668641D01*
X25415584Y-7652685D01*
X25415589Y-7652682D01*
X25420571Y-7650359D01*
X25526301Y-7576326D01*
X25603611Y-7522193D01*
X25603614Y-7522191D01*
X25608122Y-7519034D01*
X25770020Y-7357136D01*
X25777795Y-7346033D01*
X25827920Y-7274447D01*
X25901345Y-7169585D01*
X25903668Y-7164603D01*
X25903671Y-7164598D01*
X25995783Y-6967061D01*
X25995783Y-6967060D01*
X25998106Y-6962079D01*
X26000791Y-6952061D01*
X26055941Y-6746238D01*
X26055941Y-6746236D01*
X26057365Y-6740923D01*
X26077320Y-6512836D01*
X26057365Y-6284749D01*
X26041714Y-6226339D01*
X25999529Y-6068903D01*
X25999528Y-6068901D01*
X25998106Y-6063593D01*
X25993386Y-6053470D01*
X25903671Y-5861074D01*
X25903668Y-5861068D01*
X25901345Y-5856087D01*
X25770020Y-5668536D01*
X25608122Y-5506638D01*
X25603614Y-5503481D01*
X25603611Y-5503479D01*
X25480544Y-5417307D01*
X25420571Y-5375313D01*
X25415589Y-5372990D01*
X25415584Y-5372987D01*
X25381365Y-5357031D01*
X25328080Y-5310114D01*
X25308619Y-5241837D01*
X25329161Y-5173877D01*
X25381365Y-5128641D01*
X25415584Y-5112685D01*
X25415589Y-5112682D01*
X25420571Y-5110359D01*
X25525433Y-5036934D01*
X25603611Y-4982193D01*
X25603614Y-4982191D01*
X25608122Y-4979034D01*
X25770020Y-4817136D01*
X25783908Y-4797303D01*
X25898188Y-4634093D01*
X25901345Y-4629585D01*
X25903668Y-4624603D01*
X25903671Y-4624598D01*
X25995783Y-4427061D01*
X25995783Y-4427060D01*
X25998106Y-4422079D01*
X26000837Y-4411889D01*
X26055941Y-4206238D01*
X26055941Y-4206236D01*
X26057365Y-4200923D01*
X26077320Y-3972836D01*
X26057365Y-3744749D01*
X26041714Y-3686339D01*
X25999529Y-3528903D01*
X25999528Y-3528901D01*
X25998106Y-3523593D01*
X25984413Y-3494228D01*
X25903671Y-3321074D01*
X25903668Y-3321069D01*
X25901345Y-3316087D01*
X25770020Y-3128536D01*
X25608122Y-2966638D01*
X25603614Y-2963481D01*
X25603611Y-2963479D01*
X25518587Y-2903945D01*
X25420571Y-2835313D01*
X25415589Y-2832990D01*
X25415584Y-2832987D01*
X25381365Y-2817031D01*
X25328080Y-2770114D01*
X25308619Y-2701837D01*
X25329161Y-2633877D01*
X25381365Y-2588641D01*
X25415584Y-2572685D01*
X25415589Y-2572682D01*
X25420571Y-2570359D01*
X25525433Y-2496934D01*
X25603611Y-2442193D01*
X25603614Y-2442191D01*
X25608122Y-2439034D01*
X25770020Y-2277136D01*
X25901345Y-2089585D01*
X25903668Y-2084603D01*
X25903671Y-2084598D01*
X25995783Y-1887061D01*
X25995783Y-1887060D01*
X25998106Y-1882079D01*
X26057365Y-1660923D01*
X26077320Y-1432836D01*
X26057365Y-1204749D01*
X26005241Y-1010220D01*
X25999529Y-988903D01*
X25999528Y-988901D01*
X25998106Y-983593D01*
X25984986Y-955456D01*
X25903671Y-781074D01*
X25903668Y-781069D01*
X25901345Y-776087D01*
X25770020Y-588536D01*
X25608122Y-426638D01*
X25603611Y-423479D01*
X25599398Y-419944D01*
X25600349Y-418810D01*
X25560351Y-368765D01*
X25553046Y-298146D01*
X25585080Y-234787D01*
X25646284Y-198806D01*
X25663339Y-195754D01*
X25674138Y-194581D01*
X25810527Y-143451D01*
X25927083Y-56097D01*
X26014437Y60459D01*
X26065567Y196848D01*
X26072322Y259030D01*
X26072322Y1955298D01*
X26065567Y2017480D01*
X26014437Y2153869D01*
X25927083Y2270425D01*
X25810527Y2357779D01*
X25674138Y2408909D01*
X25611956Y2415664D01*
X23915688Y2415664D01*
X23853506Y2408909D01*
X23717117Y2357779D01*
X23600561Y2270425D01*
X23513207Y2153869D01*
X23462077Y2017480D01*
X23455322Y1955298D01*
X23455322Y259030D01*
X23462077Y196848D01*
X23513207Y60459D01*
X23600561Y-56097D01*
X23717117Y-143451D01*
X23853506Y-194581D01*
X23864296Y-195753D01*
X23866428Y-196639D01*
X23869044Y-197261D01*
X23868943Y-197684D01*
X23929857Y-222991D01*
X23970285Y-281353D01*
X23972744Y-352307D01*
X23936451Y-413326D01*
X23927791Y-420325D01*
X23924029Y-423482D01*
X23919522Y-426638D01*
X23757624Y-588536D01*
X23754467Y-593044D01*
X23754465Y-593047D01*
X23647641Y-745607D01*
X23592184Y-789935D01*
X23544428Y-799336D01*
X19742589Y-799336D01*
X19731406Y-798809D01*
X19723913Y-797134D01*
X19715987Y-797383D01*
X19715986Y-797383D01*
X19655823Y-799274D01*
X19651865Y-799336D01*
X19623966Y-799336D01*
X19619976Y-799840D01*
X19608142Y-800772D01*
X19563933Y-802162D01*
X19556319Y-804374D01*
X19556314Y-804375D01*
X19544481Y-807813D01*
X19525118Y-811824D01*
X19505025Y-814362D01*
X19497658Y-817279D01*
X19497653Y-817280D01*
X19463914Y-830638D01*
X19452687Y-834482D01*
X19410229Y-846818D01*
X19403403Y-850855D01*
X19392794Y-857129D01*
X19375046Y-865824D01*
X19356205Y-873284D01*
X19349789Y-877946D01*
X19349788Y-877946D01*
X19320435Y-899272D01*
X19310515Y-905788D01*
X19279287Y-924256D01*
X19279284Y-924258D01*
X19272460Y-928294D01*
X19258139Y-942615D01*
X19243106Y-955455D01*
X19226715Y-967364D01*
X19198524Y-1001441D01*
X19190534Y-1010220D01*
X5051569Y-15149184D01*
X5043283Y-15156724D01*
X5036804Y-15160836D01*
X5031379Y-15166613D01*
X4990179Y-15210487D01*
X4987424Y-15213329D01*
X4967687Y-15233066D01*
X4965207Y-15236263D01*
X4957504Y-15245283D01*
X4927236Y-15277515D01*
X4923417Y-15284461D01*
X4923415Y-15284464D01*
X4917474Y-15295270D01*
X4906623Y-15311789D01*
X4894208Y-15327795D01*
X4891063Y-15335064D01*
X4891060Y-15335068D01*
X4876648Y-15368373D01*
X4871431Y-15379023D01*
X4850127Y-15417776D01*
X4848156Y-15425451D01*
X4848156Y-15425452D01*
X4845089Y-15437398D01*
X4838685Y-15456102D01*
X4830641Y-15474691D01*
X4829402Y-15482514D01*
X4829399Y-15482524D01*
X4823723Y-15518360D01*
X4821317Y-15529980D01*
X4812294Y-15565125D01*
X4810322Y-15572806D01*
X4810322Y-15593060D01*
X4808771Y-15612770D01*
X4805602Y-15632779D01*
X4806348Y-15640671D01*
X4809763Y-15676797D01*
X4810322Y-15688655D01*
X4810322Y-29394528D01*
X4790320Y-29462649D01*
X4742505Y-29506289D01*
X4717429Y-29519343D01*
X4713296Y-29522446D01*
X4713293Y-29522448D01*
X4563060Y-29635246D01*
X4538787Y-29653471D01*
X4384451Y-29814974D01*
X4277023Y-29972457D01*
X4222115Y-30017457D01*
X4151590Y-30025628D01*
X4087843Y-29994374D01*
X4067146Y-29969890D01*
X3986644Y-29845453D01*
X3986642Y-29845450D01*
X3983836Y-29841113D01*
X3833492Y-29675887D01*
X3829441Y-29672688D01*
X3829437Y-29672684D01*
X3662236Y-29540636D01*
X3662232Y-29540634D01*
X3658181Y-29537434D01*
X3653653Y-29534934D01*
X3554072Y-29479963D01*
X3462611Y-29429474D01*
X3457742Y-29427750D01*
X3457738Y-29427748D01*
X3256909Y-29356631D01*
X3256905Y-29356630D01*
X3252034Y-29354905D01*
X3246941Y-29353998D01*
X3246938Y-29353997D01*
X3037195Y-29316636D01*
X3037189Y-29316635D01*
X3032106Y-29315730D01*
X2958274Y-29314828D01*
X2813903Y-29313064D01*
X2813901Y-29313064D01*
X2808733Y-29313001D01*
X2587913Y-29346791D01*
X2375578Y-29416193D01*
X2342245Y-29433545D01*
X2201797Y-29506658D01*
X2177429Y-29519343D01*
X2173296Y-29522446D01*
X2173293Y-29522448D01*
X2023060Y-29635246D01*
X1998787Y-29653471D01*
X1844451Y-29814974D01*
X1737023Y-29972457D01*
X1682115Y-30017457D01*
X1611590Y-30025628D01*
X1547843Y-29994374D01*
X1527146Y-29969890D01*
X1446644Y-29845453D01*
X1446642Y-29845450D01*
X1443836Y-29841113D01*
X1293492Y-29675887D01*
X1289441Y-29672688D01*
X1289437Y-29672684D01*
X1122236Y-29540636D01*
X1122232Y-29540634D01*
X1118181Y-29537434D01*
X1113653Y-29534934D01*
X1014072Y-29479963D01*
X922611Y-29429474D01*
X917742Y-29427750D01*
X917738Y-29427748D01*
X716909Y-29356631D01*
X716905Y-29356630D01*
X712034Y-29354905D01*
X706941Y-29353998D01*
X706938Y-29353997D01*
X497195Y-29316636D01*
X497189Y-29316635D01*
X492106Y-29315730D01*
X418274Y-29314828D01*
X273903Y-29313064D01*
X273901Y-29313064D01*
X268733Y-29313001D01*
X47913Y-29346791D01*
X-164422Y-29416193D01*
X-197755Y-29433545D01*
X-338203Y-29506658D01*
X-362571Y-29519343D01*
X-366704Y-29522446D01*
X-366707Y-29522448D01*
X-516940Y-29635246D01*
X-541213Y-29653471D01*
X-695549Y-29814974D01*
X-802977Y-29972457D01*
X-857885Y-30017457D01*
X-928410Y-30025628D01*
X-992157Y-29994374D01*
X-1012854Y-29969890D01*
X-1093356Y-29845453D01*
X-1093358Y-29845450D01*
X-1096164Y-29841113D01*
X-1246508Y-29675887D01*
X-1250559Y-29672688D01*
X-1250563Y-29672684D01*
X-1417764Y-29540636D01*
X-1417768Y-29540634D01*
X-1421819Y-29537434D01*
X-1426347Y-29534934D01*
X-1525928Y-29479963D01*
X-1617389Y-29429474D01*
X-1622258Y-29427750D01*
X-1622262Y-29427748D01*
X-1823091Y-29356631D01*
X-1823095Y-29356630D01*
X-1827966Y-29354905D01*
X-1833059Y-29353998D01*
X-1833062Y-29353997D01*
X-2042805Y-29316636D01*
X-2042811Y-29316635D01*
X-2047894Y-29315730D01*
X-2121726Y-29314828D01*
X-2266097Y-29313064D01*
X-2266099Y-29313064D01*
X-2271267Y-29313001D01*
X-2492087Y-29346791D01*
X-2704422Y-29416193D01*
X-2737755Y-29433545D01*
X-2878203Y-29506658D01*
X-2902571Y-29519343D01*
X-2906704Y-29522446D01*
X-2906707Y-29522448D01*
X-3056940Y-29635246D01*
X-3081213Y-29653471D01*
X-3235549Y-29814974D01*
X-3342977Y-29972457D01*
X-3397885Y-30017457D01*
X-3468410Y-30025628D01*
X-3532157Y-29994374D01*
X-3552854Y-29969890D01*
X-3633356Y-29845453D01*
X-3633358Y-29845450D01*
X-3636164Y-29841113D01*
X-3786508Y-29675887D01*
X-3790559Y-29672688D01*
X-3790563Y-29672684D01*
X-3957764Y-29540636D01*
X-3957768Y-29540634D01*
X-3961819Y-29537434D01*
X-3966347Y-29534934D01*
X-4065928Y-29479963D01*
X-4157389Y-29429474D01*
X-4162258Y-29427750D01*
X-4162262Y-29427748D01*
X-4363091Y-29356631D01*
X-4363095Y-29356630D01*
X-4367966Y-29354905D01*
X-4373059Y-29353998D01*
X-4373062Y-29353997D01*
X-4582805Y-29316636D01*
X-4582811Y-29316635D01*
X-4587894Y-29315730D01*
X-4661726Y-29314828D01*
X-4806097Y-29313064D01*
X-4806099Y-29313064D01*
X-4811267Y-29313001D01*
X-5032087Y-29346791D01*
X-5244422Y-29416193D01*
X-5277755Y-29433545D01*
X-5418203Y-29506658D01*
X-5442571Y-29519343D01*
X-5446704Y-29522446D01*
X-5446707Y-29522448D01*
X-5596940Y-29635246D01*
X-5621213Y-29653471D01*
X-5775549Y-29814974D01*
X-5778458Y-29819239D01*
X-5778464Y-29819247D01*
X-5809433Y-29864646D01*
X-5882974Y-29972454D01*
X-5883280Y-29972902D01*
X-5938191Y-30017905D01*
X-6008716Y-30026076D01*
X-6072463Y-29994822D01*
X-6093160Y-29970338D01*
X-6173752Y-29845762D01*
X-6180042Y-29837593D01*
X-6323372Y-29680076D01*
X-6330905Y-29673051D01*
X-6498039Y-29541058D01*
X-6506626Y-29535353D01*
X-6693061Y-29432435D01*
X-6702473Y-29428205D01*
X-6903219Y-29357116D01*
X-6913190Y-29354482D01*
X-6984341Y-29341808D01*
X-6997638Y-29343268D01*
X-7002178Y-29357825D01*
X-7002178Y-34531353D01*
X-7510178Y-34531353D01*
X-7510178Y-29355938D01*
X-7514096Y-29342594D01*
X-7528372Y-29340607D01*
X-7566854Y-29346496D01*
X-7576890Y-29348887D01*
X-7779310Y-29415048D01*
X-7788819Y-29419045D01*
X-7977715Y-29517378D01*
X-7986440Y-29522872D01*
X-8156745Y-29650741D01*
X-8164452Y-29657584D01*
X-8311588Y-29811553D01*
X-8318069Y-29819558D01*
X-8422680Y-29972910D01*
X-8477591Y-30017912D01*
X-8548116Y-30026083D01*
X-8611863Y-29994829D01*
X-8632560Y-29970345D01*
X-8713356Y-29845453D01*
X-8713358Y-29845450D01*
X-8716164Y-29841113D01*
X-8866508Y-29675887D01*
X-8870559Y-29672688D01*
X-8870563Y-29672684D01*
X-9037764Y-29540636D01*
X-9037768Y-29540634D01*
X-9041819Y-29537434D01*
X-9046347Y-29534934D01*
X-9145928Y-29479963D01*
X-9237389Y-29429474D01*
X-9242258Y-29427750D01*
X-9242262Y-29427748D01*
X-9443091Y-29356631D01*
X-9443095Y-29356630D01*
X-9447966Y-29354905D01*
X-9453059Y-29353998D01*
X-9453062Y-29353997D01*
X-9662805Y-29316636D01*
X-9662811Y-29316635D01*
X-9667894Y-29315730D01*
X-9741726Y-29314828D01*
X-9886097Y-29313064D01*
X-9886099Y-29313064D01*
X-9891267Y-29313001D01*
X-10112087Y-29346791D01*
X-10324422Y-29416193D01*
X-10357755Y-29433545D01*
X-10498203Y-29506658D01*
X-10522571Y-29519343D01*
X-10526704Y-29522446D01*
X-10526707Y-29522448D01*
X-10676940Y-29635246D01*
X-10701213Y-29653471D01*
X-10855549Y-29814974D01*
X-10858458Y-29819239D01*
X-10858464Y-29819247D01*
X-10889433Y-29864646D01*
X-10981435Y-29999516D01*
X-11075490Y-30202141D01*
X-11135189Y-30417406D01*
X-11158927Y-30639531D01*
X-23308178Y-30639531D01*
X-23308178Y6958780D01*
X-23288176Y7026901D01*
X-23234520Y7073394D01*
X-23164246Y7083498D01*
X-23099666Y7054004D01*
X-23064785Y7004549D01*
X-23056251Y6982661D01*
X-23054554Y6979456D01*
X-22911363Y6709015D01*
X-22893903Y6676038D01*
X-22891853Y6673055D01*
X-22891851Y6673052D01*
X-22699445Y6393100D01*
X-22699439Y6393093D01*
X-22697388Y6390108D01*
X-22469312Y6128659D01*
X-22466627Y6126216D01*
X-22256910Y5935389D01*
X-22212697Y5895158D01*
X-21930945Y5692698D01*
X-21627790Y5523964D01*
X-21307250Y5391192D01*
X-21303756Y5390197D01*
X-21303754Y5390196D01*
X-20977075Y5297139D01*
X-20977070Y5297138D01*
X-20973574Y5296142D01*
X-20776874Y5263931D01*
X-20634766Y5240660D01*
X-20634759Y5240659D01*
X-20631185Y5240074D01*
X-20457902Y5231902D01*
X-20288247Y5223901D01*
X-20288246Y5223901D01*
X-20284620Y5223730D01*
X-20275763Y5224334D01*
X-19942105Y5247080D01*
X-19942097Y5247081D01*
X-19938474Y5247328D01*
X-19934899Y5247991D01*
X-19934896Y5247991D01*
X-19600899Y5309894D01*
X-19600895Y5309895D01*
X-19597334Y5310555D01*
X-19265722Y5412572D01*
X-18948033Y5552028D01*
X-18703667Y5694823D01*
X-18651618Y5725238D01*
X-18651616Y5725239D01*
X-18648478Y5727073D01*
X-18645569Y5729257D01*
X-18373934Y5933206D01*
X-18373930Y5933209D01*
X-18371027Y5935389D01*
X-18119359Y6174214D01*
X-17896808Y6440381D01*
X-17875539Y6472759D01*
X-17800936Y6586333D01*
X-17706325Y6730365D01*
X-17557183Y7026901D01*
X-17552061Y7037084D01*
X-17552058Y7037092D01*
X-17550434Y7040320D01*
X-17451956Y7309423D01*
X-17432449Y7362727D01*
X-17432448Y7362731D01*
X-17431201Y7366138D01*
X-17430356Y7369660D01*
X-17430353Y7369668D01*
X-17351054Y7699973D01*
X-17351053Y7699977D01*
X-17350207Y7703502D01*
X-17349770Y7707112D01*
X-17308862Y8045160D01*
X-17308862Y8045167D01*
X-17308526Y8047939D01*
X-17302579Y8237164D01*
X-17302845Y8241780D01*
X-17322342Y8579918D01*
X-17322343Y8579923D01*
X-17322551Y8583538D01*
X-17346505Y8720790D01*
X-17381578Y8921749D01*
X-17381580Y8921756D01*
X-17382202Y8925322D01*
X-17480741Y9257984D01*
X-17541936Y9401455D01*
X-17615438Y9573778D01*
X-17615440Y9573781D01*
X-17616862Y9577116D01*
X-17666609Y9664333D01*
X-17786970Y9875348D01*
X-17788761Y9878488D01*
X-17994160Y10158104D01*
X-18230336Y10412260D01*
X-18494159Y10637586D01*
X-18782131Y10831095D01*
X-19090437Y10990224D01*
X-19414989Y11112862D01*
X-19418510Y11113746D01*
X-19418515Y11113748D01*
X-19579800Y11154260D01*
X-19751486Y11197384D01*
X-19773702Y11200309D01*
X-20091863Y11242196D01*
X-20091871Y11242197D01*
X-20095467Y11242670D01*
X-20240133Y11244943D01*
X-20438732Y11248063D01*
X-20438736Y11248063D01*
X-20442374Y11248120D01*
X-20445988Y11247759D01*
X-20445994Y11247759D01*
X-20689335Y11223470D01*
X-20787609Y11213661D01*
X-21126595Y11139750D01*
X-21130022Y11138577D01*
X-21130028Y11138575D01*
X-21208882Y11111577D01*
X-21454839Y11027367D01*
X-21767990Y10878001D01*
X-22061899Y10693632D01*
X-22064735Y10691360D01*
X-22064742Y10691355D01*
X-22308794Y10495832D01*
X-22332669Y10476705D01*
X-22576712Y10230093D01*
X-22578953Y10227235D01*
X-22635446Y10155186D01*
X-22790792Y9957066D01*
X-22792685Y9953977D01*
X-22792687Y9953974D01*
X-22838945Y9878488D01*
X-22972073Y9661243D01*
X-22973598Y9657958D01*
X-22973600Y9657954D01*
X-23067890Y9454822D01*
X-23114714Y9401455D01*
X-23182957Y9381874D01*
X-23250953Y9402297D01*
X-23297113Y9456240D01*
X-23308178Y9507872D01*
X-23308178Y11603164D01*
X-23288176Y11671285D01*
X-23234520Y11717778D01*
X-23182178Y11729164D01*
X53549822Y11729164D01*
X53617943Y11709162D01*
G37*
%TD.AperFunction*%
%TA.AperFunction,Conductor*%
G36*
X27057349Y-30026338D02*
G01*
X27078323Y-30043241D01*
X27473417Y-30438335D01*
X27507443Y-30500647D01*
X27510322Y-30527430D01*
X27510322Y-36350512D01*
X27490320Y-36418633D01*
X27442505Y-36462273D01*
X27417429Y-36475327D01*
X27413296Y-36478430D01*
X27413293Y-36478432D01*
X27242922Y-36606350D01*
X27238787Y-36609455D01*
X27213363Y-36636060D01*
X27145102Y-36707491D01*
X27084451Y-36770958D01*
X27081537Y-36775230D01*
X27081536Y-36775231D01*
X26976720Y-36928886D01*
X26921809Y-36973889D01*
X26851284Y-36982060D01*
X26787537Y-36950806D01*
X26766840Y-36926322D01*
X26686248Y-36801746D01*
X26679958Y-36793577D01*
X26536628Y-36636060D01*
X26529095Y-36629035D01*
X26361961Y-36497042D01*
X26353374Y-36491337D01*
X26166939Y-36388419D01*
X26157527Y-36384189D01*
X25956781Y-36313100D01*
X25946810Y-36310466D01*
X25875659Y-36297792D01*
X25862362Y-36299252D01*
X25857822Y-36313809D01*
X25857822Y-38947337D01*
X25861886Y-38961179D01*
X25875300Y-38963213D01*
X25882006Y-38962354D01*
X25892084Y-38960212D01*
X26096077Y-38899011D01*
X26105664Y-38895253D01*
X26296917Y-38801559D01*
X26305767Y-38796284D01*
X26479150Y-38672612D01*
X26487022Y-38665959D01*
X26637874Y-38515632D01*
X26644552Y-38507785D01*
X26771844Y-38330639D01*
X26773101Y-38331542D01*
X26820195Y-38288182D01*
X26890133Y-38275965D01*
X26955573Y-38303498D01*
X26983401Y-38335331D01*
X27043809Y-38433908D01*
X27190072Y-38602758D01*
X27361948Y-38745452D01*
X27554822Y-38858158D01*
X27763514Y-38937850D01*
X27768582Y-38938881D01*
X27768585Y-38938882D01*
X27863684Y-38958230D01*
X27982419Y-38982387D01*
X27987594Y-38982577D01*
X27987596Y-38982577D01*
X28200495Y-38990384D01*
X28200499Y-38990384D01*
X28205659Y-38990573D01*
X28210779Y-38989917D01*
X28210781Y-38989917D01*
X28422110Y-38962845D01*
X28422111Y-38962845D01*
X28427238Y-38962188D01*
X28432188Y-38960703D01*
X28636251Y-38899481D01*
X28636256Y-38899479D01*
X28641206Y-38897994D01*
X28694381Y-38871944D01*
X28764353Y-38859938D01*
X28829710Y-38887668D01*
X28869700Y-38946331D01*
X28875811Y-38985096D01*
X28875811Y-39532753D01*
X28855809Y-39600874D01*
X28838906Y-39621848D01*
X27245301Y-41215452D01*
X25660585Y-42800168D01*
X25652302Y-42807706D01*
X25645820Y-42811820D01*
X25640391Y-42817601D01*
X25634286Y-42822652D01*
X25633348Y-42821518D01*
X25588992Y-42849723D01*
X25524594Y-42870772D01*
X25494281Y-42886552D01*
X25350813Y-42961237D01*
X25326445Y-42973922D01*
X25322312Y-42977025D01*
X25322309Y-42977027D01*
X25298085Y-42995215D01*
X25147803Y-43108050D01*
X25144231Y-43111788D01*
X25050910Y-43209443D01*
X24993467Y-43269553D01*
X24886039Y-43427036D01*
X24831131Y-43472036D01*
X24760606Y-43480207D01*
X24696859Y-43448953D01*
X24676162Y-43424469D01*
X24595660Y-43300032D01*
X24595658Y-43300029D01*
X24592852Y-43295692D01*
X24442508Y-43130466D01*
X24438457Y-43127267D01*
X24438453Y-43127263D01*
X24271252Y-42995215D01*
X24271248Y-42995213D01*
X24267197Y-42992013D01*
X24262669Y-42989513D01*
X24146826Y-42925565D01*
X24071627Y-42884053D01*
X24066758Y-42882329D01*
X24066754Y-42882327D01*
X23865925Y-42811210D01*
X23865921Y-42811209D01*
X23861050Y-42809484D01*
X23855957Y-42808577D01*
X23855954Y-42808576D01*
X23646211Y-42771215D01*
X23646205Y-42771214D01*
X23641122Y-42770309D01*
X23567290Y-42769407D01*
X23422919Y-42767643D01*
X23422917Y-42767643D01*
X23417749Y-42767580D01*
X23196929Y-42801370D01*
X22984594Y-42870772D01*
X22954281Y-42886552D01*
X22810813Y-42961237D01*
X22786445Y-42973922D01*
X22782312Y-42977025D01*
X22782309Y-42977027D01*
X22758085Y-42995215D01*
X22607803Y-43108050D01*
X22604231Y-43111788D01*
X22510910Y-43209443D01*
X22453467Y-43269553D01*
X22346039Y-43427036D01*
X22291131Y-43472036D01*
X22220606Y-43480207D01*
X22156859Y-43448953D01*
X22136162Y-43424469D01*
X22055660Y-43300032D01*
X22055658Y-43300029D01*
X22052852Y-43295692D01*
X21902508Y-43130466D01*
X21898457Y-43127267D01*
X21898453Y-43127263D01*
X21731252Y-42995215D01*
X21731248Y-42995213D01*
X21727197Y-42992013D01*
X21722669Y-42989513D01*
X21606826Y-42925565D01*
X21531627Y-42884053D01*
X21526758Y-42882329D01*
X21526754Y-42882327D01*
X21325925Y-42811210D01*
X21325921Y-42811209D01*
X21321050Y-42809484D01*
X21315957Y-42808577D01*
X21315954Y-42808576D01*
X21106211Y-42771215D01*
X21106205Y-42771214D01*
X21101122Y-42770309D01*
X21027290Y-42769407D01*
X20882919Y-42767643D01*
X20882917Y-42767643D01*
X20877749Y-42767580D01*
X20656929Y-42801370D01*
X20444594Y-42870772D01*
X20414281Y-42886552D01*
X20270813Y-42961237D01*
X20246445Y-42973922D01*
X20242312Y-42977025D01*
X20242309Y-42977027D01*
X20218085Y-42995215D01*
X20067803Y-43108050D01*
X20064231Y-43111788D01*
X19970910Y-43209443D01*
X19913467Y-43269553D01*
X19806039Y-43427036D01*
X19751131Y-43472036D01*
X19680606Y-43480207D01*
X19616859Y-43448953D01*
X19596162Y-43424469D01*
X19515660Y-43300032D01*
X19515658Y-43300029D01*
X19512852Y-43295692D01*
X19362508Y-43130466D01*
X19358457Y-43127267D01*
X19358453Y-43127263D01*
X19191252Y-42995215D01*
X19191248Y-42995213D01*
X19187197Y-42992013D01*
X19182673Y-42989516D01*
X19182669Y-42989513D01*
X19131446Y-42961237D01*
X19081474Y-42910805D01*
X19066338Y-42850928D01*
X19066338Y-37896786D01*
X24272079Y-37896786D01*
X24302387Y-38031266D01*
X24305467Y-38041095D01*
X24385592Y-38238423D01*
X24390235Y-38247614D01*
X24501516Y-38429208D01*
X24507599Y-38437519D01*
X24647035Y-38598487D01*
X24654402Y-38605703D01*
X24818256Y-38741736D01*
X24826703Y-38747651D01*
X25010578Y-38855099D01*
X25019864Y-38859549D01*
X25218823Y-38935523D01*
X25228721Y-38938399D01*
X25332072Y-38959426D01*
X25346121Y-38958230D01*
X25349822Y-38947885D01*
X25349822Y-37900935D01*
X25345347Y-37885696D01*
X25343957Y-37884491D01*
X25336274Y-37882820D01*
X24287047Y-37882820D01*
X24273516Y-37886793D01*
X24272079Y-37896786D01*
X19066338Y-37896786D01*
X19066338Y-37363003D01*
X24268211Y-37363003D01*
X24269734Y-37371427D01*
X24282114Y-37374820D01*
X25331707Y-37374820D01*
X25346946Y-37370345D01*
X25348151Y-37368955D01*
X25349822Y-37361272D01*
X25349822Y-36311922D01*
X25345904Y-36298578D01*
X25331628Y-36296591D01*
X25293146Y-36302480D01*
X25283110Y-36304871D01*
X25080690Y-36371032D01*
X25071181Y-36375029D01*
X24882285Y-36473362D01*
X24873560Y-36478856D01*
X24703255Y-36606725D01*
X24695548Y-36613568D01*
X24548412Y-36767537D01*
X24541926Y-36775547D01*
X24421920Y-36951469D01*
X24416822Y-36960443D01*
X24327160Y-37153603D01*
X24323597Y-37163290D01*
X24268211Y-37363003D01*
X19066338Y-37363003D01*
X19066338Y-35998414D01*
X19086340Y-35930293D01*
X19103243Y-35909319D01*
X22429321Y-32583241D01*
X22491633Y-32549215D01*
X22518416Y-32546336D01*
X23544428Y-32546336D01*
X23612549Y-32566338D01*
X23647641Y-32600065D01*
X23757624Y-32757136D01*
X23919522Y-32919034D01*
X23924030Y-32922191D01*
X23924033Y-32922193D01*
X23953456Y-32942795D01*
X24107073Y-33050359D01*
X24112055Y-33052682D01*
X24112060Y-33052685D01*
X24297648Y-33139225D01*
X24314579Y-33147120D01*
X24319887Y-33148542D01*
X24319889Y-33148543D01*
X24530420Y-33204955D01*
X24530422Y-33204955D01*
X24535735Y-33206379D01*
X24763822Y-33226334D01*
X24991909Y-33206379D01*
X24997222Y-33204955D01*
X24997224Y-33204955D01*
X25207755Y-33148543D01*
X25207757Y-33148542D01*
X25213065Y-33147120D01*
X25229996Y-33139225D01*
X25415584Y-33052685D01*
X25415589Y-33052682D01*
X25420571Y-33050359D01*
X25574188Y-32942795D01*
X25603611Y-32922193D01*
X25603614Y-32922191D01*
X25608122Y-32919034D01*
X25770020Y-32757136D01*
X25901345Y-32569585D01*
X25903668Y-32564603D01*
X25903671Y-32564598D01*
X25995783Y-32367061D01*
X25995783Y-32367060D01*
X25998106Y-32362079D01*
X26025358Y-32260376D01*
X26055941Y-32146238D01*
X26055941Y-32146236D01*
X26057365Y-32140923D01*
X26077320Y-31912836D01*
X26057365Y-31684749D01*
X26021829Y-31552128D01*
X25999529Y-31468903D01*
X25999528Y-31468901D01*
X25998106Y-31463593D01*
X25990538Y-31447364D01*
X25903671Y-31261074D01*
X25903668Y-31261069D01*
X25901345Y-31256087D01*
X25802974Y-31115599D01*
X25773179Y-31073047D01*
X25773177Y-31073044D01*
X25770020Y-31068536D01*
X25608122Y-30906638D01*
X25603614Y-30903481D01*
X25603611Y-30903479D01*
X25525433Y-30848738D01*
X25420571Y-30775313D01*
X25415589Y-30772990D01*
X25415584Y-30772987D01*
X25381365Y-30757031D01*
X25328080Y-30710114D01*
X25308619Y-30641837D01*
X25329161Y-30573877D01*
X25381365Y-30528641D01*
X25415584Y-30512685D01*
X25415589Y-30512682D01*
X25420571Y-30510359D01*
X25553321Y-30417406D01*
X25603611Y-30382193D01*
X25603614Y-30382191D01*
X25608122Y-30379034D01*
X25770020Y-30217136D01*
X25773179Y-30212625D01*
X25880003Y-30060065D01*
X25935460Y-30015737D01*
X25983216Y-30006336D01*
X26989228Y-30006336D01*
X27057349Y-30026338D01*
G37*
%TD.AperFunction*%
%TD*%
M02*
