M48
; DRILL file {KiCad (6.0.1)} date Mon Feb 14 23:43:34 2022
; FORMAT={-:-/ absolute / inch / decimal}
; #@! TF.CreationDate,2022-02-14T23:43:34+08:00
; #@! TF.GenerationSoftware,Kicad,Pcbnew,(6.0.1)
; #@! TF.FileFunction,Plated,1,2,PTH
FMAT,2
INCH
; #@! TA.AperFunction,Plated,PTH,ViaDrill
T1C0.0157
; #@! TA.AperFunction,Plated,PTH,ComponentDrill
T2C0.0315
; #@! TA.AperFunction,Plated,PTH,ComponentDrill
T3C0.0394
; #@! TA.AperFunction,Plated,PTH,ViaDrill
T4C0.1181
%
G90
G05
T1
X0.35Y-1.95
X0.6746Y-0.006
X0.6934Y-1.3871
X0.8246Y-1.256
X1.0561Y-1.2423
X1.1046Y-0.4766
X1.3Y-2.15
X1.5746Y-0.906
X1.5746Y-1.606
X1.7246Y-1.606
X1.8107Y-1.6995
T2
X0.7746Y-0.7096
X0.7746Y-0.9017
X0.975Y0.0436
X0.975Y-0.0564
X0.975Y-0.1564
X0.975Y-0.2564
X0.975Y-0.3564
X0.975Y-0.4564
X0.975Y-0.5564
X0.975Y-0.6564
X0.975Y-0.7564
X0.975Y-0.8564
X0.975Y-0.9564
X0.975Y-1.0564
X0.975Y-1.1564
X0.975Y-1.2564
X1.275Y0.0436
X1.275Y-0.0564
X1.275Y-0.1564
X1.275Y-0.2564
X1.275Y-0.3564
X1.275Y-0.4564
X1.275Y-0.5564
X1.275Y-0.6564
X1.275Y-0.7564
X1.275Y-0.8564
X1.275Y-0.9564
X1.275Y-1.0564
X1.275Y-1.1564
X1.275Y-1.2564
X1.525Y-0.1558
X1.525Y-0.2558
X1.525Y-0.3558
X1.525Y-0.4558
X1.525Y-0.5558
X1.525Y-0.6558
X1.525Y-0.7558
X1.825Y-0.1558
X1.825Y-0.2558
X1.825Y-0.3558
X1.825Y-0.4558
X1.825Y-0.5558
X1.825Y-0.6558
X1.825Y-0.7558
T3
X-0.3857Y-1.2076
X-0.3857Y-1.3076
X-0.2857Y-1.2076
X-0.2857Y-1.3076
X-0.1857Y-1.2076
X-0.1857Y-1.3076
X-0.0857Y-1.2076
X-0.0857Y-1.3076
X0.0143Y-1.2076
X0.0143Y-1.3076
X0.1143Y-1.2076
X0.1143Y-1.3076
X0.2143Y-1.2076
X0.2143Y-1.3076
X0.3143Y-1.2076
X0.3143Y-1.3076
X0.3708Y-1.4814
X0.4708Y-1.4814
X0.5708Y-1.4814
X0.7257Y-1.7373
X0.7257Y-1.8373
X0.8257Y-1.7373
X0.8257Y-1.8373
X0.9257Y-1.7373
X0.9257Y-1.8373
X0.9894Y0.3052
X1.008Y-1.4814
X1.0257Y-1.7373
X1.0257Y-1.8373
X1.0894Y0.3052
X1.108Y-1.4814
X1.1257Y-1.7373
X1.1257Y-1.8373
X1.1894Y0.3052
X1.208Y-1.4814
X1.2257Y-1.7373
X1.2257Y-1.8373
X1.2894Y0.3052
X1.3257Y-1.7373
X1.3257Y-1.8373
X1.4257Y-1.7373
X1.4257Y-1.8373
X1.5257Y-1.7373
X1.5257Y-1.8373
X1.6257Y-1.7373
X1.6257Y-1.8373
X1.658Y-1.4814
X1.758Y-1.4814
X1.858Y-1.4814
T4
X-0.7998Y0.3243
X-0.7998Y-2.1166
X1.9757Y0.3243
X1.9757Y-2.1166
T0
M30
