%TF.GenerationSoftware,KiCad,Pcbnew,(6.0.1)*%
%TF.CreationDate,2022-02-14T23:43:43+08:00*%
%TF.ProjectId,SDisk2_Simple,53446973-6b32-45f5-9369-6d706c652e6b,rev?*%
%TF.SameCoordinates,Original*%
%TF.FileFunction,Copper,L1,Top*%
%TF.FilePolarity,Positive*%
%FSLAX46Y46*%
G04 Gerber Fmt 4.6, Leading zero omitted, Abs format (unit mm)*
G04 Created by KiCad (PCBNEW (6.0.1)) date 2022-02-14 23:43:43*
%MOMM*%
%LPD*%
G01*
G04 APERTURE LIST*
G04 Aperture macros list*
%AMRoundRect*
0 Rectangle with rounded corners*
0 $1 Rounding radius*
0 $2 $3 $4 $5 $6 $7 $8 $9 X,Y pos of 4 corners*
0 Add a 4 corners polygon primitive as box body*
4,1,4,$2,$3,$4,$5,$6,$7,$8,$9,$2,$3,0*
0 Add four circle primitives for the rounded corners*
1,1,$1+$1,$2,$3*
1,1,$1+$1,$4,$5*
1,1,$1+$1,$6,$7*
1,1,$1+$1,$8,$9*
0 Add four rect primitives between the rounded corners*
20,1,$1+$1,$2,$3,$4,$5,0*
20,1,$1+$1,$4,$5,$6,$7,0*
20,1,$1+$1,$6,$7,$8,$9,0*
20,1,$1+$1,$8,$9,$2,$3,0*%
G04 Aperture macros list end*
%TA.AperFunction,ComponentPad*%
%ADD10R,1.700000X1.700000*%
%TD*%
%TA.AperFunction,ComponentPad*%
%ADD11O,1.700000X1.700000*%
%TD*%
%TA.AperFunction,SMDPad,CuDef*%
%ADD12RoundRect,0.250000X-0.262500X-0.450000X0.262500X-0.450000X0.262500X0.450000X-0.262500X0.450000X0*%
%TD*%
%TA.AperFunction,ComponentPad*%
%ADD13R,1.600000X1.600000*%
%TD*%
%TA.AperFunction,ComponentPad*%
%ADD14O,1.600000X1.600000*%
%TD*%
%TA.AperFunction,SMDPad,CuDef*%
%ADD15RoundRect,0.250000X0.250000X0.475000X-0.250000X0.475000X-0.250000X-0.475000X0.250000X-0.475000X0*%
%TD*%
%TA.AperFunction,SMDPad,CuDef*%
%ADD16RoundRect,0.250000X0.262500X0.450000X-0.262500X0.450000X-0.262500X-0.450000X0.262500X-0.450000X0*%
%TD*%
%TA.AperFunction,ComponentPad*%
%ADD17C,1.500000*%
%TD*%
%TA.AperFunction,SMDPad,CuDef*%
%ADD18RoundRect,0.250000X0.475000X-0.250000X0.475000X0.250000X-0.475000X0.250000X-0.475000X-0.250000X0*%
%TD*%
%TA.AperFunction,ComponentPad*%
%ADD19RoundRect,0.250000X0.600000X-0.600000X0.600000X0.600000X-0.600000X0.600000X-0.600000X-0.600000X0*%
%TD*%
%TA.AperFunction,ComponentPad*%
%ADD20C,1.700000*%
%TD*%
%TA.AperFunction,ViaPad*%
%ADD21C,0.800000*%
%TD*%
%TA.AperFunction,ViaPad*%
%ADD22C,5.000000*%
%TD*%
%TA.AperFunction,Conductor*%
%ADD23C,0.250000*%
%TD*%
G04 APERTURE END LIST*
D10*
%TO.P,U3,1,GND*%
%TO.N,GND*%
X-9796178Y-33212836D03*
D11*
X-9796178Y-30672836D03*
%TO.P,U3,2,3.3v*%
%TO.N,VCC*%
X-7256178Y-30672836D03*
X-7256178Y-33212836D03*
%TO.P,U3,3,+5V*%
%TO.N,+5V*%
X-4716178Y-30672836D03*
X-4716178Y-33212836D03*
%TO.P,U3,4,~{CS}*%
%TO.N,/SD_CS{slash}CS*%
X-2176178Y-33212836D03*
X-2176178Y-30672836D03*
%TO.P,U3,5,MOSI*%
%TO.N,/SD_DI{slash}MOSI*%
X363822Y-33212836D03*
X363822Y-30672836D03*
%TO.P,U3,6,SCK*%
%TO.N,/SD_CLK{slash}CLK*%
X2903822Y-33212836D03*
X2903822Y-30672836D03*
%TO.P,U3,7,MISO*%
%TO.N,/SD_DO{slash}MISO*%
X5443822Y-33212836D03*
X5443822Y-30672836D03*
%TO.P,U3,8,GND*%
%TO.N,GND*%
X7983822Y-33212836D03*
X7983822Y-30672836D03*
%TD*%
D12*
%TO.P,R6,1*%
%TO.N,VCC*%
X20031322Y-3962836D03*
%TO.P,R6,2*%
%TO.N,/SD_Eject*%
X21856322Y-3962836D03*
%TD*%
D13*
%TO.P,U1,1*%
%TO.N,/DRIVE_EN*%
X38733822Y-3957836D03*
D14*
%TO.P,U1,2*%
%TO.N,Net-(U1-Pad2)*%
X38733822Y-6497836D03*
%TO.P,U1,3*%
%TO.N,/RD_PLUSE*%
X38733822Y-9037836D03*
%TO.P,U1,4*%
%TO.N,/DRIVE_EN*%
X38733822Y-11577836D03*
%TO.P,U1,5*%
%TO.N,Net-(U1-Pad5)*%
X38733822Y-14117836D03*
%TO.P,U1,6*%
%TO.N,/W_PROTECT*%
X38733822Y-16657836D03*
%TO.P,U1,7,GND*%
%TO.N,GND*%
X38733822Y-19197836D03*
%TO.P,U1,8*%
%TO.N,unconnected-(U1-Pad8)*%
X46353822Y-19197836D03*
%TO.P,U1,9*%
%TO.N,VCC*%
X46353822Y-16657836D03*
%TO.P,U1,10*%
X46353822Y-14117836D03*
%TO.P,U1,11*%
%TO.N,unconnected-(U1-Pad11)*%
X46353822Y-11577836D03*
%TO.P,U1,12*%
%TO.N,VCC*%
X46353822Y-9037836D03*
%TO.P,U1,13*%
X46353822Y-6497836D03*
%TO.P,U1,14,VCC*%
X46353822Y-3957836D03*
%TD*%
D15*
%TO.P,C6,1*%
%TO.N,Net-(C6-Pad1)*%
X19353822Y-12852836D03*
%TO.P,C6,2*%
%TO.N,GND*%
X17453822Y-12852836D03*
%TD*%
D16*
%TO.P,R5,1*%
%TO.N,/RD_PLUSE*%
X37470103Y-51644541D03*
%TO.P,R5,2*%
%TO.N,GND*%
X35645103Y-51644541D03*
%TD*%
D17*
%TO.P,Y1,1,1*%
%TO.N,Net-(C6-Pad1)*%
X19673822Y-18022836D03*
%TO.P,Y1,2,2*%
%TO.N,Net-(C7-Pad1)*%
X19673822Y-22902836D03*
%TD*%
D18*
%TO.P,C1,1*%
%TO.N,VCC*%
X46343822Y-1102836D03*
%TO.P,C1,2*%
%TO.N,GND*%
X46343822Y797164D03*
%TD*%
D16*
%TO.P,R1,1*%
%TO.N,Net-(R1-Pad1)*%
X21856322Y-152836D03*
%TO.P,R1,2*%
%TO.N,VCC*%
X20031322Y-152836D03*
%TD*%
D13*
%TO.P,U2,1,~{RESET}/PC6*%
%TO.N,Net-(R1-Pad1)*%
X24763822Y1107164D03*
D14*
%TO.P,U2,2,PD0*%
%TO.N,/SD_DO{slash}MISO*%
X24763822Y-1432836D03*
%TO.P,U2,3,PD1*%
%TO.N,/SD_Eject*%
X24763822Y-3972836D03*
%TO.P,U2,4,PD2*%
%TO.N,/W_REQUEST*%
X24763822Y-6512836D03*
%TO.P,U2,5,PD3*%
%TO.N,/SD_DI{slash}MOSI*%
X24763822Y-9052836D03*
%TO.P,U2,6,PD4*%
%TO.N,/SD_CS{slash}CS*%
X24763822Y-11592836D03*
%TO.P,U2,7,VCC*%
%TO.N,VCC*%
X24763822Y-14132836D03*
%TO.P,U2,8,GND*%
%TO.N,GND*%
X24763822Y-16672836D03*
%TO.P,U2,9,XTAL1/PB6*%
%TO.N,Net-(C6-Pad1)*%
X24763822Y-19212836D03*
%TO.P,U2,10,XTAL2/PB7*%
%TO.N,Net-(C7-Pad1)*%
X24763822Y-21752836D03*
%TO.P,U2,11,PD5*%
%TO.N,/SD_CLK{slash}CLK*%
X24763822Y-24292836D03*
%TO.P,U2,12,PD6*%
%TO.N,/BT_ENTER*%
X24763822Y-26832836D03*
%TO.P,U2,13,PD7*%
%TO.N,/BT_DOWN*%
X24763822Y-29372836D03*
%TO.P,U2,14,PB0*%
%TO.N,/STEP 0*%
X24763822Y-31912836D03*
%TO.P,U2,15,PB1*%
%TO.N,/STEP 1*%
X32383822Y-31912836D03*
%TO.P,U2,16,PB2*%
%TO.N,/STEP 2*%
X32383822Y-29372836D03*
%TO.P,U2,17,PB3*%
%TO.N,/STEP 3*%
X32383822Y-26832836D03*
%TO.P,U2,18,PB4*%
%TO.N,Net-(R4-Pad1)*%
X32383822Y-24292836D03*
%TO.P,U2,19,PB5*%
%TO.N,/BT_UP*%
X32383822Y-21752836D03*
%TO.P,U2,20,AVCC*%
%TO.N,VCC*%
X32383822Y-19212836D03*
%TO.P,U2,21,AREF*%
%TO.N,GND*%
X32383822Y-16672836D03*
%TO.P,U2,22,GND*%
X32383822Y-14132836D03*
%TO.P,U2,23,PC0*%
%TO.N,/DRIVE_EN*%
X32383822Y-11592836D03*
%TO.P,U2,24,PC1*%
%TO.N,Net-(U1-Pad2)*%
X32383822Y-9052836D03*
%TO.P,U2,25,PC2*%
%TO.N,/WRITE*%
X32383822Y-6512836D03*
%TO.P,U2,26,PC3*%
%TO.N,Net-(U1-Pad5)*%
X32383822Y-3972836D03*
%TO.P,U2,27,PC4*%
%TO.N,/SCL*%
X32383822Y-1432836D03*
%TO.P,U2,28,PC5*%
%TO.N,/SDA*%
X32383822Y1107164D03*
%TD*%
D16*
%TO.P,R3,1*%
%TO.N,/W_PROTECT*%
X42798074Y-51644541D03*
%TO.P,R3,2*%
%TO.N,GND*%
X40973074Y-51644541D03*
%TD*%
D19*
%TO.P,J2,1,Pin_1*%
%TO.N,GND*%
X18432838Y-46667415D03*
D20*
%TO.P,J2,2,Pin_2*%
%TO.N,/STEP 0*%
X18432838Y-44127415D03*
%TO.P,J2,3,Pin_3*%
%TO.N,unconnected-(J2-Pad3)*%
X20972838Y-46667415D03*
%TO.P,J2,4,Pin_4*%
%TO.N,/STEP 1*%
X20972838Y-44127415D03*
%TO.P,J2,5,Pin_5*%
%TO.N,unconnected-(J2-Pad5)*%
X23512838Y-46667415D03*
%TO.P,J2,6,Pin_6*%
%TO.N,/STEP 2*%
X23512838Y-44127415D03*
%TO.P,J2,7,Pin_7*%
%TO.N,unconnected-(J2-Pad7)*%
X26052838Y-46667415D03*
%TO.P,J2,8,Pin_8*%
%TO.N,/STEP 3*%
X26052838Y-44127415D03*
%TO.P,J2,9,Pin_9*%
%TO.N,unconnected-(J2-Pad9)*%
X28592838Y-46667415D03*
%TO.P,J2,10,Pin_10*%
%TO.N,/W_REQUEST*%
X28592838Y-44127415D03*
%TO.P,J2,11,Pin_11*%
%TO.N,unconnected-(J2-Pad11)*%
X31132838Y-46667415D03*
%TO.P,J2,12,Pin_12*%
%TO.N,+5V*%
X31132838Y-44127415D03*
%TO.P,J2,13,Pin_13*%
%TO.N,unconnected-(J2-Pad13)*%
X33672838Y-46667415D03*
%TO.P,J2,14,Pin_14*%
%TO.N,/DRIVE_EN*%
X33672838Y-44127415D03*
%TO.P,J2,15,Pin_15*%
%TO.N,unconnected-(J2-Pad15)*%
X36212838Y-46667415D03*
%TO.P,J2,16,Pin_16*%
%TO.N,/RD_PLUSE*%
X36212838Y-44127415D03*
%TO.P,J2,17,Pin_17*%
%TO.N,unconnected-(J2-Pad17)*%
X38752838Y-46667415D03*
%TO.P,J2,18,Pin_18*%
%TO.N,/WRITE*%
X38752838Y-44127415D03*
%TO.P,J2,19,Pin_19*%
%TO.N,unconnected-(J2-Pad19)*%
X41292838Y-46667415D03*
%TO.P,J2,20,Pin_20*%
%TO.N,/W_PROTECT*%
X41292838Y-44127415D03*
%TD*%
D15*
%TO.P,C7,1*%
%TO.N,Net-(C7-Pad1)*%
X19353822Y-28092836D03*
%TO.P,C7,2*%
%TO.N,GND*%
X17453822Y-28092836D03*
%TD*%
D16*
%TO.P,R2,1*%
%TO.N,VCC*%
X31595161Y-51644541D03*
%TO.P,R2,2*%
%TO.N,/W_REQUEST*%
X29770161Y-51644541D03*
%TD*%
D10*
%TO.P,U4,1,GND*%
%TO.N,GND*%
X47193822Y-37628820D03*
D11*
%TO.P,U4,2,I/O*%
%TO.N,/BT_UP*%
X44653822Y-37628820D03*
%TO.P,U4,3,VCC*%
%TO.N,VCC*%
X42113822Y-37628820D03*
%TD*%
D10*
%TO.P,U5,1,GND*%
%TO.N,GND*%
X30683822Y-37628820D03*
D11*
%TO.P,U5,2,I/O*%
%TO.N,/BT_DOWN*%
X28143822Y-37628820D03*
%TO.P,U5,3,VCC*%
%TO.N,VCC*%
X25603822Y-37628820D03*
%TD*%
D10*
%TO.P,U6,1,GND*%
%TO.N,GND*%
X14498822Y-37628820D03*
D11*
%TO.P,U6,2,I/O*%
%TO.N,/BT_ENTER*%
X11958822Y-37628820D03*
%TO.P,U6,3,VCC*%
%TO.N,VCC*%
X9418822Y-37628820D03*
%TD*%
D10*
%TO.P,U7,1,VCC*%
%TO.N,VCC*%
X32751322Y7753186D03*
D11*
%TO.P,U7,2,GND*%
%TO.N,GND*%
X30211322Y7753186D03*
%TO.P,U7,3,SCL*%
%TO.N,/SCL*%
X27671322Y7753186D03*
%TO.P,U7,4,SDA*%
%TO.N,/SDA*%
X25131322Y7753186D03*
%TD*%
D21*
%TO.N,VCC*%
X33020000Y-54610000D03*
X26824399Y-31553433D03*
X17133822Y-152836D03*
D22*
%TO.N,GND*%
X50183822Y8237164D03*
X-20316178Y8237164D03*
X-20316178Y-53762836D03*
D21*
X28058063Y-12106864D03*
X39993822Y-40792836D03*
X43803822Y-40792836D03*
D22*
X50183822Y-53762836D03*
D21*
%TO.N,+5V*%
X8890000Y-49530000D03*
%TO.N,/WRITE*%
X39993822Y-23012836D03*
%TO.N,/W_PROTECT*%
X45992675Y-43168494D03*
%TO.N,/SD_CLK{slash}CLK*%
X17613306Y-35233352D03*
X20943822Y-31902836D03*
%TD*%
D23*
%TO.N,VCC*%
X-7256178Y-30672836D02*
X-7256178Y-33212836D01*
X31595161Y-51644541D02*
X33020000Y-53069380D01*
X33020000Y-53069380D02*
X33020000Y-54610000D01*
X26824399Y-31553433D02*
X26835315Y-31542517D01*
X20031322Y-152836D02*
X17133822Y-152836D01*
X46353822Y-1112836D02*
X46353822Y-3957836D01*
X20031322Y-3962836D02*
X20031322Y-152836D01*
X26835315Y-24761343D02*
X32383822Y-19212836D01*
X26835315Y-31542517D02*
X26835315Y-24761343D01*
%TO.N,GND*%
X39993822Y-40792836D02*
X43803822Y-40792836D01*
%TO.N,+5V*%
X-4716178Y-46083822D02*
X-1270000Y-49530000D01*
X-4716178Y-33212836D02*
X-4716178Y-46083822D01*
X-1270000Y-49530000D02*
X8890000Y-49530000D01*
%TO.N,/STEP 1*%
X20972838Y-44127415D02*
X20972838Y-36953820D01*
X29853822Y-34442836D02*
X32383822Y-31912836D01*
X23483822Y-34442836D02*
X29853822Y-34442836D01*
X20972838Y-36953820D02*
X23483822Y-34442836D01*
%TO.N,/STEP 2*%
X33508333Y-30497347D02*
X32383822Y-29372836D01*
X23512838Y-42261207D02*
X24981209Y-40792836D01*
X32373822Y-40792836D02*
X33508333Y-39658325D01*
X24981209Y-40792836D02*
X32373822Y-40792836D01*
X33508333Y-39658325D02*
X33508333Y-30497347D01*
X23512838Y-44127415D02*
X23512838Y-42261207D01*
%TO.N,/W_REQUEST*%
X28592838Y-44127415D02*
X29879936Y-45414513D01*
X29879936Y-45414513D02*
X29879936Y-51534766D01*
%TO.N,/DRIVE_EN*%
X41263822Y-10312836D02*
X39993822Y-11582836D01*
X31794347Y-11592836D02*
X30830901Y-10629390D01*
X38733822Y-3226939D02*
X38733822Y-3957836D01*
X33672838Y-44127415D02*
X34522838Y-43277415D01*
X38177917Y-2671034D02*
X38733822Y-3226939D01*
X38733822Y-3957836D02*
X39988822Y-3957836D01*
X39993822Y-11582836D02*
X39988822Y-11577836D01*
X30830901Y-10629390D02*
X30830901Y-3457044D01*
X34522838Y-13731852D02*
X32383822Y-11592836D01*
X31616911Y-2671034D02*
X38177917Y-2671034D01*
X39988822Y-11577836D02*
X38733822Y-11577836D01*
X39988822Y-3957836D02*
X41263822Y-5232836D01*
X41263822Y-5232836D02*
X41263822Y-10312836D01*
X30830901Y-3457044D02*
X31616911Y-2671034D01*
X34522838Y-43277415D02*
X34522838Y-13731852D01*
%TO.N,/RD_PLUSE*%
X37470103Y-45384680D02*
X37470103Y-51644541D01*
X38733822Y-9037836D02*
X36212838Y-11558820D01*
X36212838Y-11558820D02*
X36212838Y-44127415D01*
X36212838Y-44127415D02*
X37470103Y-45384680D01*
%TO.N,/WRITE*%
X39993822Y-23070868D02*
X39993822Y-23012836D01*
X38752838Y-24311852D02*
X39993822Y-23070868D01*
X38752838Y-44127415D02*
X38752838Y-24311852D01*
%TO.N,/W_PROTECT*%
X43022780Y-51551578D02*
X43022780Y-45043607D01*
X45992675Y-22661689D02*
X45992675Y-43168494D01*
X39988822Y-16657836D02*
X45992675Y-22661689D01*
X42106588Y-44127415D02*
X41292838Y-44127415D01*
X38733822Y-16657836D02*
X39988822Y-16657836D01*
X43022780Y-45043607D02*
X42106588Y-44127415D01*
%TO.N,Net-(R1-Pad1)*%
X21856322Y-152836D02*
X23116322Y1107164D01*
X23116322Y1107164D02*
X24763822Y1107164D01*
%TO.N,Net-(C6-Pad1)*%
X19673822Y-13172836D02*
X19673822Y-18022836D01*
X20863822Y-19212836D02*
X19673822Y-18022836D01*
X24763822Y-19212836D02*
X20863822Y-19212836D01*
%TO.N,Net-(C7-Pad1)*%
X20823822Y-21752836D02*
X19673822Y-22902836D01*
X19673822Y-22902836D02*
X19673822Y-27772836D01*
X24763822Y-21752836D02*
X20823822Y-21752836D01*
%TO.N,/SD_Eject*%
X21866322Y-3972836D02*
X24763822Y-3972836D01*
%TO.N,Net-(U1-Pad2)*%
X38733822Y-6497836D02*
X37458822Y-6497836D01*
X37458822Y-6497836D02*
X34903822Y-9052836D01*
X34903822Y-9052836D02*
X32383822Y-9052836D01*
%TO.N,/SD_DO{slash}MISO*%
X5443822Y-30672836D02*
X5443822Y-33212836D01*
%TO.N,/SD_CS{slash}CS*%
X8233822Y-11592836D02*
X24763822Y-11592836D01*
X8233822Y-11592836D02*
X-2176178Y-22002836D01*
X-2176178Y-22002836D02*
X-2176178Y-30672836D01*
X-2176178Y-30672836D02*
X-2176178Y-33212836D01*
%TO.N,/SD_CLK{slash}CLK*%
X3658856Y-35233352D02*
X17613306Y-35233352D01*
X20943822Y-31902836D02*
X20943822Y-25552836D01*
X2903822Y-34478318D02*
X3658856Y-35233352D01*
X20943822Y-25552836D02*
X22266329Y-24230329D01*
X22266329Y-24230329D02*
X24753822Y-24230329D01*
X2903822Y-33212836D02*
X2903822Y-34478318D01*
X2903822Y-30672836D02*
X2903822Y-33212836D01*
%TO.N,/SCL*%
X27671322Y739664D02*
X27671322Y7753186D01*
X29843822Y-1432836D02*
X27671322Y739664D01*
X32383822Y-1432836D02*
X29843822Y-1432836D01*
%TO.N,/SD_DI{slash}MOSI*%
X9997164Y-9052836D02*
X-3436079Y-22486079D01*
X363822Y-34355744D02*
X363822Y-33212836D01*
X-3436079Y-33942682D02*
X-2699766Y-34678995D01*
X24763822Y-9052836D02*
X9997164Y-9052836D01*
X-3436079Y-22486079D02*
X-3436079Y-33942682D01*
X-2699766Y-34678995D02*
X40571Y-34678995D01*
X363822Y-30672836D02*
X363822Y-33212836D01*
X40571Y-34678995D02*
X363822Y-34355744D01*
%TD*%
%TA.AperFunction,Conductor*%
%TO.N,GND*%
G36*
X53617943Y11709162D02*
G01*
X53664436Y11655506D01*
X53675822Y11603164D01*
X53675822Y-57128836D01*
X53655820Y-57196957D01*
X53602164Y-57243450D01*
X53549822Y-57254836D01*
X-23182178Y-57254836D01*
X-23250299Y-57234834D01*
X-23296792Y-57181178D01*
X-23308178Y-57128836D01*
X-23308178Y-34107505D01*
X-11154177Y-34107505D01*
X-11153807Y-34114326D01*
X-11148283Y-34165188D01*
X-11144657Y-34180440D01*
X-11099502Y-34300890D01*
X-11090964Y-34316485D01*
X-11014463Y-34418560D01*
X-11001902Y-34431121D01*
X-10899827Y-34507622D01*
X-10884232Y-34516160D01*
X-10763784Y-34561314D01*
X-10748529Y-34564941D01*
X-10697664Y-34570467D01*
X-10690850Y-34570836D01*
X-10068293Y-34570836D01*
X-10053054Y-34566361D01*
X-10051849Y-34564971D01*
X-10050178Y-34557288D01*
X-10050178Y-34552720D01*
X-9542178Y-34552720D01*
X-9537703Y-34567959D01*
X-9536313Y-34569164D01*
X-9528630Y-34570835D01*
X-8901509Y-34570835D01*
X-8894688Y-34570465D01*
X-8843826Y-34564941D01*
X-8828574Y-34561315D01*
X-8708124Y-34516160D01*
X-8692529Y-34507622D01*
X-8590454Y-34431121D01*
X-8577893Y-34418560D01*
X-8501392Y-34316485D01*
X-8492854Y-34300890D01*
X-8451953Y-34191788D01*
X-8409311Y-34135024D01*
X-8342750Y-34110324D01*
X-8273401Y-34125532D01*
X-8238734Y-34153520D01*
X-8213313Y-34182867D01*
X-8213309Y-34182871D01*
X-8209928Y-34186774D01*
X-8038052Y-34329468D01*
X-7845178Y-34442174D01*
X-7636486Y-34521866D01*
X-7631418Y-34522897D01*
X-7631415Y-34522898D01*
X-7541634Y-34541164D01*
X-7417581Y-34566403D01*
X-7412406Y-34566593D01*
X-7412404Y-34566593D01*
X-7199505Y-34574400D01*
X-7199501Y-34574400D01*
X-7194341Y-34574589D01*
X-7189221Y-34573933D01*
X-7189219Y-34573933D01*
X-6977890Y-34546861D01*
X-6977889Y-34546861D01*
X-6972762Y-34546204D01*
X-6955963Y-34541164D01*
X-6763749Y-34483497D01*
X-6763744Y-34483495D01*
X-6758794Y-34482010D01*
X-6558184Y-34383732D01*
X-6376318Y-34254009D01*
X-6218082Y-34096325D01*
X-6129252Y-33972705D01*
X-6087725Y-33914913D01*
X-6086402Y-33915864D01*
X-6039533Y-33872693D01*
X-5969598Y-33860461D01*
X-5904152Y-33887980D01*
X-5876303Y-33919830D01*
X-5816191Y-34017924D01*
X-5669928Y-34186774D01*
X-5498052Y-34329468D01*
X-5412108Y-34379689D01*
X-5363384Y-34431327D01*
X-5349678Y-34488477D01*
X-5349678Y-46005055D01*
X-5350205Y-46016238D01*
X-5351880Y-46023731D01*
X-5351631Y-46031657D01*
X-5351631Y-46031658D01*
X-5349740Y-46091808D01*
X-5349678Y-46095767D01*
X-5349678Y-46123678D01*
X-5349181Y-46127612D01*
X-5349181Y-46127613D01*
X-5349173Y-46127678D01*
X-5348240Y-46139515D01*
X-5346851Y-46183711D01*
X-5341200Y-46203161D01*
X-5337191Y-46222522D01*
X-5334652Y-46242619D01*
X-5331733Y-46249990D01*
X-5331733Y-46249992D01*
X-5318374Y-46283734D01*
X-5314529Y-46294964D01*
X-5302196Y-46337415D01*
X-5298163Y-46344234D01*
X-5298161Y-46344239D01*
X-5291885Y-46354850D01*
X-5283190Y-46372598D01*
X-5275730Y-46391439D01*
X-5271068Y-46397855D01*
X-5271068Y-46397856D01*
X-5249742Y-46427209D01*
X-5243226Y-46437129D01*
X-5220720Y-46475184D01*
X-5206399Y-46489505D01*
X-5193559Y-46504538D01*
X-5181650Y-46520929D01*
X-5175544Y-46525980D01*
X-5147573Y-46549120D01*
X-5138794Y-46557110D01*
X-1773657Y-49922247D01*
X-1766113Y-49930537D01*
X-1762000Y-49937018D01*
X-1756223Y-49942443D01*
X-1712333Y-49983658D01*
X-1709491Y-49986413D01*
X-1689769Y-50006135D01*
X-1686645Y-50008558D01*
X-1686641Y-50008562D01*
X-1686576Y-50008612D01*
X-1677555Y-50016317D01*
X-1645321Y-50046586D01*
X-1638373Y-50050405D01*
X-1638371Y-50050407D01*
X-1627568Y-50056346D01*
X-1611041Y-50067202D01*
X-1601302Y-50074757D01*
X-1601300Y-50074758D01*
X-1595040Y-50079614D01*
X-1554460Y-50097174D01*
X-1543812Y-50102391D01*
X-1505060Y-50123695D01*
X-1497384Y-50125666D01*
X-1497381Y-50125667D01*
X-1485438Y-50128733D01*
X-1466733Y-50135137D01*
X-1448145Y-50143181D01*
X-1440322Y-50144420D01*
X-1440312Y-50144423D01*
X-1404476Y-50150099D01*
X-1392856Y-50152505D01*
X-1357711Y-50161528D01*
X-1350030Y-50163500D01*
X-1329776Y-50163500D01*
X-1310066Y-50165051D01*
X-1290057Y-50168220D01*
X-1282165Y-50167474D01*
X-1246039Y-50164059D01*
X-1234181Y-50163500D01*
X8181800Y-50163500D01*
X8249921Y-50183502D01*
X8269147Y-50199843D01*
X8269420Y-50199540D01*
X8274332Y-50203963D01*
X8278747Y-50208866D01*
X8433248Y-50321118D01*
X8439276Y-50323802D01*
X8439278Y-50323803D01*
X8597910Y-50394430D01*
X8607712Y-50398794D01*
X8701113Y-50418647D01*
X8788056Y-50437128D01*
X8788061Y-50437128D01*
X8794513Y-50438500D01*
X8985487Y-50438500D01*
X8991939Y-50437128D01*
X8991944Y-50437128D01*
X9078887Y-50418647D01*
X9172288Y-50398794D01*
X9182090Y-50394430D01*
X9340722Y-50323803D01*
X9340724Y-50323802D01*
X9346752Y-50321118D01*
X9501253Y-50208866D01*
X9537851Y-50168220D01*
X9624621Y-50071852D01*
X9624622Y-50071851D01*
X9629040Y-50066944D01*
X9704053Y-49937018D01*
X9721223Y-49907279D01*
X9721224Y-49907278D01*
X9724527Y-49901556D01*
X9783542Y-49719928D01*
X9803504Y-49530000D01*
X9783542Y-49340072D01*
X9724527Y-49158444D01*
X9629040Y-48993056D01*
X9501253Y-48851134D01*
X9346752Y-48738882D01*
X9340724Y-48736198D01*
X9340722Y-48736197D01*
X9178319Y-48663891D01*
X9178318Y-48663891D01*
X9172288Y-48661206D01*
X9078888Y-48641353D01*
X8991944Y-48622872D01*
X8991939Y-48622872D01*
X8985487Y-48621500D01*
X8794513Y-48621500D01*
X8788061Y-48622872D01*
X8788056Y-48622872D01*
X8701112Y-48641353D01*
X8607712Y-48661206D01*
X8601682Y-48663891D01*
X8601681Y-48663891D01*
X8439278Y-48736197D01*
X8439276Y-48736198D01*
X8433248Y-48738882D01*
X8278747Y-48851134D01*
X8274332Y-48856037D01*
X8269420Y-48860460D01*
X8268295Y-48859211D01*
X8214986Y-48892051D01*
X8181800Y-48896500D01*
X-955406Y-48896500D01*
X-1023527Y-48876498D01*
X-1044501Y-48859595D01*
X-2589585Y-47314510D01*
X17074839Y-47314510D01*
X17075176Y-47321029D01*
X17085095Y-47416621D01*
X17087987Y-47430015D01*
X17139426Y-47584199D01*
X17145599Y-47597377D01*
X17230901Y-47735222D01*
X17239937Y-47746623D01*
X17354667Y-47861154D01*
X17366078Y-47870166D01*
X17504081Y-47955231D01*
X17517262Y-47961378D01*
X17671548Y-48012553D01*
X17684924Y-48015420D01*
X17779276Y-48025087D01*
X17785692Y-48025415D01*
X18160723Y-48025415D01*
X18175962Y-48020940D01*
X18177167Y-48019550D01*
X18178838Y-48011867D01*
X18178838Y-46939530D01*
X18174363Y-46924291D01*
X18172973Y-46923086D01*
X18165290Y-46921415D01*
X17092954Y-46921415D01*
X17077715Y-46925890D01*
X17076510Y-46927280D01*
X17074839Y-46934963D01*
X17074839Y-47314510D01*
X-2589585Y-47314510D01*
X-4045773Y-45858322D01*
X-4079799Y-45796010D01*
X-4082678Y-45769227D01*
X-4082678Y-37595515D01*
X8056073Y-37595515D01*
X8068932Y-37818535D01*
X8070069Y-37823581D01*
X8070070Y-37823587D01*
X8084428Y-37887295D01*
X8118044Y-38036459D01*
X8202088Y-38243436D01*
X8253764Y-38327764D01*
X8316113Y-38429508D01*
X8318809Y-38433908D01*
X8465072Y-38602758D01*
X8636948Y-38745452D01*
X8829822Y-38858158D01*
X9038514Y-38937850D01*
X9043582Y-38938881D01*
X9043585Y-38938882D01*
X9144342Y-38959381D01*
X9257419Y-38982387D01*
X9262594Y-38982577D01*
X9262596Y-38982577D01*
X9475495Y-38990384D01*
X9475499Y-38990384D01*
X9480659Y-38990573D01*
X9485779Y-38989917D01*
X9485781Y-38989917D01*
X9697110Y-38962845D01*
X9697111Y-38962845D01*
X9702238Y-38962188D01*
X9711594Y-38959381D01*
X9911251Y-38899481D01*
X9911256Y-38899479D01*
X9916206Y-38897994D01*
X10116816Y-38799716D01*
X10298682Y-38669993D01*
X10456918Y-38512309D01*
X10516416Y-38429509D01*
X10587275Y-38330897D01*
X10588598Y-38331848D01*
X10635467Y-38288677D01*
X10705402Y-38276445D01*
X10770848Y-38303964D01*
X10798697Y-38335814D01*
X10858809Y-38433908D01*
X11005072Y-38602758D01*
X11176948Y-38745452D01*
X11369822Y-38858158D01*
X11578514Y-38937850D01*
X11583582Y-38938881D01*
X11583585Y-38938882D01*
X11684342Y-38959381D01*
X11797419Y-38982387D01*
X11802594Y-38982577D01*
X11802596Y-38982577D01*
X12015495Y-38990384D01*
X12015499Y-38990384D01*
X12020659Y-38990573D01*
X12025779Y-38989917D01*
X12025781Y-38989917D01*
X12237110Y-38962845D01*
X12237111Y-38962845D01*
X12242238Y-38962188D01*
X12251594Y-38959381D01*
X12451251Y-38899481D01*
X12451256Y-38899479D01*
X12456206Y-38897994D01*
X12656816Y-38799716D01*
X12838682Y-38669993D01*
X12906153Y-38602758D01*
X12947301Y-38561753D01*
X13009673Y-38527837D01*
X13080480Y-38533025D01*
X13137241Y-38575671D01*
X13154223Y-38606774D01*
X13195498Y-38716874D01*
X13204036Y-38732469D01*
X13280537Y-38834544D01*
X13293098Y-38847105D01*
X13395173Y-38923606D01*
X13410768Y-38932144D01*
X13531216Y-38977298D01*
X13546471Y-38980925D01*
X13597336Y-38986451D01*
X13604150Y-38986820D01*
X14226707Y-38986820D01*
X14241946Y-38982345D01*
X14243151Y-38980955D01*
X14244822Y-38973272D01*
X14244822Y-38968704D01*
X14752822Y-38968704D01*
X14757297Y-38983943D01*
X14758687Y-38985148D01*
X14766370Y-38986819D01*
X15393491Y-38986819D01*
X15400312Y-38986449D01*
X15451174Y-38980925D01*
X15466426Y-38977299D01*
X15586876Y-38932144D01*
X15602471Y-38923606D01*
X15704546Y-38847105D01*
X15717107Y-38834544D01*
X15793608Y-38732469D01*
X15802146Y-38716874D01*
X15847300Y-38596426D01*
X15850927Y-38581171D01*
X15856453Y-38530306D01*
X15856822Y-38523492D01*
X15856822Y-37900935D01*
X15852347Y-37885696D01*
X15850957Y-37884491D01*
X15843274Y-37882820D01*
X14770937Y-37882820D01*
X14755698Y-37887295D01*
X14754493Y-37888685D01*
X14752822Y-37896368D01*
X14752822Y-38968704D01*
X14244822Y-38968704D01*
X14244822Y-37356705D01*
X14752822Y-37356705D01*
X14757297Y-37371944D01*
X14758687Y-37373149D01*
X14766370Y-37374820D01*
X15838706Y-37374820D01*
X15853945Y-37370345D01*
X15855150Y-37368955D01*
X15856821Y-37361272D01*
X15856821Y-36734151D01*
X15856451Y-36727330D01*
X15850927Y-36676468D01*
X15847301Y-36661216D01*
X15802146Y-36540766D01*
X15793608Y-36525171D01*
X15717107Y-36423096D01*
X15704546Y-36410535D01*
X15602471Y-36334034D01*
X15586876Y-36325496D01*
X15466428Y-36280342D01*
X15451173Y-36276715D01*
X15400308Y-36271189D01*
X15393494Y-36270820D01*
X14770937Y-36270820D01*
X14755698Y-36275295D01*
X14754493Y-36276685D01*
X14752822Y-36284368D01*
X14752822Y-37356705D01*
X14244822Y-37356705D01*
X14244822Y-36288936D01*
X14240347Y-36273697D01*
X14238957Y-36272492D01*
X14231274Y-36270821D01*
X13604153Y-36270821D01*
X13597332Y-36271191D01*
X13546470Y-36276715D01*
X13531218Y-36280341D01*
X13410768Y-36325496D01*
X13395173Y-36334034D01*
X13293098Y-36410535D01*
X13280537Y-36423096D01*
X13204036Y-36525171D01*
X13195498Y-36540766D01*
X13154119Y-36651142D01*
X13111477Y-36707907D01*
X13044915Y-36732606D01*
X12975566Y-36717398D01*
X12942943Y-36691711D01*
X12891973Y-36635696D01*
X12891967Y-36635690D01*
X12888492Y-36631871D01*
X12884441Y-36628672D01*
X12884437Y-36628668D01*
X12717236Y-36496620D01*
X12717232Y-36496618D01*
X12713181Y-36493418D01*
X12517611Y-36385458D01*
X12512742Y-36383734D01*
X12512738Y-36383732D01*
X12311909Y-36312615D01*
X12311905Y-36312614D01*
X12307034Y-36310889D01*
X12301941Y-36309982D01*
X12301938Y-36309981D01*
X12092195Y-36272620D01*
X12092189Y-36272619D01*
X12087106Y-36271714D01*
X12013274Y-36270812D01*
X11868903Y-36269048D01*
X11868901Y-36269048D01*
X11863733Y-36268985D01*
X11642913Y-36302775D01*
X11430578Y-36372177D01*
X11400265Y-36387957D01*
X11258376Y-36461820D01*
X11232429Y-36475327D01*
X11228296Y-36478430D01*
X11228293Y-36478432D01*
X11085761Y-36585448D01*
X11053787Y-36609455D01*
X11028370Y-36636052D01*
X10921404Y-36747986D01*
X10899451Y-36770958D01*
X10792023Y-36928441D01*
X10737115Y-36973441D01*
X10666590Y-36981612D01*
X10602843Y-36950358D01*
X10582146Y-36925874D01*
X10501644Y-36801437D01*
X10501642Y-36801434D01*
X10498836Y-36797097D01*
X10348492Y-36631871D01*
X10344441Y-36628672D01*
X10344437Y-36628668D01*
X10177236Y-36496620D01*
X10177232Y-36496618D01*
X10173181Y-36493418D01*
X9977611Y-36385458D01*
X9972742Y-36383734D01*
X9972738Y-36383732D01*
X9771909Y-36312615D01*
X9771905Y-36312614D01*
X9767034Y-36310889D01*
X9761941Y-36309982D01*
X9761938Y-36309981D01*
X9552195Y-36272620D01*
X9552189Y-36272619D01*
X9547106Y-36271714D01*
X9473274Y-36270812D01*
X9328903Y-36269048D01*
X9328901Y-36269048D01*
X9323733Y-36268985D01*
X9102913Y-36302775D01*
X8890578Y-36372177D01*
X8860265Y-36387957D01*
X8718376Y-36461820D01*
X8692429Y-36475327D01*
X8688296Y-36478430D01*
X8688293Y-36478432D01*
X8545761Y-36585448D01*
X8513787Y-36609455D01*
X8488370Y-36636052D01*
X8381404Y-36747986D01*
X8359451Y-36770958D01*
X8233565Y-36955500D01*
X8139510Y-37158125D01*
X8079811Y-37373390D01*
X8056073Y-37595515D01*
X-4082678Y-37595515D01*
X-4082678Y-34497711D01*
X-4062676Y-34429590D01*
X-4009020Y-34383097D01*
X-3938746Y-34372993D01*
X-3876361Y-34400628D01*
X-3867484Y-34407972D01*
X-3858705Y-34415960D01*
X-3203413Y-35071253D01*
X-3195879Y-35079532D01*
X-3191766Y-35086013D01*
X-3170670Y-35105823D01*
X-3142115Y-35132638D01*
X-3139273Y-35135393D01*
X-3119536Y-35155130D01*
X-3116339Y-35157610D01*
X-3107319Y-35165313D01*
X-3075087Y-35195581D01*
X-3068141Y-35199400D01*
X-3068138Y-35199402D01*
X-3057332Y-35205343D01*
X-3040813Y-35216194D01*
X-3024807Y-35228609D01*
X-3017538Y-35231754D01*
X-3017534Y-35231757D01*
X-2984229Y-35246169D01*
X-2973579Y-35251386D01*
X-2934826Y-35272690D01*
X-2927151Y-35274661D01*
X-2927150Y-35274661D01*
X-2915204Y-35277728D01*
X-2896499Y-35284132D01*
X-2877911Y-35292176D01*
X-2870088Y-35293415D01*
X-2870078Y-35293418D01*
X-2834242Y-35299094D01*
X-2822622Y-35301500D01*
X-2790807Y-35309668D01*
X-2779796Y-35312495D01*
X-2759542Y-35312495D01*
X-2739832Y-35314046D01*
X-2719823Y-35317215D01*
X-2711931Y-35316469D01*
X-2693186Y-35314697D01*
X-2675804Y-35313054D01*
X-2663947Y-35312495D01*
X-38196Y-35312495D01*
X-27013Y-35313022D01*
X-19520Y-35314697D01*
X-11594Y-35314448D01*
X-11593Y-35314448D01*
X48557Y-35312557D01*
X52516Y-35312495D01*
X80427Y-35312495D01*
X84362Y-35311998D01*
X84427Y-35311990D01*
X96264Y-35311057D01*
X128522Y-35310043D01*
X132541Y-35309917D01*
X140460Y-35309668D01*
X159914Y-35304016D01*
X179271Y-35300008D01*
X191501Y-35298463D01*
X191502Y-35298463D01*
X199368Y-35297469D01*
X206739Y-35294550D01*
X206741Y-35294550D01*
X240483Y-35281191D01*
X251713Y-35277346D01*
X286554Y-35267224D01*
X286555Y-35267224D01*
X294164Y-35265013D01*
X300983Y-35260980D01*
X300988Y-35260978D01*
X311599Y-35254702D01*
X329347Y-35246007D01*
X348188Y-35238547D01*
X355339Y-35233352D01*
X383958Y-35212559D01*
X393878Y-35206043D01*
X420744Y-35190154D01*
X431933Y-35183537D01*
X437540Y-35177931D01*
X446256Y-35169215D01*
X461290Y-35156374D01*
X471266Y-35149126D01*
X471267Y-35149125D01*
X477678Y-35144467D01*
X505859Y-35110402D01*
X513849Y-35101621D01*
X756080Y-34859391D01*
X764359Y-34851857D01*
X770840Y-34847744D01*
X817467Y-34798091D01*
X820221Y-34795250D01*
X839957Y-34775514D01*
X842437Y-34772317D01*
X850142Y-34763295D01*
X874981Y-34736844D01*
X880408Y-34731065D01*
X884227Y-34724119D01*
X884229Y-34724116D01*
X890170Y-34713310D01*
X901021Y-34696791D01*
X908580Y-34687045D01*
X913436Y-34680785D01*
X916581Y-34673516D01*
X916584Y-34673512D01*
X930996Y-34640207D01*
X936213Y-34629557D01*
X957517Y-34590804D01*
X962555Y-34571181D01*
X968959Y-34552478D01*
X973855Y-34541164D01*
X973855Y-34541163D01*
X977003Y-34533889D01*
X978242Y-34526066D01*
X978245Y-34526056D01*
X983921Y-34490220D01*
X986328Y-34478598D01*
X988883Y-34468647D01*
X1025197Y-34407641D01*
X1052760Y-34388707D01*
X1052730Y-34388656D01*
X1053523Y-34388183D01*
X1055493Y-34386830D01*
X1057177Y-34386005D01*
X1057181Y-34386003D01*
X1061816Y-34383732D01*
X1243682Y-34254009D01*
X1401918Y-34096325D01*
X1490748Y-33972705D01*
X1532275Y-33914913D01*
X1533598Y-33915864D01*
X1580467Y-33872693D01*
X1650402Y-33860461D01*
X1715848Y-33887980D01*
X1743697Y-33919830D01*
X1803809Y-34017924D01*
X1950072Y-34186774D01*
X2121948Y-34329468D01*
X2207835Y-34379656D01*
X2256559Y-34431294D01*
X2270203Y-34484498D01*
X2270260Y-34486317D01*
X2270322Y-34490263D01*
X2270322Y-34518174D01*
X2270819Y-34522108D01*
X2270819Y-34522109D01*
X2270827Y-34522174D01*
X2271760Y-34534011D01*
X2273149Y-34578207D01*
X2278145Y-34595403D01*
X2278800Y-34597657D01*
X2282809Y-34617018D01*
X2285348Y-34637115D01*
X2288267Y-34644486D01*
X2288267Y-34644488D01*
X2301626Y-34678230D01*
X2305471Y-34689460D01*
X2317804Y-34731911D01*
X2321837Y-34738730D01*
X2321839Y-34738735D01*
X2328115Y-34749346D01*
X2336810Y-34767094D01*
X2344270Y-34785935D01*
X2348932Y-34792351D01*
X2348932Y-34792352D01*
X2370258Y-34821705D01*
X2376774Y-34831625D01*
X2391233Y-34856073D01*
X2399280Y-34869680D01*
X2413601Y-34884001D01*
X2426441Y-34899034D01*
X2438350Y-34915425D01*
X2470192Y-34941767D01*
X2472427Y-34943616D01*
X2481206Y-34951606D01*
X3155199Y-35625599D01*
X3162743Y-35633889D01*
X3166856Y-35640370D01*
X3172633Y-35645795D01*
X3216523Y-35687010D01*
X3219365Y-35689765D01*
X3239086Y-35709486D01*
X3242281Y-35711964D01*
X3251303Y-35719670D01*
X3283535Y-35749938D01*
X3290484Y-35753758D01*
X3301288Y-35759698D01*
X3317812Y-35770551D01*
X3333815Y-35782965D01*
X3374399Y-35800528D01*
X3385029Y-35805735D01*
X3423796Y-35827047D01*
X3431473Y-35829018D01*
X3431478Y-35829020D01*
X3443414Y-35832084D01*
X3462122Y-35838489D01*
X3480711Y-35846533D01*
X3488539Y-35847773D01*
X3488546Y-35847775D01*
X3524380Y-35853451D01*
X3536000Y-35855857D01*
X3571145Y-35864880D01*
X3578826Y-35866852D01*
X3599080Y-35866852D01*
X3618790Y-35868403D01*
X3638799Y-35871572D01*
X3646691Y-35870826D01*
X3682817Y-35867411D01*
X3694675Y-35866852D01*
X16905106Y-35866852D01*
X16973227Y-35886854D01*
X16992453Y-35903195D01*
X16992726Y-35902892D01*
X16997638Y-35907315D01*
X17002053Y-35912218D01*
X17156554Y-36024470D01*
X17162582Y-36027154D01*
X17162584Y-36027155D01*
X17324987Y-36099461D01*
X17331018Y-36102146D01*
X17424418Y-36121999D01*
X17511362Y-36140480D01*
X17511367Y-36140480D01*
X17517819Y-36141852D01*
X17708793Y-36141852D01*
X17715245Y-36140480D01*
X17715250Y-36140480D01*
X17802194Y-36121999D01*
X17895594Y-36102146D01*
X17901625Y-36099461D01*
X18064028Y-36027155D01*
X18064030Y-36027154D01*
X18070058Y-36024470D01*
X18224559Y-35912218D01*
X18261157Y-35871572D01*
X18347927Y-35775204D01*
X18347928Y-35775203D01*
X18352346Y-35770296D01*
X18427359Y-35640370D01*
X18444529Y-35610631D01*
X18444530Y-35610630D01*
X18447833Y-35604908D01*
X18506848Y-35423280D01*
X18519648Y-35301500D01*
X18526120Y-35239917D01*
X18526810Y-35233352D01*
X18522270Y-35190154D01*
X18507538Y-35049987D01*
X18507538Y-35049985D01*
X18506848Y-35043424D01*
X18447833Y-34861796D01*
X18436383Y-34841963D01*
X18390963Y-34763295D01*
X18352346Y-34696408D01*
X18335979Y-34678230D01*
X18228981Y-34559397D01*
X18228980Y-34559396D01*
X18224559Y-34554486D01*
X18070058Y-34442234D01*
X18064030Y-34439550D01*
X18064028Y-34439549D01*
X17901625Y-34367243D01*
X17901624Y-34367243D01*
X17895594Y-34364558D01*
X17802193Y-34344705D01*
X17715250Y-34326224D01*
X17715245Y-34326224D01*
X17708793Y-34324852D01*
X17517819Y-34324852D01*
X17511367Y-34326224D01*
X17511362Y-34326224D01*
X17424419Y-34344705D01*
X17331018Y-34364558D01*
X17324988Y-34367243D01*
X17324987Y-34367243D01*
X17162584Y-34439549D01*
X17162582Y-34439550D01*
X17156554Y-34442234D01*
X17151213Y-34446114D01*
X17151212Y-34446115D01*
X17057488Y-34514210D01*
X17002053Y-34554486D01*
X16997638Y-34559389D01*
X16992726Y-34563812D01*
X16991601Y-34562563D01*
X16938292Y-34595403D01*
X16905106Y-34599852D01*
X8771590Y-34599852D01*
X8703469Y-34579850D01*
X8656976Y-34526194D01*
X8646872Y-34455920D01*
X8676366Y-34391340D01*
X8698422Y-34371273D01*
X8859150Y-34256628D01*
X8867022Y-34249975D01*
X9017874Y-34099648D01*
X9024552Y-34091801D01*
X9148825Y-33918856D01*
X9154135Y-33910019D01*
X9248492Y-33719103D01*
X9252291Y-33709508D01*
X9314199Y-33505746D01*
X9316377Y-33495673D01*
X9317808Y-33484798D01*
X9315597Y-33470614D01*
X9302439Y-33466836D01*
X7855822Y-33466836D01*
X7787701Y-33446834D01*
X7741208Y-33393178D01*
X7729822Y-33340836D01*
X7729822Y-32940721D01*
X8237822Y-32940721D01*
X8242297Y-32955960D01*
X8243687Y-32957165D01*
X8251370Y-32958836D01*
X9302166Y-32958836D01*
X9315697Y-32954863D01*
X9317002Y-32945783D01*
X9275036Y-32778711D01*
X9271716Y-32768960D01*
X9186794Y-32573650D01*
X9181927Y-32564575D01*
X9066248Y-32385762D01*
X9059958Y-32377593D01*
X8916628Y-32220076D01*
X8909095Y-32213051D01*
X8741961Y-32081058D01*
X8733374Y-32075353D01*
X8695938Y-32054687D01*
X8645968Y-32004255D01*
X8631196Y-31934812D01*
X8656312Y-31868407D01*
X8683664Y-31841800D01*
X8859149Y-31716628D01*
X8867022Y-31709975D01*
X9017874Y-31559648D01*
X9024552Y-31551801D01*
X9148825Y-31378856D01*
X9154135Y-31370019D01*
X9248492Y-31179103D01*
X9252291Y-31169508D01*
X9314199Y-30965746D01*
X9316377Y-30955673D01*
X9317808Y-30944798D01*
X9315597Y-30930614D01*
X9302439Y-30926836D01*
X8255937Y-30926836D01*
X8240698Y-30931311D01*
X8239493Y-30932701D01*
X8237822Y-30940384D01*
X8237822Y-32940721D01*
X7729822Y-32940721D01*
X7729822Y-30400721D01*
X8237822Y-30400721D01*
X8242297Y-30415960D01*
X8243687Y-30417165D01*
X8251370Y-30418836D01*
X9302166Y-30418836D01*
X9315697Y-30414863D01*
X9317002Y-30405783D01*
X9275036Y-30238711D01*
X9271716Y-30228960D01*
X9186794Y-30033650D01*
X9181927Y-30024575D01*
X9066248Y-29845762D01*
X9059958Y-29837593D01*
X8916628Y-29680076D01*
X8909095Y-29673051D01*
X8741961Y-29541058D01*
X8733374Y-29535353D01*
X8546939Y-29432435D01*
X8537527Y-29428205D01*
X8336781Y-29357116D01*
X8326810Y-29354482D01*
X8255659Y-29341808D01*
X8242362Y-29343268D01*
X8237822Y-29357825D01*
X8237822Y-30400721D01*
X7729822Y-30400721D01*
X7729822Y-29355938D01*
X7725904Y-29342594D01*
X7711628Y-29340607D01*
X7673146Y-29346496D01*
X7663110Y-29348887D01*
X7460690Y-29415048D01*
X7451181Y-29419045D01*
X7262285Y-29517378D01*
X7253560Y-29522872D01*
X7083255Y-29650741D01*
X7075548Y-29657584D01*
X6928412Y-29811553D01*
X6921931Y-29819558D01*
X6817320Y-29972910D01*
X6762409Y-30017912D01*
X6691884Y-30026083D01*
X6628137Y-29994829D01*
X6607440Y-29970345D01*
X6526644Y-29845453D01*
X6526642Y-29845450D01*
X6523836Y-29841113D01*
X6373492Y-29675887D01*
X6369441Y-29672688D01*
X6369437Y-29672684D01*
X6202236Y-29540636D01*
X6202232Y-29540634D01*
X6198181Y-29537434D01*
X6193653Y-29534934D01*
X6142430Y-29506658D01*
X6002611Y-29429474D01*
X5997742Y-29427750D01*
X5997738Y-29427748D01*
X5796909Y-29356631D01*
X5796905Y-29356630D01*
X5792034Y-29354905D01*
X5786941Y-29353998D01*
X5786938Y-29353997D01*
X5577195Y-29316636D01*
X5577189Y-29316635D01*
X5572106Y-29315730D01*
X5498274Y-29314828D01*
X5353903Y-29313064D01*
X5353901Y-29313064D01*
X5348733Y-29313001D01*
X5127913Y-29346791D01*
X4915578Y-29416193D01*
X4838675Y-29456226D01*
X4741797Y-29506658D01*
X4717429Y-29519343D01*
X4713296Y-29522446D01*
X4713293Y-29522448D01*
X4542922Y-29650366D01*
X4538787Y-29653471D01*
X4384451Y-29814974D01*
X4277023Y-29972457D01*
X4222115Y-30017457D01*
X4151590Y-30025628D01*
X4087843Y-29994374D01*
X4067146Y-29969890D01*
X3986644Y-29845453D01*
X3986642Y-29845450D01*
X3983836Y-29841113D01*
X3833492Y-29675887D01*
X3829441Y-29672688D01*
X3829437Y-29672684D01*
X3662236Y-29540636D01*
X3662232Y-29540634D01*
X3658181Y-29537434D01*
X3653653Y-29534934D01*
X3602430Y-29506658D01*
X3462611Y-29429474D01*
X3457742Y-29427750D01*
X3457738Y-29427748D01*
X3256909Y-29356631D01*
X3256905Y-29356630D01*
X3252034Y-29354905D01*
X3246941Y-29353998D01*
X3246938Y-29353997D01*
X3037195Y-29316636D01*
X3037189Y-29316635D01*
X3032106Y-29315730D01*
X2958274Y-29314828D01*
X2813903Y-29313064D01*
X2813901Y-29313064D01*
X2808733Y-29313001D01*
X2587913Y-29346791D01*
X2375578Y-29416193D01*
X2298675Y-29456226D01*
X2201797Y-29506658D01*
X2177429Y-29519343D01*
X2173296Y-29522446D01*
X2173293Y-29522448D01*
X2002922Y-29650366D01*
X1998787Y-29653471D01*
X1844451Y-29814974D01*
X1737023Y-29972457D01*
X1682115Y-30017457D01*
X1611590Y-30025628D01*
X1547843Y-29994374D01*
X1527146Y-29969890D01*
X1446644Y-29845453D01*
X1446642Y-29845450D01*
X1443836Y-29841113D01*
X1293492Y-29675887D01*
X1289441Y-29672688D01*
X1289437Y-29672684D01*
X1122236Y-29540636D01*
X1122232Y-29540634D01*
X1118181Y-29537434D01*
X1113653Y-29534934D01*
X1062430Y-29506658D01*
X922611Y-29429474D01*
X917742Y-29427750D01*
X917738Y-29427748D01*
X716909Y-29356631D01*
X716905Y-29356630D01*
X712034Y-29354905D01*
X706941Y-29353998D01*
X706938Y-29353997D01*
X497195Y-29316636D01*
X497189Y-29316635D01*
X492106Y-29315730D01*
X418274Y-29314828D01*
X273903Y-29313064D01*
X273901Y-29313064D01*
X268733Y-29313001D01*
X47913Y-29346791D01*
X-164422Y-29416193D01*
X-241325Y-29456226D01*
X-338203Y-29506658D01*
X-362571Y-29519343D01*
X-366704Y-29522446D01*
X-366707Y-29522448D01*
X-537078Y-29650366D01*
X-541213Y-29653471D01*
X-695549Y-29814974D01*
X-802977Y-29972457D01*
X-857885Y-30017457D01*
X-928410Y-30025628D01*
X-992157Y-29994374D01*
X-1012854Y-29969890D01*
X-1093356Y-29845453D01*
X-1093358Y-29845450D01*
X-1096164Y-29841113D01*
X-1246508Y-29675887D01*
X-1250559Y-29672688D01*
X-1250563Y-29672684D01*
X-1417764Y-29540636D01*
X-1417768Y-29540634D01*
X-1421819Y-29537434D01*
X-1426343Y-29534937D01*
X-1426347Y-29534934D01*
X-1477570Y-29506658D01*
X-1527542Y-29456226D01*
X-1542678Y-29396349D01*
X-1542678Y-28614931D01*
X16445823Y-28614931D01*
X16446160Y-28621450D01*
X16456079Y-28717042D01*
X16458971Y-28730436D01*
X16510410Y-28884620D01*
X16516583Y-28897798D01*
X16601885Y-29035643D01*
X16610921Y-29047044D01*
X16725651Y-29161575D01*
X16737062Y-29170587D01*
X16875065Y-29255652D01*
X16888246Y-29261799D01*
X17042532Y-29312974D01*
X17055908Y-29315841D01*
X17150260Y-29325508D01*
X17156676Y-29325836D01*
X17181707Y-29325836D01*
X17196946Y-29321361D01*
X17198151Y-29319971D01*
X17199822Y-29312288D01*
X17199822Y-28364951D01*
X17195347Y-28349712D01*
X17193957Y-28348507D01*
X17186274Y-28346836D01*
X16463938Y-28346836D01*
X16448699Y-28351311D01*
X16447494Y-28352701D01*
X16445823Y-28360384D01*
X16445823Y-28614931D01*
X-1542678Y-28614931D01*
X-1542678Y-27820721D01*
X16445822Y-27820721D01*
X16450297Y-27835960D01*
X16451687Y-27837165D01*
X16459370Y-27838836D01*
X17181707Y-27838836D01*
X17196946Y-27834361D01*
X17198151Y-27832971D01*
X17199822Y-27825288D01*
X17199822Y-26877952D01*
X17195347Y-26862713D01*
X17193957Y-26861508D01*
X17186274Y-26859837D01*
X17156727Y-26859837D01*
X17150208Y-26860174D01*
X17054616Y-26870093D01*
X17041222Y-26872985D01*
X16887038Y-26924424D01*
X16873860Y-26930597D01*
X16736015Y-27015899D01*
X16724614Y-27024935D01*
X16610083Y-27139665D01*
X16601071Y-27151076D01*
X16516006Y-27289079D01*
X16509859Y-27302260D01*
X16458684Y-27456546D01*
X16455817Y-27469922D01*
X16446150Y-27564274D01*
X16445822Y-27570691D01*
X16445822Y-27820721D01*
X-1542678Y-27820721D01*
X-1542678Y-22317430D01*
X-1522676Y-22249309D01*
X-1505773Y-22228335D01*
X7347631Y-13374931D01*
X16445823Y-13374931D01*
X16446160Y-13381450D01*
X16456079Y-13477042D01*
X16458971Y-13490436D01*
X16510410Y-13644620D01*
X16516583Y-13657798D01*
X16601885Y-13795643D01*
X16610921Y-13807044D01*
X16725651Y-13921575D01*
X16737062Y-13930587D01*
X16875065Y-14015652D01*
X16888246Y-14021799D01*
X17042532Y-14072974D01*
X17055908Y-14075841D01*
X17150260Y-14085508D01*
X17156676Y-14085836D01*
X17181707Y-14085836D01*
X17196946Y-14081361D01*
X17198151Y-14079971D01*
X17199822Y-14072288D01*
X17199822Y-13124951D01*
X17195347Y-13109712D01*
X17193957Y-13108507D01*
X17186274Y-13106836D01*
X16463938Y-13106836D01*
X16448699Y-13111311D01*
X16447494Y-13112701D01*
X16445823Y-13120384D01*
X16445823Y-13374931D01*
X7347631Y-13374931D01*
X8459321Y-12263241D01*
X8521633Y-12229215D01*
X8548416Y-12226336D01*
X16319822Y-12226336D01*
X16387943Y-12246338D01*
X16434436Y-12299994D01*
X16445822Y-12352336D01*
X16445822Y-12580721D01*
X16450297Y-12595960D01*
X16451687Y-12597165D01*
X16459370Y-12598836D01*
X17581822Y-12598836D01*
X17649943Y-12618838D01*
X17696436Y-12672494D01*
X17707822Y-12724836D01*
X17707822Y-14067720D01*
X17712297Y-14082959D01*
X17713687Y-14084164D01*
X17721370Y-14085835D01*
X17750917Y-14085835D01*
X17757436Y-14085498D01*
X17853028Y-14075579D01*
X17866422Y-14072687D01*
X18020606Y-14021248D01*
X18033784Y-14015075D01*
X18171629Y-13929773D01*
X18183030Y-13920737D01*
X18297560Y-13806008D01*
X18304616Y-13797074D01*
X18362534Y-13756013D01*
X18433457Y-13752783D01*
X18494868Y-13788410D01*
X18501668Y-13796243D01*
X18505344Y-13802184D01*
X18630519Y-13927141D01*
X18636749Y-13930981D01*
X18636750Y-13930982D01*
X18774110Y-14015652D01*
X18781084Y-14019951D01*
X18925104Y-14067720D01*
X18948961Y-14075633D01*
X18948418Y-14077269D01*
X19003150Y-14106942D01*
X19037362Y-14169152D01*
X19040322Y-14196304D01*
X19040322Y-16864482D01*
X19020320Y-16932603D01*
X18986594Y-16967694D01*
X18919688Y-17014542D01*
X18866295Y-17051928D01*
X18866292Y-17051930D01*
X18861784Y-17055087D01*
X18706073Y-17210798D01*
X18702916Y-17215306D01*
X18702914Y-17215309D01*
X18630244Y-17319093D01*
X18579766Y-17391183D01*
X18577443Y-17396165D01*
X18577440Y-17396170D01*
X18532847Y-17491801D01*
X18486702Y-17590760D01*
X18429707Y-17803465D01*
X18410515Y-18022836D01*
X18429707Y-18242207D01*
X18486702Y-18454912D01*
X18489027Y-18459897D01*
X18577440Y-18649502D01*
X18577443Y-18649507D01*
X18579766Y-18654489D01*
X18582922Y-18658996D01*
X18582923Y-18658998D01*
X18659880Y-18768903D01*
X18706073Y-18834874D01*
X18861784Y-18990585D01*
X19042168Y-19116892D01*
X19241746Y-19209956D01*
X19454451Y-19266951D01*
X19673822Y-19286143D01*
X19893193Y-19266951D01*
X19898503Y-19265528D01*
X19898510Y-19265527D01*
X19924541Y-19258552D01*
X19995518Y-19260242D01*
X20046246Y-19291164D01*
X20360165Y-19605083D01*
X20367709Y-19613373D01*
X20371822Y-19619854D01*
X20377599Y-19625279D01*
X20421489Y-19666494D01*
X20424331Y-19669249D01*
X20444052Y-19688970D01*
X20447247Y-19691448D01*
X20456269Y-19699154D01*
X20488501Y-19729422D01*
X20495450Y-19733242D01*
X20506254Y-19739182D01*
X20522778Y-19750035D01*
X20538781Y-19762449D01*
X20579365Y-19780012D01*
X20589995Y-19785219D01*
X20628762Y-19806531D01*
X20636439Y-19808502D01*
X20636444Y-19808504D01*
X20648380Y-19811568D01*
X20667088Y-19817973D01*
X20685677Y-19826017D01*
X20693505Y-19827257D01*
X20693512Y-19827259D01*
X20729346Y-19832935D01*
X20740966Y-19835341D01*
X20776111Y-19844364D01*
X20783792Y-19846336D01*
X20804046Y-19846336D01*
X20823756Y-19847887D01*
X20843765Y-19851056D01*
X20851657Y-19850310D01*
X20887783Y-19846895D01*
X20899641Y-19846336D01*
X23544428Y-19846336D01*
X23612549Y-19866338D01*
X23647641Y-19900065D01*
X23754465Y-20052625D01*
X23757624Y-20057136D01*
X23919522Y-20219034D01*
X23924030Y-20222191D01*
X23924033Y-20222193D01*
X24002211Y-20276934D01*
X24107073Y-20350359D01*
X24112055Y-20352682D01*
X24112060Y-20352685D01*
X24146279Y-20368641D01*
X24199564Y-20415558D01*
X24219025Y-20483835D01*
X24198483Y-20551795D01*
X24146279Y-20597031D01*
X24112060Y-20612987D01*
X24112055Y-20612990D01*
X24107073Y-20615313D01*
X24002211Y-20688738D01*
X23924033Y-20743479D01*
X23924030Y-20743481D01*
X23919522Y-20746638D01*
X23757624Y-20908536D01*
X23754467Y-20913044D01*
X23754465Y-20913047D01*
X23647641Y-21065607D01*
X23592184Y-21109935D01*
X23544428Y-21119336D01*
X20902590Y-21119336D01*
X20891407Y-21118809D01*
X20883914Y-21117134D01*
X20875988Y-21117383D01*
X20875987Y-21117383D01*
X20815824Y-21119274D01*
X20811866Y-21119336D01*
X20783966Y-21119336D01*
X20779976Y-21119840D01*
X20768142Y-21120772D01*
X20723933Y-21122162D01*
X20716317Y-21124375D01*
X20716315Y-21124375D01*
X20704474Y-21127815D01*
X20685115Y-21131824D01*
X20683805Y-21131990D01*
X20665025Y-21134362D01*
X20657659Y-21137278D01*
X20657653Y-21137280D01*
X20623920Y-21150636D01*
X20612690Y-21154481D01*
X20577839Y-21164606D01*
X20570229Y-21166817D01*
X20563406Y-21170852D01*
X20552788Y-21177131D01*
X20535035Y-21185828D01*
X20527390Y-21188855D01*
X20516205Y-21193284D01*
X20509790Y-21197945D01*
X20480434Y-21219273D01*
X20470517Y-21225787D01*
X20432460Y-21248294D01*
X20418139Y-21262615D01*
X20403106Y-21275455D01*
X20386715Y-21287364D01*
X20381665Y-21293468D01*
X20381660Y-21293473D01*
X20358529Y-21321434D01*
X20350539Y-21330215D01*
X20046244Y-21634509D01*
X19983932Y-21668534D01*
X19924538Y-21667120D01*
X19893193Y-21658721D01*
X19673822Y-21639529D01*
X19454451Y-21658721D01*
X19241746Y-21715716D01*
X19173883Y-21747361D01*
X19047156Y-21806454D01*
X19047151Y-21806457D01*
X19042169Y-21808780D01*
X19037662Y-21811936D01*
X19037660Y-21811937D01*
X18866295Y-21931928D01*
X18866292Y-21931930D01*
X18861784Y-21935087D01*
X18706073Y-22090798D01*
X18702916Y-22095306D01*
X18702914Y-22095309D01*
X18600923Y-22240967D01*
X18579766Y-22271183D01*
X18577443Y-22276165D01*
X18577440Y-22276170D01*
X18550488Y-22333970D01*
X18486702Y-22470760D01*
X18429707Y-22683465D01*
X18410515Y-22902836D01*
X18429707Y-23122207D01*
X18486702Y-23334912D01*
X18489027Y-23339897D01*
X18577440Y-23529502D01*
X18577443Y-23529507D01*
X18579766Y-23534489D01*
X18582922Y-23538996D01*
X18582923Y-23538998D01*
X18693387Y-23696756D01*
X18706073Y-23714874D01*
X18861784Y-23870585D01*
X18866292Y-23873742D01*
X18866295Y-23873744D01*
X18903753Y-23899972D01*
X18986594Y-23957978D01*
X19030921Y-24013434D01*
X19040322Y-24061190D01*
X19040322Y-26749373D01*
X19020320Y-26817494D01*
X18966664Y-26863987D01*
X18947652Y-26870299D01*
X18947656Y-26870310D01*
X18779876Y-26926286D01*
X18629474Y-27019358D01*
X18504517Y-27144533D01*
X18501720Y-27149071D01*
X18444469Y-27189660D01*
X18373546Y-27192890D01*
X18312135Y-27157264D01*
X18304760Y-27148768D01*
X18296724Y-27138629D01*
X18181993Y-27024097D01*
X18170582Y-27015085D01*
X18032579Y-26930020D01*
X18019398Y-26923873D01*
X17865112Y-26872698D01*
X17851736Y-26869831D01*
X17757384Y-26860164D01*
X17750967Y-26859836D01*
X17725937Y-26859836D01*
X17710698Y-26864311D01*
X17709493Y-26865701D01*
X17707822Y-26873384D01*
X17707822Y-29307720D01*
X17712297Y-29322959D01*
X17713687Y-29324164D01*
X17721370Y-29325835D01*
X17750917Y-29325835D01*
X17757436Y-29325498D01*
X17853028Y-29315579D01*
X17866422Y-29312687D01*
X18020606Y-29261248D01*
X18033784Y-29255075D01*
X18171629Y-29169773D01*
X18183030Y-29160737D01*
X18297560Y-29046008D01*
X18304616Y-29037074D01*
X18362534Y-28996013D01*
X18433457Y-28992783D01*
X18494868Y-29028410D01*
X18501668Y-29036243D01*
X18505344Y-29042184D01*
X18510526Y-29047357D01*
X18556641Y-29093392D01*
X18630519Y-29167141D01*
X18636749Y-29170981D01*
X18636750Y-29170982D01*
X18774110Y-29255652D01*
X18781084Y-29259951D01*
X18848413Y-29282283D01*
X18942433Y-29313468D01*
X18942435Y-29313468D01*
X18948961Y-29315633D01*
X18955797Y-29316333D01*
X18955800Y-29316334D01*
X18998853Y-29320745D01*
X19053422Y-29326336D01*
X19654222Y-29326336D01*
X19657468Y-29325999D01*
X19657472Y-29325999D01*
X19753130Y-29316074D01*
X19753134Y-29316073D01*
X19759988Y-29315362D01*
X19766524Y-29313181D01*
X19766526Y-29313181D01*
X19898628Y-29269108D01*
X19927768Y-29259386D01*
X20078170Y-29166314D01*
X20095149Y-29149306D01*
X20157430Y-29115226D01*
X20228250Y-29120229D01*
X20285124Y-29162725D01*
X20309993Y-29229223D01*
X20310322Y-29238323D01*
X20310322Y-31200312D01*
X20290320Y-31268433D01*
X20277964Y-31284615D01*
X20204782Y-31365892D01*
X20199025Y-31375864D01*
X20142641Y-31473524D01*
X20109295Y-31531280D01*
X20050280Y-31712908D01*
X20030318Y-31902836D01*
X20031008Y-31909401D01*
X20049050Y-32081058D01*
X20050280Y-32092764D01*
X20109295Y-32274392D01*
X20112598Y-32280114D01*
X20112599Y-32280115D01*
X20130633Y-32311350D01*
X20204782Y-32439780D01*
X20209200Y-32444687D01*
X20209201Y-32444688D01*
X20320840Y-32568676D01*
X20332569Y-32581702D01*
X20487070Y-32693954D01*
X20493098Y-32696638D01*
X20493100Y-32696639D01*
X20655503Y-32768945D01*
X20661534Y-32771630D01*
X20754934Y-32791483D01*
X20841878Y-32809964D01*
X20841883Y-32809964D01*
X20848335Y-32811336D01*
X21039309Y-32811336D01*
X21045761Y-32809964D01*
X21045766Y-32809964D01*
X21132710Y-32791483D01*
X21226110Y-32771630D01*
X21232141Y-32768945D01*
X21394544Y-32696639D01*
X21394546Y-32696638D01*
X21400574Y-32693954D01*
X21555075Y-32581702D01*
X21566804Y-32568676D01*
X21678443Y-32444688D01*
X21678444Y-32444687D01*
X21682862Y-32439780D01*
X21757011Y-32311350D01*
X21775045Y-32280115D01*
X21775046Y-32280114D01*
X21778349Y-32274392D01*
X21837364Y-32092764D01*
X21838595Y-32081058D01*
X21856636Y-31909401D01*
X21857326Y-31902836D01*
X21837364Y-31712908D01*
X21778349Y-31531280D01*
X21745004Y-31473524D01*
X21688619Y-31375864D01*
X21682862Y-31365892D01*
X21609685Y-31284621D01*
X21578969Y-31220615D01*
X21577322Y-31200312D01*
X21577322Y-25867430D01*
X21597324Y-25799309D01*
X21614227Y-25778335D01*
X22491828Y-24900734D01*
X22554140Y-24866708D01*
X22580923Y-24863829D01*
X23506040Y-24863829D01*
X23574161Y-24883831D01*
X23620234Y-24936579D01*
X23626299Y-24949585D01*
X23629453Y-24954089D01*
X23738055Y-25109188D01*
X23757624Y-25137136D01*
X23919522Y-25299034D01*
X23924030Y-25302191D01*
X23924033Y-25302193D01*
X23946288Y-25317776D01*
X24107073Y-25430359D01*
X24112055Y-25432682D01*
X24112060Y-25432685D01*
X24146279Y-25448641D01*
X24199564Y-25495558D01*
X24219025Y-25563835D01*
X24198483Y-25631795D01*
X24146279Y-25677031D01*
X24112060Y-25692987D01*
X24112055Y-25692990D01*
X24107073Y-25695313D01*
X24002211Y-25768738D01*
X23924033Y-25823479D01*
X23924030Y-25823481D01*
X23919522Y-25826638D01*
X23757624Y-25988536D01*
X23626299Y-26176087D01*
X23623976Y-26181069D01*
X23623973Y-26181074D01*
X23546451Y-26347322D01*
X23529538Y-26383593D01*
X23470279Y-26604749D01*
X23450324Y-26832836D01*
X23470279Y-27060923D01*
X23471703Y-27066236D01*
X23471703Y-27066238D01*
X23494436Y-27151076D01*
X23529538Y-27282079D01*
X23531861Y-27287060D01*
X23531861Y-27287061D01*
X23623973Y-27484598D01*
X23623976Y-27484603D01*
X23626299Y-27489585D01*
X23757624Y-27677136D01*
X23919522Y-27839034D01*
X23924030Y-27842191D01*
X23924033Y-27842193D01*
X24002211Y-27896934D01*
X24107073Y-27970359D01*
X24112055Y-27972682D01*
X24112060Y-27972685D01*
X24146279Y-27988641D01*
X24199564Y-28035558D01*
X24219025Y-28103835D01*
X24198483Y-28171795D01*
X24146279Y-28217031D01*
X24112060Y-28232987D01*
X24112055Y-28232990D01*
X24107073Y-28235313D01*
X24002211Y-28308738D01*
X23924033Y-28363479D01*
X23924030Y-28363481D01*
X23919522Y-28366638D01*
X23757624Y-28528536D01*
X23626299Y-28716087D01*
X23623976Y-28721069D01*
X23623973Y-28721074D01*
X23541566Y-28897798D01*
X23529538Y-28923593D01*
X23528116Y-28928901D01*
X23528115Y-28928903D01*
X23498041Y-29041139D01*
X23470279Y-29144749D01*
X23450324Y-29372836D01*
X23470279Y-29600923D01*
X23471703Y-29606236D01*
X23471703Y-29606238D01*
X23526718Y-29811553D01*
X23529538Y-29822079D01*
X23531861Y-29827060D01*
X23531861Y-29827061D01*
X23623973Y-30024598D01*
X23623976Y-30024603D01*
X23626299Y-30029585D01*
X23757624Y-30217136D01*
X23919522Y-30379034D01*
X23924030Y-30382191D01*
X23924033Y-30382193D01*
X23974323Y-30417406D01*
X24107073Y-30510359D01*
X24112055Y-30512682D01*
X24112060Y-30512685D01*
X24146279Y-30528641D01*
X24199564Y-30575558D01*
X24219025Y-30643835D01*
X24198483Y-30711795D01*
X24146279Y-30757031D01*
X24112060Y-30772987D01*
X24112055Y-30772990D01*
X24107073Y-30775313D01*
X24016426Y-30838785D01*
X23924033Y-30903479D01*
X23924030Y-30903481D01*
X23919522Y-30906638D01*
X23757624Y-31068536D01*
X23626299Y-31256087D01*
X23623976Y-31261069D01*
X23623973Y-31261074D01*
X23576209Y-31363505D01*
X23529538Y-31463593D01*
X23528116Y-31468901D01*
X23528115Y-31468903D01*
X23505815Y-31552128D01*
X23470279Y-31684749D01*
X23450324Y-31912836D01*
X23470279Y-32140923D01*
X23471702Y-32146234D01*
X23471703Y-32146238D01*
X23526718Y-32351553D01*
X23529538Y-32362079D01*
X23531861Y-32367060D01*
X23531861Y-32367061D01*
X23623973Y-32564598D01*
X23623976Y-32564603D01*
X23626299Y-32569585D01*
X23757624Y-32757136D01*
X23919522Y-32919034D01*
X23924030Y-32922191D01*
X23924033Y-32922193D01*
X23974323Y-32957406D01*
X24107073Y-33050359D01*
X24112055Y-33052682D01*
X24112060Y-33052685D01*
X24272810Y-33127643D01*
X24314579Y-33147120D01*
X24319887Y-33148542D01*
X24319889Y-33148543D01*
X24530420Y-33204955D01*
X24530422Y-33204955D01*
X24535735Y-33206379D01*
X24763822Y-33226334D01*
X24991909Y-33206379D01*
X24997222Y-33204955D01*
X24997224Y-33204955D01*
X25207755Y-33148543D01*
X25207757Y-33148542D01*
X25213065Y-33147120D01*
X25254834Y-33127643D01*
X25415584Y-33052685D01*
X25415589Y-33052682D01*
X25420571Y-33050359D01*
X25553321Y-32957406D01*
X25603611Y-32922193D01*
X25603614Y-32922191D01*
X25608122Y-32919034D01*
X25770020Y-32757136D01*
X25901345Y-32569585D01*
X25903668Y-32564603D01*
X25903671Y-32564598D01*
X25995783Y-32367061D01*
X25995783Y-32367060D01*
X25998106Y-32362079D01*
X26000927Y-32351553D01*
X26014902Y-32299395D01*
X26051854Y-32238772D01*
X26115714Y-32207751D01*
X26186209Y-32216179D01*
X26212601Y-32233050D01*
X26213146Y-32232299D01*
X26331329Y-32318164D01*
X26367647Y-32344551D01*
X26373675Y-32347235D01*
X26373677Y-32347236D01*
X26536080Y-32419542D01*
X26542111Y-32422227D01*
X26624691Y-32439780D01*
X26722455Y-32460561D01*
X26722460Y-32460561D01*
X26728912Y-32461933D01*
X26919886Y-32461933D01*
X26926338Y-32460561D01*
X26926343Y-32460561D01*
X27024107Y-32439780D01*
X27106687Y-32422227D01*
X27112718Y-32419542D01*
X27275121Y-32347236D01*
X27275123Y-32347235D01*
X27281151Y-32344551D01*
X27317470Y-32318164D01*
X27369839Y-32280115D01*
X27435652Y-32232299D01*
X27446991Y-32219706D01*
X27559020Y-32095285D01*
X27559021Y-32095284D01*
X27563439Y-32090377D01*
X27653255Y-31934812D01*
X27655622Y-31930712D01*
X27655623Y-31930711D01*
X27658926Y-31924989D01*
X27717941Y-31743361D01*
X27723609Y-31689439D01*
X27737213Y-31559998D01*
X27737903Y-31553433D01*
X27719606Y-31379347D01*
X27718631Y-31370068D01*
X27718631Y-31370066D01*
X27717941Y-31363505D01*
X27658926Y-31181877D01*
X27563439Y-31016489D01*
X27501179Y-30947342D01*
X27470461Y-30883335D01*
X27468815Y-30863032D01*
X27468815Y-25075937D01*
X27488817Y-25007816D01*
X27505720Y-24986842D01*
X30857233Y-21635330D01*
X30919545Y-21601304D01*
X30990361Y-21606369D01*
X31047196Y-21648916D01*
X31072007Y-21715436D01*
X31071848Y-21735408D01*
X31070803Y-21747351D01*
X31070803Y-21747361D01*
X31070324Y-21752836D01*
X31090279Y-21980923D01*
X31091703Y-21986236D01*
X31091703Y-21986238D01*
X31148017Y-22196401D01*
X31149538Y-22202079D01*
X31151861Y-22207060D01*
X31151861Y-22207061D01*
X31243973Y-22404598D01*
X31243976Y-22404603D01*
X31246299Y-22409585D01*
X31316639Y-22510040D01*
X31352881Y-22561799D01*
X31377624Y-22597136D01*
X31539522Y-22759034D01*
X31544030Y-22762191D01*
X31544033Y-22762193D01*
X31621777Y-22816630D01*
X31727073Y-22890359D01*
X31732055Y-22892682D01*
X31732060Y-22892685D01*
X31766279Y-22908641D01*
X31819564Y-22955558D01*
X31839025Y-23023835D01*
X31818483Y-23091795D01*
X31766279Y-23137031D01*
X31732060Y-23152987D01*
X31732055Y-23152990D01*
X31727073Y-23155313D01*
X31668679Y-23196201D01*
X31544033Y-23283479D01*
X31544030Y-23283481D01*
X31539522Y-23286638D01*
X31377624Y-23448536D01*
X31246299Y-23636087D01*
X31243976Y-23641069D01*
X31243973Y-23641074D01*
X31157915Y-23825629D01*
X31149538Y-23843593D01*
X31148116Y-23848901D01*
X31148115Y-23848903D01*
X31098829Y-24032841D01*
X31090279Y-24064749D01*
X31070324Y-24292836D01*
X31090279Y-24520923D01*
X31091703Y-24526236D01*
X31091703Y-24526238D01*
X31106966Y-24583198D01*
X31149538Y-24742079D01*
X31151861Y-24747060D01*
X31151861Y-24747061D01*
X31243973Y-24944598D01*
X31243976Y-24944603D01*
X31246299Y-24949585D01*
X31281532Y-24999903D01*
X31358055Y-25109188D01*
X31377624Y-25137136D01*
X31539522Y-25299034D01*
X31544030Y-25302191D01*
X31544033Y-25302193D01*
X31566288Y-25317776D01*
X31727073Y-25430359D01*
X31732055Y-25432682D01*
X31732060Y-25432685D01*
X31766279Y-25448641D01*
X31819564Y-25495558D01*
X31839025Y-25563835D01*
X31818483Y-25631795D01*
X31766279Y-25677031D01*
X31732060Y-25692987D01*
X31732055Y-25692990D01*
X31727073Y-25695313D01*
X31622211Y-25768738D01*
X31544033Y-25823479D01*
X31544030Y-25823481D01*
X31539522Y-25826638D01*
X31377624Y-25988536D01*
X31246299Y-26176087D01*
X31243976Y-26181069D01*
X31243973Y-26181074D01*
X31166451Y-26347322D01*
X31149538Y-26383593D01*
X31090279Y-26604749D01*
X31070324Y-26832836D01*
X31090279Y-27060923D01*
X31091703Y-27066236D01*
X31091703Y-27066238D01*
X31114436Y-27151076D01*
X31149538Y-27282079D01*
X31151861Y-27287060D01*
X31151861Y-27287061D01*
X31243973Y-27484598D01*
X31243976Y-27484603D01*
X31246299Y-27489585D01*
X31377624Y-27677136D01*
X31539522Y-27839034D01*
X31544030Y-27842191D01*
X31544033Y-27842193D01*
X31622211Y-27896934D01*
X31727073Y-27970359D01*
X31732055Y-27972682D01*
X31732060Y-27972685D01*
X31766279Y-27988641D01*
X31819564Y-28035558D01*
X31839025Y-28103835D01*
X31818483Y-28171795D01*
X31766279Y-28217031D01*
X31732060Y-28232987D01*
X31732055Y-28232990D01*
X31727073Y-28235313D01*
X31622211Y-28308738D01*
X31544033Y-28363479D01*
X31544030Y-28363481D01*
X31539522Y-28366638D01*
X31377624Y-28528536D01*
X31246299Y-28716087D01*
X31243976Y-28721069D01*
X31243973Y-28721074D01*
X31161566Y-28897798D01*
X31149538Y-28923593D01*
X31148116Y-28928901D01*
X31148115Y-28928903D01*
X31118041Y-29041139D01*
X31090279Y-29144749D01*
X31070324Y-29372836D01*
X31090279Y-29600923D01*
X31091703Y-29606236D01*
X31091703Y-29606238D01*
X31146718Y-29811553D01*
X31149538Y-29822079D01*
X31151861Y-29827060D01*
X31151861Y-29827061D01*
X31243973Y-30024598D01*
X31243976Y-30024603D01*
X31246299Y-30029585D01*
X31377624Y-30217136D01*
X31539522Y-30379034D01*
X31544030Y-30382191D01*
X31544033Y-30382193D01*
X31594323Y-30417406D01*
X31727073Y-30510359D01*
X31732055Y-30512682D01*
X31732060Y-30512685D01*
X31766279Y-30528641D01*
X31819564Y-30575558D01*
X31839025Y-30643835D01*
X31818483Y-30711795D01*
X31766279Y-30757031D01*
X31732060Y-30772987D01*
X31732055Y-30772990D01*
X31727073Y-30775313D01*
X31636426Y-30838785D01*
X31544033Y-30903479D01*
X31544030Y-30903481D01*
X31539522Y-30906638D01*
X31377624Y-31068536D01*
X31246299Y-31256087D01*
X31243976Y-31261069D01*
X31243973Y-31261074D01*
X31196209Y-31363505D01*
X31149538Y-31463593D01*
X31148116Y-31468901D01*
X31148115Y-31468903D01*
X31125815Y-31552128D01*
X31090279Y-31684749D01*
X31070324Y-31912836D01*
X31090279Y-32140923D01*
X31103528Y-32190366D01*
X31107282Y-32204377D01*
X31105592Y-32275354D01*
X31074670Y-32326083D01*
X29628322Y-33772431D01*
X29566010Y-33806457D01*
X29539227Y-33809336D01*
X23562590Y-33809336D01*
X23551407Y-33808809D01*
X23543914Y-33807134D01*
X23535988Y-33807383D01*
X23535987Y-33807383D01*
X23475824Y-33809274D01*
X23471866Y-33809336D01*
X23443966Y-33809336D01*
X23439976Y-33809840D01*
X23428142Y-33810772D01*
X23383933Y-33812162D01*
X23376317Y-33814375D01*
X23376315Y-33814375D01*
X23364474Y-33817815D01*
X23345115Y-33821824D01*
X23343805Y-33821990D01*
X23325025Y-33824362D01*
X23317659Y-33827278D01*
X23317653Y-33827280D01*
X23283920Y-33840636D01*
X23272690Y-33844481D01*
X23237839Y-33854606D01*
X23230229Y-33856817D01*
X23223406Y-33860852D01*
X23212788Y-33867131D01*
X23195035Y-33875828D01*
X23187390Y-33878855D01*
X23176205Y-33883284D01*
X23169790Y-33887945D01*
X23140434Y-33909273D01*
X23130517Y-33915787D01*
X23092460Y-33938294D01*
X23078139Y-33952615D01*
X23063106Y-33965455D01*
X23046715Y-33977364D01*
X23041664Y-33983470D01*
X23018524Y-34011441D01*
X23010534Y-34020220D01*
X20580585Y-36450168D01*
X20572299Y-36457708D01*
X20565820Y-36461820D01*
X20560395Y-36467597D01*
X20519195Y-36511471D01*
X20516440Y-36514313D01*
X20496703Y-36534050D01*
X20494223Y-36537247D01*
X20486520Y-36546267D01*
X20456252Y-36578499D01*
X20452433Y-36585445D01*
X20452431Y-36585448D01*
X20446490Y-36596254D01*
X20435639Y-36612773D01*
X20423224Y-36628779D01*
X20420079Y-36636048D01*
X20420076Y-36636052D01*
X20405664Y-36669357D01*
X20400447Y-36680007D01*
X20379143Y-36718760D01*
X20377172Y-36726435D01*
X20377172Y-36726436D01*
X20374105Y-36738382D01*
X20367701Y-36757086D01*
X20359657Y-36775675D01*
X20358418Y-36783498D01*
X20358415Y-36783508D01*
X20352739Y-36819344D01*
X20350333Y-36830964D01*
X20339338Y-36873790D01*
X20339338Y-36894044D01*
X20337787Y-36913754D01*
X20334618Y-36933763D01*
X20335364Y-36941655D01*
X20338779Y-36977781D01*
X20339338Y-36989639D01*
X20339338Y-42849107D01*
X20319336Y-42917228D01*
X20271521Y-42960868D01*
X20246445Y-42973922D01*
X20242312Y-42977025D01*
X20242309Y-42977027D01*
X20084819Y-43095274D01*
X20067803Y-43108050D01*
X19913467Y-43269553D01*
X19806039Y-43427036D01*
X19751131Y-43472036D01*
X19680606Y-43480207D01*
X19616859Y-43448953D01*
X19596162Y-43424469D01*
X19515660Y-43300032D01*
X19515658Y-43300029D01*
X19512852Y-43295692D01*
X19362508Y-43130466D01*
X19358457Y-43127267D01*
X19358453Y-43127263D01*
X19191252Y-42995215D01*
X19191248Y-42995213D01*
X19187197Y-42992013D01*
X19182669Y-42989513D01*
X19066826Y-42925565D01*
X18991627Y-42884053D01*
X18986758Y-42882329D01*
X18986754Y-42882327D01*
X18785925Y-42811210D01*
X18785921Y-42811209D01*
X18781050Y-42809484D01*
X18775957Y-42808577D01*
X18775954Y-42808576D01*
X18566211Y-42771215D01*
X18566205Y-42771214D01*
X18561122Y-42770309D01*
X18487290Y-42769407D01*
X18342919Y-42767643D01*
X18342917Y-42767643D01*
X18337749Y-42767580D01*
X18116929Y-42801370D01*
X17904594Y-42870772D01*
X17874281Y-42886552D01*
X17730813Y-42961237D01*
X17706445Y-42973922D01*
X17702312Y-42977025D01*
X17702309Y-42977027D01*
X17544819Y-43095274D01*
X17527803Y-43108050D01*
X17373467Y-43269553D01*
X17247581Y-43454095D01*
X17153526Y-43656720D01*
X17093827Y-43871985D01*
X17070089Y-44094110D01*
X17082948Y-44317130D01*
X17084085Y-44322176D01*
X17084086Y-44322182D01*
X17108142Y-44428923D01*
X17132060Y-44535054D01*
X17216104Y-44742031D01*
X17267780Y-44826359D01*
X17330129Y-44928103D01*
X17332825Y-44932503D01*
X17479088Y-45101353D01*
X17549610Y-45159901D01*
X17589246Y-45218804D01*
X17590744Y-45289785D01*
X17553630Y-45350308D01*
X17522577Y-45370947D01*
X17502878Y-45380175D01*
X17365031Y-45465478D01*
X17353630Y-45474514D01*
X17239099Y-45589244D01*
X17230087Y-45600655D01*
X17145022Y-45738658D01*
X17138875Y-45751839D01*
X17087700Y-45906125D01*
X17084833Y-45919501D01*
X17075166Y-46013853D01*
X17074838Y-46020270D01*
X17074838Y-46395300D01*
X17079313Y-46410539D01*
X17080703Y-46411744D01*
X17088386Y-46413415D01*
X18560838Y-46413415D01*
X18628959Y-46433417D01*
X18675452Y-46487073D01*
X18686838Y-46539415D01*
X18686838Y-48007299D01*
X18691313Y-48022538D01*
X18692703Y-48023743D01*
X18700386Y-48025414D01*
X19079933Y-48025414D01*
X19086452Y-48025077D01*
X19182044Y-48015158D01*
X19195438Y-48012266D01*
X19349622Y-47960827D01*
X19362800Y-47954654D01*
X19500645Y-47869352D01*
X19512046Y-47860316D01*
X19626577Y-47745586D01*
X19635589Y-47734175D01*
X19720656Y-47596170D01*
X19729238Y-47577765D01*
X19776154Y-47524480D01*
X19844431Y-47505018D01*
X19912392Y-47525559D01*
X19938670Y-47548516D01*
X19964006Y-47577765D01*
X20015704Y-47637447D01*
X20015707Y-47637450D01*
X20019088Y-47641353D01*
X20190964Y-47784047D01*
X20383838Y-47896753D01*
X20592530Y-47976445D01*
X20597598Y-47977476D01*
X20597601Y-47977477D01*
X20704855Y-47999298D01*
X20811435Y-48020982D01*
X20816610Y-48021172D01*
X20816612Y-48021172D01*
X21029511Y-48028979D01*
X21029515Y-48028979D01*
X21034675Y-48029168D01*
X21039795Y-48028512D01*
X21039797Y-48028512D01*
X21251126Y-48001440D01*
X21251127Y-48001440D01*
X21256254Y-48000783D01*
X21261204Y-47999298D01*
X21465267Y-47938076D01*
X21465272Y-47938074D01*
X21470222Y-47936589D01*
X21670832Y-47838311D01*
X21852698Y-47708588D01*
X21858265Y-47703041D01*
X21964298Y-47597377D01*
X22010934Y-47550904D01*
X22029922Y-47524480D01*
X22141291Y-47369492D01*
X22142614Y-47370443D01*
X22189483Y-47327272D01*
X22259418Y-47315040D01*
X22324864Y-47342559D01*
X22352713Y-47374409D01*
X22412825Y-47472503D01*
X22559088Y-47641353D01*
X22730964Y-47784047D01*
X22923838Y-47896753D01*
X23132530Y-47976445D01*
X23137598Y-47977476D01*
X23137601Y-47977477D01*
X23244855Y-47999298D01*
X23351435Y-48020982D01*
X23356610Y-48021172D01*
X23356612Y-48021172D01*
X23569511Y-48028979D01*
X23569515Y-48028979D01*
X23574675Y-48029168D01*
X23579795Y-48028512D01*
X23579797Y-48028512D01*
X23791126Y-48001440D01*
X23791127Y-48001440D01*
X23796254Y-48000783D01*
X23801204Y-47999298D01*
X24005267Y-47938076D01*
X24005272Y-47938074D01*
X24010222Y-47936589D01*
X24210832Y-47838311D01*
X24392698Y-47708588D01*
X24398265Y-47703041D01*
X24504298Y-47597377D01*
X24550934Y-47550904D01*
X24569922Y-47524480D01*
X24681291Y-47369492D01*
X24682614Y-47370443D01*
X24729483Y-47327272D01*
X24799418Y-47315040D01*
X24864864Y-47342559D01*
X24892713Y-47374409D01*
X24952825Y-47472503D01*
X25099088Y-47641353D01*
X25270964Y-47784047D01*
X25463838Y-47896753D01*
X25672530Y-47976445D01*
X25677598Y-47977476D01*
X25677601Y-47977477D01*
X25784855Y-47999298D01*
X25891435Y-48020982D01*
X25896610Y-48021172D01*
X25896612Y-48021172D01*
X26109511Y-48028979D01*
X26109515Y-48028979D01*
X26114675Y-48029168D01*
X26119795Y-48028512D01*
X26119797Y-48028512D01*
X26331126Y-48001440D01*
X26331127Y-48001440D01*
X26336254Y-48000783D01*
X26341204Y-47999298D01*
X26545267Y-47938076D01*
X26545272Y-47938074D01*
X26550222Y-47936589D01*
X26750832Y-47838311D01*
X26932698Y-47708588D01*
X26938265Y-47703041D01*
X27044298Y-47597377D01*
X27090934Y-47550904D01*
X27109922Y-47524480D01*
X27221291Y-47369492D01*
X27222614Y-47370443D01*
X27269483Y-47327272D01*
X27339418Y-47315040D01*
X27404864Y-47342559D01*
X27432713Y-47374409D01*
X27492825Y-47472503D01*
X27639088Y-47641353D01*
X27810964Y-47784047D01*
X28003838Y-47896753D01*
X28212530Y-47976445D01*
X28217598Y-47977476D01*
X28217601Y-47977477D01*
X28324855Y-47999298D01*
X28431435Y-48020982D01*
X28436610Y-48021172D01*
X28436612Y-48021172D01*
X28649511Y-48028979D01*
X28649515Y-48028979D01*
X28654675Y-48029168D01*
X28659795Y-48028512D01*
X28659797Y-48028512D01*
X28871126Y-48001440D01*
X28871127Y-48001440D01*
X28876254Y-48000783D01*
X29084229Y-47938387D01*
X29155224Y-47937970D01*
X29215174Y-47976003D01*
X29245046Y-48040409D01*
X29246436Y-48059073D01*
X29246436Y-50394430D01*
X29226434Y-50462551D01*
X29182488Y-50501009D01*
X29183715Y-50502991D01*
X29033313Y-50596063D01*
X28908356Y-50721238D01*
X28815546Y-50871803D01*
X28759864Y-51039680D01*
X28749161Y-51144141D01*
X28749161Y-52144941D01*
X28749498Y-52148187D01*
X28749498Y-52148191D01*
X28759413Y-52243747D01*
X28760135Y-52250707D01*
X28816111Y-52418487D01*
X28909183Y-52568889D01*
X29034358Y-52693846D01*
X29040588Y-52697686D01*
X29040589Y-52697687D01*
X29177949Y-52782357D01*
X29184923Y-52786656D01*
X29252180Y-52808964D01*
X29346272Y-52840173D01*
X29346274Y-52840173D01*
X29352800Y-52842338D01*
X29359636Y-52843038D01*
X29359639Y-52843039D01*
X29402692Y-52847450D01*
X29457261Y-52853041D01*
X30083061Y-52853041D01*
X30086307Y-52852704D01*
X30086311Y-52852704D01*
X30181969Y-52842779D01*
X30181973Y-52842778D01*
X30188827Y-52842067D01*
X30195363Y-52839886D01*
X30195365Y-52839886D01*
X30345454Y-52789812D01*
X30356607Y-52786091D01*
X30507009Y-52693019D01*
X30593445Y-52606432D01*
X30655727Y-52572353D01*
X30726547Y-52577356D01*
X30771636Y-52606277D01*
X30804102Y-52638686D01*
X30859358Y-52693846D01*
X30865588Y-52697686D01*
X30865589Y-52697687D01*
X31002949Y-52782357D01*
X31009923Y-52786656D01*
X31077180Y-52808964D01*
X31171272Y-52840173D01*
X31171274Y-52840173D01*
X31177800Y-52842338D01*
X31184636Y-52843038D01*
X31184639Y-52843039D01*
X31227692Y-52847450D01*
X31282261Y-52853041D01*
X31855567Y-52853041D01*
X31923688Y-52873043D01*
X31944662Y-52889946D01*
X32349595Y-53294879D01*
X32383621Y-53357191D01*
X32386500Y-53383974D01*
X32386500Y-53907476D01*
X32366498Y-53975597D01*
X32354142Y-53991779D01*
X32280960Y-54073056D01*
X32185473Y-54238444D01*
X32126458Y-54420072D01*
X32106496Y-54610000D01*
X32126458Y-54799928D01*
X32185473Y-54981556D01*
X32280960Y-55146944D01*
X32408747Y-55288866D01*
X32563248Y-55401118D01*
X32569276Y-55403802D01*
X32569278Y-55403803D01*
X32731681Y-55476109D01*
X32737712Y-55478794D01*
X32831113Y-55498647D01*
X32918056Y-55517128D01*
X32918061Y-55517128D01*
X32924513Y-55518500D01*
X33115487Y-55518500D01*
X33121939Y-55517128D01*
X33121944Y-55517128D01*
X33208888Y-55498647D01*
X33302288Y-55478794D01*
X33308319Y-55476109D01*
X33470722Y-55403803D01*
X33470724Y-55403802D01*
X33476752Y-55401118D01*
X33631253Y-55288866D01*
X33759040Y-55146944D01*
X33854527Y-54981556D01*
X33913542Y-54799928D01*
X33933504Y-54610000D01*
X33913542Y-54420072D01*
X33854527Y-54238444D01*
X33759040Y-54073056D01*
X33685863Y-53991785D01*
X33655147Y-53927779D01*
X33653500Y-53907476D01*
X33653500Y-53148148D01*
X33654027Y-53136965D01*
X33655702Y-53129472D01*
X33653562Y-53061381D01*
X33653500Y-53057424D01*
X33653500Y-53029524D01*
X33652996Y-53025533D01*
X33652063Y-53013691D01*
X33650923Y-52977416D01*
X33650674Y-52969491D01*
X33645021Y-52950032D01*
X33641012Y-52930673D01*
X33640846Y-52929363D01*
X33638474Y-52910583D01*
X33635558Y-52903217D01*
X33635556Y-52903211D01*
X33622200Y-52869478D01*
X33618355Y-52858248D01*
X33608230Y-52823397D01*
X33608230Y-52823396D01*
X33606019Y-52815787D01*
X33595705Y-52798346D01*
X33587008Y-52780593D01*
X33582472Y-52769138D01*
X33579552Y-52761763D01*
X33553563Y-52725992D01*
X33547047Y-52716072D01*
X33536174Y-52697687D01*
X33524542Y-52678018D01*
X33510221Y-52663697D01*
X33497380Y-52648663D01*
X33490131Y-52638686D01*
X33485472Y-52632273D01*
X33479368Y-52627223D01*
X33479363Y-52627218D01*
X33451402Y-52604087D01*
X33442621Y-52596097D01*
X32988161Y-52141636D01*
X34624604Y-52141636D01*
X34624941Y-52148155D01*
X34634860Y-52243747D01*
X34637752Y-52257141D01*
X34689191Y-52411325D01*
X34695364Y-52424503D01*
X34780666Y-52562348D01*
X34789702Y-52573749D01*
X34904432Y-52688280D01*
X34915843Y-52697292D01*
X35053846Y-52782357D01*
X35067027Y-52788504D01*
X35221313Y-52839679D01*
X35234689Y-52842546D01*
X35329041Y-52852213D01*
X35335457Y-52852541D01*
X35372988Y-52852541D01*
X35388227Y-52848066D01*
X35389432Y-52846676D01*
X35391103Y-52838993D01*
X35391103Y-51916656D01*
X35386628Y-51901417D01*
X35385238Y-51900212D01*
X35377555Y-51898541D01*
X34642719Y-51898541D01*
X34627480Y-51903016D01*
X34626275Y-51904406D01*
X34624604Y-51912089D01*
X34624604Y-52141636D01*
X32988161Y-52141636D01*
X32653065Y-51806540D01*
X32619040Y-51744228D01*
X32616161Y-51717445D01*
X32616161Y-51372426D01*
X34624603Y-51372426D01*
X34629078Y-51387665D01*
X34630468Y-51388870D01*
X34638151Y-51390541D01*
X35372988Y-51390541D01*
X35388227Y-51386066D01*
X35389432Y-51384676D01*
X35391103Y-51376993D01*
X35391103Y-50454657D01*
X35386628Y-50439418D01*
X35385238Y-50438213D01*
X35377555Y-50436542D01*
X35335508Y-50436542D01*
X35328989Y-50436879D01*
X35233397Y-50446798D01*
X35220003Y-50449690D01*
X35065819Y-50501129D01*
X35052641Y-50507302D01*
X34914796Y-50592604D01*
X34903395Y-50601640D01*
X34788864Y-50716370D01*
X34779852Y-50727781D01*
X34694787Y-50865784D01*
X34688640Y-50878965D01*
X34637465Y-51033251D01*
X34634598Y-51046627D01*
X34624931Y-51140979D01*
X34624603Y-51147396D01*
X34624603Y-51372426D01*
X32616161Y-51372426D01*
X32616161Y-51144141D01*
X32615824Y-51140891D01*
X32605899Y-51045233D01*
X32605898Y-51045229D01*
X32605187Y-51038375D01*
X32549211Y-50870595D01*
X32456139Y-50720193D01*
X32330964Y-50595236D01*
X32288543Y-50569087D01*
X32186629Y-50506266D01*
X32186627Y-50506265D01*
X32180399Y-50502426D01*
X32090039Y-50472455D01*
X32019050Y-50448909D01*
X32019048Y-50448909D01*
X32012522Y-50446744D01*
X32005686Y-50446044D01*
X32005683Y-50446043D01*
X31962630Y-50441632D01*
X31908061Y-50436041D01*
X31282261Y-50436041D01*
X31279015Y-50436378D01*
X31279011Y-50436378D01*
X31183353Y-50446303D01*
X31183349Y-50446304D01*
X31176495Y-50447015D01*
X31169959Y-50449196D01*
X31169957Y-50449196D01*
X31037855Y-50493269D01*
X31008715Y-50502991D01*
X30858313Y-50596063D01*
X30853140Y-50601245D01*
X30771877Y-50682650D01*
X30709595Y-50716729D01*
X30638775Y-50711726D01*
X30593687Y-50682806D01*
X30550419Y-50639614D01*
X30516339Y-50577331D01*
X30513436Y-50550440D01*
X30513436Y-48068133D01*
X30533438Y-48000012D01*
X30587094Y-47953519D01*
X30657368Y-47943415D01*
X30684386Y-47950423D01*
X30752530Y-47976445D01*
X30757598Y-47977476D01*
X30757601Y-47977477D01*
X30864855Y-47999298D01*
X30971435Y-48020982D01*
X30976610Y-48021172D01*
X30976612Y-48021172D01*
X31189511Y-48028979D01*
X31189515Y-48028979D01*
X31194675Y-48029168D01*
X31199795Y-48028512D01*
X31199797Y-48028512D01*
X31411126Y-48001440D01*
X31411127Y-48001440D01*
X31416254Y-48000783D01*
X31421204Y-47999298D01*
X31625267Y-47938076D01*
X31625272Y-47938074D01*
X31630222Y-47936589D01*
X31830832Y-47838311D01*
X32012698Y-47708588D01*
X32018265Y-47703041D01*
X32124298Y-47597377D01*
X32170934Y-47550904D01*
X32189922Y-47524480D01*
X32301291Y-47369492D01*
X32302614Y-47370443D01*
X32349483Y-47327272D01*
X32419418Y-47315040D01*
X32484864Y-47342559D01*
X32512713Y-47374409D01*
X32572825Y-47472503D01*
X32719088Y-47641353D01*
X32890964Y-47784047D01*
X33083838Y-47896753D01*
X33292530Y-47976445D01*
X33297598Y-47977476D01*
X33297601Y-47977477D01*
X33404855Y-47999298D01*
X33511435Y-48020982D01*
X33516610Y-48021172D01*
X33516612Y-48021172D01*
X33729511Y-48028979D01*
X33729515Y-48028979D01*
X33734675Y-48029168D01*
X33739795Y-48028512D01*
X33739797Y-48028512D01*
X33951126Y-48001440D01*
X33951127Y-48001440D01*
X33956254Y-48000783D01*
X33961204Y-47999298D01*
X34165267Y-47938076D01*
X34165272Y-47938074D01*
X34170222Y-47936589D01*
X34370832Y-47838311D01*
X34552698Y-47708588D01*
X34558265Y-47703041D01*
X34664298Y-47597377D01*
X34710934Y-47550904D01*
X34729922Y-47524480D01*
X34841291Y-47369492D01*
X34842614Y-47370443D01*
X34889483Y-47327272D01*
X34959418Y-47315040D01*
X35024864Y-47342559D01*
X35052713Y-47374409D01*
X35112825Y-47472503D01*
X35259088Y-47641353D01*
X35430964Y-47784047D01*
X35623838Y-47896753D01*
X35832530Y-47976445D01*
X35837598Y-47977476D01*
X35837601Y-47977477D01*
X35944855Y-47999298D01*
X36051435Y-48020982D01*
X36056610Y-48021172D01*
X36056612Y-48021172D01*
X36269511Y-48028979D01*
X36269515Y-48028979D01*
X36274675Y-48029168D01*
X36279795Y-48028512D01*
X36279797Y-48028512D01*
X36491126Y-48001440D01*
X36491127Y-48001440D01*
X36496254Y-48000783D01*
X36536795Y-47988620D01*
X36674395Y-47947338D01*
X36745391Y-47946922D01*
X36805341Y-47984954D01*
X36835213Y-48049360D01*
X36836603Y-48068024D01*
X36836603Y-50461907D01*
X36816601Y-50530028D01*
X36776907Y-50569050D01*
X36733255Y-50596063D01*
X36728082Y-50601245D01*
X36646465Y-50683004D01*
X36584182Y-50717083D01*
X36513362Y-50712080D01*
X36468274Y-50683159D01*
X36385774Y-50600802D01*
X36374363Y-50591790D01*
X36236360Y-50506725D01*
X36223179Y-50500578D01*
X36068893Y-50449403D01*
X36055517Y-50446536D01*
X35961165Y-50436869D01*
X35954748Y-50436541D01*
X35917218Y-50436541D01*
X35901979Y-50441016D01*
X35900774Y-50442406D01*
X35899103Y-50450089D01*
X35899103Y-52834425D01*
X35903578Y-52849664D01*
X35904968Y-52850869D01*
X35912651Y-52852540D01*
X35954698Y-52852540D01*
X35961217Y-52852203D01*
X36056809Y-52842284D01*
X36070203Y-52839392D01*
X36224387Y-52787953D01*
X36237565Y-52781780D01*
X36375410Y-52696478D01*
X36386811Y-52687442D01*
X36468033Y-52606079D01*
X36530316Y-52572000D01*
X36601136Y-52577003D01*
X36646223Y-52605924D01*
X36729115Y-52688671D01*
X36729120Y-52688675D01*
X36734300Y-52693846D01*
X36740530Y-52697686D01*
X36740531Y-52697687D01*
X36877891Y-52782357D01*
X36884865Y-52786656D01*
X36952122Y-52808964D01*
X37046214Y-52840173D01*
X37046216Y-52840173D01*
X37052742Y-52842338D01*
X37059578Y-52843038D01*
X37059581Y-52843039D01*
X37102634Y-52847450D01*
X37157203Y-52853041D01*
X37783003Y-52853041D01*
X37786249Y-52852704D01*
X37786253Y-52852704D01*
X37881911Y-52842779D01*
X37881915Y-52842778D01*
X37888769Y-52842067D01*
X37895305Y-52839886D01*
X37895307Y-52839886D01*
X38045396Y-52789812D01*
X38056549Y-52786091D01*
X38206951Y-52693019D01*
X38331908Y-52567844D01*
X38424718Y-52417279D01*
X38480400Y-52249402D01*
X38491103Y-52144941D01*
X38491103Y-52141636D01*
X39952575Y-52141636D01*
X39952912Y-52148155D01*
X39962831Y-52243747D01*
X39965723Y-52257141D01*
X40017162Y-52411325D01*
X40023335Y-52424503D01*
X40108637Y-52562348D01*
X40117673Y-52573749D01*
X40232403Y-52688280D01*
X40243814Y-52697292D01*
X40381817Y-52782357D01*
X40394998Y-52788504D01*
X40549284Y-52839679D01*
X40562660Y-52842546D01*
X40657012Y-52852213D01*
X40663428Y-52852541D01*
X40700959Y-52852541D01*
X40716198Y-52848066D01*
X40717403Y-52846676D01*
X40719074Y-52838993D01*
X40719074Y-51916656D01*
X40714599Y-51901417D01*
X40713209Y-51900212D01*
X40705526Y-51898541D01*
X39970690Y-51898541D01*
X39955451Y-51903016D01*
X39954246Y-51904406D01*
X39952575Y-51912089D01*
X39952575Y-52141636D01*
X38491103Y-52141636D01*
X38491103Y-51372426D01*
X39952574Y-51372426D01*
X39957049Y-51387665D01*
X39958439Y-51388870D01*
X39966122Y-51390541D01*
X40700959Y-51390541D01*
X40716198Y-51386066D01*
X40717403Y-51384676D01*
X40719074Y-51376993D01*
X40719074Y-50454657D01*
X40714599Y-50439418D01*
X40713209Y-50438213D01*
X40705526Y-50436542D01*
X40663479Y-50436542D01*
X40656960Y-50436879D01*
X40561368Y-50446798D01*
X40547974Y-50449690D01*
X40393790Y-50501129D01*
X40380612Y-50507302D01*
X40242767Y-50592604D01*
X40231366Y-50601640D01*
X40116835Y-50716370D01*
X40107823Y-50727781D01*
X40022758Y-50865784D01*
X40016611Y-50878965D01*
X39965436Y-51033251D01*
X39962569Y-51046627D01*
X39952902Y-51140979D01*
X39952574Y-51147396D01*
X39952574Y-51372426D01*
X38491103Y-51372426D01*
X38491103Y-51144141D01*
X38490766Y-51140891D01*
X38480841Y-51045233D01*
X38480840Y-51045229D01*
X38480129Y-51038375D01*
X38424153Y-50870595D01*
X38331081Y-50720193D01*
X38205906Y-50595236D01*
X38199672Y-50591393D01*
X38163486Y-50569087D01*
X38115993Y-50516315D01*
X38103603Y-50461828D01*
X38103603Y-48056741D01*
X38123605Y-47988620D01*
X38177261Y-47942127D01*
X38247535Y-47932023D01*
X38274552Y-47939031D01*
X38304385Y-47950423D01*
X38372530Y-47976445D01*
X38377598Y-47977476D01*
X38377601Y-47977477D01*
X38484855Y-47999298D01*
X38591435Y-48020982D01*
X38596610Y-48021172D01*
X38596612Y-48021172D01*
X38809511Y-48028979D01*
X38809515Y-48028979D01*
X38814675Y-48029168D01*
X38819795Y-48028512D01*
X38819797Y-48028512D01*
X39031126Y-48001440D01*
X39031127Y-48001440D01*
X39036254Y-48000783D01*
X39041204Y-47999298D01*
X39245267Y-47938076D01*
X39245272Y-47938074D01*
X39250222Y-47936589D01*
X39450832Y-47838311D01*
X39632698Y-47708588D01*
X39638265Y-47703041D01*
X39744298Y-47597377D01*
X39790934Y-47550904D01*
X39809922Y-47524480D01*
X39921291Y-47369492D01*
X39922614Y-47370443D01*
X39969483Y-47327272D01*
X40039418Y-47315040D01*
X40104864Y-47342559D01*
X40132713Y-47374409D01*
X40192825Y-47472503D01*
X40339088Y-47641353D01*
X40510964Y-47784047D01*
X40703838Y-47896753D01*
X40912530Y-47976445D01*
X40917598Y-47977476D01*
X40917601Y-47977477D01*
X41024855Y-47999298D01*
X41131435Y-48020982D01*
X41136610Y-48021172D01*
X41136612Y-48021172D01*
X41349511Y-48028979D01*
X41349515Y-48028979D01*
X41354675Y-48029168D01*
X41359795Y-48028512D01*
X41359797Y-48028512D01*
X41571126Y-48001440D01*
X41571127Y-48001440D01*
X41576254Y-48000783D01*
X41581204Y-47999298D01*
X41785267Y-47938076D01*
X41785272Y-47938074D01*
X41790222Y-47936589D01*
X41990832Y-47838311D01*
X42172698Y-47708588D01*
X42176356Y-47704943D01*
X42180312Y-47701600D01*
X42181529Y-47703041D01*
X42236722Y-47673034D01*
X42307528Y-47678228D01*
X42364286Y-47720879D01*
X42388975Y-47787444D01*
X42389280Y-47796203D01*
X42389280Y-50352931D01*
X42369278Y-50421052D01*
X42315622Y-50467545D01*
X42303160Y-50472453D01*
X42211628Y-50502991D01*
X42061226Y-50596063D01*
X42056053Y-50601245D01*
X41974436Y-50683004D01*
X41912153Y-50717083D01*
X41841333Y-50712080D01*
X41796245Y-50683159D01*
X41713745Y-50600802D01*
X41702334Y-50591790D01*
X41564331Y-50506725D01*
X41551150Y-50500578D01*
X41396864Y-50449403D01*
X41383488Y-50446536D01*
X41289136Y-50436869D01*
X41282719Y-50436541D01*
X41245189Y-50436541D01*
X41229950Y-50441016D01*
X41228745Y-50442406D01*
X41227074Y-50450089D01*
X41227074Y-52834425D01*
X41231549Y-52849664D01*
X41232939Y-52850869D01*
X41240622Y-52852540D01*
X41282669Y-52852540D01*
X41289188Y-52852203D01*
X41384780Y-52842284D01*
X41398174Y-52839392D01*
X41552358Y-52787953D01*
X41565536Y-52781780D01*
X41703381Y-52696478D01*
X41714782Y-52687442D01*
X41796004Y-52606079D01*
X41858287Y-52572000D01*
X41929107Y-52577003D01*
X41974194Y-52605924D01*
X42057086Y-52688671D01*
X42057091Y-52688675D01*
X42062271Y-52693846D01*
X42068501Y-52697686D01*
X42068502Y-52697687D01*
X42205862Y-52782357D01*
X42212836Y-52786656D01*
X42280093Y-52808964D01*
X42374185Y-52840173D01*
X42374187Y-52840173D01*
X42380713Y-52842338D01*
X42387549Y-52843038D01*
X42387552Y-52843039D01*
X42430605Y-52847450D01*
X42485174Y-52853041D01*
X43110974Y-52853041D01*
X43114220Y-52852704D01*
X43114224Y-52852704D01*
X43209882Y-52842779D01*
X43209886Y-52842778D01*
X43216740Y-52842067D01*
X43223276Y-52839886D01*
X43223278Y-52839886D01*
X43373367Y-52789812D01*
X43384520Y-52786091D01*
X43534922Y-52693019D01*
X43659879Y-52567844D01*
X43752689Y-52417279D01*
X43808371Y-52249402D01*
X43819074Y-52144941D01*
X43819074Y-51144141D01*
X43818737Y-51140891D01*
X43808812Y-51045233D01*
X43808811Y-51045229D01*
X43808100Y-51038375D01*
X43752124Y-50870595D01*
X43675136Y-50746184D01*
X43656280Y-50679881D01*
X43656280Y-45122374D01*
X43656807Y-45111191D01*
X43658482Y-45103698D01*
X43656342Y-45035621D01*
X43656280Y-45031662D01*
X43656280Y-45003751D01*
X43655775Y-44999751D01*
X43654842Y-44987908D01*
X43653702Y-44951636D01*
X43653453Y-44943717D01*
X43647802Y-44924265D01*
X43643794Y-44904913D01*
X43642247Y-44892670D01*
X43641254Y-44884810D01*
X43638336Y-44877439D01*
X43624980Y-44843704D01*
X43621135Y-44832477D01*
X43620268Y-44829492D01*
X43608798Y-44790014D01*
X43598487Y-44772579D01*
X43589792Y-44754831D01*
X43582332Y-44735990D01*
X43556344Y-44700220D01*
X43549828Y-44690300D01*
X43531360Y-44659072D01*
X43531358Y-44659069D01*
X43527322Y-44652245D01*
X43513001Y-44637924D01*
X43500160Y-44622890D01*
X43488252Y-44606500D01*
X43482147Y-44601449D01*
X43482142Y-44601444D01*
X43454176Y-44578308D01*
X43445398Y-44570320D01*
X42613685Y-43738607D01*
X42583953Y-43690841D01*
X42583269Y-43688117D01*
X42581211Y-43683384D01*
X42581209Y-43683378D01*
X42496257Y-43488005D01*
X42494192Y-43483255D01*
X42372852Y-43295692D01*
X42222508Y-43130466D01*
X42218457Y-43127267D01*
X42218453Y-43127263D01*
X42051252Y-42995215D01*
X42051248Y-42995213D01*
X42047197Y-42992013D01*
X42042669Y-42989513D01*
X41926826Y-42925565D01*
X41851627Y-42884053D01*
X41846758Y-42882329D01*
X41846754Y-42882327D01*
X41645925Y-42811210D01*
X41645921Y-42811209D01*
X41641050Y-42809484D01*
X41635957Y-42808577D01*
X41635954Y-42808576D01*
X41426211Y-42771215D01*
X41426205Y-42771214D01*
X41421122Y-42770309D01*
X41347290Y-42769407D01*
X41202919Y-42767643D01*
X41202917Y-42767643D01*
X41197749Y-42767580D01*
X40976929Y-42801370D01*
X40764594Y-42870772D01*
X40734281Y-42886552D01*
X40590813Y-42961237D01*
X40566445Y-42973922D01*
X40562312Y-42977025D01*
X40562309Y-42977027D01*
X40404819Y-43095274D01*
X40387803Y-43108050D01*
X40233467Y-43269553D01*
X40126039Y-43427036D01*
X40071131Y-43472036D01*
X40000606Y-43480207D01*
X39936859Y-43448953D01*
X39916162Y-43424469D01*
X39835660Y-43300032D01*
X39835658Y-43300029D01*
X39832852Y-43295692D01*
X39682508Y-43130466D01*
X39678457Y-43127267D01*
X39678453Y-43127263D01*
X39511252Y-42995215D01*
X39511248Y-42995213D01*
X39507197Y-42992013D01*
X39502673Y-42989516D01*
X39502669Y-42989513D01*
X39451446Y-42961237D01*
X39401474Y-42910805D01*
X39386338Y-42850928D01*
X39386338Y-24626446D01*
X39406340Y-24558325D01*
X39423243Y-24537351D01*
X40002604Y-23957990D01*
X40064916Y-23923964D01*
X40078530Y-23921775D01*
X40082708Y-23921336D01*
X40089309Y-23921336D01*
X40095762Y-23919964D01*
X40095765Y-23919964D01*
X40195435Y-23898778D01*
X40276110Y-23881630D01*
X40282141Y-23878945D01*
X40444544Y-23806639D01*
X40444546Y-23806638D01*
X40450574Y-23803954D01*
X40605075Y-23691702D01*
X40674342Y-23614773D01*
X40728443Y-23554688D01*
X40728444Y-23554687D01*
X40732862Y-23549780D01*
X40828349Y-23384392D01*
X40887364Y-23202764D01*
X40892020Y-23158470D01*
X40906636Y-23019401D01*
X40907326Y-23012836D01*
X40894453Y-22890359D01*
X40888054Y-22829471D01*
X40888054Y-22829469D01*
X40887364Y-22822908D01*
X40828349Y-22641280D01*
X40811402Y-22611926D01*
X40787037Y-22569726D01*
X40732862Y-22475892D01*
X40715185Y-22456259D01*
X40609497Y-22338881D01*
X40609496Y-22338880D01*
X40605075Y-22333970D01*
X40477068Y-22240967D01*
X40455916Y-22225599D01*
X40455915Y-22225598D01*
X40450574Y-22221718D01*
X40444546Y-22219034D01*
X40444544Y-22219033D01*
X40282141Y-22146727D01*
X40282140Y-22146727D01*
X40276110Y-22144042D01*
X40182710Y-22124189D01*
X40095766Y-22105708D01*
X40095761Y-22105708D01*
X40089309Y-22104336D01*
X39898335Y-22104336D01*
X39891883Y-22105708D01*
X39891878Y-22105708D01*
X39804934Y-22124189D01*
X39711534Y-22144042D01*
X39705504Y-22146727D01*
X39705503Y-22146727D01*
X39543100Y-22219033D01*
X39543098Y-22219034D01*
X39537070Y-22221718D01*
X39531729Y-22225598D01*
X39531728Y-22225599D01*
X39510576Y-22240967D01*
X39382569Y-22333970D01*
X39378148Y-22338880D01*
X39378147Y-22338881D01*
X39272460Y-22456259D01*
X39254782Y-22475892D01*
X39200607Y-22569726D01*
X39176243Y-22611926D01*
X39159295Y-22641280D01*
X39100280Y-22822908D01*
X39099590Y-22829469D01*
X39099590Y-22829471D01*
X39093191Y-22890359D01*
X39080318Y-23012836D01*
X39081008Y-23019401D01*
X39081008Y-23019406D01*
X39081229Y-23021509D01*
X39081008Y-23022717D01*
X39081008Y-23026006D01*
X39080406Y-23026006D01*
X39068455Y-23091347D01*
X39045014Y-23123771D01*
X38360585Y-23808200D01*
X38352299Y-23815740D01*
X38345820Y-23819852D01*
X38340395Y-23825629D01*
X38299195Y-23869503D01*
X38296440Y-23872345D01*
X38276703Y-23892082D01*
X38274223Y-23895279D01*
X38266520Y-23904299D01*
X38236252Y-23936531D01*
X38232433Y-23943477D01*
X38232431Y-23943480D01*
X38226490Y-23954286D01*
X38215639Y-23970805D01*
X38203224Y-23986811D01*
X38200079Y-23994080D01*
X38200076Y-23994084D01*
X38185664Y-24027389D01*
X38180447Y-24038039D01*
X38159143Y-24076792D01*
X38157172Y-24084467D01*
X38157172Y-24084468D01*
X38154105Y-24096414D01*
X38147701Y-24115118D01*
X38139657Y-24133707D01*
X38138418Y-24141530D01*
X38138415Y-24141540D01*
X38132739Y-24177376D01*
X38130333Y-24188996D01*
X38119338Y-24231822D01*
X38119338Y-24252076D01*
X38117787Y-24271786D01*
X38114618Y-24291795D01*
X38115364Y-24299687D01*
X38118779Y-24335813D01*
X38119338Y-24347671D01*
X38119338Y-42849107D01*
X38099336Y-42917228D01*
X38051521Y-42960868D01*
X38026445Y-42973922D01*
X38022312Y-42977025D01*
X38022309Y-42977027D01*
X37864819Y-43095274D01*
X37847803Y-43108050D01*
X37693467Y-43269553D01*
X37586039Y-43427036D01*
X37531131Y-43472036D01*
X37460606Y-43480207D01*
X37396859Y-43448953D01*
X37376162Y-43424469D01*
X37295660Y-43300032D01*
X37295658Y-43300029D01*
X37292852Y-43295692D01*
X37142508Y-43130466D01*
X37138457Y-43127267D01*
X37138453Y-43127263D01*
X36971252Y-42995215D01*
X36971248Y-42995213D01*
X36967197Y-42992013D01*
X36962673Y-42989516D01*
X36962669Y-42989513D01*
X36911446Y-42961237D01*
X36861474Y-42910805D01*
X36846338Y-42850928D01*
X36846338Y-19464358D01*
X37451095Y-19464358D01*
X37498586Y-19641597D01*
X37502332Y-19651889D01*
X37594408Y-19849347D01*
X37599891Y-19858843D01*
X37724850Y-20037303D01*
X37731906Y-20045711D01*
X37885947Y-20199752D01*
X37894355Y-20206808D01*
X38072815Y-20331767D01*
X38082311Y-20337250D01*
X38279769Y-20429326D01*
X38290061Y-20433072D01*
X38462325Y-20479230D01*
X38476421Y-20478894D01*
X38479822Y-20470952D01*
X38479822Y-20465803D01*
X38987822Y-20465803D01*
X38991795Y-20479334D01*
X39000344Y-20480563D01*
X39177583Y-20433072D01*
X39187875Y-20429326D01*
X39385333Y-20337250D01*
X39394829Y-20331767D01*
X39573289Y-20206808D01*
X39581697Y-20199752D01*
X39735738Y-20045711D01*
X39742794Y-20037303D01*
X39867753Y-19858843D01*
X39873236Y-19849347D01*
X39965312Y-19651889D01*
X39969058Y-19641597D01*
X40015216Y-19469333D01*
X40014880Y-19455237D01*
X40006938Y-19451836D01*
X39005937Y-19451836D01*
X38990698Y-19456311D01*
X38989493Y-19457701D01*
X38987822Y-19465384D01*
X38987822Y-20465803D01*
X38479822Y-20465803D01*
X38479822Y-19469951D01*
X38475347Y-19454712D01*
X38473957Y-19453507D01*
X38466274Y-19451836D01*
X37465855Y-19451836D01*
X37452324Y-19455809D01*
X37451095Y-19464358D01*
X36846338Y-19464358D01*
X36846338Y-11873414D01*
X36866340Y-11805293D01*
X36883243Y-11784319D01*
X37207233Y-11460329D01*
X37269545Y-11426303D01*
X37340360Y-11431368D01*
X37397196Y-11473915D01*
X37422007Y-11540435D01*
X37421848Y-11560406D01*
X37420803Y-11572350D01*
X37420803Y-11572361D01*
X37420324Y-11577836D01*
X37440279Y-11805923D01*
X37441703Y-11811236D01*
X37441703Y-11811238D01*
X37497554Y-12019673D01*
X37499538Y-12027079D01*
X37501861Y-12032060D01*
X37501861Y-12032061D01*
X37593973Y-12229598D01*
X37593976Y-12229603D01*
X37596299Y-12234585D01*
X37727624Y-12422136D01*
X37889522Y-12584034D01*
X37894030Y-12587191D01*
X37894033Y-12587193D01*
X37939227Y-12618838D01*
X38077073Y-12715359D01*
X38082055Y-12717682D01*
X38082060Y-12717685D01*
X38116279Y-12733641D01*
X38169564Y-12780558D01*
X38189025Y-12848835D01*
X38168483Y-12916795D01*
X38116279Y-12962031D01*
X38082060Y-12977987D01*
X38082055Y-12977990D01*
X38077073Y-12980313D01*
X38050521Y-12998905D01*
X37894033Y-13108479D01*
X37894030Y-13108481D01*
X37889522Y-13111638D01*
X37727624Y-13273536D01*
X37724467Y-13278044D01*
X37724465Y-13278047D01*
X37701300Y-13311130D01*
X37596299Y-13461087D01*
X37593976Y-13466069D01*
X37593973Y-13466074D01*
X37532954Y-13596932D01*
X37499538Y-13668593D01*
X37498116Y-13673901D01*
X37498115Y-13673903D01*
X37495922Y-13682089D01*
X37440279Y-13889749D01*
X37420324Y-14117836D01*
X37440279Y-14345923D01*
X37441703Y-14351236D01*
X37441703Y-14351238D01*
X37456096Y-14404951D01*
X37499538Y-14567079D01*
X37501861Y-14572060D01*
X37501861Y-14572061D01*
X37593973Y-14769598D01*
X37593976Y-14769603D01*
X37596299Y-14774585D01*
X37727624Y-14962136D01*
X37889522Y-15124034D01*
X37894030Y-15127191D01*
X37894033Y-15127193D01*
X37972211Y-15181934D01*
X38077073Y-15255359D01*
X38082055Y-15257682D01*
X38082060Y-15257685D01*
X38116279Y-15273641D01*
X38169564Y-15320558D01*
X38189025Y-15388835D01*
X38168483Y-15456795D01*
X38116279Y-15502031D01*
X38082060Y-15517987D01*
X38082055Y-15517990D01*
X38077073Y-15520313D01*
X38050521Y-15538905D01*
X37894033Y-15648479D01*
X37894030Y-15648481D01*
X37889522Y-15651638D01*
X37727624Y-15813536D01*
X37724467Y-15818044D01*
X37724465Y-15818047D01*
X37669724Y-15896225D01*
X37596299Y-16001087D01*
X37593976Y-16006069D01*
X37593973Y-16006074D01*
X37513231Y-16179228D01*
X37499538Y-16208593D01*
X37498116Y-16213901D01*
X37498115Y-16213903D01*
X37454699Y-16375932D01*
X37440279Y-16429749D01*
X37420324Y-16657836D01*
X37440279Y-16885923D01*
X37499538Y-17107079D01*
X37501861Y-17112060D01*
X37501861Y-17112061D01*
X37593973Y-17309598D01*
X37593976Y-17309603D01*
X37596299Y-17314585D01*
X37649934Y-17391183D01*
X37697738Y-17459454D01*
X37727624Y-17502136D01*
X37889522Y-17664034D01*
X37894030Y-17667191D01*
X37894033Y-17667193D01*
X37972211Y-17721934D01*
X38077073Y-17795359D01*
X38082055Y-17797682D01*
X38082060Y-17797685D01*
X38116871Y-17813917D01*
X38170156Y-17860834D01*
X38189617Y-17929111D01*
X38169075Y-17997071D01*
X38116871Y-18042307D01*
X38082311Y-18058422D01*
X38072815Y-18063905D01*
X37894355Y-18188864D01*
X37885947Y-18195920D01*
X37731906Y-18349961D01*
X37724850Y-18358369D01*
X37599891Y-18536829D01*
X37594408Y-18546325D01*
X37502332Y-18743783D01*
X37498586Y-18754075D01*
X37452428Y-18926339D01*
X37452764Y-18940435D01*
X37460706Y-18943836D01*
X40001789Y-18943836D01*
X40015320Y-18939863D01*
X40016549Y-18931314D01*
X39969058Y-18754075D01*
X39965312Y-18743783D01*
X39873236Y-18546325D01*
X39867753Y-18536829D01*
X39742794Y-18358369D01*
X39735738Y-18349961D01*
X39581697Y-18195920D01*
X39573289Y-18188864D01*
X39394829Y-18063905D01*
X39385333Y-18058422D01*
X39350773Y-18042307D01*
X39297488Y-17995390D01*
X39278027Y-17927113D01*
X39298569Y-17859153D01*
X39350773Y-17813917D01*
X39385584Y-17797685D01*
X39385589Y-17797682D01*
X39390571Y-17795359D01*
X39495433Y-17721934D01*
X39573611Y-17667193D01*
X39573614Y-17667191D01*
X39578122Y-17664034D01*
X39740020Y-17502136D01*
X39741860Y-17499508D01*
X39800382Y-17460576D01*
X39871370Y-17459454D01*
X39926883Y-17491801D01*
X45322270Y-22887188D01*
X45356296Y-22949500D01*
X45359175Y-22976283D01*
X45359175Y-36259073D01*
X45339173Y-36327194D01*
X45285517Y-36373687D01*
X45215243Y-36383791D01*
X45191115Y-36377846D01*
X45181856Y-36374567D01*
X45067394Y-36334034D01*
X45006909Y-36312615D01*
X45006905Y-36312614D01*
X45002034Y-36310889D01*
X44996941Y-36309982D01*
X44996938Y-36309981D01*
X44787195Y-36272620D01*
X44787189Y-36272619D01*
X44782106Y-36271714D01*
X44708274Y-36270812D01*
X44563903Y-36269048D01*
X44563901Y-36269048D01*
X44558733Y-36268985D01*
X44337913Y-36302775D01*
X44125578Y-36372177D01*
X44095265Y-36387957D01*
X43953376Y-36461820D01*
X43927429Y-36475327D01*
X43923296Y-36478430D01*
X43923293Y-36478432D01*
X43780761Y-36585448D01*
X43748787Y-36609455D01*
X43723370Y-36636052D01*
X43616404Y-36747986D01*
X43594451Y-36770958D01*
X43487023Y-36928441D01*
X43432115Y-36973441D01*
X43361590Y-36981612D01*
X43297843Y-36950358D01*
X43277146Y-36925874D01*
X43196644Y-36801437D01*
X43196642Y-36801434D01*
X43193836Y-36797097D01*
X43043492Y-36631871D01*
X43039441Y-36628672D01*
X43039437Y-36628668D01*
X42872236Y-36496620D01*
X42872232Y-36496618D01*
X42868181Y-36493418D01*
X42672611Y-36385458D01*
X42667742Y-36383734D01*
X42667738Y-36383732D01*
X42466909Y-36312615D01*
X42466905Y-36312614D01*
X42462034Y-36310889D01*
X42456941Y-36309982D01*
X42456938Y-36309981D01*
X42247195Y-36272620D01*
X42247189Y-36272619D01*
X42242106Y-36271714D01*
X42168274Y-36270812D01*
X42023903Y-36269048D01*
X42023901Y-36269048D01*
X42018733Y-36268985D01*
X41797913Y-36302775D01*
X41585578Y-36372177D01*
X41555265Y-36387957D01*
X41413376Y-36461820D01*
X41387429Y-36475327D01*
X41383296Y-36478430D01*
X41383293Y-36478432D01*
X41240761Y-36585448D01*
X41208787Y-36609455D01*
X41183370Y-36636052D01*
X41076404Y-36747986D01*
X41054451Y-36770958D01*
X40928565Y-36955500D01*
X40834510Y-37158125D01*
X40774811Y-37373390D01*
X40751073Y-37595515D01*
X40763932Y-37818535D01*
X40765069Y-37823581D01*
X40765070Y-37823587D01*
X40779428Y-37887295D01*
X40813044Y-38036459D01*
X40897088Y-38243436D01*
X40948764Y-38327764D01*
X41011113Y-38429508D01*
X41013809Y-38433908D01*
X41160072Y-38602758D01*
X41331948Y-38745452D01*
X41524822Y-38858158D01*
X41733514Y-38937850D01*
X41738582Y-38938881D01*
X41738585Y-38938882D01*
X41839342Y-38959381D01*
X41952419Y-38982387D01*
X41957594Y-38982577D01*
X41957596Y-38982577D01*
X42170495Y-38990384D01*
X42170499Y-38990384D01*
X42175659Y-38990573D01*
X42180779Y-38989917D01*
X42180781Y-38989917D01*
X42392110Y-38962845D01*
X42392111Y-38962845D01*
X42397238Y-38962188D01*
X42406594Y-38959381D01*
X42606251Y-38899481D01*
X42606256Y-38899479D01*
X42611206Y-38897994D01*
X42811816Y-38799716D01*
X42993682Y-38669993D01*
X43151918Y-38512309D01*
X43211416Y-38429509D01*
X43282275Y-38330897D01*
X43283598Y-38331848D01*
X43330467Y-38288677D01*
X43400402Y-38276445D01*
X43465848Y-38303964D01*
X43493697Y-38335814D01*
X43553809Y-38433908D01*
X43700072Y-38602758D01*
X43871948Y-38745452D01*
X44064822Y-38858158D01*
X44273514Y-38937850D01*
X44278582Y-38938881D01*
X44278585Y-38938882D01*
X44379342Y-38959381D01*
X44492419Y-38982387D01*
X44497594Y-38982577D01*
X44497596Y-38982577D01*
X44710495Y-38990384D01*
X44710499Y-38990384D01*
X44715659Y-38990573D01*
X44720779Y-38989917D01*
X44720781Y-38989917D01*
X44932110Y-38962845D01*
X44932111Y-38962845D01*
X44937238Y-38962188D01*
X44946594Y-38959381D01*
X45146251Y-38899481D01*
X45146256Y-38899479D01*
X45151206Y-38897994D01*
X45177744Y-38884993D01*
X45247718Y-38872987D01*
X45313075Y-38900718D01*
X45353064Y-38959381D01*
X45359175Y-38998145D01*
X45359175Y-42465970D01*
X45339173Y-42534091D01*
X45326817Y-42550273D01*
X45253635Y-42631550D01*
X45250334Y-42637268D01*
X45175062Y-42767643D01*
X45158148Y-42796938D01*
X45099133Y-42978566D01*
X45098443Y-42985127D01*
X45098443Y-42985129D01*
X45083168Y-43130466D01*
X45079171Y-43168494D01*
X45079861Y-43175059D01*
X45089793Y-43269553D01*
X45099133Y-43358422D01*
X45158148Y-43540050D01*
X45253635Y-43705438D01*
X45258053Y-43710345D01*
X45258054Y-43710346D01*
X45283500Y-43738607D01*
X45381422Y-43847360D01*
X45535923Y-43959612D01*
X45541951Y-43962296D01*
X45541953Y-43962297D01*
X45704356Y-44034603D01*
X45710387Y-44037288D01*
X45803787Y-44057141D01*
X45890731Y-44075622D01*
X45890736Y-44075622D01*
X45897188Y-44076994D01*
X46088162Y-44076994D01*
X46094614Y-44075622D01*
X46094619Y-44075622D01*
X46181563Y-44057141D01*
X46274963Y-44037288D01*
X46280994Y-44034603D01*
X46443397Y-43962297D01*
X46443399Y-43962296D01*
X46449427Y-43959612D01*
X46603928Y-43847360D01*
X46701850Y-43738607D01*
X46727296Y-43710346D01*
X46727297Y-43710345D01*
X46731715Y-43705438D01*
X46827202Y-43540050D01*
X46886217Y-43358422D01*
X46895558Y-43269553D01*
X46905489Y-43175059D01*
X46906179Y-43168494D01*
X46902182Y-43130466D01*
X46886907Y-42985129D01*
X46886907Y-42985127D01*
X46886217Y-42978566D01*
X46827202Y-42796938D01*
X46810289Y-42767643D01*
X46735016Y-42637268D01*
X46731715Y-42631550D01*
X46658538Y-42550279D01*
X46627822Y-42486273D01*
X46626175Y-42465970D01*
X46626175Y-39112820D01*
X46646177Y-39044699D01*
X46699833Y-38998206D01*
X46752175Y-38986820D01*
X46921707Y-38986820D01*
X46936946Y-38982345D01*
X46938151Y-38980955D01*
X46939822Y-38973272D01*
X46939822Y-38968704D01*
X47447822Y-38968704D01*
X47452297Y-38983943D01*
X47453687Y-38985148D01*
X47461370Y-38986819D01*
X48088491Y-38986819D01*
X48095312Y-38986449D01*
X48146174Y-38980925D01*
X48161426Y-38977299D01*
X48281876Y-38932144D01*
X48297471Y-38923606D01*
X48399546Y-38847105D01*
X48412107Y-38834544D01*
X48488608Y-38732469D01*
X48497146Y-38716874D01*
X48542300Y-38596426D01*
X48545927Y-38581171D01*
X48551453Y-38530306D01*
X48551822Y-38523492D01*
X48551822Y-37900935D01*
X48547347Y-37885696D01*
X48545957Y-37884491D01*
X48538274Y-37882820D01*
X47465937Y-37882820D01*
X47450698Y-37887295D01*
X47449493Y-37888685D01*
X47447822Y-37896368D01*
X47447822Y-38968704D01*
X46939822Y-38968704D01*
X46939822Y-37356705D01*
X47447822Y-37356705D01*
X47452297Y-37371944D01*
X47453687Y-37373149D01*
X47461370Y-37374820D01*
X48533706Y-37374820D01*
X48548945Y-37370345D01*
X48550150Y-37368955D01*
X48551821Y-37361272D01*
X48551821Y-36734151D01*
X48551451Y-36727330D01*
X48545927Y-36676468D01*
X48542301Y-36661216D01*
X48497146Y-36540766D01*
X48488608Y-36525171D01*
X48412107Y-36423096D01*
X48399546Y-36410535D01*
X48297471Y-36334034D01*
X48281876Y-36325496D01*
X48161428Y-36280342D01*
X48146173Y-36276715D01*
X48095308Y-36271189D01*
X48088494Y-36270820D01*
X47465937Y-36270820D01*
X47450698Y-36275295D01*
X47449493Y-36276685D01*
X47447822Y-36284368D01*
X47447822Y-37356705D01*
X46939822Y-37356705D01*
X46939822Y-36288936D01*
X46935347Y-36273697D01*
X46933957Y-36272492D01*
X46926274Y-36270821D01*
X46752175Y-36270821D01*
X46684054Y-36250819D01*
X46637561Y-36197163D01*
X46626175Y-36144821D01*
X46626175Y-22740452D01*
X46626702Y-22729268D01*
X46628376Y-22721780D01*
X46626237Y-22653721D01*
X46626175Y-22649764D01*
X46626175Y-22621833D01*
X46625669Y-22617827D01*
X46624736Y-22605981D01*
X46624317Y-22592625D01*
X46623348Y-22561799D01*
X46617697Y-22542347D01*
X46613689Y-22522995D01*
X46612142Y-22510752D01*
X46611149Y-22502892D01*
X46608231Y-22495521D01*
X46594875Y-22461786D01*
X46591030Y-22450559D01*
X46586864Y-22436221D01*
X46578693Y-22408096D01*
X46574659Y-22401274D01*
X46574656Y-22401268D01*
X46568381Y-22390657D01*
X46559685Y-22372907D01*
X46555147Y-22361445D01*
X46555144Y-22361440D01*
X46552227Y-22354072D01*
X46526248Y-22318314D01*
X46519732Y-22308396D01*
X46501250Y-22277146D01*
X46497217Y-22270326D01*
X46482893Y-22256002D01*
X46470051Y-22240967D01*
X46458147Y-22224582D01*
X46424081Y-22196400D01*
X46415302Y-22188411D01*
X43424727Y-19197836D01*
X45040324Y-19197836D01*
X45060279Y-19425923D01*
X45061703Y-19431236D01*
X45061703Y-19431238D01*
X45113697Y-19625279D01*
X45119538Y-19647079D01*
X45121861Y-19652060D01*
X45121861Y-19652061D01*
X45213973Y-19849598D01*
X45213976Y-19849603D01*
X45216299Y-19854585D01*
X45347624Y-20042136D01*
X45509522Y-20204034D01*
X45514030Y-20207191D01*
X45514033Y-20207193D01*
X45592211Y-20261934D01*
X45697073Y-20335359D01*
X45702055Y-20337682D01*
X45702060Y-20337685D01*
X45869061Y-20415558D01*
X45904579Y-20432120D01*
X45909887Y-20433542D01*
X45909889Y-20433543D01*
X46120420Y-20489955D01*
X46120422Y-20489955D01*
X46125735Y-20491379D01*
X46353822Y-20511334D01*
X46581909Y-20491379D01*
X46587222Y-20489955D01*
X46587224Y-20489955D01*
X46797755Y-20433543D01*
X46797757Y-20433542D01*
X46803065Y-20432120D01*
X46838583Y-20415558D01*
X47005584Y-20337685D01*
X47005589Y-20337682D01*
X47010571Y-20335359D01*
X47115433Y-20261934D01*
X47193611Y-20207193D01*
X47193614Y-20207191D01*
X47198122Y-20204034D01*
X47360020Y-20042136D01*
X47491345Y-19854585D01*
X47493668Y-19849603D01*
X47493671Y-19849598D01*
X47585783Y-19652061D01*
X47585783Y-19652060D01*
X47588106Y-19647079D01*
X47593948Y-19625279D01*
X47645941Y-19431238D01*
X47645941Y-19431236D01*
X47647365Y-19425923D01*
X47667320Y-19197836D01*
X47647365Y-18969749D01*
X47640422Y-18943836D01*
X47589529Y-18753903D01*
X47589528Y-18753901D01*
X47588106Y-18748593D01*
X47585783Y-18743611D01*
X47493671Y-18546074D01*
X47493668Y-18546069D01*
X47491345Y-18541087D01*
X47370523Y-18368536D01*
X47363179Y-18358047D01*
X47363177Y-18358044D01*
X47360020Y-18353536D01*
X47198122Y-18191638D01*
X47193614Y-18188481D01*
X47193611Y-18188479D01*
X47115433Y-18133738D01*
X47010571Y-18060313D01*
X47005589Y-18057990D01*
X47005584Y-18057987D01*
X46971365Y-18042031D01*
X46918080Y-17995114D01*
X46898619Y-17926837D01*
X46919161Y-17858877D01*
X46971365Y-17813641D01*
X47005584Y-17797685D01*
X47005589Y-17797682D01*
X47010571Y-17795359D01*
X47115433Y-17721934D01*
X47193611Y-17667193D01*
X47193614Y-17667191D01*
X47198122Y-17664034D01*
X47360020Y-17502136D01*
X47389907Y-17459454D01*
X47437710Y-17391183D01*
X47491345Y-17314585D01*
X47493668Y-17309603D01*
X47493671Y-17309598D01*
X47585783Y-17112061D01*
X47585783Y-17112060D01*
X47588106Y-17107079D01*
X47647365Y-16885923D01*
X47667320Y-16657836D01*
X47647365Y-16429749D01*
X47632945Y-16375932D01*
X47589529Y-16213903D01*
X47589528Y-16213901D01*
X47588106Y-16208593D01*
X47574413Y-16179228D01*
X47493671Y-16006074D01*
X47493668Y-16006069D01*
X47491345Y-16001087D01*
X47417920Y-15896225D01*
X47363179Y-15818047D01*
X47363177Y-15818044D01*
X47360020Y-15813536D01*
X47198122Y-15651638D01*
X47193614Y-15648481D01*
X47193611Y-15648479D01*
X47037123Y-15538905D01*
X47010571Y-15520313D01*
X47005589Y-15517990D01*
X47005584Y-15517987D01*
X46971365Y-15502031D01*
X46918080Y-15455114D01*
X46898619Y-15386837D01*
X46919161Y-15318877D01*
X46971365Y-15273641D01*
X47005584Y-15257685D01*
X47005589Y-15257682D01*
X47010571Y-15255359D01*
X47115433Y-15181934D01*
X47193611Y-15127193D01*
X47193614Y-15127191D01*
X47198122Y-15124034D01*
X47360020Y-14962136D01*
X47491345Y-14774585D01*
X47493668Y-14769603D01*
X47493671Y-14769598D01*
X47585783Y-14572061D01*
X47585783Y-14572060D01*
X47588106Y-14567079D01*
X47631549Y-14404951D01*
X47645941Y-14351238D01*
X47645941Y-14351236D01*
X47647365Y-14345923D01*
X47667320Y-14117836D01*
X47647365Y-13889749D01*
X47591722Y-13682089D01*
X47589529Y-13673903D01*
X47589528Y-13673901D01*
X47588106Y-13668593D01*
X47554690Y-13596932D01*
X47493671Y-13466074D01*
X47493668Y-13466069D01*
X47491345Y-13461087D01*
X47386344Y-13311130D01*
X47363179Y-13278047D01*
X47363177Y-13278044D01*
X47360020Y-13273536D01*
X47198122Y-13111638D01*
X47193614Y-13108481D01*
X47193611Y-13108479D01*
X47037123Y-12998905D01*
X47010571Y-12980313D01*
X47005589Y-12977990D01*
X47005584Y-12977987D01*
X46971365Y-12962031D01*
X46918080Y-12915114D01*
X46898619Y-12846837D01*
X46919161Y-12778877D01*
X46971365Y-12733641D01*
X47005584Y-12717685D01*
X47005589Y-12717682D01*
X47010571Y-12715359D01*
X47148417Y-12618838D01*
X47193611Y-12587193D01*
X47193614Y-12587191D01*
X47198122Y-12584034D01*
X47360020Y-12422136D01*
X47491345Y-12234585D01*
X47493668Y-12229603D01*
X47493671Y-12229598D01*
X47585783Y-12032061D01*
X47585783Y-12032060D01*
X47588106Y-12027079D01*
X47590091Y-12019673D01*
X47645941Y-11811238D01*
X47645941Y-11811236D01*
X47647365Y-11805923D01*
X47667320Y-11577836D01*
X47647365Y-11349749D01*
X47640401Y-11323760D01*
X47589529Y-11133903D01*
X47589528Y-11133901D01*
X47588106Y-11128593D01*
X47583119Y-11117899D01*
X47493671Y-10926074D01*
X47493668Y-10926069D01*
X47491345Y-10921087D01*
X47392779Y-10780320D01*
X47363179Y-10738047D01*
X47363177Y-10738044D01*
X47360020Y-10733536D01*
X47198122Y-10571638D01*
X47193614Y-10568481D01*
X47193611Y-10568479D01*
X47109474Y-10509566D01*
X47010571Y-10440313D01*
X47005589Y-10437990D01*
X47005584Y-10437987D01*
X46971365Y-10422031D01*
X46918080Y-10375114D01*
X46898619Y-10306837D01*
X46919161Y-10238877D01*
X46971365Y-10193641D01*
X47005584Y-10177685D01*
X47005589Y-10177682D01*
X47010571Y-10175359D01*
X47136281Y-10087336D01*
X47193611Y-10047193D01*
X47193614Y-10047191D01*
X47198122Y-10044034D01*
X47360020Y-9882136D01*
X47491345Y-9694585D01*
X47493668Y-9689603D01*
X47493671Y-9689598D01*
X47585783Y-9492061D01*
X47585783Y-9492060D01*
X47588106Y-9487079D01*
X47591222Y-9475452D01*
X47645941Y-9271238D01*
X47645941Y-9271236D01*
X47647365Y-9265923D01*
X47667320Y-9037836D01*
X47647365Y-8809749D01*
X47598130Y-8626003D01*
X47589529Y-8593903D01*
X47589528Y-8593901D01*
X47588106Y-8588593D01*
X47581982Y-8575460D01*
X47493671Y-8386074D01*
X47493668Y-8386069D01*
X47491345Y-8381087D01*
X47370523Y-8208536D01*
X47363179Y-8198047D01*
X47363177Y-8198044D01*
X47360020Y-8193536D01*
X47198122Y-8031638D01*
X47193614Y-8028481D01*
X47193611Y-8028479D01*
X47096394Y-7960407D01*
X47010571Y-7900313D01*
X47005589Y-7897990D01*
X47005584Y-7897987D01*
X46971365Y-7882031D01*
X46918080Y-7835114D01*
X46898619Y-7766837D01*
X46919161Y-7698877D01*
X46971365Y-7653641D01*
X47005584Y-7637685D01*
X47005589Y-7637682D01*
X47010571Y-7635359D01*
X47115433Y-7561934D01*
X47193611Y-7507193D01*
X47193614Y-7507191D01*
X47198122Y-7504034D01*
X47360020Y-7342136D01*
X47363180Y-7337624D01*
X47477685Y-7174093D01*
X47491345Y-7154585D01*
X47493668Y-7149603D01*
X47493671Y-7149598D01*
X47585783Y-6952061D01*
X47585783Y-6952060D01*
X47588106Y-6947079D01*
X47647365Y-6725923D01*
X47667320Y-6497836D01*
X47647365Y-6269749D01*
X47595241Y-6075220D01*
X47589529Y-6053903D01*
X47589528Y-6053901D01*
X47588106Y-6048593D01*
X47574986Y-6020456D01*
X47493671Y-5846074D01*
X47493668Y-5846069D01*
X47491345Y-5841087D01*
X47370523Y-5668536D01*
X47363179Y-5658047D01*
X47363177Y-5658044D01*
X47360020Y-5653536D01*
X47198122Y-5491638D01*
X47193614Y-5488481D01*
X47193611Y-5488479D01*
X47096394Y-5420407D01*
X47010571Y-5360313D01*
X47005589Y-5357990D01*
X47005584Y-5357987D01*
X46971365Y-5342031D01*
X46918080Y-5295114D01*
X46898619Y-5226837D01*
X46919161Y-5158877D01*
X46971365Y-5113641D01*
X47005584Y-5097685D01*
X47005589Y-5097682D01*
X47010571Y-5095359D01*
X47168765Y-4984590D01*
X47193611Y-4967193D01*
X47193614Y-4967191D01*
X47198122Y-4964034D01*
X47360020Y-4802136D01*
X47364507Y-4795729D01*
X47477685Y-4634093D01*
X47491345Y-4614585D01*
X47493668Y-4609603D01*
X47493671Y-4609598D01*
X47585783Y-4412061D01*
X47585783Y-4412060D01*
X47588106Y-4407079D01*
X47647365Y-4185923D01*
X47667320Y-3957836D01*
X47647365Y-3729749D01*
X47592125Y-3523593D01*
X47589529Y-3513903D01*
X47589528Y-3513901D01*
X47588106Y-3508593D01*
X47574413Y-3479228D01*
X47493671Y-3306074D01*
X47493668Y-3306069D01*
X47491345Y-3301087D01*
X47401364Y-3172581D01*
X47363179Y-3118047D01*
X47363177Y-3118044D01*
X47360020Y-3113536D01*
X47198122Y-2951638D01*
X47193614Y-2948481D01*
X47193611Y-2948479D01*
X47041051Y-2841655D01*
X46996723Y-2786198D01*
X46987322Y-2738442D01*
X46987322Y-2187038D01*
X47007324Y-2118917D01*
X47060980Y-2072424D01*
X47073445Y-2067515D01*
X47135815Y-2046706D01*
X47135817Y-2046705D01*
X47142768Y-2044386D01*
X47293170Y-1951314D01*
X47418127Y-1826139D01*
X47510937Y-1675574D01*
X47566619Y-1507697D01*
X47577322Y-1403236D01*
X47577322Y-802436D01*
X47574588Y-776087D01*
X47567060Y-703528D01*
X47567059Y-703524D01*
X47566348Y-696670D01*
X47564050Y-689780D01*
X47512690Y-535838D01*
X47510372Y-528890D01*
X47417300Y-378488D01*
X47292125Y-253531D01*
X47287587Y-250734D01*
X47246998Y-193483D01*
X47243768Y-122560D01*
X47279394Y-61149D01*
X47287890Y-53774D01*
X47298029Y-45738D01*
X47412561Y68993D01*
X47421573Y80404D01*
X47506638Y218407D01*
X47512785Y231588D01*
X47563960Y385874D01*
X47566827Y399250D01*
X47576494Y493602D01*
X47576822Y500019D01*
X47576822Y525049D01*
X47572347Y540288D01*
X47570957Y541493D01*
X47563274Y543164D01*
X45128938Y543164D01*
X45113699Y538689D01*
X45112494Y537299D01*
X45110823Y529616D01*
X45110823Y500069D01*
X45111160Y493550D01*
X45121079Y397958D01*
X45123971Y384564D01*
X45175410Y230380D01*
X45181583Y217202D01*
X45266885Y79357D01*
X45275921Y67956D01*
X45390650Y-46574D01*
X45399584Y-53630D01*
X45440645Y-111548D01*
X45443875Y-182471D01*
X45408248Y-243882D01*
X45400415Y-250682D01*
X45394474Y-254358D01*
X45269517Y-379533D01*
X45265677Y-385763D01*
X45265676Y-385764D01*
X45248687Y-413326D01*
X45176707Y-530098D01*
X45121025Y-697975D01*
X45110322Y-802436D01*
X45110322Y-1403236D01*
X45121296Y-1509002D01*
X45177272Y-1676782D01*
X45270344Y-1827184D01*
X45275526Y-1832357D01*
X45322173Y-1878923D01*
X45395519Y-1952141D01*
X45401749Y-1955981D01*
X45401750Y-1955982D01*
X45538912Y-2040530D01*
X45546084Y-2044951D01*
X45624789Y-2071056D01*
X45633990Y-2074108D01*
X45692349Y-2114539D01*
X45719586Y-2180103D01*
X45720322Y-2193701D01*
X45720322Y-2738442D01*
X45700320Y-2806563D01*
X45666593Y-2841655D01*
X45514033Y-2948479D01*
X45514030Y-2948481D01*
X45509522Y-2951638D01*
X45347624Y-3113536D01*
X45344467Y-3118044D01*
X45344465Y-3118047D01*
X45306280Y-3172581D01*
X45216299Y-3301087D01*
X45213976Y-3306069D01*
X45213973Y-3306074D01*
X45133231Y-3479228D01*
X45119538Y-3508593D01*
X45118116Y-3513901D01*
X45118115Y-3513903D01*
X45115519Y-3523593D01*
X45060279Y-3729749D01*
X45040324Y-3957836D01*
X45060279Y-4185923D01*
X45119538Y-4407079D01*
X45121861Y-4412060D01*
X45121861Y-4412061D01*
X45213973Y-4609598D01*
X45213976Y-4609603D01*
X45216299Y-4614585D01*
X45229959Y-4634093D01*
X45343138Y-4795729D01*
X45347624Y-4802136D01*
X45509522Y-4964034D01*
X45514030Y-4967191D01*
X45514033Y-4967193D01*
X45538879Y-4984590D01*
X45697073Y-5095359D01*
X45702055Y-5097682D01*
X45702060Y-5097685D01*
X45736279Y-5113641D01*
X45789564Y-5160558D01*
X45809025Y-5228835D01*
X45788483Y-5296795D01*
X45736279Y-5342031D01*
X45702060Y-5357987D01*
X45702055Y-5357990D01*
X45697073Y-5360313D01*
X45611250Y-5420407D01*
X45514033Y-5488479D01*
X45514030Y-5488481D01*
X45509522Y-5491638D01*
X45347624Y-5653536D01*
X45344467Y-5658044D01*
X45344465Y-5658047D01*
X45337121Y-5668536D01*
X45216299Y-5841087D01*
X45213976Y-5846069D01*
X45213973Y-5846074D01*
X45132658Y-6020456D01*
X45119538Y-6048593D01*
X45118116Y-6053901D01*
X45118115Y-6053903D01*
X45112403Y-6075220D01*
X45060279Y-6269749D01*
X45040324Y-6497836D01*
X45060279Y-6725923D01*
X45119538Y-6947079D01*
X45121861Y-6952060D01*
X45121861Y-6952061D01*
X45213973Y-7149598D01*
X45213976Y-7149603D01*
X45216299Y-7154585D01*
X45229959Y-7174093D01*
X45344465Y-7337624D01*
X45347624Y-7342136D01*
X45509522Y-7504034D01*
X45514030Y-7507191D01*
X45514033Y-7507193D01*
X45592211Y-7561934D01*
X45697073Y-7635359D01*
X45702055Y-7637682D01*
X45702060Y-7637685D01*
X45736279Y-7653641D01*
X45789564Y-7700558D01*
X45809025Y-7768835D01*
X45788483Y-7836795D01*
X45736279Y-7882031D01*
X45702060Y-7897987D01*
X45702055Y-7897990D01*
X45697073Y-7900313D01*
X45611250Y-7960407D01*
X45514033Y-8028479D01*
X45514030Y-8028481D01*
X45509522Y-8031638D01*
X45347624Y-8193536D01*
X45344467Y-8198044D01*
X45344465Y-8198047D01*
X45337121Y-8208536D01*
X45216299Y-8381087D01*
X45213976Y-8386069D01*
X45213973Y-8386074D01*
X45125662Y-8575460D01*
X45119538Y-8588593D01*
X45118116Y-8593901D01*
X45118115Y-8593903D01*
X45109514Y-8626003D01*
X45060279Y-8809749D01*
X45040324Y-9037836D01*
X45060279Y-9265923D01*
X45061703Y-9271236D01*
X45061703Y-9271238D01*
X45116423Y-9475452D01*
X45119538Y-9487079D01*
X45121861Y-9492060D01*
X45121861Y-9492061D01*
X45213973Y-9689598D01*
X45213976Y-9689603D01*
X45216299Y-9694585D01*
X45347624Y-9882136D01*
X45509522Y-10044034D01*
X45514030Y-10047191D01*
X45514033Y-10047193D01*
X45571363Y-10087336D01*
X45697073Y-10175359D01*
X45702055Y-10177682D01*
X45702060Y-10177685D01*
X45736279Y-10193641D01*
X45789564Y-10240558D01*
X45809025Y-10308835D01*
X45788483Y-10376795D01*
X45736279Y-10422031D01*
X45702060Y-10437987D01*
X45702055Y-10437990D01*
X45697073Y-10440313D01*
X45598170Y-10509566D01*
X45514033Y-10568479D01*
X45514030Y-10568481D01*
X45509522Y-10571638D01*
X45347624Y-10733536D01*
X45344467Y-10738044D01*
X45344465Y-10738047D01*
X45314865Y-10780320D01*
X45216299Y-10921087D01*
X45213976Y-10926069D01*
X45213973Y-10926074D01*
X45124525Y-11117899D01*
X45119538Y-11128593D01*
X45118116Y-11133901D01*
X45118115Y-11133903D01*
X45067243Y-11323760D01*
X45060279Y-11349749D01*
X45040324Y-11577836D01*
X45060279Y-11805923D01*
X45061703Y-11811236D01*
X45061703Y-11811238D01*
X45117554Y-12019673D01*
X45119538Y-12027079D01*
X45121861Y-12032060D01*
X45121861Y-12032061D01*
X45213973Y-12229598D01*
X45213976Y-12229603D01*
X45216299Y-12234585D01*
X45347624Y-12422136D01*
X45509522Y-12584034D01*
X45514030Y-12587191D01*
X45514033Y-12587193D01*
X45559227Y-12618838D01*
X45697073Y-12715359D01*
X45702055Y-12717682D01*
X45702060Y-12717685D01*
X45736279Y-12733641D01*
X45789564Y-12780558D01*
X45809025Y-12848835D01*
X45788483Y-12916795D01*
X45736279Y-12962031D01*
X45702060Y-12977987D01*
X45702055Y-12977990D01*
X45697073Y-12980313D01*
X45670521Y-12998905D01*
X45514033Y-13108479D01*
X45514030Y-13108481D01*
X45509522Y-13111638D01*
X45347624Y-13273536D01*
X45344467Y-13278044D01*
X45344465Y-13278047D01*
X45321300Y-13311130D01*
X45216299Y-13461087D01*
X45213976Y-13466069D01*
X45213973Y-13466074D01*
X45152954Y-13596932D01*
X45119538Y-13668593D01*
X45118116Y-13673901D01*
X45118115Y-13673903D01*
X45115922Y-13682089D01*
X45060279Y-13889749D01*
X45040324Y-14117836D01*
X45060279Y-14345923D01*
X45061703Y-14351236D01*
X45061703Y-14351238D01*
X45076096Y-14404951D01*
X45119538Y-14567079D01*
X45121861Y-14572060D01*
X45121861Y-14572061D01*
X45213973Y-14769598D01*
X45213976Y-14769603D01*
X45216299Y-14774585D01*
X45347624Y-14962136D01*
X45509522Y-15124034D01*
X45514030Y-15127191D01*
X45514033Y-15127193D01*
X45592211Y-15181934D01*
X45697073Y-15255359D01*
X45702055Y-15257682D01*
X45702060Y-15257685D01*
X45736279Y-15273641D01*
X45789564Y-15320558D01*
X45809025Y-15388835D01*
X45788483Y-15456795D01*
X45736279Y-15502031D01*
X45702060Y-15517987D01*
X45702055Y-15517990D01*
X45697073Y-15520313D01*
X45670521Y-15538905D01*
X45514033Y-15648479D01*
X45514030Y-15648481D01*
X45509522Y-15651638D01*
X45347624Y-15813536D01*
X45344467Y-15818044D01*
X45344465Y-15818047D01*
X45289724Y-15896225D01*
X45216299Y-16001087D01*
X45213976Y-16006069D01*
X45213973Y-16006074D01*
X45133231Y-16179228D01*
X45119538Y-16208593D01*
X45118116Y-16213901D01*
X45118115Y-16213903D01*
X45074699Y-16375932D01*
X45060279Y-16429749D01*
X45040324Y-16657836D01*
X45060279Y-16885923D01*
X45119538Y-17107079D01*
X45121861Y-17112060D01*
X45121861Y-17112061D01*
X45213973Y-17309598D01*
X45213976Y-17309603D01*
X45216299Y-17314585D01*
X45269934Y-17391183D01*
X45317738Y-17459454D01*
X45347624Y-17502136D01*
X45509522Y-17664034D01*
X45514030Y-17667191D01*
X45514033Y-17667193D01*
X45592211Y-17721934D01*
X45697073Y-17795359D01*
X45702055Y-17797682D01*
X45702060Y-17797685D01*
X45736279Y-17813641D01*
X45789564Y-17860558D01*
X45809025Y-17928835D01*
X45788483Y-17996795D01*
X45736279Y-18042031D01*
X45702060Y-18057987D01*
X45702055Y-18057990D01*
X45697073Y-18060313D01*
X45592211Y-18133738D01*
X45514033Y-18188479D01*
X45514030Y-18188481D01*
X45509522Y-18191638D01*
X45347624Y-18353536D01*
X45344467Y-18358044D01*
X45344465Y-18358047D01*
X45337121Y-18368536D01*
X45216299Y-18541087D01*
X45213976Y-18546069D01*
X45213973Y-18546074D01*
X45121861Y-18743611D01*
X45119538Y-18748593D01*
X45118116Y-18753901D01*
X45118115Y-18753903D01*
X45067222Y-18943836D01*
X45060279Y-18969749D01*
X45040324Y-19197836D01*
X43424727Y-19197836D01*
X40492474Y-16265583D01*
X40484934Y-16257297D01*
X40480822Y-16250818D01*
X40431170Y-16204192D01*
X40428329Y-16201438D01*
X40408592Y-16181701D01*
X40405395Y-16179221D01*
X40396373Y-16171516D01*
X40369922Y-16146677D01*
X40364143Y-16141250D01*
X40357197Y-16137431D01*
X40357194Y-16137429D01*
X40346388Y-16131488D01*
X40329869Y-16120637D01*
X40329405Y-16120277D01*
X40313863Y-16108222D01*
X40306594Y-16105077D01*
X40306590Y-16105074D01*
X40273285Y-16090662D01*
X40262635Y-16085445D01*
X40223882Y-16064141D01*
X40204259Y-16059103D01*
X40185556Y-16052699D01*
X40174242Y-16047803D01*
X40174241Y-16047803D01*
X40166967Y-16044655D01*
X40159144Y-16043416D01*
X40159134Y-16043413D01*
X40123298Y-16037737D01*
X40111678Y-16035331D01*
X40076533Y-16026308D01*
X40076532Y-16026308D01*
X40068852Y-16024336D01*
X40048598Y-16024336D01*
X40028887Y-16022785D01*
X40016708Y-16020856D01*
X40008879Y-16019616D01*
X40000987Y-16020362D01*
X40000986Y-16020362D01*
X39965059Y-16023758D01*
X39895359Y-16010255D01*
X39849989Y-15970588D01*
X39743179Y-15818047D01*
X39743177Y-15818044D01*
X39740020Y-15813536D01*
X39578122Y-15651638D01*
X39573614Y-15648481D01*
X39573611Y-15648479D01*
X39417123Y-15538905D01*
X39390571Y-15520313D01*
X39385589Y-15517990D01*
X39385584Y-15517987D01*
X39351365Y-15502031D01*
X39298080Y-15455114D01*
X39278619Y-15386837D01*
X39299161Y-15318877D01*
X39351365Y-15273641D01*
X39385584Y-15257685D01*
X39385589Y-15257682D01*
X39390571Y-15255359D01*
X39495433Y-15181934D01*
X39573611Y-15127193D01*
X39573614Y-15127191D01*
X39578122Y-15124034D01*
X39740020Y-14962136D01*
X39871345Y-14774585D01*
X39873668Y-14769603D01*
X39873671Y-14769598D01*
X39965783Y-14572061D01*
X39965783Y-14572060D01*
X39968106Y-14567079D01*
X40011549Y-14404951D01*
X40025941Y-14351238D01*
X40025941Y-14351236D01*
X40027365Y-14345923D01*
X40047320Y-14117836D01*
X40027365Y-13889749D01*
X39971722Y-13682089D01*
X39969529Y-13673903D01*
X39969528Y-13673901D01*
X39968106Y-13668593D01*
X39934690Y-13596932D01*
X39873671Y-13466074D01*
X39873668Y-13466069D01*
X39871345Y-13461087D01*
X39766344Y-13311130D01*
X39743179Y-13278047D01*
X39743177Y-13278044D01*
X39740020Y-13273536D01*
X39578122Y-13111638D01*
X39573614Y-13108481D01*
X39573611Y-13108479D01*
X39417123Y-12998905D01*
X39390571Y-12980313D01*
X39385589Y-12977990D01*
X39385584Y-12977987D01*
X39351365Y-12962031D01*
X39298080Y-12915114D01*
X39278619Y-12846837D01*
X39299161Y-12778877D01*
X39351365Y-12733641D01*
X39385584Y-12717685D01*
X39385589Y-12717682D01*
X39390571Y-12715359D01*
X39528417Y-12618838D01*
X39573611Y-12587193D01*
X39573614Y-12587191D01*
X39578122Y-12584034D01*
X39740020Y-12422136D01*
X39844938Y-12272298D01*
X39900394Y-12227971D01*
X39957958Y-12221272D01*
X39958012Y-12219567D01*
X39965936Y-12219816D01*
X39973765Y-12221056D01*
X39981657Y-12220310D01*
X39981658Y-12220310D01*
X40029680Y-12215771D01*
X40037577Y-12215274D01*
X40070794Y-12214229D01*
X40093711Y-12213509D01*
X40101620Y-12211211D01*
X40124916Y-12206768D01*
X40125226Y-12206739D01*
X40125229Y-12206738D01*
X40133114Y-12205993D01*
X40185966Y-12186965D01*
X40193495Y-12184519D01*
X40239803Y-12171066D01*
X40239807Y-12171064D01*
X40247415Y-12168854D01*
X40254238Y-12164819D01*
X40254242Y-12164817D01*
X40254510Y-12164659D01*
X40275954Y-12154569D01*
X40276245Y-12154464D01*
X40276253Y-12154460D01*
X40283711Y-12151775D01*
X40330187Y-12120190D01*
X40336818Y-12115981D01*
X40385184Y-12087378D01*
X40391004Y-12081558D01*
X40409275Y-12066442D01*
X40409532Y-12066267D01*
X40416093Y-12061808D01*
X40433487Y-12042079D01*
X40453240Y-12019673D01*
X40458659Y-12013903D01*
X41656069Y-10816493D01*
X41664359Y-10808949D01*
X41670840Y-10804836D01*
X41717481Y-10755168D01*
X41720235Y-10752327D01*
X41739956Y-10732606D01*
X41742434Y-10729411D01*
X41750140Y-10720389D01*
X41774980Y-10693937D01*
X41780408Y-10688157D01*
X41790168Y-10670404D01*
X41801021Y-10653881D01*
X41808575Y-10644142D01*
X41813435Y-10637877D01*
X41830998Y-10597293D01*
X41836205Y-10586663D01*
X41857517Y-10547896D01*
X41859488Y-10540219D01*
X41859490Y-10540214D01*
X41862554Y-10528278D01*
X41868960Y-10509566D01*
X41873855Y-10498255D01*
X41877003Y-10490981D01*
X41878243Y-10483153D01*
X41878245Y-10483146D01*
X41883921Y-10447312D01*
X41886327Y-10435692D01*
X41895350Y-10400547D01*
X41895350Y-10400546D01*
X41897322Y-10392866D01*
X41897322Y-10372612D01*
X41898873Y-10352901D01*
X41900802Y-10340722D01*
X41902042Y-10332893D01*
X41897881Y-10288874D01*
X41897322Y-10277017D01*
X41897322Y-5311603D01*
X41897849Y-5300420D01*
X41899524Y-5292927D01*
X41898541Y-5261639D01*
X41897384Y-5224850D01*
X41897322Y-5220891D01*
X41897322Y-5192980D01*
X41896817Y-5188980D01*
X41895884Y-5177137D01*
X41895835Y-5175558D01*
X41894495Y-5132946D01*
X41888844Y-5113494D01*
X41884836Y-5094142D01*
X41883289Y-5081899D01*
X41882296Y-5074039D01*
X41879378Y-5066668D01*
X41866022Y-5032933D01*
X41862177Y-5021706D01*
X41859158Y-5011314D01*
X41849840Y-4979243D01*
X41845806Y-4972421D01*
X41845803Y-4972415D01*
X41839528Y-4961804D01*
X41830832Y-4944054D01*
X41826294Y-4932592D01*
X41826291Y-4932587D01*
X41823374Y-4925219D01*
X41810723Y-4907806D01*
X41797395Y-4889461D01*
X41790879Y-4879543D01*
X41772397Y-4848293D01*
X41768364Y-4841473D01*
X41754040Y-4827149D01*
X41741198Y-4812114D01*
X41729294Y-4795729D01*
X41695228Y-4767547D01*
X41686449Y-4759558D01*
X40492474Y-3565583D01*
X40484934Y-3557297D01*
X40480822Y-3550818D01*
X40431170Y-3504192D01*
X40428329Y-3501438D01*
X40408592Y-3481701D01*
X40405395Y-3479221D01*
X40396373Y-3471516D01*
X40369922Y-3446677D01*
X40364143Y-3441250D01*
X40357197Y-3437431D01*
X40357194Y-3437429D01*
X40346388Y-3431488D01*
X40329869Y-3420637D01*
X40320786Y-3413592D01*
X40313863Y-3408222D01*
X40306594Y-3405077D01*
X40306590Y-3405074D01*
X40273285Y-3390662D01*
X40262635Y-3385445D01*
X40223882Y-3364141D01*
X40204259Y-3359103D01*
X40185556Y-3352699D01*
X40174242Y-3347803D01*
X40174241Y-3347803D01*
X40166967Y-3344655D01*
X40159136Y-3343415D01*
X40159134Y-3343414D01*
X40148608Y-3341746D01*
X40084456Y-3311332D01*
X40046930Y-3251063D01*
X40042322Y-3217298D01*
X40042322Y-3109702D01*
X40035567Y-3047520D01*
X39984437Y-2911131D01*
X39897083Y-2794575D01*
X39780527Y-2707221D01*
X39644138Y-2656091D01*
X39581956Y-2649336D01*
X39104314Y-2649336D01*
X39036193Y-2629334D01*
X39015219Y-2612431D01*
X38681569Y-2278781D01*
X38674029Y-2270495D01*
X38669917Y-2264016D01*
X38620265Y-2217390D01*
X38617424Y-2214636D01*
X38597687Y-2194899D01*
X38594490Y-2192419D01*
X38585468Y-2184714D01*
X38580558Y-2180103D01*
X38553238Y-2154448D01*
X38546292Y-2150629D01*
X38546289Y-2150627D01*
X38535483Y-2144686D01*
X38518964Y-2133835D01*
X38518500Y-2133475D01*
X38502958Y-2121420D01*
X38495689Y-2118275D01*
X38495685Y-2118272D01*
X38462380Y-2103860D01*
X38451730Y-2098643D01*
X38412977Y-2077339D01*
X38393354Y-2072301D01*
X38374651Y-2065897D01*
X38363337Y-2061001D01*
X38363336Y-2061001D01*
X38356062Y-2057853D01*
X38348239Y-2056614D01*
X38348229Y-2056611D01*
X38312393Y-2050935D01*
X38300773Y-2048529D01*
X38265628Y-2039506D01*
X38265627Y-2039506D01*
X38257947Y-2037534D01*
X38237693Y-2037534D01*
X38217982Y-2035983D01*
X38205803Y-2034054D01*
X38197974Y-2032814D01*
X38190082Y-2033560D01*
X38153956Y-2036975D01*
X38142098Y-2037534D01*
X33740659Y-2037534D01*
X33672538Y-2017532D01*
X33626045Y-1963876D01*
X33615941Y-1893602D01*
X33618952Y-1878923D01*
X33675941Y-1666238D01*
X33675941Y-1666236D01*
X33677365Y-1660923D01*
X33697320Y-1432836D01*
X33677365Y-1204749D01*
X33618106Y-983593D01*
X33599622Y-943954D01*
X33523671Y-781074D01*
X33523668Y-781069D01*
X33521345Y-776087D01*
X33390020Y-588536D01*
X33228122Y-426638D01*
X33223614Y-423481D01*
X33223611Y-423479D01*
X33145433Y-368738D01*
X33040571Y-295313D01*
X33035589Y-292990D01*
X33035584Y-292987D01*
X33001365Y-277031D01*
X32948080Y-230114D01*
X32928619Y-161837D01*
X32949161Y-93877D01*
X33001365Y-48641D01*
X33035584Y-32685D01*
X33035589Y-32682D01*
X33040571Y-30359D01*
X33182460Y68993D01*
X33223611Y97807D01*
X33223614Y97809D01*
X33228122Y100966D01*
X33390020Y262864D01*
X33417814Y302557D01*
X33447920Y345553D01*
X33521345Y450415D01*
X33523668Y455397D01*
X33523671Y455402D01*
X33615783Y652939D01*
X33615783Y652940D01*
X33618106Y657921D01*
X33636809Y727719D01*
X33675941Y873762D01*
X33675941Y873764D01*
X33677365Y879077D01*
X33694005Y1069279D01*
X45110822Y1069279D01*
X45115297Y1054040D01*
X45116687Y1052835D01*
X45124370Y1051164D01*
X46071707Y1051164D01*
X46086946Y1055639D01*
X46088151Y1057029D01*
X46089822Y1064712D01*
X46089822Y1069279D01*
X46597822Y1069279D01*
X46602297Y1054040D01*
X46603687Y1052835D01*
X46611370Y1051164D01*
X47558706Y1051164D01*
X47573945Y1055639D01*
X47575150Y1057029D01*
X47576821Y1064712D01*
X47576821Y1094259D01*
X47576484Y1100778D01*
X47566565Y1196370D01*
X47563673Y1209764D01*
X47512234Y1363948D01*
X47506061Y1377126D01*
X47420759Y1514971D01*
X47411723Y1526372D01*
X47296993Y1640903D01*
X47285582Y1649915D01*
X47147579Y1734980D01*
X47134398Y1741127D01*
X46980112Y1792302D01*
X46966736Y1795169D01*
X46872384Y1804836D01*
X46865967Y1805164D01*
X46615937Y1805164D01*
X46600698Y1800689D01*
X46599493Y1799299D01*
X46597822Y1791616D01*
X46597822Y1069279D01*
X46089822Y1069279D01*
X46089822Y1787048D01*
X46085347Y1802287D01*
X46083957Y1803492D01*
X46076274Y1805163D01*
X45821727Y1805163D01*
X45815208Y1804826D01*
X45719616Y1794907D01*
X45706222Y1792015D01*
X45552038Y1740576D01*
X45538860Y1734403D01*
X45401015Y1649101D01*
X45389614Y1640065D01*
X45275083Y1525335D01*
X45266071Y1513924D01*
X45181006Y1375921D01*
X45174859Y1362740D01*
X45123684Y1208454D01*
X45120817Y1195078D01*
X45111150Y1100726D01*
X45110822Y1094310D01*
X45110822Y1069279D01*
X33694005Y1069279D01*
X33697320Y1107164D01*
X33677365Y1335251D01*
X33669676Y1363948D01*
X33619529Y1551097D01*
X33619528Y1551099D01*
X33618106Y1556407D01*
X33604986Y1584544D01*
X33523671Y1758926D01*
X33523668Y1758931D01*
X33521345Y1763913D01*
X33390020Y1951464D01*
X33228122Y2113362D01*
X33223614Y2116519D01*
X33223611Y2116521D01*
X33145433Y2171262D01*
X33040571Y2244687D01*
X33035589Y2247010D01*
X33035584Y2247013D01*
X32838047Y2339125D01*
X32838046Y2339125D01*
X32833065Y2341448D01*
X32827757Y2342870D01*
X32827755Y2342871D01*
X32617224Y2399283D01*
X32617222Y2399283D01*
X32611909Y2400707D01*
X32383822Y2420662D01*
X32155735Y2400707D01*
X32150422Y2399283D01*
X32150420Y2399283D01*
X31939889Y2342871D01*
X31939887Y2342870D01*
X31934579Y2341448D01*
X31929598Y2339125D01*
X31929597Y2339125D01*
X31732060Y2247013D01*
X31732055Y2247010D01*
X31727073Y2244687D01*
X31622211Y2171262D01*
X31544033Y2116521D01*
X31544030Y2116519D01*
X31539522Y2113362D01*
X31377624Y1951464D01*
X31246299Y1763913D01*
X31243976Y1758931D01*
X31243973Y1758926D01*
X31162658Y1584544D01*
X31149538Y1556407D01*
X31148116Y1551099D01*
X31148115Y1551097D01*
X31097968Y1363948D01*
X31090279Y1335251D01*
X31070324Y1107164D01*
X31090279Y879077D01*
X31091703Y873764D01*
X31091703Y873762D01*
X31130836Y727719D01*
X31149538Y657921D01*
X31151861Y652940D01*
X31151861Y652939D01*
X31243973Y455402D01*
X31243976Y455397D01*
X31246299Y450415D01*
X31319724Y345553D01*
X31349831Y302557D01*
X31377624Y262864D01*
X31539522Y100966D01*
X31544030Y97809D01*
X31544033Y97807D01*
X31585184Y68993D01*
X31727073Y-30359D01*
X31732055Y-32682D01*
X31732060Y-32685D01*
X31766279Y-48641D01*
X31819564Y-95558D01*
X31839025Y-163835D01*
X31818483Y-231795D01*
X31766279Y-277031D01*
X31732060Y-292987D01*
X31732055Y-292990D01*
X31727073Y-295313D01*
X31622211Y-368738D01*
X31544033Y-423479D01*
X31544030Y-423481D01*
X31539522Y-426638D01*
X31377624Y-588536D01*
X31374467Y-593044D01*
X31374465Y-593047D01*
X31267641Y-745607D01*
X31212184Y-789935D01*
X31164428Y-799336D01*
X30158416Y-799336D01*
X30090295Y-779334D01*
X30069321Y-762431D01*
X28341727Y965164D01*
X28307701Y1027476D01*
X28304822Y1054259D01*
X28304822Y6472759D01*
X28324824Y6540880D01*
X28365940Y6580636D01*
X28369316Y6582290D01*
X28551182Y6712013D01*
X28709418Y6869697D01*
X28768916Y6952497D01*
X28839775Y7051109D01*
X28840962Y7050256D01*
X28888282Y7093824D01*
X28958219Y7106041D01*
X29023660Y7078508D01*
X29051488Y7046675D01*
X29109016Y6952798D01*
X29115099Y6944487D01*
X29254535Y6783519D01*
X29261902Y6776303D01*
X29425756Y6640270D01*
X29434203Y6634355D01*
X29618078Y6526907D01*
X29627364Y6522457D01*
X29826323Y6446483D01*
X29836221Y6443607D01*
X29939572Y6422580D01*
X29953621Y6423776D01*
X29957322Y6434121D01*
X29957322Y6434669D01*
X30465322Y6434669D01*
X30469386Y6420827D01*
X30482800Y6418793D01*
X30489506Y6419652D01*
X30499584Y6421794D01*
X30703577Y6482995D01*
X30713164Y6486753D01*
X30904417Y6580447D01*
X30913267Y6585722D01*
X31086650Y6709394D01*
X31094515Y6716041D01*
X31199219Y6820381D01*
X31261590Y6854297D01*
X31332397Y6849109D01*
X31389159Y6806463D01*
X31406141Y6775360D01*
X31450707Y6656481D01*
X31538061Y6539925D01*
X31654617Y6452571D01*
X31791006Y6401441D01*
X31853188Y6394686D01*
X33649456Y6394686D01*
X33711638Y6401441D01*
X33848027Y6452571D01*
X33964583Y6539925D01*
X34051937Y6656481D01*
X34103067Y6792870D01*
X34109822Y6855052D01*
X34109822Y8651320D01*
X34103067Y8713502D01*
X34051937Y8849891D01*
X33964583Y8966447D01*
X33848027Y9053801D01*
X33711638Y9104931D01*
X33649456Y9111686D01*
X31853188Y9111686D01*
X31791006Y9104931D01*
X31654617Y9053801D01*
X31538061Y8966447D01*
X31450707Y8849891D01*
X31447555Y8841483D01*
X31447554Y8841481D01*
X31406044Y8730753D01*
X31363403Y8673988D01*
X31296841Y8649288D01*
X31227492Y8664495D01*
X31194868Y8690182D01*
X31144121Y8745952D01*
X31136595Y8752971D01*
X30969461Y8884964D01*
X30960874Y8890669D01*
X30774439Y8993587D01*
X30765027Y8997817D01*
X30564281Y9068906D01*
X30554310Y9071540D01*
X30483159Y9084214D01*
X30469862Y9082754D01*
X30465322Y9068197D01*
X30465322Y6434669D01*
X29957322Y6434669D01*
X29957322Y9070084D01*
X29953404Y9083428D01*
X29939128Y9085415D01*
X29900646Y9079526D01*
X29890610Y9077135D01*
X29688190Y9010974D01*
X29678681Y9006977D01*
X29489785Y8908644D01*
X29481060Y8903150D01*
X29310755Y8775281D01*
X29303048Y8768438D01*
X29155912Y8614469D01*
X29149431Y8606464D01*
X29044820Y8453112D01*
X28989909Y8408110D01*
X28919384Y8399939D01*
X28855637Y8431193D01*
X28834940Y8455677D01*
X28754144Y8580569D01*
X28754142Y8580572D01*
X28751336Y8584909D01*
X28600992Y8750135D01*
X28596941Y8753334D01*
X28596937Y8753338D01*
X28429736Y8885386D01*
X28429732Y8885388D01*
X28425681Y8888588D01*
X28389350Y8908644D01*
X28373458Y8917417D01*
X28230111Y8996548D01*
X28225242Y8998272D01*
X28225238Y8998274D01*
X28024409Y9069391D01*
X28024405Y9069392D01*
X28019534Y9071117D01*
X28014441Y9072024D01*
X28014438Y9072025D01*
X27804695Y9109386D01*
X27804689Y9109387D01*
X27799606Y9110292D01*
X27725774Y9111194D01*
X27581403Y9112958D01*
X27581401Y9112958D01*
X27576233Y9113021D01*
X27355413Y9079231D01*
X27143078Y9009829D01*
X26944929Y8906679D01*
X26940796Y8903576D01*
X26940793Y8903574D01*
X26858093Y8841481D01*
X26766287Y8772551D01*
X26611951Y8611048D01*
X26504523Y8453565D01*
X26449615Y8408565D01*
X26379090Y8400394D01*
X26315343Y8431648D01*
X26294646Y8456132D01*
X26214144Y8580569D01*
X26214142Y8580572D01*
X26211336Y8584909D01*
X26060992Y8750135D01*
X26056941Y8753334D01*
X26056937Y8753338D01*
X25889736Y8885386D01*
X25889732Y8885388D01*
X25885681Y8888588D01*
X25849350Y8908644D01*
X25833458Y8917417D01*
X25690111Y8996548D01*
X25685242Y8998272D01*
X25685238Y8998274D01*
X25484409Y9069391D01*
X25484405Y9069392D01*
X25479534Y9071117D01*
X25474441Y9072024D01*
X25474438Y9072025D01*
X25264695Y9109386D01*
X25264689Y9109387D01*
X25259606Y9110292D01*
X25185774Y9111194D01*
X25041403Y9112958D01*
X25041401Y9112958D01*
X25036233Y9113021D01*
X24815413Y9079231D01*
X24603078Y9009829D01*
X24404929Y8906679D01*
X24400796Y8903576D01*
X24400793Y8903574D01*
X24318093Y8841481D01*
X24226287Y8772551D01*
X24071951Y8611048D01*
X23946065Y8426506D01*
X23852010Y8223881D01*
X23792311Y8008616D01*
X23768573Y7786491D01*
X23781432Y7563471D01*
X23782569Y7558425D01*
X23782570Y7558419D01*
X23803597Y7465117D01*
X23830544Y7345547D01*
X23914588Y7138570D01*
X23966264Y7054242D01*
X24028613Y6952498D01*
X24031309Y6948098D01*
X24177572Y6779248D01*
X24349448Y6636554D01*
X24542322Y6523848D01*
X24751014Y6444156D01*
X24756082Y6443125D01*
X24756085Y6443124D01*
X24851184Y6423776D01*
X24969919Y6399619D01*
X24975094Y6399429D01*
X24975096Y6399429D01*
X25187995Y6391622D01*
X25187999Y6391622D01*
X25193159Y6391433D01*
X25198279Y6392089D01*
X25198281Y6392089D01*
X25409610Y6419161D01*
X25409611Y6419161D01*
X25414738Y6419818D01*
X25419688Y6421303D01*
X25623751Y6482525D01*
X25623756Y6482527D01*
X25628706Y6484012D01*
X25829316Y6582290D01*
X26011182Y6712013D01*
X26169418Y6869697D01*
X26228916Y6952497D01*
X26299775Y7051109D01*
X26301098Y7050158D01*
X26347967Y7093329D01*
X26417902Y7105561D01*
X26483348Y7078042D01*
X26511197Y7046192D01*
X26571309Y6948098D01*
X26717572Y6779248D01*
X26889448Y6636554D01*
X26893915Y6633944D01*
X26975392Y6586333D01*
X27024116Y6534695D01*
X27037822Y6477545D01*
X27037822Y818431D01*
X27037295Y807248D01*
X27035620Y799755D01*
X27035869Y791829D01*
X27035869Y791828D01*
X27037760Y731678D01*
X27037822Y727719D01*
X27037822Y699808D01*
X27038319Y695874D01*
X27038319Y695873D01*
X27038327Y695808D01*
X27039260Y683971D01*
X27040649Y639775D01*
X27044613Y626132D01*
X27046300Y620325D01*
X27050309Y600964D01*
X27052848Y580867D01*
X27055767Y573496D01*
X27055767Y573494D01*
X27069126Y539752D01*
X27072971Y528522D01*
X27078748Y508637D01*
X27085304Y486071D01*
X27089337Y479252D01*
X27089339Y479247D01*
X27095615Y468636D01*
X27104310Y450888D01*
X27111770Y432047D01*
X27116432Y425631D01*
X27116432Y425630D01*
X27137758Y396277D01*
X27144274Y386357D01*
X27166780Y348302D01*
X27181101Y333981D01*
X27193941Y318948D01*
X27205850Y302557D01*
X27211956Y297506D01*
X27239927Y274366D01*
X27248706Y266376D01*
X29340170Y-1825089D01*
X29347710Y-1833375D01*
X29351822Y-1839854D01*
X29357599Y-1845279D01*
X29401473Y-1886479D01*
X29404315Y-1889234D01*
X29424052Y-1908971D01*
X29427249Y-1911451D01*
X29436269Y-1919154D01*
X29468501Y-1949422D01*
X29475447Y-1953241D01*
X29475450Y-1953243D01*
X29486256Y-1959184D01*
X29502775Y-1970035D01*
X29518781Y-1982450D01*
X29526050Y-1985595D01*
X29526054Y-1985598D01*
X29559359Y-2000010D01*
X29570009Y-2005227D01*
X29608762Y-2026531D01*
X29616437Y-2028502D01*
X29616438Y-2028502D01*
X29628384Y-2031569D01*
X29647088Y-2037973D01*
X29654340Y-2041111D01*
X29665677Y-2046017D01*
X29673500Y-2047256D01*
X29673510Y-2047259D01*
X29709346Y-2052935D01*
X29720966Y-2055341D01*
X29756111Y-2064364D01*
X29763792Y-2066336D01*
X29784046Y-2066336D01*
X29803756Y-2067887D01*
X29823765Y-2071056D01*
X29831657Y-2070310D01*
X29857289Y-2067887D01*
X29867784Y-2066895D01*
X29879641Y-2066336D01*
X31021514Y-2066336D01*
X31089635Y-2086338D01*
X31136128Y-2139994D01*
X31146232Y-2210268D01*
X31116738Y-2274848D01*
X31110609Y-2281431D01*
X30438648Y-2953392D01*
X30430362Y-2960932D01*
X30423883Y-2965044D01*
X30418458Y-2970821D01*
X30377258Y-3014695D01*
X30374503Y-3017537D01*
X30354766Y-3037274D01*
X30352286Y-3040471D01*
X30344583Y-3049491D01*
X30314315Y-3081723D01*
X30310496Y-3088669D01*
X30310494Y-3088672D01*
X30304553Y-3099478D01*
X30293702Y-3115997D01*
X30281287Y-3132003D01*
X30278142Y-3139272D01*
X30278139Y-3139276D01*
X30263727Y-3172581D01*
X30258510Y-3183231D01*
X30237206Y-3221984D01*
X30235235Y-3229659D01*
X30235235Y-3229660D01*
X30232168Y-3241606D01*
X30225764Y-3260310D01*
X30217720Y-3278899D01*
X30216481Y-3286722D01*
X30216478Y-3286732D01*
X30210802Y-3322568D01*
X30208396Y-3334188D01*
X30201212Y-3362170D01*
X30197401Y-3377014D01*
X30197401Y-3397268D01*
X30195850Y-3416978D01*
X30192681Y-3436987D01*
X30193427Y-3444879D01*
X30196842Y-3481005D01*
X30197401Y-3492863D01*
X30197401Y-10550623D01*
X30196874Y-10561806D01*
X30195199Y-10569299D01*
X30195448Y-10577225D01*
X30195448Y-10577226D01*
X30197339Y-10637376D01*
X30197401Y-10641335D01*
X30197401Y-10669246D01*
X30197898Y-10673180D01*
X30197898Y-10673181D01*
X30197906Y-10673246D01*
X30198839Y-10685089D01*
X30199949Y-10720389D01*
X30200228Y-10729279D01*
X30205823Y-10748536D01*
X30205879Y-10748729D01*
X30209888Y-10768090D01*
X30212427Y-10788187D01*
X30215346Y-10795558D01*
X30215346Y-10795560D01*
X30228705Y-10829302D01*
X30232550Y-10840532D01*
X30244883Y-10882983D01*
X30248916Y-10889802D01*
X30248918Y-10889807D01*
X30255194Y-10900418D01*
X30263889Y-10918166D01*
X30271349Y-10937007D01*
X30276011Y-10943423D01*
X30276011Y-10943424D01*
X30297337Y-10972777D01*
X30303853Y-10982697D01*
X30326359Y-11020752D01*
X30340680Y-11035073D01*
X30353520Y-11050106D01*
X30365429Y-11066497D01*
X30371535Y-11071548D01*
X30399506Y-11094688D01*
X30408285Y-11102678D01*
X31055017Y-11749410D01*
X31089882Y-11816382D01*
X31090279Y-11820923D01*
X31104344Y-11873414D01*
X31146854Y-12032061D01*
X31149538Y-12042079D01*
X31151861Y-12047060D01*
X31151861Y-12047061D01*
X31243973Y-12244598D01*
X31243976Y-12244603D01*
X31246299Y-12249585D01*
X31281596Y-12299994D01*
X31369850Y-12426033D01*
X31377624Y-12437136D01*
X31539522Y-12599034D01*
X31544030Y-12602191D01*
X31544033Y-12602193D01*
X31567805Y-12618838D01*
X31727073Y-12730359D01*
X31732055Y-12732682D01*
X31732060Y-12732685D01*
X31766871Y-12748917D01*
X31820156Y-12795834D01*
X31839617Y-12864111D01*
X31819075Y-12932071D01*
X31766871Y-12977307D01*
X31732311Y-12993422D01*
X31722815Y-12998905D01*
X31544355Y-13123864D01*
X31535947Y-13130920D01*
X31381906Y-13284961D01*
X31374850Y-13293369D01*
X31249891Y-13471829D01*
X31244408Y-13481325D01*
X31152332Y-13678783D01*
X31148586Y-13689075D01*
X31102428Y-13861339D01*
X31102764Y-13875435D01*
X31110706Y-13878836D01*
X32511822Y-13878836D01*
X32579943Y-13898838D01*
X32626436Y-13952494D01*
X32637822Y-14004836D01*
X32637822Y-16800836D01*
X32617820Y-16868957D01*
X32564164Y-16915450D01*
X32511822Y-16926836D01*
X31115855Y-16926836D01*
X31102324Y-16930809D01*
X31101095Y-16939358D01*
X31148586Y-17116597D01*
X31152332Y-17126889D01*
X31244408Y-17324347D01*
X31249891Y-17333843D01*
X31374850Y-17512303D01*
X31381906Y-17520711D01*
X31535947Y-17674752D01*
X31544355Y-17681808D01*
X31722815Y-17806767D01*
X31732311Y-17812250D01*
X31766871Y-17828365D01*
X31820156Y-17875282D01*
X31839617Y-17943559D01*
X31819075Y-18011519D01*
X31766871Y-18056755D01*
X31732060Y-18072987D01*
X31732055Y-18072990D01*
X31727073Y-18075313D01*
X31622211Y-18148738D01*
X31544033Y-18203479D01*
X31544030Y-18203481D01*
X31539522Y-18206638D01*
X31377624Y-18368536D01*
X31246299Y-18556087D01*
X31243976Y-18561069D01*
X31243973Y-18561074D01*
X31154056Y-18753903D01*
X31149538Y-18763593D01*
X31090279Y-18984749D01*
X31070324Y-19212836D01*
X31090279Y-19440923D01*
X31091702Y-19446234D01*
X31091704Y-19446245D01*
X31107281Y-19504377D01*
X31105592Y-19575353D01*
X31074670Y-19626084D01*
X28725310Y-21975443D01*
X26443062Y-24257691D01*
X26434776Y-24265231D01*
X26428297Y-24269343D01*
X26422872Y-24275120D01*
X26381672Y-24318994D01*
X26378917Y-24321836D01*
X26359180Y-24341573D01*
X26356700Y-24344770D01*
X26348997Y-24353790D01*
X26318729Y-24386022D01*
X26314910Y-24392969D01*
X26314906Y-24392974D01*
X26309981Y-24401932D01*
X26259635Y-24451990D01*
X26190218Y-24466882D01*
X26123769Y-24441880D01*
X26081386Y-24384922D01*
X26074047Y-24330248D01*
X26076841Y-24298312D01*
X26076841Y-24298311D01*
X26077320Y-24292836D01*
X26057365Y-24064749D01*
X26048815Y-24032841D01*
X25999529Y-23848903D01*
X25999528Y-23848901D01*
X25998106Y-23843593D01*
X25989729Y-23825629D01*
X25903671Y-23641074D01*
X25903668Y-23641069D01*
X25901345Y-23636087D01*
X25770020Y-23448536D01*
X25608122Y-23286638D01*
X25603614Y-23283481D01*
X25603611Y-23283479D01*
X25478965Y-23196201D01*
X25420571Y-23155313D01*
X25415589Y-23152990D01*
X25415584Y-23152987D01*
X25381365Y-23137031D01*
X25328080Y-23090114D01*
X25308619Y-23021837D01*
X25329161Y-22953877D01*
X25381365Y-22908641D01*
X25415584Y-22892685D01*
X25415589Y-22892682D01*
X25420571Y-22890359D01*
X25525867Y-22816630D01*
X25603611Y-22762193D01*
X25603614Y-22762191D01*
X25608122Y-22759034D01*
X25770020Y-22597136D01*
X25794764Y-22561799D01*
X25831005Y-22510040D01*
X25901345Y-22409585D01*
X25903668Y-22404603D01*
X25903671Y-22404598D01*
X25995783Y-22207061D01*
X25995783Y-22207060D01*
X25998106Y-22202079D01*
X25999628Y-22196401D01*
X26055941Y-21986238D01*
X26055941Y-21986236D01*
X26057365Y-21980923D01*
X26077320Y-21752836D01*
X26057365Y-21524749D01*
X26012539Y-21357458D01*
X25999529Y-21308903D01*
X25999528Y-21308901D01*
X25998106Y-21303593D01*
X25984986Y-21275456D01*
X25903671Y-21101074D01*
X25903668Y-21101069D01*
X25901345Y-21096087D01*
X25770020Y-20908536D01*
X25608122Y-20746638D01*
X25603614Y-20743481D01*
X25603611Y-20743479D01*
X25525433Y-20688738D01*
X25420571Y-20615313D01*
X25415589Y-20612990D01*
X25415584Y-20612987D01*
X25381365Y-20597031D01*
X25328080Y-20550114D01*
X25308619Y-20481837D01*
X25329161Y-20413877D01*
X25381365Y-20368641D01*
X25415584Y-20352685D01*
X25415589Y-20352682D01*
X25420571Y-20350359D01*
X25525433Y-20276934D01*
X25603611Y-20222193D01*
X25603614Y-20222191D01*
X25608122Y-20219034D01*
X25770020Y-20057136D01*
X25777795Y-20046033D01*
X25827920Y-19974447D01*
X25901345Y-19869585D01*
X25903668Y-19864603D01*
X25903671Y-19864598D01*
X25995783Y-19667061D01*
X25995783Y-19667060D01*
X25998106Y-19662079D01*
X26000791Y-19652061D01*
X26055941Y-19446238D01*
X26055941Y-19446236D01*
X26057365Y-19440923D01*
X26077320Y-19212836D01*
X26057365Y-18984749D01*
X25998106Y-18763593D01*
X25993588Y-18753903D01*
X25903671Y-18561074D01*
X25903668Y-18561069D01*
X25901345Y-18556087D01*
X25770020Y-18368536D01*
X25608122Y-18206638D01*
X25603614Y-18203481D01*
X25603611Y-18203479D01*
X25525433Y-18148738D01*
X25420571Y-18075313D01*
X25415589Y-18072990D01*
X25415584Y-18072987D01*
X25380773Y-18056755D01*
X25327488Y-18009838D01*
X25308027Y-17941561D01*
X25328569Y-17873601D01*
X25380773Y-17828365D01*
X25415333Y-17812250D01*
X25424829Y-17806767D01*
X25603289Y-17681808D01*
X25611697Y-17674752D01*
X25765738Y-17520711D01*
X25772794Y-17512303D01*
X25897753Y-17333843D01*
X25903236Y-17324347D01*
X25995312Y-17126889D01*
X25999058Y-17116597D01*
X26045216Y-16944333D01*
X26044880Y-16930237D01*
X26036938Y-16926836D01*
X23495855Y-16926836D01*
X23482324Y-16930809D01*
X23481095Y-16939358D01*
X23528586Y-17116597D01*
X23532332Y-17126889D01*
X23624408Y-17324347D01*
X23629891Y-17333843D01*
X23754850Y-17512303D01*
X23761906Y-17520711D01*
X23915947Y-17674752D01*
X23924355Y-17681808D01*
X24102815Y-17806767D01*
X24112311Y-17812250D01*
X24146871Y-17828365D01*
X24200156Y-17875282D01*
X24219617Y-17943559D01*
X24199075Y-18011519D01*
X24146871Y-18056755D01*
X24112060Y-18072987D01*
X24112055Y-18072990D01*
X24107073Y-18075313D01*
X24002211Y-18148738D01*
X23924033Y-18203479D01*
X23924030Y-18203481D01*
X23919522Y-18206638D01*
X23757624Y-18368536D01*
X23754467Y-18373044D01*
X23754465Y-18373047D01*
X23647641Y-18525607D01*
X23592184Y-18569935D01*
X23544428Y-18579336D01*
X21178417Y-18579336D01*
X21110296Y-18559334D01*
X21089321Y-18542431D01*
X20942149Y-18395258D01*
X20908124Y-18332946D01*
X20909538Y-18273551D01*
X20916514Y-18247517D01*
X20917937Y-18242207D01*
X20937129Y-18022836D01*
X20917937Y-17803465D01*
X20860942Y-17590760D01*
X20814797Y-17491801D01*
X20770204Y-17396170D01*
X20770201Y-17396165D01*
X20767878Y-17391183D01*
X20717400Y-17319093D01*
X20644730Y-17215309D01*
X20644728Y-17215306D01*
X20641571Y-17210798D01*
X20485860Y-17055087D01*
X20481352Y-17051930D01*
X20481349Y-17051928D01*
X20427956Y-17014542D01*
X20361050Y-16967694D01*
X20316723Y-16912238D01*
X20307322Y-16864482D01*
X20307322Y-13636599D01*
X20313729Y-13596932D01*
X20349454Y-13489224D01*
X20351619Y-13482697D01*
X20362322Y-13378236D01*
X20362322Y-12352336D01*
X20382324Y-12284215D01*
X20435980Y-12237722D01*
X20488322Y-12226336D01*
X23544428Y-12226336D01*
X23612549Y-12246338D01*
X23647641Y-12280065D01*
X23754465Y-12432625D01*
X23757624Y-12437136D01*
X23919522Y-12599034D01*
X23924030Y-12602191D01*
X23924033Y-12602193D01*
X23947805Y-12618838D01*
X24107073Y-12730359D01*
X24112055Y-12732682D01*
X24112060Y-12732685D01*
X24146279Y-12748641D01*
X24199564Y-12795558D01*
X24219025Y-12863835D01*
X24198483Y-12931795D01*
X24146279Y-12977031D01*
X24112060Y-12992987D01*
X24112055Y-12992990D01*
X24107073Y-12995313D01*
X24002211Y-13068738D01*
X23924033Y-13123479D01*
X23924030Y-13123481D01*
X23919522Y-13126638D01*
X23757624Y-13288536D01*
X23754467Y-13293044D01*
X23754465Y-13293047D01*
X23741803Y-13311130D01*
X23626299Y-13476087D01*
X23623976Y-13481069D01*
X23623973Y-13481074D01*
X23531861Y-13678611D01*
X23529538Y-13683593D01*
X23528116Y-13688901D01*
X23528115Y-13688903D01*
X23498679Y-13798758D01*
X23470279Y-13904749D01*
X23450324Y-14132836D01*
X23470279Y-14360923D01*
X23471703Y-14366236D01*
X23471703Y-14366238D01*
X23526854Y-14572061D01*
X23529538Y-14582079D01*
X23531861Y-14587060D01*
X23531861Y-14587061D01*
X23623973Y-14784598D01*
X23623976Y-14784603D01*
X23626299Y-14789585D01*
X23629456Y-14794093D01*
X23749850Y-14966033D01*
X23757624Y-14977136D01*
X23919522Y-15139034D01*
X23924030Y-15142191D01*
X23924033Y-15142193D01*
X24002211Y-15196934D01*
X24107073Y-15270359D01*
X24112055Y-15272682D01*
X24112060Y-15272685D01*
X24146871Y-15288917D01*
X24200156Y-15335834D01*
X24219617Y-15404111D01*
X24199075Y-15472071D01*
X24146871Y-15517307D01*
X24112311Y-15533422D01*
X24102815Y-15538905D01*
X23924355Y-15663864D01*
X23915947Y-15670920D01*
X23761906Y-15824961D01*
X23754850Y-15833369D01*
X23629891Y-16011829D01*
X23624408Y-16021325D01*
X23532332Y-16218783D01*
X23528586Y-16229075D01*
X23482428Y-16401339D01*
X23482764Y-16415435D01*
X23490706Y-16418836D01*
X26031789Y-16418836D01*
X26045320Y-16414863D01*
X26046549Y-16406314D01*
X25999058Y-16229075D01*
X25995312Y-16218783D01*
X25903236Y-16021325D01*
X25897753Y-16011829D01*
X25772794Y-15833369D01*
X25765738Y-15824961D01*
X25611697Y-15670920D01*
X25603289Y-15663864D01*
X25424829Y-15538905D01*
X25415333Y-15533422D01*
X25380773Y-15517307D01*
X25327488Y-15470390D01*
X25308027Y-15402113D01*
X25328569Y-15334153D01*
X25380773Y-15288917D01*
X25415584Y-15272685D01*
X25415589Y-15272682D01*
X25420571Y-15270359D01*
X25525433Y-15196934D01*
X25603611Y-15142193D01*
X25603614Y-15142191D01*
X25608122Y-15139034D01*
X25770020Y-14977136D01*
X25777795Y-14966033D01*
X25898188Y-14794093D01*
X25901345Y-14789585D01*
X25903668Y-14784603D01*
X25903671Y-14784598D01*
X25995783Y-14587061D01*
X25995783Y-14587060D01*
X25998106Y-14582079D01*
X26000791Y-14572061D01*
X26047067Y-14399358D01*
X31101095Y-14399358D01*
X31148586Y-14576597D01*
X31152332Y-14586889D01*
X31244408Y-14784347D01*
X31249891Y-14793843D01*
X31374850Y-14972303D01*
X31381906Y-14980711D01*
X31535947Y-15134752D01*
X31544355Y-15141808D01*
X31722815Y-15266767D01*
X31732311Y-15272250D01*
X31767463Y-15288641D01*
X31820748Y-15335558D01*
X31840209Y-15403835D01*
X31819667Y-15471795D01*
X31767463Y-15517031D01*
X31732311Y-15533422D01*
X31722815Y-15538905D01*
X31544355Y-15663864D01*
X31535947Y-15670920D01*
X31381906Y-15824961D01*
X31374850Y-15833369D01*
X31249891Y-16011829D01*
X31244408Y-16021325D01*
X31152332Y-16218783D01*
X31148586Y-16229075D01*
X31102428Y-16401339D01*
X31102764Y-16415435D01*
X31110706Y-16418836D01*
X32111707Y-16418836D01*
X32126946Y-16414361D01*
X32128151Y-16412971D01*
X32129822Y-16405288D01*
X32129822Y-14404951D01*
X32125347Y-14389712D01*
X32123957Y-14388507D01*
X32116274Y-14386836D01*
X31115855Y-14386836D01*
X31102324Y-14390809D01*
X31101095Y-14399358D01*
X26047067Y-14399358D01*
X26055941Y-14366238D01*
X26055941Y-14366236D01*
X26057365Y-14360923D01*
X26077320Y-14132836D01*
X26057365Y-13904749D01*
X26028965Y-13798758D01*
X25999529Y-13688903D01*
X25999528Y-13688901D01*
X25998106Y-13683593D01*
X25995783Y-13678611D01*
X25903671Y-13481074D01*
X25903668Y-13481069D01*
X25901345Y-13476087D01*
X25785841Y-13311130D01*
X25773179Y-13293047D01*
X25773177Y-13293044D01*
X25770020Y-13288536D01*
X25608122Y-13126638D01*
X25603614Y-13123481D01*
X25603611Y-13123479D01*
X25525433Y-13068738D01*
X25420571Y-12995313D01*
X25415589Y-12992990D01*
X25415584Y-12992987D01*
X25381365Y-12977031D01*
X25328080Y-12930114D01*
X25308619Y-12861837D01*
X25329161Y-12793877D01*
X25381365Y-12748641D01*
X25415584Y-12732685D01*
X25415589Y-12732682D01*
X25420571Y-12730359D01*
X25579839Y-12618838D01*
X25603611Y-12602193D01*
X25603614Y-12602191D01*
X25608122Y-12599034D01*
X25770020Y-12437136D01*
X25777795Y-12426033D01*
X25866048Y-12299994D01*
X25901345Y-12249585D01*
X25903668Y-12244603D01*
X25903671Y-12244598D01*
X25995783Y-12047061D01*
X25995783Y-12047060D01*
X25998106Y-12042079D01*
X26000791Y-12032061D01*
X26055941Y-11826238D01*
X26055942Y-11826234D01*
X26057365Y-11820923D01*
X26077320Y-11592836D01*
X26057365Y-11364749D01*
X26034605Y-11279809D01*
X25999529Y-11148903D01*
X25999528Y-11148901D01*
X25998106Y-11143593D01*
X25993588Y-11133903D01*
X25903671Y-10941074D01*
X25903668Y-10941069D01*
X25901345Y-10936087D01*
X25794386Y-10783334D01*
X25773179Y-10753047D01*
X25773177Y-10753044D01*
X25770020Y-10748536D01*
X25608122Y-10586638D01*
X25603614Y-10583481D01*
X25603611Y-10583479D01*
X25468909Y-10489160D01*
X25420571Y-10455313D01*
X25415589Y-10452990D01*
X25415584Y-10452987D01*
X25381365Y-10437031D01*
X25328080Y-10390114D01*
X25308619Y-10321837D01*
X25329161Y-10253877D01*
X25381365Y-10208641D01*
X25415584Y-10192685D01*
X25415589Y-10192682D01*
X25420571Y-10190359D01*
X25597657Y-10066362D01*
X25603611Y-10062193D01*
X25603614Y-10062191D01*
X25608122Y-10059034D01*
X25770020Y-9897136D01*
X25777795Y-9886033D01*
X25827920Y-9814447D01*
X25901345Y-9709585D01*
X25903668Y-9704603D01*
X25903671Y-9704598D01*
X25995783Y-9507061D01*
X25995783Y-9507060D01*
X25998106Y-9502079D01*
X26000791Y-9492061D01*
X26055941Y-9286238D01*
X26055941Y-9286236D01*
X26057365Y-9280923D01*
X26077320Y-9052836D01*
X26057365Y-8824749D01*
X25998106Y-8603593D01*
X25993387Y-8593473D01*
X25903671Y-8401074D01*
X25903668Y-8401069D01*
X25901345Y-8396087D01*
X25770020Y-8208536D01*
X25608122Y-8046638D01*
X25603614Y-8043481D01*
X25603611Y-8043479D01*
X25492688Y-7965810D01*
X25420571Y-7915313D01*
X25415589Y-7912990D01*
X25415584Y-7912987D01*
X25381365Y-7897031D01*
X25328080Y-7850114D01*
X25308619Y-7781837D01*
X25329161Y-7713877D01*
X25381365Y-7668641D01*
X25415584Y-7652685D01*
X25415589Y-7652682D01*
X25420571Y-7650359D01*
X25525433Y-7576934D01*
X25603611Y-7522193D01*
X25603614Y-7522191D01*
X25608122Y-7519034D01*
X25770020Y-7357136D01*
X25777795Y-7346033D01*
X25827920Y-7274447D01*
X25901345Y-7169585D01*
X25903668Y-7164603D01*
X25903671Y-7164598D01*
X25995783Y-6967061D01*
X25995783Y-6967060D01*
X25998106Y-6962079D01*
X26000791Y-6952061D01*
X26055941Y-6746238D01*
X26055941Y-6746236D01*
X26057365Y-6740923D01*
X26077320Y-6512836D01*
X26057365Y-6284749D01*
X26051922Y-6264434D01*
X25999529Y-6068903D01*
X25999528Y-6068901D01*
X25998106Y-6063593D01*
X25993588Y-6053903D01*
X25903671Y-5861074D01*
X25903668Y-5861069D01*
X25901345Y-5856087D01*
X25770020Y-5668536D01*
X25608122Y-5506638D01*
X25603614Y-5503481D01*
X25603611Y-5503479D01*
X25492688Y-5425810D01*
X25420571Y-5375313D01*
X25415589Y-5372990D01*
X25415584Y-5372987D01*
X25381365Y-5357031D01*
X25328080Y-5310114D01*
X25308619Y-5241837D01*
X25329161Y-5173877D01*
X25381365Y-5128641D01*
X25415584Y-5112685D01*
X25415589Y-5112682D01*
X25420571Y-5110359D01*
X25525433Y-5036934D01*
X25603611Y-4982193D01*
X25603614Y-4982191D01*
X25608122Y-4979034D01*
X25770020Y-4817136D01*
X25773537Y-4812114D01*
X25857173Y-4692669D01*
X25901345Y-4629585D01*
X25903668Y-4624603D01*
X25903671Y-4624598D01*
X25995783Y-4427061D01*
X25995783Y-4427060D01*
X25998106Y-4422079D01*
X26000791Y-4412061D01*
X26055941Y-4206238D01*
X26055941Y-4206236D01*
X26057365Y-4200923D01*
X26077320Y-3972836D01*
X26057365Y-3744749D01*
X26005401Y-3550818D01*
X25999529Y-3528903D01*
X25999528Y-3528901D01*
X25998106Y-3523593D01*
X25993588Y-3513903D01*
X25903671Y-3321074D01*
X25903668Y-3321069D01*
X25901345Y-3316087D01*
X25813126Y-3190098D01*
X25773179Y-3133047D01*
X25773177Y-3133044D01*
X25770020Y-3128536D01*
X25608122Y-2966638D01*
X25603614Y-2963481D01*
X25603611Y-2963479D01*
X25494933Y-2887382D01*
X25420571Y-2835313D01*
X25415589Y-2832990D01*
X25415584Y-2832987D01*
X25381365Y-2817031D01*
X25328080Y-2770114D01*
X25308619Y-2701837D01*
X25329161Y-2633877D01*
X25381365Y-2588641D01*
X25415584Y-2572685D01*
X25415589Y-2572682D01*
X25420571Y-2570359D01*
X25525433Y-2496934D01*
X25603611Y-2442193D01*
X25603614Y-2442191D01*
X25608122Y-2439034D01*
X25770020Y-2277136D01*
X25775016Y-2270002D01*
X25869941Y-2134434D01*
X25901345Y-2089585D01*
X25903668Y-2084603D01*
X25903671Y-2084598D01*
X25995783Y-1887061D01*
X25995783Y-1887060D01*
X25998106Y-1882079D01*
X26057365Y-1660923D01*
X26077320Y-1432836D01*
X26057365Y-1204749D01*
X25998106Y-983593D01*
X25979622Y-943954D01*
X25903671Y-781074D01*
X25903668Y-781069D01*
X25901345Y-776087D01*
X25770020Y-588536D01*
X25608122Y-426638D01*
X25603611Y-423479D01*
X25599398Y-419944D01*
X25600349Y-418810D01*
X25560351Y-368765D01*
X25553046Y-298146D01*
X25585080Y-234787D01*
X25646284Y-198806D01*
X25663339Y-195754D01*
X25674138Y-194581D01*
X25810527Y-143451D01*
X25927083Y-56097D01*
X26014437Y60459D01*
X26065567Y196848D01*
X26072322Y259030D01*
X26072322Y1955298D01*
X26065567Y2017480D01*
X26014437Y2153869D01*
X25927083Y2270425D01*
X25810527Y2357779D01*
X25674138Y2408909D01*
X25611956Y2415664D01*
X23915688Y2415664D01*
X23853506Y2408909D01*
X23717117Y2357779D01*
X23600561Y2270425D01*
X23513207Y2153869D01*
X23462077Y2017480D01*
X23455322Y1955298D01*
X23455322Y1866664D01*
X23435320Y1798543D01*
X23381664Y1752050D01*
X23329322Y1740664D01*
X23195089Y1740664D01*
X23183906Y1741191D01*
X23176413Y1742866D01*
X23168487Y1742617D01*
X23168486Y1742617D01*
X23108336Y1740726D01*
X23104377Y1740664D01*
X23076466Y1740664D01*
X23072532Y1740167D01*
X23072531Y1740167D01*
X23072466Y1740159D01*
X23060629Y1739226D01*
X23028812Y1738226D01*
X23024351Y1738086D01*
X23016432Y1737837D01*
X22998776Y1732708D01*
X22996980Y1732186D01*
X22977628Y1728178D01*
X22970557Y1727284D01*
X22957525Y1725638D01*
X22950156Y1722721D01*
X22950154Y1722720D01*
X22916419Y1709364D01*
X22905191Y1705519D01*
X22862729Y1693182D01*
X22855906Y1689147D01*
X22855904Y1689146D01*
X22845294Y1682871D01*
X22827546Y1674176D01*
X22808705Y1666716D01*
X22802289Y1662054D01*
X22802288Y1662054D01*
X22772935Y1640728D01*
X22763015Y1634212D01*
X22731787Y1615744D01*
X22731784Y1615742D01*
X22724960Y1611706D01*
X22710639Y1597385D01*
X22695606Y1584545D01*
X22679215Y1572636D01*
X22651024Y1538559D01*
X22643034Y1529780D01*
X22205823Y1092569D01*
X22143511Y1058543D01*
X22116728Y1055664D01*
X21543422Y1055664D01*
X21540176Y1055327D01*
X21540172Y1055327D01*
X21444514Y1045402D01*
X21444510Y1045401D01*
X21437656Y1044690D01*
X21431120Y1042509D01*
X21431118Y1042509D01*
X21309906Y1002069D01*
X21269876Y988714D01*
X21119474Y895642D01*
X21042398Y818431D01*
X21033038Y809055D01*
X20970756Y774976D01*
X20899936Y779979D01*
X20854847Y808900D01*
X20772305Y891298D01*
X20767125Y896469D01*
X20655682Y965164D01*
X20622790Y985439D01*
X20622788Y985440D01*
X20616560Y989279D01*
X20456076Y1042509D01*
X20455211Y1042796D01*
X20455209Y1042796D01*
X20448683Y1044961D01*
X20441847Y1045661D01*
X20441844Y1045662D01*
X20398791Y1050073D01*
X20344222Y1055664D01*
X19718422Y1055664D01*
X19715176Y1055327D01*
X19715172Y1055327D01*
X19619514Y1045402D01*
X19619510Y1045401D01*
X19612656Y1044690D01*
X19606120Y1042509D01*
X19606118Y1042509D01*
X19484906Y1002069D01*
X19444876Y988714D01*
X19294474Y895642D01*
X19169517Y770467D01*
X19165677Y764237D01*
X19165676Y764236D01*
X19088037Y638282D01*
X19076707Y619902D01*
X19070426Y600964D01*
X19059159Y566996D01*
X19018728Y508637D01*
X18953164Y481400D01*
X18939566Y480664D01*
X17842022Y480664D01*
X17773901Y500666D01*
X17754675Y517007D01*
X17754402Y516704D01*
X17749490Y521127D01*
X17745075Y526030D01*
X17641938Y600964D01*
X17595916Y634401D01*
X17595915Y634402D01*
X17590574Y638282D01*
X17584546Y640966D01*
X17584544Y640967D01*
X17422141Y713273D01*
X17422140Y713273D01*
X17416110Y715958D01*
X17322709Y735811D01*
X17235766Y754292D01*
X17235761Y754292D01*
X17229309Y755664D01*
X17038335Y755664D01*
X17031883Y754292D01*
X17031878Y754292D01*
X16944935Y735811D01*
X16851534Y715958D01*
X16845504Y713273D01*
X16845503Y713273D01*
X16683100Y640967D01*
X16683098Y640966D01*
X16677070Y638282D01*
X16671729Y634402D01*
X16671728Y634401D01*
X16625706Y600964D01*
X16522569Y526030D01*
X16518148Y521120D01*
X16518147Y521119D01*
X16401413Y391472D01*
X16394782Y384108D01*
X16299295Y218720D01*
X16240280Y37092D01*
X16239590Y30531D01*
X16239590Y30529D01*
X16226338Y-95558D01*
X16220318Y-152836D01*
X16221008Y-159401D01*
X16235625Y-298470D01*
X16240280Y-342764D01*
X16299295Y-524392D01*
X16394782Y-689780D01*
X16399200Y-694687D01*
X16399201Y-694688D01*
X16499731Y-806338D01*
X16522569Y-831702D01*
X16578666Y-872459D01*
X16642211Y-918627D01*
X16677070Y-943954D01*
X16683098Y-946638D01*
X16683100Y-946639D01*
X16845503Y-1018945D01*
X16851534Y-1021630D01*
X16944935Y-1041483D01*
X17031878Y-1059964D01*
X17031883Y-1059964D01*
X17038335Y-1061336D01*
X17229309Y-1061336D01*
X17235761Y-1059964D01*
X17235766Y-1059964D01*
X17322709Y-1041483D01*
X17416110Y-1021630D01*
X17422141Y-1018945D01*
X17584544Y-946639D01*
X17584546Y-946638D01*
X17590574Y-943954D01*
X17625434Y-918627D01*
X17723493Y-847382D01*
X17745075Y-831702D01*
X17749490Y-826799D01*
X17754402Y-822376D01*
X17755527Y-823625D01*
X17808836Y-790785D01*
X17842022Y-786336D01*
X18939625Y-786336D01*
X19007746Y-806338D01*
X19054239Y-859994D01*
X19059148Y-872459D01*
X19077272Y-926782D01*
X19170344Y-1077184D01*
X19295519Y-1202141D01*
X19301750Y-1205982D01*
X19301753Y-1205984D01*
X19337939Y-1228290D01*
X19385432Y-1281062D01*
X19397822Y-1335549D01*
X19397822Y-2780202D01*
X19377820Y-2848323D01*
X19338126Y-2887345D01*
X19294474Y-2914358D01*
X19169517Y-3039533D01*
X19165677Y-3045763D01*
X19165676Y-3045764D01*
X19087505Y-3172581D01*
X19076707Y-3190098D01*
X19074403Y-3197045D01*
X19025855Y-3343414D01*
X19021025Y-3357975D01*
X19020325Y-3364811D01*
X19020324Y-3364814D01*
X19017676Y-3390662D01*
X19010322Y-3462436D01*
X19010322Y-4463236D01*
X19021296Y-4569002D01*
X19023477Y-4575538D01*
X19023477Y-4575540D01*
X19033997Y-4607072D01*
X19077272Y-4736782D01*
X19170344Y-4887184D01*
X19295519Y-5012141D01*
X19301749Y-5015981D01*
X19301750Y-5015982D01*
X19438912Y-5100530D01*
X19446084Y-5104951D01*
X19472284Y-5113641D01*
X19607433Y-5158468D01*
X19607435Y-5158468D01*
X19613961Y-5160633D01*
X19620797Y-5161333D01*
X19620800Y-5161334D01*
X19663853Y-5165745D01*
X19718422Y-5171336D01*
X20344222Y-5171336D01*
X20347468Y-5170999D01*
X20347472Y-5170999D01*
X20443130Y-5161074D01*
X20443134Y-5161073D01*
X20449988Y-5160362D01*
X20456524Y-5158181D01*
X20456526Y-5158181D01*
X20599865Y-5110359D01*
X20617768Y-5104386D01*
X20768170Y-5011314D01*
X20854606Y-4924727D01*
X20916888Y-4890648D01*
X20987708Y-4895651D01*
X21032797Y-4924572D01*
X21080724Y-4972415D01*
X21120519Y-5012141D01*
X21126749Y-5015981D01*
X21126750Y-5015982D01*
X21263912Y-5100530D01*
X21271084Y-5104951D01*
X21297284Y-5113641D01*
X21432433Y-5158468D01*
X21432435Y-5158468D01*
X21438961Y-5160633D01*
X21445797Y-5161333D01*
X21445800Y-5161334D01*
X21488853Y-5165745D01*
X21543422Y-5171336D01*
X22169222Y-5171336D01*
X22172468Y-5170999D01*
X22172472Y-5170999D01*
X22268130Y-5161074D01*
X22268134Y-5161073D01*
X22274988Y-5160362D01*
X22281524Y-5158181D01*
X22281526Y-5158181D01*
X22424865Y-5110359D01*
X22442768Y-5104386D01*
X22593170Y-5011314D01*
X22718127Y-4886139D01*
X22724654Y-4875551D01*
X22807097Y-4741804D01*
X22807098Y-4741802D01*
X22810937Y-4735574D01*
X22825168Y-4692669D01*
X22865599Y-4634309D01*
X22931163Y-4607072D01*
X22944761Y-4606336D01*
X23544428Y-4606336D01*
X23612549Y-4626338D01*
X23647641Y-4660065D01*
X23754465Y-4812625D01*
X23757624Y-4817136D01*
X23919522Y-4979034D01*
X23924030Y-4982191D01*
X23924033Y-4982193D01*
X24002211Y-5036934D01*
X24107073Y-5110359D01*
X24112055Y-5112682D01*
X24112060Y-5112685D01*
X24146279Y-5128641D01*
X24199564Y-5175558D01*
X24219025Y-5243835D01*
X24198483Y-5311795D01*
X24146279Y-5357031D01*
X24112060Y-5372987D01*
X24112055Y-5372990D01*
X24107073Y-5375313D01*
X24034956Y-5425810D01*
X23924033Y-5503479D01*
X23924030Y-5503481D01*
X23919522Y-5506638D01*
X23757624Y-5668536D01*
X23626299Y-5856087D01*
X23623976Y-5861069D01*
X23623973Y-5861074D01*
X23534056Y-6053903D01*
X23529538Y-6063593D01*
X23528116Y-6068901D01*
X23528115Y-6068903D01*
X23475722Y-6264434D01*
X23470279Y-6284749D01*
X23450324Y-6512836D01*
X23470279Y-6740923D01*
X23471703Y-6746236D01*
X23471703Y-6746238D01*
X23526854Y-6952061D01*
X23529538Y-6962079D01*
X23531861Y-6967060D01*
X23531861Y-6967061D01*
X23623973Y-7164598D01*
X23623976Y-7164603D01*
X23626299Y-7169585D01*
X23699724Y-7274447D01*
X23749850Y-7346033D01*
X23757624Y-7357136D01*
X23919522Y-7519034D01*
X23924030Y-7522191D01*
X23924033Y-7522193D01*
X24002211Y-7576934D01*
X24107073Y-7650359D01*
X24112055Y-7652682D01*
X24112060Y-7652685D01*
X24146279Y-7668641D01*
X24199564Y-7715558D01*
X24219025Y-7783835D01*
X24198483Y-7851795D01*
X24146279Y-7897031D01*
X24112060Y-7912987D01*
X24112055Y-7912990D01*
X24107073Y-7915313D01*
X24034956Y-7965810D01*
X23924033Y-8043479D01*
X23924030Y-8043481D01*
X23919522Y-8046638D01*
X23757624Y-8208536D01*
X23754467Y-8213044D01*
X23754465Y-8213047D01*
X23647641Y-8365607D01*
X23592184Y-8409935D01*
X23544428Y-8419336D01*
X10075927Y-8419336D01*
X10064743Y-8418809D01*
X10057255Y-8417135D01*
X10049332Y-8417384D01*
X9989197Y-8419274D01*
X9985239Y-8419336D01*
X9957308Y-8419336D01*
X9953393Y-8419831D01*
X9953389Y-8419831D01*
X9953331Y-8419839D01*
X9953302Y-8419842D01*
X9941460Y-8420775D01*
X9897274Y-8422163D01*
X9879908Y-8427208D01*
X9877822Y-8427814D01*
X9858470Y-8431822D01*
X9846232Y-8433368D01*
X9846230Y-8433369D01*
X9838367Y-8434362D01*
X9797250Y-8450642D01*
X9786049Y-8454477D01*
X9743570Y-8466818D01*
X9736751Y-8470851D01*
X9736746Y-8470853D01*
X9726135Y-8477129D01*
X9708385Y-8485826D01*
X9689547Y-8493284D01*
X9683131Y-8497945D01*
X9683130Y-8497946D01*
X9653789Y-8519264D01*
X9643865Y-8525783D01*
X9612624Y-8544258D01*
X9612619Y-8544262D01*
X9605801Y-8548294D01*
X9591477Y-8562618D01*
X9576445Y-8575457D01*
X9560057Y-8587364D01*
X9531876Y-8621429D01*
X9523886Y-8630209D01*
X-3828332Y-21982427D01*
X-3836618Y-21989967D01*
X-3843097Y-21994079D01*
X-3848522Y-21999856D01*
X-3889722Y-22043730D01*
X-3892477Y-22046572D01*
X-3912214Y-22066309D01*
X-3914694Y-22069506D01*
X-3922397Y-22078526D01*
X-3952665Y-22110758D01*
X-3956484Y-22117704D01*
X-3956486Y-22117707D01*
X-3962427Y-22128513D01*
X-3973278Y-22145032D01*
X-3985693Y-22161038D01*
X-3988838Y-22168307D01*
X-3988841Y-22168311D01*
X-4003253Y-22201616D01*
X-4008470Y-22212266D01*
X-4029774Y-22251019D01*
X-4031745Y-22258694D01*
X-4031745Y-22258695D01*
X-4034812Y-22270641D01*
X-4041216Y-22289345D01*
X-4049260Y-22307934D01*
X-4050499Y-22315757D01*
X-4050502Y-22315767D01*
X-4056178Y-22351603D01*
X-4058584Y-22363223D01*
X-4069579Y-22406049D01*
X-4069579Y-22426303D01*
X-4071130Y-22446013D01*
X-4074299Y-22466022D01*
X-4071510Y-22495521D01*
X-4070138Y-22510040D01*
X-4069579Y-22521898D01*
X-4069579Y-29282283D01*
X-4089581Y-29350404D01*
X-4143237Y-29396897D01*
X-4213511Y-29407001D01*
X-4237638Y-29401056D01*
X-4363087Y-29356632D01*
X-4363095Y-29356630D01*
X-4367966Y-29354905D01*
X-4373059Y-29353998D01*
X-4373062Y-29353997D01*
X-4582805Y-29316636D01*
X-4582811Y-29316635D01*
X-4587894Y-29315730D01*
X-4661726Y-29314828D01*
X-4806097Y-29313064D01*
X-4806099Y-29313064D01*
X-4811267Y-29313001D01*
X-5032087Y-29346791D01*
X-5244422Y-29416193D01*
X-5321325Y-29456226D01*
X-5418203Y-29506658D01*
X-5442571Y-29519343D01*
X-5446704Y-29522446D01*
X-5446707Y-29522448D01*
X-5617078Y-29650366D01*
X-5621213Y-29653471D01*
X-5775549Y-29814974D01*
X-5882977Y-29972457D01*
X-5937885Y-30017457D01*
X-6008410Y-30025628D01*
X-6072157Y-29994374D01*
X-6092854Y-29969890D01*
X-6173356Y-29845453D01*
X-6173358Y-29845450D01*
X-6176164Y-29841113D01*
X-6326508Y-29675887D01*
X-6330559Y-29672688D01*
X-6330563Y-29672684D01*
X-6497764Y-29540636D01*
X-6497768Y-29540634D01*
X-6501819Y-29537434D01*
X-6506347Y-29534934D01*
X-6557570Y-29506658D01*
X-6697389Y-29429474D01*
X-6702258Y-29427750D01*
X-6702262Y-29427748D01*
X-6903091Y-29356631D01*
X-6903095Y-29356630D01*
X-6907966Y-29354905D01*
X-6913059Y-29353998D01*
X-6913062Y-29353997D01*
X-7122805Y-29316636D01*
X-7122811Y-29316635D01*
X-7127894Y-29315730D01*
X-7201726Y-29314828D01*
X-7346097Y-29313064D01*
X-7346099Y-29313064D01*
X-7351267Y-29313001D01*
X-7572087Y-29346791D01*
X-7784422Y-29416193D01*
X-7861325Y-29456226D01*
X-7958203Y-29506658D01*
X-7982571Y-29519343D01*
X-7986704Y-29522446D01*
X-7986707Y-29522448D01*
X-8157078Y-29650366D01*
X-8161213Y-29653471D01*
X-8315549Y-29814974D01*
X-8318458Y-29819239D01*
X-8318464Y-29819247D01*
X-8320396Y-29822079D01*
X-8422974Y-29972454D01*
X-8423280Y-29972902D01*
X-8478191Y-30017905D01*
X-8548716Y-30026076D01*
X-8612463Y-29994822D01*
X-8633160Y-29970338D01*
X-8713752Y-29845762D01*
X-8720042Y-29837593D01*
X-8863372Y-29680076D01*
X-8870905Y-29673051D01*
X-9038039Y-29541058D01*
X-9046626Y-29535353D01*
X-9233061Y-29432435D01*
X-9242473Y-29428205D01*
X-9443219Y-29357116D01*
X-9453190Y-29354482D01*
X-9524341Y-29341808D01*
X-9537638Y-29343268D01*
X-9542178Y-29357825D01*
X-9542178Y-34552720D01*
X-10050178Y-34552720D01*
X-10050178Y-33484951D01*
X-10054653Y-33469712D01*
X-10056043Y-33468507D01*
X-10063726Y-33466836D01*
X-11136062Y-33466836D01*
X-11151301Y-33471311D01*
X-11152506Y-33472701D01*
X-11154177Y-33480384D01*
X-11154177Y-34107505D01*
X-23308178Y-34107505D01*
X-23308178Y-32940721D01*
X-11154178Y-32940721D01*
X-11149703Y-32955960D01*
X-11148313Y-32957165D01*
X-11140630Y-32958836D01*
X-10068293Y-32958836D01*
X-10053054Y-32954361D01*
X-10051849Y-32952971D01*
X-10050178Y-32945288D01*
X-10050178Y-30944951D01*
X-10054653Y-30929712D01*
X-10056043Y-30928507D01*
X-10063726Y-30926836D01*
X-11112953Y-30926836D01*
X-11126484Y-30930809D01*
X-11127921Y-30940802D01*
X-11097613Y-31075282D01*
X-11094533Y-31085111D01*
X-11014408Y-31282439D01*
X-11009765Y-31291630D01*
X-10898484Y-31473224D01*
X-10892401Y-31481535D01*
X-10752965Y-31642503D01*
X-10745600Y-31649717D01*
X-10740212Y-31654190D01*
X-10700579Y-31713094D01*
X-10699083Y-31784075D01*
X-10736200Y-31844597D01*
X-10776471Y-31869114D01*
X-10884230Y-31909511D01*
X-10899827Y-31918050D01*
X-11001902Y-31994551D01*
X-11014463Y-32007112D01*
X-11090964Y-32109187D01*
X-11099502Y-32124782D01*
X-11144656Y-32245230D01*
X-11148283Y-32260485D01*
X-11153809Y-32311350D01*
X-11154178Y-32318164D01*
X-11154178Y-32940721D01*
X-23308178Y-32940721D01*
X-23308178Y-30407019D01*
X-11131789Y-30407019D01*
X-11130266Y-30415443D01*
X-11117886Y-30418836D01*
X-10068293Y-30418836D01*
X-10053054Y-30414361D01*
X-10051849Y-30412971D01*
X-10050178Y-30405288D01*
X-10050178Y-29355938D01*
X-10054096Y-29342594D01*
X-10068372Y-29340607D01*
X-10106854Y-29346496D01*
X-10116890Y-29348887D01*
X-10319310Y-29415048D01*
X-10328819Y-29419045D01*
X-10517715Y-29517378D01*
X-10526440Y-29522872D01*
X-10696745Y-29650741D01*
X-10704452Y-29657584D01*
X-10851588Y-29811553D01*
X-10858074Y-29819563D01*
X-10978080Y-29995485D01*
X-10983178Y-30004459D01*
X-11072840Y-30197619D01*
X-11076403Y-30207306D01*
X-11131789Y-30407019D01*
X-23308178Y-30407019D01*
X-23308178Y11603164D01*
X-23288176Y11671285D01*
X-23234520Y11717778D01*
X-23182178Y11729164D01*
X53549822Y11729164D01*
X53617943Y11709162D01*
G37*
%TD.AperFunction*%
%TA.AperFunction,Conductor*%
G36*
X32787198Y-33180118D02*
G01*
X32845994Y-33219912D01*
X32873942Y-33285176D01*
X32874833Y-33300135D01*
X32874833Y-39343730D01*
X32854831Y-39411851D01*
X32837928Y-39432826D01*
X32148321Y-40122432D01*
X32086009Y-40156457D01*
X32059226Y-40159336D01*
X25059976Y-40159336D01*
X25048793Y-40158809D01*
X25041300Y-40157134D01*
X25033374Y-40157383D01*
X25033373Y-40157383D01*
X24973223Y-40159274D01*
X24969264Y-40159336D01*
X24941353Y-40159336D01*
X24937419Y-40159833D01*
X24937418Y-40159833D01*
X24937353Y-40159841D01*
X24925516Y-40160774D01*
X24893699Y-40161774D01*
X24889238Y-40161914D01*
X24881319Y-40162163D01*
X24863663Y-40167292D01*
X24861867Y-40167814D01*
X24842515Y-40171822D01*
X24835444Y-40172716D01*
X24822412Y-40174362D01*
X24815043Y-40177279D01*
X24815041Y-40177280D01*
X24781306Y-40190636D01*
X24770078Y-40194481D01*
X24727616Y-40206818D01*
X24720794Y-40210852D01*
X24720788Y-40210855D01*
X24710177Y-40217130D01*
X24692427Y-40225826D01*
X24680965Y-40230364D01*
X24680960Y-40230367D01*
X24673592Y-40233284D01*
X24667177Y-40237945D01*
X24637834Y-40259263D01*
X24627916Y-40265779D01*
X24609228Y-40276831D01*
X24589846Y-40288294D01*
X24575522Y-40302618D01*
X24560490Y-40315457D01*
X24544102Y-40327364D01*
X24515921Y-40361429D01*
X24507931Y-40370209D01*
X23120585Y-41757555D01*
X23112299Y-41765095D01*
X23105820Y-41769207D01*
X23100395Y-41774984D01*
X23059195Y-41818858D01*
X23056440Y-41821700D01*
X23036703Y-41841437D01*
X23034223Y-41844634D01*
X23026520Y-41853654D01*
X22996252Y-41885886D01*
X22992433Y-41892832D01*
X22992431Y-41892835D01*
X22986490Y-41903641D01*
X22975639Y-41920160D01*
X22963224Y-41936166D01*
X22960079Y-41943435D01*
X22960076Y-41943439D01*
X22945664Y-41976744D01*
X22940447Y-41987394D01*
X22919143Y-42026147D01*
X22917172Y-42033822D01*
X22917172Y-42033823D01*
X22914105Y-42045769D01*
X22907701Y-42064473D01*
X22899657Y-42083062D01*
X22898418Y-42090885D01*
X22898415Y-42090895D01*
X22892739Y-42126731D01*
X22890333Y-42138351D01*
X22879338Y-42181177D01*
X22879338Y-42201431D01*
X22877787Y-42221141D01*
X22874618Y-42241150D01*
X22875364Y-42249042D01*
X22878779Y-42285168D01*
X22879338Y-42297026D01*
X22879338Y-42849107D01*
X22859336Y-42917228D01*
X22811521Y-42960868D01*
X22786445Y-42973922D01*
X22782312Y-42977025D01*
X22782309Y-42977027D01*
X22624819Y-43095274D01*
X22607803Y-43108050D01*
X22453467Y-43269553D01*
X22346039Y-43427036D01*
X22291131Y-43472036D01*
X22220606Y-43480207D01*
X22156859Y-43448953D01*
X22136162Y-43424469D01*
X22055660Y-43300032D01*
X22055658Y-43300029D01*
X22052852Y-43295692D01*
X21902508Y-43130466D01*
X21898457Y-43127267D01*
X21898453Y-43127263D01*
X21731252Y-42995215D01*
X21731248Y-42995213D01*
X21727197Y-42992013D01*
X21722673Y-42989516D01*
X21722669Y-42989513D01*
X21671446Y-42961237D01*
X21621474Y-42910805D01*
X21606338Y-42850928D01*
X21606338Y-37595515D01*
X24241073Y-37595515D01*
X24253932Y-37818535D01*
X24255069Y-37823581D01*
X24255070Y-37823587D01*
X24269428Y-37887295D01*
X24303044Y-38036459D01*
X24387088Y-38243436D01*
X24438764Y-38327764D01*
X24501113Y-38429508D01*
X24503809Y-38433908D01*
X24650072Y-38602758D01*
X24821948Y-38745452D01*
X25014822Y-38858158D01*
X25223514Y-38937850D01*
X25228582Y-38938881D01*
X25228585Y-38938882D01*
X25329342Y-38959381D01*
X25442419Y-38982387D01*
X25447594Y-38982577D01*
X25447596Y-38982577D01*
X25660495Y-38990384D01*
X25660499Y-38990384D01*
X25665659Y-38990573D01*
X25670779Y-38989917D01*
X25670781Y-38989917D01*
X25882110Y-38962845D01*
X25882111Y-38962845D01*
X25887238Y-38962188D01*
X25896594Y-38959381D01*
X26096251Y-38899481D01*
X26096256Y-38899479D01*
X26101206Y-38897994D01*
X26301816Y-38799716D01*
X26483682Y-38669993D01*
X26641918Y-38512309D01*
X26701416Y-38429509D01*
X26772275Y-38330897D01*
X26773598Y-38331848D01*
X26820467Y-38288677D01*
X26890402Y-38276445D01*
X26955848Y-38303964D01*
X26983697Y-38335814D01*
X27043809Y-38433908D01*
X27190072Y-38602758D01*
X27361948Y-38745452D01*
X27554822Y-38858158D01*
X27763514Y-38937850D01*
X27768582Y-38938881D01*
X27768585Y-38938882D01*
X27869342Y-38959381D01*
X27982419Y-38982387D01*
X27987594Y-38982577D01*
X27987596Y-38982577D01*
X28200495Y-38990384D01*
X28200499Y-38990384D01*
X28205659Y-38990573D01*
X28210779Y-38989917D01*
X28210781Y-38989917D01*
X28422110Y-38962845D01*
X28422111Y-38962845D01*
X28427238Y-38962188D01*
X28436594Y-38959381D01*
X28636251Y-38899481D01*
X28636256Y-38899479D01*
X28641206Y-38897994D01*
X28841816Y-38799716D01*
X29023682Y-38669993D01*
X29091153Y-38602758D01*
X29132301Y-38561753D01*
X29194673Y-38527837D01*
X29265480Y-38533025D01*
X29322241Y-38575671D01*
X29339223Y-38606774D01*
X29380498Y-38716874D01*
X29389036Y-38732469D01*
X29465537Y-38834544D01*
X29478098Y-38847105D01*
X29580173Y-38923606D01*
X29595768Y-38932144D01*
X29716216Y-38977298D01*
X29731471Y-38980925D01*
X29782336Y-38986451D01*
X29789150Y-38986820D01*
X30411707Y-38986820D01*
X30426946Y-38982345D01*
X30428151Y-38980955D01*
X30429822Y-38973272D01*
X30429822Y-38968704D01*
X30937822Y-38968704D01*
X30942297Y-38983943D01*
X30943687Y-38985148D01*
X30951370Y-38986819D01*
X31578491Y-38986819D01*
X31585312Y-38986449D01*
X31636174Y-38980925D01*
X31651426Y-38977299D01*
X31771876Y-38932144D01*
X31787471Y-38923606D01*
X31889546Y-38847105D01*
X31902107Y-38834544D01*
X31978608Y-38732469D01*
X31987146Y-38716874D01*
X32032300Y-38596426D01*
X32035927Y-38581171D01*
X32041453Y-38530306D01*
X32041822Y-38523492D01*
X32041822Y-37900935D01*
X32037347Y-37885696D01*
X32035957Y-37884491D01*
X32028274Y-37882820D01*
X30955937Y-37882820D01*
X30940698Y-37887295D01*
X30939493Y-37888685D01*
X30937822Y-37896368D01*
X30937822Y-38968704D01*
X30429822Y-38968704D01*
X30429822Y-37356705D01*
X30937822Y-37356705D01*
X30942297Y-37371944D01*
X30943687Y-37373149D01*
X30951370Y-37374820D01*
X32023706Y-37374820D01*
X32038945Y-37370345D01*
X32040150Y-37368955D01*
X32041821Y-37361272D01*
X32041821Y-36734151D01*
X32041451Y-36727330D01*
X32035927Y-36676468D01*
X32032301Y-36661216D01*
X31987146Y-36540766D01*
X31978608Y-36525171D01*
X31902107Y-36423096D01*
X31889546Y-36410535D01*
X31787471Y-36334034D01*
X31771876Y-36325496D01*
X31651428Y-36280342D01*
X31636173Y-36276715D01*
X31585308Y-36271189D01*
X31578494Y-36270820D01*
X30955937Y-36270820D01*
X30940698Y-36275295D01*
X30939493Y-36276685D01*
X30937822Y-36284368D01*
X30937822Y-37356705D01*
X30429822Y-37356705D01*
X30429822Y-36288936D01*
X30425347Y-36273697D01*
X30423957Y-36272492D01*
X30416274Y-36270821D01*
X29789153Y-36270821D01*
X29782332Y-36271191D01*
X29731470Y-36276715D01*
X29716218Y-36280341D01*
X29595768Y-36325496D01*
X29580173Y-36334034D01*
X29478098Y-36410535D01*
X29465537Y-36423096D01*
X29389036Y-36525171D01*
X29380498Y-36540766D01*
X29339119Y-36651142D01*
X29296477Y-36707907D01*
X29229915Y-36732606D01*
X29160566Y-36717398D01*
X29127943Y-36691711D01*
X29076973Y-36635696D01*
X29076967Y-36635690D01*
X29073492Y-36631871D01*
X29069441Y-36628672D01*
X29069437Y-36628668D01*
X28902236Y-36496620D01*
X28902232Y-36496618D01*
X28898181Y-36493418D01*
X28702611Y-36385458D01*
X28697742Y-36383734D01*
X28697738Y-36383732D01*
X28496909Y-36312615D01*
X28496905Y-36312614D01*
X28492034Y-36310889D01*
X28486941Y-36309982D01*
X28486938Y-36309981D01*
X28277195Y-36272620D01*
X28277189Y-36272619D01*
X28272106Y-36271714D01*
X28198274Y-36270812D01*
X28053903Y-36269048D01*
X28053901Y-36269048D01*
X28048733Y-36268985D01*
X27827913Y-36302775D01*
X27615578Y-36372177D01*
X27585265Y-36387957D01*
X27443376Y-36461820D01*
X27417429Y-36475327D01*
X27413296Y-36478430D01*
X27413293Y-36478432D01*
X27270761Y-36585448D01*
X27238787Y-36609455D01*
X27213370Y-36636052D01*
X27106404Y-36747986D01*
X27084451Y-36770958D01*
X26977023Y-36928441D01*
X26922115Y-36973441D01*
X26851590Y-36981612D01*
X26787843Y-36950358D01*
X26767146Y-36925874D01*
X26686644Y-36801437D01*
X26686642Y-36801434D01*
X26683836Y-36797097D01*
X26533492Y-36631871D01*
X26529441Y-36628672D01*
X26529437Y-36628668D01*
X26362236Y-36496620D01*
X26362232Y-36496618D01*
X26358181Y-36493418D01*
X26162611Y-36385458D01*
X26157742Y-36383734D01*
X26157738Y-36383732D01*
X25956909Y-36312615D01*
X25956905Y-36312614D01*
X25952034Y-36310889D01*
X25946941Y-36309982D01*
X25946938Y-36309981D01*
X25737195Y-36272620D01*
X25737189Y-36272619D01*
X25732106Y-36271714D01*
X25658274Y-36270812D01*
X25513903Y-36269048D01*
X25513901Y-36269048D01*
X25508733Y-36268985D01*
X25287913Y-36302775D01*
X25075578Y-36372177D01*
X25045265Y-36387957D01*
X24903376Y-36461820D01*
X24877429Y-36475327D01*
X24873296Y-36478430D01*
X24873293Y-36478432D01*
X24730761Y-36585448D01*
X24698787Y-36609455D01*
X24673370Y-36636052D01*
X24566404Y-36747986D01*
X24544451Y-36770958D01*
X24418565Y-36955500D01*
X24324510Y-37158125D01*
X24264811Y-37373390D01*
X24241073Y-37595515D01*
X21606338Y-37595515D01*
X21606338Y-37268414D01*
X21626340Y-37200293D01*
X21643243Y-37179319D01*
X23709321Y-35113241D01*
X23771633Y-35079215D01*
X23798416Y-35076336D01*
X29775055Y-35076336D01*
X29786238Y-35076863D01*
X29793731Y-35078538D01*
X29801657Y-35078289D01*
X29801658Y-35078289D01*
X29861808Y-35076398D01*
X29865767Y-35076336D01*
X29893678Y-35076336D01*
X29897613Y-35075839D01*
X29897678Y-35075831D01*
X29909515Y-35074898D01*
X29941773Y-35073884D01*
X29945792Y-35073758D01*
X29953711Y-35073509D01*
X29973165Y-35067857D01*
X29992522Y-35063849D01*
X30004752Y-35062304D01*
X30004753Y-35062304D01*
X30012619Y-35061310D01*
X30019990Y-35058391D01*
X30019992Y-35058391D01*
X30053734Y-35045032D01*
X30064964Y-35041187D01*
X30099805Y-35031065D01*
X30099806Y-35031065D01*
X30107415Y-35028854D01*
X30114234Y-35024821D01*
X30114239Y-35024819D01*
X30124850Y-35018543D01*
X30142598Y-35009848D01*
X30161439Y-35002388D01*
X30197209Y-34976400D01*
X30207129Y-34969884D01*
X30238357Y-34951416D01*
X30238360Y-34951414D01*
X30245184Y-34947378D01*
X30259505Y-34933057D01*
X30274539Y-34920216D01*
X30284516Y-34912967D01*
X30290929Y-34908308D01*
X30319120Y-34874231D01*
X30327110Y-34865452D01*
X31970574Y-33221988D01*
X32032886Y-33187962D01*
X32092281Y-33189377D01*
X32150413Y-33204954D01*
X32150424Y-33204956D01*
X32155735Y-33206379D01*
X32383822Y-33226334D01*
X32611909Y-33206379D01*
X32716223Y-33178428D01*
X32787198Y-33180118D01*
G37*
%TD.AperFunction*%
%TD*%
M02*
